<?xml version="1.0" encoding="utf-8" standalone="no"?>
<!DOCTYPE svg PUBLIC "-//W3C//DTD SVG 1.1//EN"
  "http://www.w3.org/Graphics/SVG/1.1/DTD/svg11.dtd">
<svg xmlns:xlink="http://www.w3.org/1999/xlink" width="720pt" height="252pt" viewBox="0 0 720 252" xmlns="http://www.w3.org/2000/svg" version="1.1">
 <metadata>
  <rdf:RDF xmlns:dc="http://purl.org/dc/elements/1.1/" xmlns:cc="http://creativecommons.org/ns#" xmlns:rdf="http://www.w3.org/1999/02/22-rdf-syntax-ns#">
   <cc:Work>
    <dc:type rdf:resource="http://purl.org/dc/dcmitype/StillImage"/>
    <dc:date>2022-07-25T17:54:06.741253</dc:date>
    <dc:format>image/svg+xml</dc:format>
    <dc:creator>
     <cc:Agent>
      <dc:title>Matplotlib v3.5.2, https://matplotlib.org/</dc:title>
     </cc:Agent>
    </dc:creator>
   </cc:Work>
  </rdf:RDF>
 </metadata>
 <defs>
  <style type="text/css">*{stroke-linejoin: round; stroke-linecap: butt}</style>
 </defs>
 <g id="figure_1">
  <g id="patch_1">
   <path d="M 0 252 
L 720 252 
L 720 0 
L 0 0 
z
" style="fill: #ffffff"/>
  </g>
  <g id="axes_1">
   <g id="patch_2">
    <path d="M 90 224.28 
L 343.636364 224.28 
L 343.636364 30.24 
L 90 30.24 
z
" style="fill: #ffffff"/>
   </g>
   <g id="matplotlib.axis_1">
    <g id="xtick_1">
     <g id="line2d_1">
      <defs>
       <path id="m551822bb32" d="M 0 0 
L 0 3.5 
" style="stroke: #000000; stroke-width: 0.8"/>
      </defs>
      <g>
       <use xlink:href="#m551822bb32" x="101.528926" y="224.28" style="stroke: #000000; stroke-width: 0.8"/>
      </g>
     </g>
     <g id="text_1">
      <!-- $\mathdefault{0}$ -->
      <g transform="translate(99.038258 238.198498)scale(0.1 -0.1)">
       <defs>
        <path id="CMR17-30" d="M 2688 2025 
C 2688 2416 2682 3080 2413 3591 
C 2176 4039 1798 4198 1466 4198 
C 1158 4198 768 4058 525 3597 
C 269 3118 243 2524 243 2025 
C 243 1661 250 1106 448 619 
C 723 -39 1216 -128 1466 -128 
C 1760 -128 2208 -7 2470 600 
C 2662 1042 2688 1559 2688 2025 
z
M 1466 -26 
C 1056 -26 813 325 723 812 
C 653 1188 653 1738 653 2096 
C 653 2588 653 2997 736 3387 
C 858 3929 1216 4096 1466 4096 
C 1728 4096 2067 3923 2189 3400 
C 2272 3036 2278 2607 2278 2096 
C 2278 1680 2278 1169 2202 792 
C 2067 95 1690 -26 1466 -26 
z
" transform="scale(0.015625)"/>
       </defs>
       <use xlink:href="#CMR17-30" transform="scale(0.996264)"/>
      </g>
     </g>
    </g>
    <g id="xtick_2">
     <g id="line2d_2">
      <g>
       <use xlink:href="#m551822bb32" x="139.958678" y="224.28" style="stroke: #000000; stroke-width: 0.8"/>
      </g>
     </g>
     <g id="text_2">
      <!-- $\mathdefault{20}$ -->
      <g transform="translate(134.977342 238.198498)scale(0.1 -0.1)">
       <defs>
        <path id="CMR17-32" d="M 2669 989 
L 2554 989 
C 2490 536 2438 459 2413 420 
C 2381 369 1920 369 1830 369 
L 602 369 
C 832 619 1280 1072 1824 1597 
C 2214 1967 2669 2402 2669 3035 
C 2669 3790 2067 4224 1395 4224 
C 691 4224 262 3604 262 3030 
C 262 2780 448 2748 525 2748 
C 589 2748 781 2787 781 3010 
C 781 3207 614 3264 525 3264 
C 486 3264 448 3258 422 3245 
C 544 3790 915 4058 1306 4058 
C 1862 4058 2227 3617 2227 3035 
C 2227 2479 1901 2000 1536 1584 
L 262 146 
L 262 0 
L 2515 0 
L 2669 989 
z
" transform="scale(0.015625)"/>
       </defs>
       <use xlink:href="#CMR17-32" transform="scale(0.996264)"/>
       <use xlink:href="#CMR17-30" transform="translate(45.690477 0)scale(0.996264)"/>
      </g>
     </g>
    </g>
    <g id="xtick_3">
     <g id="line2d_3">
      <g>
       <use xlink:href="#m551822bb32" x="178.38843" y="224.28" style="stroke: #000000; stroke-width: 0.8"/>
      </g>
     </g>
     <g id="text_3">
      <!-- $\mathdefault{40}$ -->
      <g transform="translate(173.407095 238.198498)scale(0.1 -0.1)">
       <defs>
        <path id="CMR17-34" d="M 2150 4122 
C 2150 4256 2144 4256 2029 4256 
L 128 1254 
L 128 1088 
L 1779 1088 
L 1779 457 
C 1779 224 1766 160 1318 160 
L 1197 160 
L 1197 0 
C 1402 0 1747 0 1965 0 
C 2182 0 2528 0 2733 0 
L 2733 160 
L 2611 160 
C 2163 160 2150 224 2150 457 
L 2150 1088 
L 2803 1088 
L 2803 1254 
L 2150 1254 
L 2150 4122 
z
M 1798 3703 
L 1798 1254 
L 256 1254 
L 1798 3703 
z
" transform="scale(0.015625)"/>
       </defs>
       <use xlink:href="#CMR17-34" transform="scale(0.996264)"/>
       <use xlink:href="#CMR17-30" transform="translate(45.690477 0)scale(0.996264)"/>
      </g>
     </g>
    </g>
    <g id="xtick_4">
     <g id="line2d_4">
      <g>
       <use xlink:href="#m551822bb32" x="216.818182" y="224.28" style="stroke: #000000; stroke-width: 0.8"/>
      </g>
     </g>
     <g id="text_4">
      <!-- $\mathdefault{60}$ -->
      <g transform="translate(211.836847 238.198498)scale(0.1 -0.1)">
       <defs>
        <path id="CMR17-36" d="M 678 2176 
C 678 3690 1395 4032 1811 4032 
C 1946 4032 2272 4009 2400 3776 
C 2298 3776 2106 3776 2106 3553 
C 2106 3381 2246 3323 2336 3323 
C 2394 3323 2566 3348 2566 3560 
C 2566 3954 2246 4179 1805 4179 
C 1043 4179 243 3390 243 1984 
C 243 253 966 -128 1478 -128 
C 2099 -128 2688 427 2688 1283 
C 2688 2081 2170 2662 1517 2662 
C 1126 2662 838 2407 678 1960 
L 678 2176 
z
M 1478 25 
C 691 25 691 1200 691 1436 
C 691 1896 909 2560 1504 2560 
C 1613 2560 1926 2560 2138 2120 
C 2253 1870 2253 1609 2253 1289 
C 2253 944 2253 690 2118 434 
C 1978 171 1773 25 1478 25 
z
" transform="scale(0.015625)"/>
       </defs>
       <use xlink:href="#CMR17-36" transform="scale(0.996264)"/>
       <use xlink:href="#CMR17-30" transform="translate(45.690477 0)scale(0.996264)"/>
      </g>
     </g>
    </g>
    <g id="xtick_5">
     <g id="line2d_5">
      <g>
       <use xlink:href="#m551822bb32" x="255.247934" y="224.28" style="stroke: #000000; stroke-width: 0.8"/>
      </g>
     </g>
     <g id="text_5">
      <!-- $\mathdefault{80}$ -->
      <g transform="translate(250.266599 238.198498)scale(0.1 -0.1)">
       <defs>
        <path id="CMR17-38" d="M 1741 2264 
C 2144 2467 2554 2773 2554 3263 
C 2554 3841 1990 4179 1472 4179 
C 890 4179 378 3759 378 3180 
C 378 3021 416 2747 666 2505 
C 730 2442 998 2251 1171 2130 
C 883 1983 211 1634 211 934 
C 211 279 838 -128 1459 -128 
C 2144 -128 2720 362 2720 1010 
C 2720 1590 2330 1857 2074 2029 
L 1741 2264 
z
M 902 2822 
C 851 2854 595 3051 595 3351 
C 595 3739 998 4032 1459 4032 
C 1965 4032 2336 3676 2336 3262 
C 2336 2669 1670 2331 1638 2331 
C 1632 2331 1626 2331 1574 2370 
L 902 2822 
z
M 2080 1519 
C 2176 1449 2483 1240 2483 851 
C 2483 381 2010 25 1472 25 
C 890 25 448 438 448 940 
C 448 1443 838 1862 1280 2060 
L 2080 1519 
z
" transform="scale(0.015625)"/>
       </defs>
       <use xlink:href="#CMR17-38" transform="scale(0.996264)"/>
       <use xlink:href="#CMR17-30" transform="translate(45.690477 0)scale(0.996264)"/>
      </g>
     </g>
    </g>
    <g id="xtick_6">
     <g id="line2d_6">
      <g>
       <use xlink:href="#m551822bb32" x="293.677686" y="224.28" style="stroke: #000000; stroke-width: 0.8"/>
      </g>
     </g>
     <g id="text_6">
      <!-- $\mathdefault{100}$ -->
      <g transform="translate(286.205683 238.198498)scale(0.1 -0.1)">
       <defs>
        <path id="CMR17-31" d="M 1702 4058 
C 1702 4192 1696 4192 1606 4192 
C 1357 3916 979 3827 621 3827 
C 602 3827 570 3827 563 3808 
C 557 3795 557 3782 557 3648 
C 755 3648 1088 3686 1344 3839 
L 1344 461 
C 1344 236 1331 160 781 160 
L 589 160 
L 589 0 
C 896 0 1216 0 1523 0 
C 1830 0 2150 0 2458 0 
L 2458 160 
L 2266 160 
C 1715 160 1702 230 1702 458 
L 1702 4058 
z
" transform="scale(0.015625)"/>
       </defs>
       <use xlink:href="#CMR17-31" transform="scale(0.996264)"/>
       <use xlink:href="#CMR17-30" transform="translate(45.690477 0)scale(0.996264)"/>
       <use xlink:href="#CMR17-30" transform="translate(91.380954 0)scale(0.996264)"/>
      </g>
     </g>
    </g>
    <g id="xtick_7">
     <g id="line2d_7">
      <g>
       <use xlink:href="#m551822bb32" x="332.107438" y="224.28" style="stroke: #000000; stroke-width: 0.8"/>
      </g>
     </g>
     <g id="text_7">
      <!-- $\mathdefault{120}$ -->
      <g transform="translate(324.635435 238.198498)scale(0.1 -0.1)">
       <use xlink:href="#CMR17-31" transform="scale(0.996264)"/>
       <use xlink:href="#CMR17-32" transform="translate(45.690477 0)scale(0.996264)"/>
       <use xlink:href="#CMR17-30" transform="translate(91.380954 0)scale(0.996264)"/>
      </g>
     </g>
    </g>
    <g id="text_8">
     <!-- Time (sec) -->
     <g transform="translate(194.194669 251.607657)scale(0.1 -0.1)">
      <defs>
       <path id="CMSS17-54" d="M 2317 3968 
L 2848 3968 
C 2925 3968 3002 3968 3078 3968 
L 3878 3968 
L 3878 4376 
L 218 4376 
L 218 3968 
L 1018 3968 
C 1094 3968 1171 3968 1248 3968 
L 1779 3968 
L 1779 -32 
L 2317 -32 
L 2317 3968 
z
" transform="scale(0.015625)"/>
       <path id="CMSS17-69" d="M 979 4183 
L 442 4183 
L 442 3648 
L 979 3648 
L 979 4183 
z
M 947 2739 
L 474 2739 
L 474 0 
L 947 0 
L 947 2739 
z
" transform="scale(0.015625)"/>
       <path id="CMSS17-6d" d="M 4288 1877 
C 4288 2308 4179 2816 3462 2816 
C 2982 2816 2694 2516 2566 2331 
C 2451 2670 2182 2816 1798 2816 
C 1363 2816 1088 2568 941 2389 
L 941 2758 
L 474 2758 
L 474 0 
L 960 0 
L 960 1559 
C 960 1939 1101 2428 1555 2428 
C 2138 2428 2138 2016 2138 1829 
L 2138 0 
L 2624 0 
L 2624 1559 
C 2624 1939 2765 2428 3219 2428 
C 3802 2428 3802 2016 3802 1829 
L 3802 0 
L 4288 0 
L 4288 1877 
z
" transform="scale(0.015625)"/>
       <path id="CMSS17-65" d="M 2502 1377 
C 2502 1590 2490 2003 2285 2345 
C 2061 2713 1696 2816 1421 2816 
C 755 2816 192 2188 192 1375 
C 192 582 774 -64 1510 -64 
C 1798 -64 2150 19 2470 248 
C 2470 274 2458 414 2451 420 
C 2451 433 2432 630 2432 656 
C 2125 407 1773 325 1517 325 
C 1107 325 666 667 646 1377 
L 2502 1377 
z
M 698 1728 
C 781 2084 1062 2421 1421 2421 
C 1517 2421 1965 2421 2080 1728 
L 698 1728 
z
" transform="scale(0.015625)"/>
       <path id="CMSS17-28" d="M 1613 4768 
C 1267 4417 474 3601 474 1588 
C 474 -433 1267 -1243 1613 -1600 
L 2003 -1600 
C 1216 -784 960 357 960 1581 
C 960 2798 1203 3946 2003 4768 
L 1613 4768 
z
" transform="scale(0.015625)"/>
       <path id="CMSS17-73" d="M 2061 2627 
C 1683 2807 1389 2807 1197 2807 
C 742 2807 198 2648 198 2003 
C 198 1359 902 1218 1094 1179 
C 1389 1122 1715 1058 1715 740 
C 1715 337 1254 337 1171 337 
C 915 337 563 407 243 638 
L 166 210 
C 531 0 883 -64 1178 -64 
C 1965 -64 2163 416 2163 781 
C 2163 1094 1984 1305 1862 1401 
C 1651 1568 1574 1587 1050 1696 
C 960 1709 646 1779 646 2066 
C 646 2432 1050 2432 1139 2432 
C 1555 2432 1811 2303 1984 2208 
L 2061 2627 
z
" transform="scale(0.015625)"/>
       <path id="CMSS17-63" d="M 2464 2541 
C 2464 2585 2170 2714 2093 2739 
C 1882 2816 1613 2816 1542 2816 
C 710 2816 211 2093 211 1363 
C 211 595 768 -64 1517 -64 
C 1946 -64 2253 76 2502 242 
L 2464 664 
C 2189 453 1869 337 1523 337 
C 1024 337 698 774 698 1369 
C 698 1831 909 2414 1549 2414 
C 1901 2414 2099 2343 2394 2145 
L 2464 2541 
z
" transform="scale(0.015625)"/>
       <path id="CMSS17-29" d="M 723 -1600 
C 1069 -1249 1862 -433 1862 1581 
C 1862 3601 1069 4411 723 4768 
L 333 4768 
C 1120 3952 1376 2811 1376 1588 
C 1376 370 1133 -778 333 -1600 
L 723 -1600 
z
" transform="scale(0.015625)"/>
      </defs>
      <use xlink:href="#CMSS17-54" transform="scale(0.996264)"/>
      <use xlink:href="#CMSS17-69" transform="translate(63.819454 0)scale(0.996264)"/>
      <use xlink:href="#CMSS17-6d" transform="translate(86.000177 0)scale(0.996264)"/>
      <use xlink:href="#CMSS17-65" transform="translate(160.229431 0)scale(0.996264)"/>
      <use xlink:href="#CMSS17-28" transform="translate(233.097366 0)scale(0.996264)"/>
      <use xlink:href="#CMSS17-73" transform="translate(269.53128 0)scale(0.996264)"/>
      <use xlink:href="#CMSS17-65" transform="translate(305.444822 0)scale(0.996264)"/>
      <use xlink:href="#CMSS17-63" transform="translate(347.083644 0)scale(0.996264)"/>
      <use xlink:href="#CMSS17-29" transform="translate(388.722467 0)scale(0.996264)"/>
     </g>
    </g>
   </g>
   <g id="matplotlib.axis_2">
    <g id="ytick_1">
     <g id="line2d_8">
      <defs>
       <path id="maa951cffb2" d="M 0 0 
L -3.5 0 
" style="stroke: #000000; stroke-width: 0.8"/>
      </defs>
      <g>
       <use xlink:href="#maa951cffb2" x="90" y="206.001779" style="stroke: #000000; stroke-width: 0.8"/>
      </g>
     </g>
     <g id="text_9">
      <!-- $\mathdefault{2500}$ -->
      <g transform="translate(63.074659 209.461029)scale(0.1 -0.1)">
       <defs>
        <path id="CMR17-35" d="M 730 3692 
C 794 3666 1056 3584 1325 3584 
C 1920 3584 2246 3911 2432 4100 
C 2432 4157 2432 4192 2394 4192 
C 2387 4192 2374 4192 2323 4163 
C 2099 4058 1837 3973 1517 3973 
C 1325 3973 1037 3999 723 4139 
C 653 4171 640 4171 634 4171 
C 602 4171 595 4164 595 4037 
L 595 2203 
C 595 2089 595 2057 659 2057 
C 691 2057 704 2070 736 2114 
C 941 2401 1222 2522 1542 2522 
C 1766 2522 2246 2382 2246 1289 
C 2246 1085 2246 715 2054 421 
C 1894 159 1645 25 1370 25 
C 947 25 518 320 403 814 
C 429 807 480 795 506 795 
C 589 795 749 840 749 1038 
C 749 1210 627 1280 506 1280 
C 358 1280 262 1190 262 1011 
C 262 454 704 -128 1382 -128 
C 2042 -128 2669 440 2669 1264 
C 2669 2030 2170 2624 1549 2624 
C 1222 2624 947 2503 730 2274 
L 730 3692 
z
" transform="scale(0.015625)"/>
       </defs>
       <use xlink:href="#CMR17-32" transform="scale(0.996264)"/>
       <use xlink:href="#CMR17-35" transform="translate(45.690477 0)scale(0.996264)"/>
       <use xlink:href="#CMR17-30" transform="translate(91.380954 0)scale(0.996264)"/>
       <use xlink:href="#CMR17-30" transform="translate(137.071431 0)scale(0.996264)"/>
      </g>
     </g>
    </g>
    <g id="ytick_2">
     <g id="line2d_9">
      <g>
       <use xlink:href="#maa951cffb2" x="90" y="179.845196" style="stroke: #000000; stroke-width: 0.8"/>
      </g>
     </g>
     <g id="text_10">
      <!-- $\mathdefault{5000}$ -->
      <g transform="translate(63.074659 183.304445)scale(0.1 -0.1)">
       <use xlink:href="#CMR17-35" transform="scale(0.996264)"/>
       <use xlink:href="#CMR17-30" transform="translate(45.690477 0)scale(0.996264)"/>
       <use xlink:href="#CMR17-30" transform="translate(91.380954 0)scale(0.996264)"/>
       <use xlink:href="#CMR17-30" transform="translate(137.071431 0)scale(0.996264)"/>
      </g>
     </g>
    </g>
    <g id="ytick_3">
     <g id="line2d_10">
      <g>
       <use xlink:href="#maa951cffb2" x="90" y="153.688612" style="stroke: #000000; stroke-width: 0.8"/>
      </g>
     </g>
     <g id="text_11">
      <!-- $\mathdefault{7500}$ -->
      <g transform="translate(63.074659 157.147861)scale(0.1 -0.1)">
       <defs>
        <path id="CMR17-37" d="M 2886 3941 
L 2886 4081 
L 1382 4081 
C 634 4081 621 4165 595 4288 
L 480 4288 
L 294 3094 
L 410 3094 
C 429 3215 474 3540 550 3661 
C 589 3712 1062 3712 1171 3712 
L 2579 3712 
L 1869 2661 
C 1395 1954 1069 999 1069 165 
C 1069 89 1069 -128 1299 -128 
C 1530 -128 1530 89 1530 171 
L 1530 465 
C 1530 1508 1709 2196 2003 2636 
L 2886 3941 
z
" transform="scale(0.015625)"/>
       </defs>
       <use xlink:href="#CMR17-37" transform="scale(0.996264)"/>
       <use xlink:href="#CMR17-35" transform="translate(45.690477 0)scale(0.996264)"/>
       <use xlink:href="#CMR17-30" transform="translate(91.380954 0)scale(0.996264)"/>
       <use xlink:href="#CMR17-30" transform="translate(137.071431 0)scale(0.996264)"/>
      </g>
     </g>
    </g>
    <g id="ytick_4">
     <g id="line2d_11">
      <g>
       <use xlink:href="#maa951cffb2" x="90" y="127.532028" style="stroke: #000000; stroke-width: 0.8"/>
      </g>
     </g>
     <g id="text_12">
      <!-- $\mathdefault{10000}$ -->
      <g transform="translate(58.093324 130.991278)scale(0.1 -0.1)">
       <use xlink:href="#CMR17-31" transform="scale(0.996264)"/>
       <use xlink:href="#CMR17-30" transform="translate(45.690477 0)scale(0.996264)"/>
       <use xlink:href="#CMR17-30" transform="translate(91.380954 0)scale(0.996264)"/>
       <use xlink:href="#CMR17-30" transform="translate(137.071431 0)scale(0.996264)"/>
       <use xlink:href="#CMR17-30" transform="translate(182.761908 0)scale(0.996264)"/>
      </g>
     </g>
    </g>
    <g id="ytick_5">
     <g id="line2d_12">
      <g>
       <use xlink:href="#maa951cffb2" x="90" y="101.375445" style="stroke: #000000; stroke-width: 0.8"/>
      </g>
     </g>
     <g id="text_13">
      <!-- $\mathdefault{12500}$ -->
      <g transform="translate(58.093324 104.834694)scale(0.1 -0.1)">
       <use xlink:href="#CMR17-31" transform="scale(0.996264)"/>
       <use xlink:href="#CMR17-32" transform="translate(45.690477 0)scale(0.996264)"/>
       <use xlink:href="#CMR17-35" transform="translate(91.380954 0)scale(0.996264)"/>
       <use xlink:href="#CMR17-30" transform="translate(137.071431 0)scale(0.996264)"/>
       <use xlink:href="#CMR17-30" transform="translate(182.761908 0)scale(0.996264)"/>
      </g>
     </g>
    </g>
    <g id="ytick_6">
     <g id="line2d_13">
      <g>
       <use xlink:href="#maa951cffb2" x="90" y="75.218861" style="stroke: #000000; stroke-width: 0.8"/>
      </g>
     </g>
     <g id="text_14">
      <!-- $\mathdefault{15000}$ -->
      <g transform="translate(58.093324 78.67811)scale(0.1 -0.1)">
       <use xlink:href="#CMR17-31" transform="scale(0.996264)"/>
       <use xlink:href="#CMR17-35" transform="translate(45.690477 0)scale(0.996264)"/>
       <use xlink:href="#CMR17-30" transform="translate(91.380954 0)scale(0.996264)"/>
       <use xlink:href="#CMR17-30" transform="translate(137.071431 0)scale(0.996264)"/>
       <use xlink:href="#CMR17-30" transform="translate(182.761908 0)scale(0.996264)"/>
      </g>
     </g>
    </g>
    <g id="ytick_7">
     <g id="line2d_14">
      <g>
       <use xlink:href="#maa951cffb2" x="90" y="49.062278" style="stroke: #000000; stroke-width: 0.8"/>
      </g>
     </g>
     <g id="text_15">
      <!-- $\mathdefault{17500}$ -->
      <g transform="translate(58.093324 52.521527)scale(0.1 -0.1)">
       <use xlink:href="#CMR17-31" transform="scale(0.996264)"/>
       <use xlink:href="#CMR17-37" transform="translate(45.690477 0)scale(0.996264)"/>
       <use xlink:href="#CMR17-35" transform="translate(91.380954 0)scale(0.996264)"/>
       <use xlink:href="#CMR17-30" transform="translate(137.071431 0)scale(0.996264)"/>
       <use xlink:href="#CMR17-30" transform="translate(182.761908 0)scale(0.996264)"/>
      </g>
     </g>
    </g>
    <g id="text_16">
     <!-- tpmC -->
     <g transform="translate(52.156145 138.772401)rotate(-90)scale(0.1 -0.1)">
      <defs>
       <path id="CMSS17-74" d="M 1069 2368 
L 1901 2368 
L 1901 2737 
L 1069 2737 
L 1069 3520 
L 614 3520 
L 614 2737 
L 109 2737 
L 109 2368 
L 602 2368 
L 602 749 
C 602 384 685 -64 1107 -64 
C 1427 -64 1722 25 2003 172 
L 1901 548 
C 1747 414 1562 337 1363 337 
C 1082 337 1069 696 1069 856 
L 1069 2368 
z
" transform="scale(0.015625)"/>
       <path id="CMSS17-70" d="M 966 333 
C 1178 129 1466 -5 1773 -5 
C 2368 -5 2880 603 2880 1412 
C 2880 2159 2496 2816 1946 2816 
C 1626 2816 1242 2702 954 2472 
L 954 2765 
L 480 2765 
L 480 -1216 
L 966 -1216 
L 966 333 
z
M 966 2100 
C 1018 2176 1235 2415 1587 2415 
C 2035 2415 2394 1960 2394 1412 
C 2394 787 1958 384 1530 384 
C 1402 384 1267 415 1139 523 
C 966 674 966 768 966 857 
L 966 2100 
z
" transform="scale(0.015625)"/>
       <path id="CMSS17-43" d="M 3501 714 
C 3072 427 2874 344 2355 344 
C 1459 344 934 1303 934 2179 
C 934 3112 1472 4032 2381 4032 
C 2790 4032 3059 3918 3386 3715 
L 3475 4217 
C 3168 4370 2778 4440 2387 4440 
C 1158 4440 397 3316 397 2179 
C 397 927 1299 -64 2323 -64 
C 2874 -64 3066 -19 3539 280 
L 3501 714 
z
" transform="scale(0.015625)"/>
      </defs>
      <use xlink:href="#CMSS17-74" transform="scale(0.996264)"/>
      <use xlink:href="#CMSS17-70" transform="translate(33.831567 0)scale(0.996264)"/>
      <use xlink:href="#CMSS17-6d" transform="translate(82.03651 0)scale(0.996264)"/>
      <use xlink:href="#CMSS17-43" transform="translate(156.265764 0)scale(0.996264)"/>
     </g>
    </g>
   </g>
   <g id="line2d_15">
    <path d="M 101.528926 196.501708 
L 103.450413 182.063274 
L 105.371901 181.895872 
L 107.293388 176.758719 
L 109.214876 173.14911 
L 111.136364 168.085196 
L 113.057851 162.812028 
L 114.979339 170.01032 
L 116.900826 161.954093 
L 118.822314 165.155658 
L 120.743802 164.276797 
L 122.665289 167.813167 
L 124.586777 169.947544 
L 126.508264 163.481637 
L 128.429752 169.61274 
L 130.35124 164.025694 
L 132.272727 163.795516 
L 134.194215 166.997082 
L 136.115702 163.272384 
L 138.03719 161.995943 
L 139.958678 158.292171 
L 141.880165 160.782278 
L 143.801653 169.424413 
L 145.72314 167.26911 
L 147.644628 166.976157 
L 149.566116 162.89573 
L 151.487603 166.160071 
L 153.409091 174.990534 
L 155.330579 166.201922 
L 157.252066 165.427687 
L 159.173554 166.850605 
L 161.095041 168.838505 
L 163.016529 170.491601 
L 164.938017 145.464982 
L 166.859504 147.28548 
L 168.780992 146.783274 
L 170.702479 151.449609 
L 172.623967 147.976014 
L 174.545455 143.581708 
L 176.466942 158.773452 
L 178.38843 165.867117 
L 180.309917 166.369324 
L 182.231405 159.736014 
L 184.152893 165.888043 
L 186.07438 168.81758 
L 187.995868 167.394662 
L 189.917355 160.510249 
L 191.838843 155.216157 
L 193.760331 141.40548 
L 195.681818 127.573879 
L 197.603306 111.126619 
L 199.524793 101.689324 
L 201.446281 87.481068 
L 203.367769 92.963488 
L 205.289256 102.400783 
L 207.210744 117.88548 
L 209.132231 132.491317 
L 211.053719 142.388968 
L 212.975207 162.163345 
L 214.896694 163.962918 
L 216.818182 169.194235 
L 218.739669 168.378149 
L 220.661157 165.260285 
L 222.582645 170.177722 
L 224.504132 165.595089 
L 226.42562 165.825267 
L 228.347107 170.679929 
L 230.268595 168.796655 
L 232.190083 174.69758 
L 234.11157 168.629253 
L 236.033058 168.461851 
L 237.954545 168.294448 
L 239.876033 160.384698 
L 241.797521 166.683203 
L 243.719008 168.294448 
L 245.640496 178.296726 
L 247.561983 180.954235 
L 249.483471 181.184413 
L 251.404959 187.441068 
L 253.326446 186.227402 
L 255.247934 186.06 
L 257.169421 183.465267 
L 259.090909 187.796797 
L 261.012397 186.227402 
L 262.933884 184.46968 
L 264.855372 179.42669 
L 266.77686 177.355089 
L 268.698347 175.806619 
L 270.619835 170.826406 
L 272.541322 172.730605 
L 274.46281 174.530178 
L 276.384298 179.070961 
L 278.305785 180.347402 
L 280.227273 179.656868 
L 282.14876 182.481779 
L 284.070248 181.623843 
L 285.991736 181.184413 
L 287.913223 176.769181 
L 289.834711 177.103986 
L 291.756198 180.054448 
L 293.677686 173.776868 
L 295.599174 177.543416 
L 297.520661 177.229537 
L 299.442149 182.460854 
L 301.363636 179.217438 
L 303.285124 178.485053 
L 305.206612 179.82427 
L 307.128099 174.781281 
L 309.049587 174.948683 
L 310.971074 170.742705 
L 312.892562 172.877082 
L 314.81405 170.282349 
L 316.735537 169.675516 
L 318.657025 171.935445 
L 320.578512 173.693167 
L 322.5 172.395801 
L 324.421488 179.887046 
L 326.342975 180.452028 
L 328.264463 187.901423 
L 330.18595 135.065125 
L 332.107438 48.87395 
" clip-path="url(#p816042574c)" style="fill: none; stroke: #1f77b4; stroke-width: 1.5; stroke-linecap: square"/>
   </g>
   <g id="line2d_16">
    <path d="M 101.528926 215.46 
L 103.450413 196.187829 
L 105.371901 184.574306 
L 107.293388 178.704769 
L 109.214876 183.469452 
L 111.136364 181.058861 
L 113.057851 171.328612 
L 114.979339 168.42 
L 116.900826 171.056584 
L 118.822314 171.621566 
L 120.743802 158.20847 
L 122.665289 160.384698 
L 124.586777 160.886904 
L 126.508264 159.715089 
L 128.429752 160.824128 
L 130.35124 160.59395 
L 132.272727 166.4321 
L 134.194215 165.260285 
L 136.115702 167.855018 
L 138.03719 168.943132 
L 139.958678 167.22726 
L 141.880165 167.122633 
L 143.801653 170.679929 
L 145.72314 166.82968 
L 147.644628 162.89573 
L 149.566116 165.825267 
L 151.487603 165.67879 
L 153.409091 169.57089 
L 155.330579 170.261423 
L 157.252066 173.421139 
L 159.173554 179.238363 
L 161.095041 177.250463 
L 163.016529 179.405765 
L 164.938017 181.540142 
L 166.859504 182.858434 
L 168.780992 184.134875 
L 170.702479 185.850747 
L 172.623967 186.562206 
L 174.545455 184.406904 
L 176.466942 182.92121 
L 178.38843 180.765907 
L 180.309917 182.649181 
L 182.231405 179.594093 
L 184.152893 179.845196 
L 186.07438 182.335302 
L 187.995868 180.765907 
L 189.917355 179.740569 
L 191.838843 179.887046 
L 193.760331 183.025836 
L 195.681818 187.21089 
L 197.603306 187.169039 
L 199.524793 185.787972 
L 201.446281 186.938861 
L 203.367769 183.004911 
L 205.289256 179.050036 
L 207.210744 170.847331 
L 209.132231 164.946406 
L 211.053719 166.934306 
L 212.975207 167.771317 
L 214.896694 167.541139 
L 216.818182 169.17331 
L 218.739669 176.329751 
L 220.661157 180.556655 
L 222.582645 179.091886 
L 224.504132 182.1679 
L 226.42562 178.63153 
L 228.347107 175.011459 
L 230.268595 170.76363 
L 232.190083 165.762491 
L 234.11157 163.586263 
L 236.033058 163.607189 
L 237.954545 166.348399 
L 239.876033 166.4321 
L 241.797521 169.152384 
L 243.719008 171.893594 
L 245.640496 176.539004 
L 247.561983 171.537865 
L 249.483471 172.270249 
L 251.404959 174.781281 
L 253.326446 172.270249 
L 255.247934 174.111673 
L 257.169421 171.642491 
L 259.090909 170.4079 
L 261.012397 180.18 
L 262.933884 177.522491 
L 264.855372 180.97516 
L 266.77686 183.67452 
L 268.698347 182.92121 
L 270.619835 186.373879 
L 272.541322 178.108399 
L 274.46281 183.946548 
L 276.384298 178.568754 
L 278.305785 179.133737 
L 280.227273 182.356228 
L 282.14876 173.400214 
L 284.070248 166.243772 
L 285.991736 142.179715 
L 287.913223 125.920783 
L 289.834711 105.706975 
L 291.756198 85.074662 
L 293.677686 78.985409 
L 295.599174 63.940142 
L 297.520661 63.605338 
L 299.442149 61.282633 
L 301.363636 53.833238 
L 303.285124 49.794662 
L 305.206612 42.512669 
L 307.128099 43.977438 
L 309.049587 40.922349 
L 310.971074 45.69331 
L 312.892562 49.836512 
L 314.81405 50.296868 
L 316.735537 54.042491 
L 318.657025 55.10968 
L 320.578512 54.31452 
L 322.5 60.947829 
L 324.421488 66.451174 
L 326.342975 74.109822 
L 328.264463 67.497438 
L 330.18595 61.659288 
L 332.107438 39.06 
" clip-path="url(#p816042574c)" style="fill: none; stroke: #ff7f0e; stroke-width: 1.5; stroke-linecap: square"/>
   </g>
   <g id="patch_3">
    <path d="M 90 224.28 
L 90 30.24 
" style="fill: none; stroke: #000000; stroke-width: 0.8; stroke-linejoin: miter; stroke-linecap: square"/>
   </g>
   <g id="patch_4">
    <path d="M 343.636364 224.28 
L 343.636364 30.24 
" style="fill: none; stroke: #000000; stroke-width: 0.8; stroke-linejoin: miter; stroke-linecap: square"/>
   </g>
   <g id="patch_5">
    <path d="M 90 224.28 
L 343.636364 224.28 
" style="fill: none; stroke: #000000; stroke-width: 0.8; stroke-linejoin: miter; stroke-linecap: square"/>
   </g>
   <g id="patch_6">
    <path d="M 90 30.24 
L 343.636364 30.24 
" style="fill: none; stroke: #000000; stroke-width: 0.8; stroke-linejoin: miter; stroke-linecap: square"/>
   </g>
   <g id="text_17">
    <!-- Requests (5 sec. rolling window) -->
    <g transform="translate(137.160219 24.24)scale(0.12 -0.12)">
     <defs>
      <path id="CMSS17-52" d="M 2522 2109 
L 2534 2115 
C 3533 2459 3539 3147 3539 3268 
C 3539 3873 2925 4453 2003 4453 
L 570 4453 
L 570 32 
L 1094 32 
L 1094 2048 
L 2035 2048 
L 3168 32 
L 3706 32 
L 2522 2109 
z
M 1094 2437 
L 1094 4096 
L 1933 4096 
C 2746 4096 3034 3637 3034 3267 
C 3034 2922 2778 2437 1933 2437 
L 1094 2437 
z
" transform="scale(0.015625)"/>
      <path id="CMSS17-71" d="M 2611 2816 
L 2138 2816 
L 2138 2428 
C 2112 2460 1818 2816 1318 2816 
C 736 2816 211 2228 211 1399 
C 211 633 653 -5 1229 -5 
C 1498 -5 1837 91 2125 365 
L 2125 -1216 
L 2611 -1216 
L 2611 2816 
z
M 2138 914 
C 2138 832 2138 718 1939 554 
C 1888 510 1747 384 1504 384 
C 1050 384 698 850 698 1399 
C 698 2011 1126 2415 1562 2415 
C 1926 2415 2138 2061 2138 1797 
L 2138 914 
z
" transform="scale(0.015625)"/>
      <path id="CMSS17-75" d="M 2618 2739 
L 2131 2739 
L 2131 972 
C 2131 498 1786 306 1421 306 
C 998 306 960 447 960 709 
L 960 2739 
L 474 2739 
L 474 678 
C 474 179 646 -64 1088 -64 
C 1306 -64 1798 -13 2144 306 
L 2144 0 
L 2618 0 
L 2618 2739 
z
" transform="scale(0.015625)"/>
      <path id="CMSS17-35" d="M 934 3752 
L 2502 3752 
L 2502 4160 
L 467 4160 
L 467 1781 
L 896 1781 
C 1011 2046 1248 2240 1555 2240 
C 1843 2240 2163 1989 2163 1266 
C 2163 493 1709 267 1376 267 
C 966 267 589 512 422 851 
L 218 499 
C 512 49 992 -128 1376 -128 
C 2118 -128 2701 497 2701 1253 
C 2701 2030 2182 2629 1562 2629 
C 1338 2629 1120 2553 934 2399 
L 934 3752 
z
" transform="scale(0.015625)"/>
      <path id="CMSS17-2e" d="M 1088 510 
L 576 510 
L 576 0 
L 1088 0 
L 1088 510 
z
" transform="scale(0.015625)"/>
      <path id="CMSS17-72" d="M 954 1363 
C 954 1965 1395 2368 1958 2368 
L 1958 2789 
C 1549 2789 1165 2585 934 2253 
L 934 2758 
L 480 2758 
L 480 0 
L 954 0 
L 954 1363 
z
" transform="scale(0.015625)"/>
      <path id="CMSS17-6f" d="M 2829 1356 
C 2829 2176 2221 2816 1504 2816 
C 768 2816 173 2157 173 1356 
C 173 544 787 -64 1498 -64 
C 2227 -64 2829 563 2829 1356 
z
M 1504 337 
C 1050 337 659 709 659 1408 
C 659 2151 1114 2427 1498 2427 
C 1914 2427 2342 2126 2342 1408 
C 2342 683 1926 337 1504 337 
z
" transform="scale(0.015625)"/>
      <path id="CMSS17-6c" d="M 947 4416 
L 474 4416 
L 474 0 
L 947 0 
L 947 4416 
z
" transform="scale(0.015625)"/>
      <path id="CMSS17-6e" d="M 2618 1877 
C 2618 2283 2522 2816 1798 2816 
C 1389 2816 1120 2606 941 2389 
L 941 2758 
L 474 2758 
L 474 0 
L 960 0 
L 960 1559 
C 960 1964 1114 2428 1549 2428 
C 2112 2428 2131 2048 2131 1829 
L 2131 0 
L 2618 0 
L 2618 1877 
z
" transform="scale(0.015625)"/>
      <path id="CMSS17-67" d="M 2848 2808 
C 2483 2808 2170 2738 1914 2617 
C 1702 2777 1485 2808 1338 2808 
C 781 2808 358 2349 358 1814 
C 358 1468 550 1207 563 1195 
C 448 1035 384 863 384 672 
C 384 448 474 289 544 200 
C 211 -3 166 -314 166 -435 
C 166 -898 749 -1280 1498 -1280 
C 2253 -1280 2835 -898 2835 -428 
C 2835 448 1856 448 1587 448 
L 1069 448 
C 973 448 717 448 717 791 
C 717 921 774 1004 781 1010 
C 877 940 1075 832 1338 832 
C 1869 832 2310 1278 2310 1827 
C 2310 2132 2170 2355 2112 2432 
L 2131 2432 
C 2150 2432 2419 2432 2515 2432 
C 2720 2432 2739 2429 2918 2419 
L 2848 2808 
z
M 1338 1182 
C 1120 1182 813 1315 813 1823 
C 813 2375 1165 2464 1331 2464 
C 1549 2464 1856 2331 1856 1823 
C 1856 1271 1504 1182 1338 1182 
z
M 1581 -10 
C 1734 -10 2381 -10 2381 -442 
C 2381 -714 1984 -929 1504 -929 
C 1018 -929 621 -720 621 -435 
C 621 -403 621 -10 1062 -10 
L 1581 -10 
z
" transform="scale(0.015625)"/>
      <path id="CMSS17-77" d="M 4013 2752 
L 3526 2752 
L 3187 1601 
C 3117 1358 2918 685 2893 371 
L 2886 371 
C 2874 564 2765 1024 2586 1633 
L 2259 2752 
L 1818 2752 
L 1498 1658 
C 1338 1101 1216 627 1203 371 
L 1197 371 
C 1171 749 909 1633 870 1773 
L 582 2752 
L 83 2752 
L 915 0 
L 1402 0 
C 1734 1096 1990 1943 2010 2370 
C 2022 2160 2131 1707 2195 1484 
L 2618 0 
L 3181 0 
L 4013 2752 
z
" transform="scale(0.015625)"/>
      <path id="CMSS17-64" d="M 2611 4416 
L 2138 4416 
L 2138 2438 
C 1939 2603 1613 2756 1254 2756 
C 672 2756 211 2131 211 1347 
C 211 562 666 -64 1235 -64 
C 1677 -64 1971 172 2125 306 
L 2125 -13 
L 2611 -13 
L 2611 4416 
z
M 2125 836 
C 2125 747 2125 653 1926 482 
C 1798 375 1645 325 1498 325 
C 1152 325 698 576 698 1340 
C 698 2134 1210 2368 1562 2368 
C 1798 2368 1990 2254 2125 2065 
L 2125 836 
z
" transform="scale(0.015625)"/>
     </defs>
     <use xlink:href="#CMSS17-52" transform="scale(0.996264)"/>
     <use xlink:href="#CMSS17-65" transform="translate(60.416155 0)scale(0.996264)"/>
     <use xlink:href="#CMSS17-71" transform="translate(102.054977 0)scale(0.996264)"/>
     <use xlink:href="#CMSS17-75" transform="translate(150.25992 0)scale(0.996264)"/>
     <use xlink:href="#CMSS17-65" transform="translate(198.464863 0)scale(0.996264)"/>
     <use xlink:href="#CMSS17-73" transform="translate(240.103685 0)scale(0.996264)"/>
     <use xlink:href="#CMSS17-74" transform="translate(276.017227 0)scale(0.996264)"/>
     <use xlink:href="#CMSS17-73" transform="translate(309.848794 0)scale(0.996264)"/>
     <use xlink:href="#CMSS17-28" transform="translate(376.991449 0)scale(0.996264)"/>
     <use xlink:href="#CMSS17-35" transform="translate(413.425363 0)scale(0.996264)"/>
     <use xlink:href="#CMSS17-73" transform="translate(491.498099 0)scale(0.996264)"/>
     <use xlink:href="#CMSS17-65" transform="translate(527.411641 0)scale(0.996264)"/>
     <use xlink:href="#CMSS17-63" transform="translate(569.050463 0)scale(0.996264)"/>
     <use xlink:href="#CMSS17-2e" transform="translate(610.689285 0)scale(0.996264)"/>
     <use xlink:href="#CMSS17-72" transform="translate(678.352297 0)scale(0.996264)"/>
     <use xlink:href="#CMSS17-6f" transform="translate(710.26207 0)scale(0.996264)"/>
     <use xlink:href="#CMSS17-6c" transform="translate(757.105693 0)scale(0.996264)"/>
     <use xlink:href="#CMSS17-6c" transform="translate(779.286416 0)scale(0.996264)"/>
     <use xlink:href="#CMSS17-69" transform="translate(801.467139 0)scale(0.996264)"/>
     <use xlink:href="#CMSS17-6e" transform="translate(823.647862 0)scale(0.996264)"/>
     <use xlink:href="#CMSS17-67" transform="translate(871.852805 0)scale(0.996264)"/>
     <use xlink:href="#CMSS17-77" transform="translate(949.925542 0)scale(0.996264)"/>
     <use xlink:href="#CMSS17-69" transform="translate(1013.745087 0)scale(0.996264)"/>
     <use xlink:href="#CMSS17-6e" transform="translate(1035.92581 0)scale(0.996264)"/>
     <use xlink:href="#CMSS17-64" transform="translate(1084.130753 0)scale(0.996264)"/>
     <use xlink:href="#CMSS17-6f" transform="translate(1132.335696 0)scale(0.996264)"/>
     <use xlink:href="#CMSS17-77" transform="translate(1176.576866 0)scale(0.996264)"/>
     <use xlink:href="#CMSS17-29" transform="translate(1240.396411 0)scale(0.996264)"/>
    </g>
   </g>
   <g id="legend_1">
    <g id="patch_7">
     <path d="M 97 66.114357 
L 153.768294 66.114357 
Q 155.768294 66.114357 155.768294 64.114357 
L 155.768294 37.24 
Q 155.768294 35.24 153.768294 35.24 
L 97 35.24 
Q 95 35.24 95 37.24 
L 95 64.114357 
Q 95 66.114357 97 66.114357 
z
" style="fill: #ffffff; opacity: 0.8; stroke: #cccccc; stroke-linejoin: miter"/>
    </g>
    <g id="line2d_17">
     <path d="M 99 42.74 
L 109 42.74 
L 119 42.74 
" style="fill: none; stroke: #1f77b4; stroke-width: 1.5; stroke-linecap: square"/>
    </g>
    <g id="text_18">
     <!-- LSD -->
     <g transform="translate(127 46.24)scale(0.1 -0.1)">
      <defs>
       <path id="CMSS17-4c" d="M 1670 414 
C 1594 414 1517 414 1440 414 
L 1101 414 
L 1101 4416 
L 563 4416 
L 563 0 
L 3002 0 
L 3002 414 
L 1670 414 
z
" transform="scale(0.015625)"/>
       <path id="CMSS17-53" d="M 2797 4169 
C 2515 4334 2208 4480 1690 4480 
C 864 4480 333 3879 333 3266 
C 333 3025 403 2753 653 2475 
C 902 2196 1184 2121 1542 2033 
C 1690 1994 1939 1924 1984 1906 
C 2342 1767 2515 1444 2515 1140 
C 2515 742 2202 318 1645 318 
C 1453 318 890 318 358 819 
L 269 318 
C 794 -64 1363 -128 1651 -128 
C 2438 -128 3002 488 3002 1186 
C 3002 1440 2925 1763 2656 2061 
C 2394 2347 2163 2410 1638 2549 
C 1338 2626 1146 2677 986 2873 
C 877 3013 819 3146 819 3317 
C 819 3673 1126 4060 1690 4060 
C 1971 4060 2336 4002 2707 3660 
L 2797 4169 
z
" transform="scale(0.015625)"/>
       <path id="CMSS17-44" d="M 570 4416 
L 570 0 
L 2144 0 
C 3194 0 4000 980 4000 2170 
C 4000 3398 3194 4416 2144 4416 
L 570 4416 
z
M 1094 357 
L 1094 4059 
L 2003 4059 
C 2861 4059 3475 3277 3475 2170 
C 3475 1107 2867 357 2003 357 
L 1094 357 
z
" transform="scale(0.015625)"/>
      </defs>
      <use xlink:href="#CMSS17-4c" transform="scale(0.996264)"/>
      <use xlink:href="#CMSS17-53" transform="translate(50.687105 0)scale(0.996264)"/>
      <use xlink:href="#CMSS17-44" transform="translate(102.735622 0)scale(0.996264)"/>
     </g>
    </g>
    <g id="line2d_18">
     <path d="M 99 56.677178 
L 109 56.677178 
L 119 56.677178 
" style="fill: none; stroke: #ff7f0e; stroke-width: 1.5; stroke-linecap: square"/>
    </g>
    <g id="text_19">
     <!-- BASE -->
     <g transform="translate(127 60.177178)scale(0.1 -0.1)">
      <defs>
       <path id="CMSS17-42" d="M 570 4416 
L 570 0 
L 2163 0 
C 3034 0 3667 574 3667 1200 
C 3667 1685 3251 2176 2502 2317 
C 3334 2558 3501 3040 3501 3313 
C 3501 3883 2874 4416 1997 4416 
L 570 4416 
z
M 1088 2496 
L 1088 4059 
L 1824 4059 
C 2483 4059 3002 3724 3002 3306 
C 3002 2926 2592 2496 1766 2496 
L 1088 2496 
z
M 1088 357 
L 1088 2107 
L 1939 2107 
C 2630 2107 3162 1679 3162 1206 
C 3162 772 2694 357 1984 357 
L 1088 357 
z
" transform="scale(0.015625)"/>
       <path id="CMSS17-41" d="M 2272 4416 
L 1722 4416 
L 166 0 
L 653 0 
L 1101 1280 
L 2816 1280 
L 3270 0 
L 3827 0 
L 2272 4416 
z
M 2694 1637 
L 1222 1637 
C 1530 2528 1914 3638 1958 3925 
L 1965 3925 
C 2010 3663 2138 3281 2246 2956 
L 2694 1637 
z
" transform="scale(0.015625)"/>
       <path id="CMSS17-45" d="M 1958 433 
C 1446 433 1216 433 1101 433 
L 1101 2107 
L 3085 2107 
L 3085 2496 
L 1101 2496 
L 1101 4009 
L 1926 4009 
C 2003 4009 2080 4009 2157 4009 
L 3251 4009 
L 3251 4416 
L 563 4416 
L 563 0 
L 3334 0 
L 3334 433 
L 1958 433 
z
" transform="scale(0.015625)"/>
      </defs>
      <use xlink:href="#CMSS17-42" transform="scale(0.996264)"/>
      <use xlink:href="#CMSS17-41" transform="translate(62.33804 0)scale(0.996264)"/>
      <use xlink:href="#CMSS17-53" transform="translate(124.555895 0)scale(0.996264)"/>
      <use xlink:href="#CMSS17-45" transform="translate(176.604411 0)scale(0.996264)"/>
     </g>
    </g>
   </g>
  </g>
  <g id="axes_2">
   <g id="patch_8">
    <path d="M 394.363636 224.28 
L 648 224.28 
L 648 30.24 
L 394.363636 30.24 
z
" style="fill: #ffffff"/>
   </g>
   <g id="matplotlib.axis_3">
    <g id="xtick_8">
     <g id="line2d_19">
      <g>
       <use xlink:href="#m551822bb32" x="405.892562" y="224.28" style="stroke: #000000; stroke-width: 0.8"/>
      </g>
     </g>
     <g id="text_20">
      <!-- $\mathdefault{0}$ -->
      <g transform="translate(403.401894 238.198498)scale(0.1 -0.1)">
       <use xlink:href="#CMR17-30" transform="scale(0.996264)"/>
      </g>
     </g>
    </g>
    <g id="xtick_9">
     <g id="line2d_20">
      <g>
       <use xlink:href="#m551822bb32" x="444.322314" y="224.28" style="stroke: #000000; stroke-width: 0.8"/>
      </g>
     </g>
     <g id="text_21">
      <!-- $\mathdefault{20}$ -->
      <g transform="translate(439.340979 238.198498)scale(0.1 -0.1)">
       <use xlink:href="#CMR17-32" transform="scale(0.996264)"/>
       <use xlink:href="#CMR17-30" transform="translate(45.690477 0)scale(0.996264)"/>
      </g>
     </g>
    </g>
    <g id="xtick_10">
     <g id="line2d_21">
      <g>
       <use xlink:href="#m551822bb32" x="482.752066" y="224.28" style="stroke: #000000; stroke-width: 0.8"/>
      </g>
     </g>
     <g id="text_22">
      <!-- $\mathdefault{40}$ -->
      <g transform="translate(477.770731 238.198498)scale(0.1 -0.1)">
       <use xlink:href="#CMR17-34" transform="scale(0.996264)"/>
       <use xlink:href="#CMR17-30" transform="translate(45.690477 0)scale(0.996264)"/>
      </g>
     </g>
    </g>
    <g id="xtick_11">
     <g id="line2d_22">
      <g>
       <use xlink:href="#m551822bb32" x="521.181818" y="224.28" style="stroke: #000000; stroke-width: 0.8"/>
      </g>
     </g>
     <g id="text_23">
      <!-- $\mathdefault{60}$ -->
      <g transform="translate(516.200483 238.198498)scale(0.1 -0.1)">
       <use xlink:href="#CMR17-36" transform="scale(0.996264)"/>
       <use xlink:href="#CMR17-30" transform="translate(45.690477 0)scale(0.996264)"/>
      </g>
     </g>
    </g>
    <g id="xtick_12">
     <g id="line2d_23">
      <g>
       <use xlink:href="#m551822bb32" x="559.61157" y="224.28" style="stroke: #000000; stroke-width: 0.8"/>
      </g>
     </g>
     <g id="text_24">
      <!-- $\mathdefault{80}$ -->
      <g transform="translate(554.630235 238.198498)scale(0.1 -0.1)">
       <use xlink:href="#CMR17-38" transform="scale(0.996264)"/>
       <use xlink:href="#CMR17-30" transform="translate(45.690477 0)scale(0.996264)"/>
      </g>
     </g>
    </g>
    <g id="xtick_13">
     <g id="line2d_24">
      <g>
       <use xlink:href="#m551822bb32" x="598.041322" y="224.28" style="stroke: #000000; stroke-width: 0.8"/>
      </g>
     </g>
     <g id="text_25">
      <!-- $\mathdefault{100}$ -->
      <g transform="translate(590.569319 238.198498)scale(0.1 -0.1)">
       <use xlink:href="#CMR17-31" transform="scale(0.996264)"/>
       <use xlink:href="#CMR17-30" transform="translate(45.690477 0)scale(0.996264)"/>
       <use xlink:href="#CMR17-30" transform="translate(91.380954 0)scale(0.996264)"/>
      </g>
     </g>
    </g>
    <g id="xtick_14">
     <g id="line2d_25">
      <g>
       <use xlink:href="#m551822bb32" x="636.471074" y="224.28" style="stroke: #000000; stroke-width: 0.8"/>
      </g>
     </g>
     <g id="text_26">
      <!-- $\mathdefault{120}$ -->
      <g transform="translate(628.999072 238.198498)scale(0.1 -0.1)">
       <use xlink:href="#CMR17-31" transform="scale(0.996264)"/>
       <use xlink:href="#CMR17-32" transform="translate(45.690477 0)scale(0.996264)"/>
       <use xlink:href="#CMR17-30" transform="translate(91.380954 0)scale(0.996264)"/>
      </g>
     </g>
    </g>
    <g id="text_27">
     <!-- Time (sec) -->
     <g transform="translate(498.558305 251.607657)scale(0.1 -0.1)">
      <use xlink:href="#CMSS17-54" transform="scale(0.996264)"/>
      <use xlink:href="#CMSS17-69" transform="translate(63.819454 0)scale(0.996264)"/>
      <use xlink:href="#CMSS17-6d" transform="translate(86.000177 0)scale(0.996264)"/>
      <use xlink:href="#CMSS17-65" transform="translate(160.229431 0)scale(0.996264)"/>
      <use xlink:href="#CMSS17-28" transform="translate(233.097366 0)scale(0.996264)"/>
      <use xlink:href="#CMSS17-73" transform="translate(269.53128 0)scale(0.996264)"/>
      <use xlink:href="#CMSS17-65" transform="translate(305.444822 0)scale(0.996264)"/>
      <use xlink:href="#CMSS17-63" transform="translate(347.083644 0)scale(0.996264)"/>
      <use xlink:href="#CMSS17-29" transform="translate(388.722467 0)scale(0.996264)"/>
     </g>
    </g>
   </g>
   <g id="matplotlib.axis_4">
    <g id="ytick_8">
     <g id="line2d_26">
      <g>
       <use xlink:href="#maa951cffb2" x="394.363636" y="202.980128" style="stroke: #000000; stroke-width: 0.8"/>
      </g>
     </g>
     <g id="text_28">
      <!-- $\mathdefault{200}$ -->
      <g transform="translate(372.419631 206.439377)scale(0.1 -0.1)">
       <use xlink:href="#CMR17-32" transform="scale(0.996264)"/>
       <use xlink:href="#CMR17-30" transform="translate(45.690477 0)scale(0.996264)"/>
       <use xlink:href="#CMR17-30" transform="translate(91.380954 0)scale(0.996264)"/>
      </g>
     </g>
    </g>
    <g id="ytick_9">
     <g id="line2d_27">
      <g>
       <use xlink:href="#maa951cffb2" x="394.363636" y="165.832135" style="stroke: #000000; stroke-width: 0.8"/>
      </g>
     </g>
     <g id="text_29">
      <!-- $\mathdefault{400}$ -->
      <g transform="translate(372.419631 169.291384)scale(0.1 -0.1)">
       <use xlink:href="#CMR17-34" transform="scale(0.996264)"/>
       <use xlink:href="#CMR17-30" transform="translate(45.690477 0)scale(0.996264)"/>
       <use xlink:href="#CMR17-30" transform="translate(91.380954 0)scale(0.996264)"/>
      </g>
     </g>
    </g>
    <g id="ytick_10">
     <g id="line2d_28">
      <g>
       <use xlink:href="#maa951cffb2" x="394.363636" y="128.684142" style="stroke: #000000; stroke-width: 0.8"/>
      </g>
     </g>
     <g id="text_30">
      <!-- $\mathdefault{600}$ -->
      <g transform="translate(372.419631 132.143391)scale(0.1 -0.1)">
       <use xlink:href="#CMR17-36" transform="scale(0.996264)"/>
       <use xlink:href="#CMR17-30" transform="translate(45.690477 0)scale(0.996264)"/>
       <use xlink:href="#CMR17-30" transform="translate(91.380954 0)scale(0.996264)"/>
      </g>
     </g>
    </g>
    <g id="ytick_11">
     <g id="line2d_29">
      <g>
       <use xlink:href="#maa951cffb2" x="394.363636" y="91.536149" style="stroke: #000000; stroke-width: 0.8"/>
      </g>
     </g>
     <g id="text_31">
      <!-- $\mathdefault{800}$ -->
      <g transform="translate(372.419631 94.995398)scale(0.1 -0.1)">
       <use xlink:href="#CMR17-38" transform="scale(0.996264)"/>
       <use xlink:href="#CMR17-30" transform="translate(45.690477 0)scale(0.996264)"/>
       <use xlink:href="#CMR17-30" transform="translate(91.380954 0)scale(0.996264)"/>
      </g>
     </g>
    </g>
    <g id="ytick_12">
     <g id="line2d_30">
      <g>
       <use xlink:href="#maa951cffb2" x="394.363636" y="54.388155" style="stroke: #000000; stroke-width: 0.8"/>
      </g>
     </g>
     <g id="text_32">
      <!-- $\mathdefault{1000}$ -->
      <g transform="translate(367.438295 57.847405)scale(0.1 -0.1)">
       <use xlink:href="#CMR17-31" transform="scale(0.996264)"/>
       <use xlink:href="#CMR17-30" transform="translate(45.690477 0)scale(0.996264)"/>
       <use xlink:href="#CMR17-30" transform="translate(91.380954 0)scale(0.996264)"/>
       <use xlink:href="#CMR17-30" transform="translate(137.071431 0)scale(0.996264)"/>
      </g>
     </g>
    </g>
    <g id="text_33">
     <!-- Latency (ms) -->
     <g transform="translate(360.947635 154.851022)rotate(-90)scale(0.1 -0.1)">
      <defs>
       <path id="CMSS17-61" d="M 2406 1791 
C 2406 2392 1978 2808 1402 2808 
C 1120 2808 813 2757 461 2553 
L 499 2135 
C 659 2248 934 2432 1395 2432 
C 1722 2432 1920 2180 1920 1782 
L 1920 1536 
C 896 1536 256 1238 256 726 
C 256 461 416 -64 947 -64 
C 1043 -64 1562 -64 1933 217 
L 1933 -19 
L 2406 -19 
L 2406 1791 
z
M 1920 816 
C 1920 701 1920 548 1728 434 
C 1562 325 1350 325 1261 325 
C 941 325 723 511 723 744 
C 723 1211 1722 1211 1920 1211 
L 1920 816 
z
" transform="scale(0.015625)"/>
       <path id="CMSS17-79" d="M 2675 2752 
L 2176 2752 
C 1632 1294 1446 702 1434 383 
L 1427 383 
C 1408 696 1126 1460 902 2007 
L 602 2752 
L 83 2752 
L 1216 13 
C 1146 -178 1043 -465 1011 -529 
C 870 -885 774 -885 672 -885 
C 646 -885 442 -885 211 -809 
L 250 -1229 
C 410 -1261 570 -1280 685 -1280 
C 845 -1280 1165 -1280 1459 -497 
L 2675 2752 
z
" transform="scale(0.015625)"/>
      </defs>
      <use xlink:href="#CMSS17-4c" transform="scale(0.996264)"/>
      <use xlink:href="#CMSS17-61" transform="translate(50.687105 0)scale(0.996264)"/>
      <use xlink:href="#CMSS17-74" transform="translate(95.609026 0)scale(0.996264)"/>
      <use xlink:href="#CMSS17-65" transform="translate(129.440593 0)scale(0.996264)"/>
      <use xlink:href="#CMSS17-6e" transform="translate(171.079415 0)scale(0.996264)"/>
      <use xlink:href="#CMSS17-63" transform="translate(219.284358 0)scale(0.996264)"/>
      <use xlink:href="#CMSS17-79" transform="translate(260.92318 0)scale(0.996264)"/>
      <use xlink:href="#CMSS17-28" transform="translate(335.152434 0)scale(0.996264)"/>
      <use xlink:href="#CMSS17-6d" transform="translate(371.586349 0)scale(0.996264)"/>
      <use xlink:href="#CMSS17-73" transform="translate(445.815603 0)scale(0.996264)"/>
      <use xlink:href="#CMSS17-29" transform="translate(481.729145 0)scale(0.996264)"/>
     </g>
    </g>
   </g>
   <g id="line2d_31">
    <path d="M 405.892562 215.196918 
L 407.81405 215.46 
L 409.735537 179.626299 
L 411.657025 179.81909 
L 413.578512 179.96086 
L 415.5 182.676671 
L 417.421488 182.687026 
L 419.342975 180.201785 
L 421.264463 97.823617 
L 423.18595 97.806249 
L 425.107438 97.809447 
L 427.028926 97.805567 
L 428.950413 97.803505 
L 430.871901 101.391959 
L 432.793388 147.911609 
L 434.714876 148.368538 
L 436.636364 148.372931 
L 438.557851 148.269979 
L 440.479339 148.382914 
L 442.400826 159.597238 
L 444.322314 159.676659 
L 446.243802 159.667314 
L 448.165289 159.472473 
L 450.086777 96.256173 
L 452.008264 96.270266 
L 453.929752 96.361667 
L 455.85124 96.309528 
L 457.772727 96.213462 
L 459.694215 96.307515 
L 461.615702 103.83469 
L 463.53719 103.834437 
L 465.458678 103.801905 
L 467.380165 103.778649 
L 469.301653 150.353695 
L 471.22314 161.473635 
L 473.144628 161.473992 
L 475.066116 161.464779 
L 476.987603 108.878061 
L 478.909091 110.241694 
L 480.830579 105.464376 
L 482.752066 105.477179 
L 484.673554 105.472142 
L 486.595041 107.608451 
L 488.516529 122.486266 
L 490.438017 122.293676 
L 492.359504 122.32601 
L 494.280992 167.05456 
L 496.202479 166.691138 
L 498.123967 164.20636 
L 500.045455 161.775377 
L 501.966942 167.054066 
L 503.88843 163.828521 
L 505.809917 154.266956 
L 507.731405 147.891695 
L 509.652893 147.421961 
L 511.57438 150.04186 
L 513.495868 149.835559 
L 515.417355 149.360679 
L 517.338843 136.060626 
L 519.260331 136.031197 
L 521.181818 135.904382 
L 523.103306 135.953133 
L 525.024793 135.81296 
L 526.946281 135.336056 
L 528.867769 152.250234 
L 530.789256 152.129771 
L 532.710744 100.301864 
L 534.632231 100.304539 
L 536.553719 100.313848 
L 538.475207 100.334112 
L 540.396694 100.33539 
L 542.318182 100.336668 
L 544.239669 151.150438 
L 546.161157 149.662119 
L 548.082645 149.575904 
L 550.004132 149.334553 
L 551.92562 92.108841 
L 553.847107 92.105674 
L 555.768595 92.020239 
L 557.690083 92.022717 
L 559.61157 92.023426 
L 561.533058 92.058624 
L 563.454545 143.72166 
L 565.376033 117.612669 
L 567.297521 117.618286 
L 569.219008 117.623838 
L 571.140496 117.627666 
L 573.061983 117.627941 
L 574.983471 201.476359 
L 576.904959 202.244117 
L 578.826446 201.350329 
L 580.747934 192.702021 
L 582.669421 191.811955 
L 584.590909 191.808917 
L 586.512397 140.740005 
L 588.433884 140.74449 
L 590.355372 140.745426 
L 592.27686 140.736143 
L 594.198347 140.733855 
L 596.119835 140.720506 
L 598.041322 148.056049 
L 599.96281 120.464322 
L 601.884298 120.466968 
L 603.805785 120.475791 
L 605.727273 120.563683 
L 607.64876 120.566934 
L 609.570248 120.56099 
L 611.491736 132.258678 
L 613.413223 132.256835 
L 615.334711 133.250291 
L 617.256198 133.233493 
L 619.177686 135.503518 
L 621.099174 135.504541 
L 623.020661 132.447599 
L 624.942149 132.420218 
L 626.863636 132.44102 
L 628.785124 132.220176 
L 630.706612 86.409651 
L 632.628099 86.256501 
L 634.549587 133.10849 
L 636.471074 151.101882 
" clip-path="url(#p357bbdd991)" style="fill: none; stroke: #1f77b4; stroke-width: 1.5; stroke-linecap: square"/>
   </g>
   <g id="line2d_32">
    <path d="M 405.892562 168.633755 
L 407.81405 168.645575 
L 409.735537 168.665412 
L 411.657025 168.687155 
L 413.578512 169.262592 
L 415.5 109.492142 
L 417.421488 109.51003 
L 419.342975 109.511626 
L 421.264463 109.510055 
L 423.18595 109.50999 
L 425.107438 109.906881 
L 427.028926 162.594182 
L 428.950413 162.592756 
L 430.871901 162.596084 
L 432.793388 156.359248 
L 434.714876 156.359554 
L 436.636364 156.346172 
L 438.557851 156.362346 
L 440.479339 156.361031 
L 442.400826 156.340265 
L 444.322314 153.812902 
L 446.243802 153.812902 
L 448.165289 153.806198 
L 450.086777 131.433992 
L 452.008264 131.435959 
L 453.929752 131.438968 
L 455.85124 131.439319 
L 457.772727 131.434505 
L 459.694215 128.535251 
L 461.615702 128.576502 
L 463.53719 128.570068 
L 465.458678 128.571665 
L 467.380165 128.567088 
L 469.301653 90.401485 
L 471.22314 90.216717 
L 473.144628 89.953161 
L 475.066116 89.251027 
L 476.987603 89.078604 
L 478.909091 89.841847 
L 480.830579 134.63002 
L 482.752066 151.135497 
L 484.673554 150.877096 
L 486.595041 153.523235 
L 488.516529 186.520645 
L 490.438017 180.094772 
L 492.359504 182.362267 
L 494.280992 182.628459 
L 496.202479 182.692 
L 498.123967 181.887089 
L 500.045455 171.439793 
L 501.966942 181.048137 
L 503.88843 181.074031 
L 505.809917 181.051222 
L 507.731405 181.258062 
L 509.652893 173.384775 
L 511.57438 173.729055 
L 513.495868 174.026741 
L 515.417355 171.718219 
L 517.338843 171.713643 
L 519.260331 171.714215 
L 521.181818 171.868717 
L 523.103306 146.598143 
L 525.024793 146.590078 
L 526.946281 146.585407 
L 528.867769 146.573107 
L 530.789256 146.583477 
L 532.710744 146.588824 
L 534.632231 166.132411 
L 536.553719 166.335037 
L 538.475207 166.380305 
L 540.396694 149.419687 
L 542.318182 149.418472 
L 544.239669 149.418406 
L 546.161157 136.651012 
L 548.082645 136.249646 
L 550.004132 133.665821 
L 551.92562 133.350673 
L 553.847107 133.29704 
L 555.768595 132.488295 
L 557.690083 137.77892 
L 559.61157 137.771737 
L 561.533058 137.781761 
L 563.454545 161.719573 
L 565.376033 39.083799 
L 567.297521 39.08543 
L 569.219008 39.080526 
L 571.140496 39.073984 
L 573.061983 39.075857 
L 574.983471 39.06 
L 576.904959 121.520846 
L 578.826446 117.401956 
L 580.747934 119.076408 
L 582.669421 124.248909 
L 584.590909 124.026794 
L 586.512397 124.233649 
L 588.433884 124.298847 
L 590.355372 134.267509 
L 592.27686 135.786682 
L 594.198347 139.951514 
L 596.119835 143.617263 
L 598.041322 203.350586 
L 599.96281 205.80686 
L 601.884298 207.374037 
L 603.805785 207.255184 
L 605.727273 208.405795 
L 607.64876 208.378359 
L 609.570248 207.456855 
L 611.491736 207.289578 
L 613.413223 207.295499 
L 615.334711 207.293939 
L 617.256198 206.219842 
L 619.177686 206.228534 
L 621.099174 206.296857 
L 623.020661 207.525259 
L 624.942149 207.59256 
L 626.863636 207.82889 
L 628.785124 200.48853 
L 630.706612 198.989765 
L 632.628099 199.595426 
L 634.549587 197.873397 
L 636.471074 198.914516 
" clip-path="url(#p357bbdd991)" style="fill: none; stroke: #ff7f0e; stroke-width: 1.5; stroke-linecap: square"/>
   </g>
   <g id="patch_9">
    <path d="M 394.363636 224.28 
L 394.363636 30.24 
" style="fill: none; stroke: #000000; stroke-width: 0.8; stroke-linejoin: miter; stroke-linecap: square"/>
   </g>
   <g id="patch_10">
    <path d="M 648 224.28 
L 648 30.24 
" style="fill: none; stroke: #000000; stroke-width: 0.8; stroke-linejoin: miter; stroke-linecap: square"/>
   </g>
   <g id="patch_11">
    <path d="M 394.363636 224.28 
L 648 224.28 
" style="fill: none; stroke: #000000; stroke-width: 0.8; stroke-linejoin: miter; stroke-linecap: square"/>
   </g>
   <g id="patch_12">
    <path d="M 394.363636 30.24 
L 648 30.24 
" style="fill: none; stroke: #000000; stroke-width: 0.8; stroke-linejoin: miter; stroke-linecap: square"/>
   </g>
   <g id="text_34">
    <!-- P99th Latency (5 sec. rolling window) -->
    <g transform="translate(427.497459 24.24)scale(0.12 -0.12)">
     <defs>
      <path id="CMSS17-50" d="M 2106 1856 
C 2874 1856 3501 2453 3501 3158 
C 3501 3850 2899 4453 2067 4453 
L 570 4453 
L 570 0 
L 1107 0 
L 1107 1856 
L 2106 1856 
z
M 1926 4096 
C 2669 4096 2995 3627 2995 3157 
C 2995 2720 2694 2226 1926 2226 
L 1094 2226 
L 1094 4096 
L 1926 4096 
z
" transform="scale(0.015625)"/>
      <path id="CMSS17-39" d="M 435 174 
C 614 21 845 -128 1235 -128 
C 2010 -128 2752 721 2752 2095 
C 2752 3932 1952 4229 1523 4229 
C 1094 4229 819 4041 582 3741 
C 301 3397 250 3090 250 2733 
C 250 2307 326 2045 506 1745 
C 749 1357 973 1275 1222 1275 
C 1600 1275 1978 1459 2234 1776 
C 2189 902 1798 267 1235 267 
C 1005 267 819 339 634 516 
L 435 174 
z
M 2214 2746 
C 2221 2703 2221 2622 2221 2596 
C 2221 2074 1914 1664 1466 1664 
C 1171 1664 1018 1813 902 2006 
C 762 2249 755 2485 755 2733 
C 755 2976 755 3244 934 3511 
C 1069 3703 1235 3840 1523 3840 
C 2112 3840 2208 3000 2214 2746 
z
" transform="scale(0.015625)"/>
      <path id="CMSS17-68" d="M 2618 1891 
C 2618 2292 2522 2820 1798 2820 
C 1395 2820 1133 2623 947 2407 
L 947 4448 
L 474 4448 
L 474 32 
L 960 32 
L 960 1573 
C 960 1973 1114 2432 1549 2432 
C 2112 2432 2131 2056 2131 1839 
L 2131 32 
L 2618 32 
L 2618 1891 
z
" transform="scale(0.015625)"/>
     </defs>
     <use xlink:href="#CMSS17-50" transform="scale(0.996264)"/>
     <use xlink:href="#CMSS17-39" transform="translate(59.735586 0)scale(0.996264)"/>
     <use xlink:href="#CMSS17-39" transform="translate(106.57921 0)scale(0.996264)"/>
     <use xlink:href="#CMSS17-74" transform="translate(153.422833 0)scale(0.996264)"/>
     <use xlink:href="#CMSS17-68" transform="translate(187.2544 0)scale(0.996264)"/>
     <use xlink:href="#CMSS17-4c" transform="translate(266.688456 0)scale(0.996264)"/>
     <use xlink:href="#CMSS17-61" transform="translate(317.375561 0)scale(0.996264)"/>
     <use xlink:href="#CMSS17-74" transform="translate(362.297482 0)scale(0.996264)"/>
     <use xlink:href="#CMSS17-65" transform="translate(396.129049 0)scale(0.996264)"/>
     <use xlink:href="#CMSS17-6e" transform="translate(437.767871 0)scale(0.996264)"/>
     <use xlink:href="#CMSS17-63" transform="translate(485.972814 0)scale(0.996264)"/>
     <use xlink:href="#CMSS17-79" transform="translate(527.611636 0)scale(0.996264)"/>
     <use xlink:href="#CMSS17-28" transform="translate(601.84089 0)scale(0.996264)"/>
     <use xlink:href="#CMSS17-35" transform="translate(638.274804 0)scale(0.996264)"/>
     <use xlink:href="#CMSS17-73" transform="translate(716.347541 0)scale(0.996264)"/>
     <use xlink:href="#CMSS17-65" transform="translate(752.261083 0)scale(0.996264)"/>
     <use xlink:href="#CMSS17-63" transform="translate(793.899905 0)scale(0.996264)"/>
     <use xlink:href="#CMSS17-2e" transform="translate(835.538727 0)scale(0.996264)"/>
     <use xlink:href="#CMSS17-72" transform="translate(903.201739 0)scale(0.996264)"/>
     <use xlink:href="#CMSS17-6f" transform="translate(935.111511 0)scale(0.996264)"/>
     <use xlink:href="#CMSS17-6c" transform="translate(981.955135 0)scale(0.996264)"/>
     <use xlink:href="#CMSS17-6c" transform="translate(1004.135858 0)scale(0.996264)"/>
     <use xlink:href="#CMSS17-69" transform="translate(1026.316581 0)scale(0.996264)"/>
     <use xlink:href="#CMSS17-6e" transform="translate(1048.497304 0)scale(0.996264)"/>
     <use xlink:href="#CMSS17-67" transform="translate(1096.702247 0)scale(0.996264)"/>
     <use xlink:href="#CMSS17-77" transform="translate(1174.774983 0)scale(0.996264)"/>
     <use xlink:href="#CMSS17-69" transform="translate(1238.594528 0)scale(0.996264)"/>
     <use xlink:href="#CMSS17-6e" transform="translate(1260.775251 0)scale(0.996264)"/>
     <use xlink:href="#CMSS17-64" transform="translate(1308.980195 0)scale(0.996264)"/>
     <use xlink:href="#CMSS17-6f" transform="translate(1357.185138 0)scale(0.996264)"/>
     <use xlink:href="#CMSS17-77" transform="translate(1401.426307 0)scale(0.996264)"/>
     <use xlink:href="#CMSS17-29" transform="translate(1465.245852 0)scale(0.996264)"/>
    </g>
   </g>
   <g id="legend_2">
    <g id="patch_13">
     <path d="M 584.231706 66.114357 
L 641 66.114357 
Q 643 66.114357 643 64.114357 
L 643 37.24 
Q 643 35.24 641 35.24 
L 584.231706 35.24 
Q 582.231706 35.24 582.231706 37.24 
L 582.231706 64.114357 
Q 582.231706 66.114357 584.231706 66.114357 
z
" style="fill: #ffffff; opacity: 0.8; stroke: #cccccc; stroke-linejoin: miter"/>
    </g>
    <g id="line2d_33">
     <path d="M 586.231706 42.74 
L 596.231706 42.74 
L 606.231706 42.74 
" style="fill: none; stroke: #1f77b4; stroke-width: 1.5; stroke-linecap: square"/>
    </g>
    <g id="text_35">
     <!-- LSD -->
     <g transform="translate(614.231706 46.24)scale(0.1 -0.1)">
      <use xlink:href="#CMSS17-4c" transform="scale(0.996264)"/>
      <use xlink:href="#CMSS17-53" transform="translate(50.687105 0)scale(0.996264)"/>
      <use xlink:href="#CMSS17-44" transform="translate(102.735622 0)scale(0.996264)"/>
     </g>
    </g>
    <g id="line2d_34">
     <path d="M 586.231706 56.677178 
L 596.231706 56.677178 
L 606.231706 56.677178 
" style="fill: none; stroke: #ff7f0e; stroke-width: 1.5; stroke-linecap: square"/>
    </g>
    <g id="text_36">
     <!-- BASE -->
     <g transform="translate(614.231706 60.177178)scale(0.1 -0.1)">
      <use xlink:href="#CMSS17-42" transform="scale(0.996264)"/>
      <use xlink:href="#CMSS17-41" transform="translate(62.33804 0)scale(0.996264)"/>
      <use xlink:href="#CMSS17-53" transform="translate(124.555895 0)scale(0.996264)"/>
      <use xlink:href="#CMSS17-45" transform="translate(176.604411 0)scale(0.996264)"/>
     </g>
    </g>
   </g>
  </g>
 </g>
 <defs>
  <clipPath id="p816042574c">
   <rect x="90" y="30.24" width="253.636364" height="194.04"/>
  </clipPath>
  <clipPath id="p357bbdd991">
   <rect x="394.363636" y="30.24" width="253.636364" height="194.04"/>
  </clipPath>
 </defs>
</svg>
