<?xml version="1.0" encoding="utf-8" standalone="no"?>
<!DOCTYPE svg PUBLIC "-//W3C//DTD SVG 1.1//EN"
  "http://www.w3.org/Graphics/SVG/1.1/DTD/svg11.dtd">
<svg xmlns:xlink="http://www.w3.org/1999/xlink" width="432pt" height="216pt" viewBox="0 0 432 216" xmlns="http://www.w3.org/2000/svg" version="1.1">
 <metadata>
  <rdf:RDF xmlns:dc="http://purl.org/dc/elements/1.1/" xmlns:cc="http://creativecommons.org/ns#" xmlns:rdf="http://www.w3.org/1999/02/22-rdf-syntax-ns#">
   <cc:Work>
    <dc:type rdf:resource="http://purl.org/dc/dcmitype/StillImage"/>
    <dc:date>2022-07-24T05:30:32.822515</dc:date>
    <dc:format>image/svg+xml</dc:format>
    <dc:creator>
     <cc:Agent>
      <dc:title>Matplotlib v3.5.2, https://matplotlib.org/</dc:title>
     </cc:Agent>
    </dc:creator>
   </cc:Work>
  </rdf:RDF>
 </metadata>
 <defs>
  <style type="text/css">*{stroke-linejoin: round; stroke-linecap: butt}</style>
 </defs>
 <g id="figure_1">
  <g id="patch_1">
   <path d="M 0 216 
L 432 216 
L 432 0 
L 0 0 
z
" style="fill: #ffffff"/>
  </g>
  <g id="axes_1">
   <g id="patch_2">
    <path d="M 54 192.24 
L 206.181818 192.24 
L 206.181818 25.92 
L 54 25.92 
z
" style="fill: #ffffff"/>
   </g>
   <g id="matplotlib.axis_1">
    <g id="xtick_1">
     <g id="line2d_1">
      <defs>
       <path id="mfd05c733a8" d="M 0 0 
L 0 3.5 
" style="stroke: #000000; stroke-width: 0.8"/>
      </defs>
      <g>
       <use xlink:href="#mfd05c733a8" x="60.917355" y="192.24" style="stroke: #000000; stroke-width: 0.8"/>
      </g>
     </g>
     <g id="text_1">
      <!-- $\mathdefault{0}$ -->
      <g transform="translate(58.426688 206.158498)scale(0.1 -0.1)">
       <defs>
        <path id="CMR17-30" d="M 2688 2025 
C 2688 2416 2682 3080 2413 3591 
C 2176 4039 1798 4198 1466 4198 
C 1158 4198 768 4058 525 3597 
C 269 3118 243 2524 243 2025 
C 243 1661 250 1106 448 619 
C 723 -39 1216 -128 1466 -128 
C 1760 -128 2208 -7 2470 600 
C 2662 1042 2688 1559 2688 2025 
z
M 1466 -26 
C 1056 -26 813 325 723 812 
C 653 1188 653 1738 653 2096 
C 653 2588 653 2997 736 3387 
C 858 3929 1216 4096 1466 4096 
C 1728 4096 2067 3923 2189 3400 
C 2272 3036 2278 2607 2278 2096 
C 2278 1680 2278 1169 2202 792 
C 2067 95 1690 -26 1466 -26 
z
" transform="scale(0.015625)"/>
       </defs>
       <use xlink:href="#CMR17-30" transform="scale(0.996264)"/>
      </g>
     </g>
    </g>
    <g id="xtick_2">
     <g id="line2d_2">
      <g>
       <use xlink:href="#mfd05c733a8" x="118.085582" y="192.24" style="stroke: #000000; stroke-width: 0.8"/>
      </g>
     </g>
     <g id="text_2">
      <!-- $\mathdefault{50}$ -->
      <g transform="translate(113.104246 206.158498)scale(0.1 -0.1)">
       <defs>
        <path id="CMR17-35" d="M 730 3692 
C 794 3666 1056 3584 1325 3584 
C 1920 3584 2246 3911 2432 4100 
C 2432 4157 2432 4192 2394 4192 
C 2387 4192 2374 4192 2323 4163 
C 2099 4058 1837 3973 1517 3973 
C 1325 3973 1037 3999 723 4139 
C 653 4171 640 4171 634 4171 
C 602 4171 595 4164 595 4037 
L 595 2203 
C 595 2089 595 2057 659 2057 
C 691 2057 704 2070 736 2114 
C 941 2401 1222 2522 1542 2522 
C 1766 2522 2246 2382 2246 1289 
C 2246 1085 2246 715 2054 421 
C 1894 159 1645 25 1370 25 
C 947 25 518 320 403 814 
C 429 807 480 795 506 795 
C 589 795 749 840 749 1038 
C 749 1210 627 1280 506 1280 
C 358 1280 262 1190 262 1011 
C 262 454 704 -128 1382 -128 
C 2042 -128 2669 440 2669 1264 
C 2669 2030 2170 2624 1549 2624 
C 1222 2624 947 2503 730 2274 
L 730 3692 
z
" transform="scale(0.015625)"/>
       </defs>
       <use xlink:href="#CMR17-35" transform="scale(0.996264)"/>
       <use xlink:href="#CMR17-30" transform="translate(45.690477 0)scale(0.996264)"/>
      </g>
     </g>
    </g>
    <g id="xtick_3">
     <g id="line2d_3">
      <g>
       <use xlink:href="#mfd05c733a8" x="175.253808" y="192.24" style="stroke: #000000; stroke-width: 0.8"/>
      </g>
     </g>
     <g id="text_3">
      <!-- $\mathdefault{100}$ -->
      <g transform="translate(167.781805 206.158498)scale(0.1 -0.1)">
       <defs>
        <path id="CMR17-31" d="M 1702 4058 
C 1702 4192 1696 4192 1606 4192 
C 1357 3916 979 3827 621 3827 
C 602 3827 570 3827 563 3808 
C 557 3795 557 3782 557 3648 
C 755 3648 1088 3686 1344 3839 
L 1344 461 
C 1344 236 1331 160 781 160 
L 589 160 
L 589 0 
C 896 0 1216 0 1523 0 
C 1830 0 2150 0 2458 0 
L 2458 160 
L 2266 160 
C 1715 160 1702 230 1702 458 
L 1702 4058 
z
" transform="scale(0.015625)"/>
       </defs>
       <use xlink:href="#CMR17-31" transform="scale(0.996264)"/>
       <use xlink:href="#CMR17-30" transform="translate(45.690477 0)scale(0.996264)"/>
       <use xlink:href="#CMR17-30" transform="translate(91.380954 0)scale(0.996264)"/>
      </g>
     </g>
    </g>
    <g id="text_4">
     <!-- Time (sec) -->
     <g transform="translate(107.467396 219.567657)scale(0.1 -0.1)">
      <defs>
       <path id="CMSS17-54" d="M 2317 3968 
L 2848 3968 
C 2925 3968 3002 3968 3078 3968 
L 3878 3968 
L 3878 4376 
L 218 4376 
L 218 3968 
L 1018 3968 
C 1094 3968 1171 3968 1248 3968 
L 1779 3968 
L 1779 -32 
L 2317 -32 
L 2317 3968 
z
" transform="scale(0.015625)"/>
       <path id="CMSS17-69" d="M 979 4183 
L 442 4183 
L 442 3648 
L 979 3648 
L 979 4183 
z
M 947 2739 
L 474 2739 
L 474 0 
L 947 0 
L 947 2739 
z
" transform="scale(0.015625)"/>
       <path id="CMSS17-6d" d="M 4288 1877 
C 4288 2308 4179 2816 3462 2816 
C 2982 2816 2694 2516 2566 2331 
C 2451 2670 2182 2816 1798 2816 
C 1363 2816 1088 2568 941 2389 
L 941 2758 
L 474 2758 
L 474 0 
L 960 0 
L 960 1559 
C 960 1939 1101 2428 1555 2428 
C 2138 2428 2138 2016 2138 1829 
L 2138 0 
L 2624 0 
L 2624 1559 
C 2624 1939 2765 2428 3219 2428 
C 3802 2428 3802 2016 3802 1829 
L 3802 0 
L 4288 0 
L 4288 1877 
z
" transform="scale(0.015625)"/>
       <path id="CMSS17-65" d="M 2502 1377 
C 2502 1590 2490 2003 2285 2345 
C 2061 2713 1696 2816 1421 2816 
C 755 2816 192 2188 192 1375 
C 192 582 774 -64 1510 -64 
C 1798 -64 2150 19 2470 248 
C 2470 274 2458 414 2451 420 
C 2451 433 2432 630 2432 656 
C 2125 407 1773 325 1517 325 
C 1107 325 666 667 646 1377 
L 2502 1377 
z
M 698 1728 
C 781 2084 1062 2421 1421 2421 
C 1517 2421 1965 2421 2080 1728 
L 698 1728 
z
" transform="scale(0.015625)"/>
       <path id="CMSS17-28" d="M 1613 4768 
C 1267 4417 474 3601 474 1588 
C 474 -433 1267 -1243 1613 -1600 
L 2003 -1600 
C 1216 -784 960 357 960 1581 
C 960 2798 1203 3946 2003 4768 
L 1613 4768 
z
" transform="scale(0.015625)"/>
       <path id="CMSS17-73" d="M 2061 2627 
C 1683 2807 1389 2807 1197 2807 
C 742 2807 198 2648 198 2003 
C 198 1359 902 1218 1094 1179 
C 1389 1122 1715 1058 1715 740 
C 1715 337 1254 337 1171 337 
C 915 337 563 407 243 638 
L 166 210 
C 531 0 883 -64 1178 -64 
C 1965 -64 2163 416 2163 781 
C 2163 1094 1984 1305 1862 1401 
C 1651 1568 1574 1587 1050 1696 
C 960 1709 646 1779 646 2066 
C 646 2432 1050 2432 1139 2432 
C 1555 2432 1811 2303 1984 2208 
L 2061 2627 
z
" transform="scale(0.015625)"/>
       <path id="CMSS17-63" d="M 2464 2541 
C 2464 2585 2170 2714 2093 2739 
C 1882 2816 1613 2816 1542 2816 
C 710 2816 211 2093 211 1363 
C 211 595 768 -64 1517 -64 
C 1946 -64 2253 76 2502 242 
L 2464 664 
C 2189 453 1869 337 1523 337 
C 1024 337 698 774 698 1369 
C 698 1831 909 2414 1549 2414 
C 1901 2414 2099 2343 2394 2145 
L 2464 2541 
z
" transform="scale(0.015625)"/>
       <path id="CMSS17-29" d="M 723 -1600 
C 1069 -1249 1862 -433 1862 1581 
C 1862 3601 1069 4411 723 4768 
L 333 4768 
C 1120 3952 1376 2811 1376 1588 
C 1376 370 1133 -778 333 -1600 
L 723 -1600 
z
" transform="scale(0.015625)"/>
      </defs>
      <use xlink:href="#CMSS17-54" transform="scale(0.996264)"/>
      <use xlink:href="#CMSS17-69" transform="translate(63.819454 0)scale(0.996264)"/>
      <use xlink:href="#CMSS17-6d" transform="translate(86.000177 0)scale(0.996264)"/>
      <use xlink:href="#CMSS17-65" transform="translate(160.229431 0)scale(0.996264)"/>
      <use xlink:href="#CMSS17-28" transform="translate(233.097366 0)scale(0.996264)"/>
      <use xlink:href="#CMSS17-73" transform="translate(269.53128 0)scale(0.996264)"/>
      <use xlink:href="#CMSS17-65" transform="translate(305.444822 0)scale(0.996264)"/>
      <use xlink:href="#CMSS17-63" transform="translate(347.083644 0)scale(0.996264)"/>
      <use xlink:href="#CMSS17-29" transform="translate(388.722467 0)scale(0.996264)"/>
     </g>
    </g>
   </g>
   <g id="matplotlib.axis_2">
    <g id="ytick_1">
     <g id="line2d_4">
      <defs>
       <path id="me114fd9855" d="M 0 0 
L -3.5 0 
" style="stroke: #000000; stroke-width: 0.8"/>
      </defs>
      <g>
       <use xlink:href="#me114fd9855" x="54" y="181.600088" style="stroke: #000000; stroke-width: 0.8"/>
      </g>
     </g>
     <g id="text_5">
      <!-- $\mathdefault{4000}$ -->
      <g transform="translate(27.074659 185.059337)scale(0.1 -0.1)">
       <defs>
        <path id="CMR17-34" d="M 2150 4122 
C 2150 4256 2144 4256 2029 4256 
L 128 1254 
L 128 1088 
L 1779 1088 
L 1779 457 
C 1779 224 1766 160 1318 160 
L 1197 160 
L 1197 0 
C 1402 0 1747 0 1965 0 
C 2182 0 2528 0 2733 0 
L 2733 160 
L 2611 160 
C 2163 160 2150 224 2150 457 
L 2150 1088 
L 2803 1088 
L 2803 1254 
L 2150 1254 
L 2150 4122 
z
M 1798 3703 
L 1798 1254 
L 256 1254 
L 1798 3703 
z
" transform="scale(0.015625)"/>
       </defs>
       <use xlink:href="#CMR17-34" transform="scale(0.996264)"/>
       <use xlink:href="#CMR17-30" transform="translate(45.690477 0)scale(0.996264)"/>
       <use xlink:href="#CMR17-30" transform="translate(91.380954 0)scale(0.996264)"/>
       <use xlink:href="#CMR17-30" transform="translate(137.071431 0)scale(0.996264)"/>
      </g>
     </g>
    </g>
    <g id="ytick_2">
     <g id="line2d_5">
      <g>
       <use xlink:href="#me114fd9855" x="54" y="157.908455" style="stroke: #000000; stroke-width: 0.8"/>
      </g>
     </g>
     <g id="text_6">
      <!-- $\mathdefault{6000}$ -->
      <g transform="translate(27.074659 161.367704)scale(0.1 -0.1)">
       <defs>
        <path id="CMR17-36" d="M 678 2176 
C 678 3690 1395 4032 1811 4032 
C 1946 4032 2272 4009 2400 3776 
C 2298 3776 2106 3776 2106 3553 
C 2106 3381 2246 3323 2336 3323 
C 2394 3323 2566 3348 2566 3560 
C 2566 3954 2246 4179 1805 4179 
C 1043 4179 243 3390 243 1984 
C 243 253 966 -128 1478 -128 
C 2099 -128 2688 427 2688 1283 
C 2688 2081 2170 2662 1517 2662 
C 1126 2662 838 2407 678 1960 
L 678 2176 
z
M 1478 25 
C 691 25 691 1200 691 1436 
C 691 1896 909 2560 1504 2560 
C 1613 2560 1926 2560 2138 2120 
C 2253 1870 2253 1609 2253 1289 
C 2253 944 2253 690 2118 434 
C 1978 171 1773 25 1478 25 
z
" transform="scale(0.015625)"/>
       </defs>
       <use xlink:href="#CMR17-36" transform="scale(0.996264)"/>
       <use xlink:href="#CMR17-30" transform="translate(45.690477 0)scale(0.996264)"/>
       <use xlink:href="#CMR17-30" transform="translate(91.380954 0)scale(0.996264)"/>
       <use xlink:href="#CMR17-30" transform="translate(137.071431 0)scale(0.996264)"/>
      </g>
     </g>
    </g>
    <g id="ytick_3">
     <g id="line2d_6">
      <g>
       <use xlink:href="#me114fd9855" x="54" y="134.216822" style="stroke: #000000; stroke-width: 0.8"/>
      </g>
     </g>
     <g id="text_7">
      <!-- $\mathdefault{8000}$ -->
      <g transform="translate(27.074659 137.676072)scale(0.1 -0.1)">
       <defs>
        <path id="CMR17-38" d="M 1741 2264 
C 2144 2467 2554 2773 2554 3263 
C 2554 3841 1990 4179 1472 4179 
C 890 4179 378 3759 378 3180 
C 378 3021 416 2747 666 2505 
C 730 2442 998 2251 1171 2130 
C 883 1983 211 1634 211 934 
C 211 279 838 -128 1459 -128 
C 2144 -128 2720 362 2720 1010 
C 2720 1590 2330 1857 2074 2029 
L 1741 2264 
z
M 902 2822 
C 851 2854 595 3051 595 3351 
C 595 3739 998 4032 1459 4032 
C 1965 4032 2336 3676 2336 3262 
C 2336 2669 1670 2331 1638 2331 
C 1632 2331 1626 2331 1574 2370 
L 902 2822 
z
M 2080 1519 
C 2176 1449 2483 1240 2483 851 
C 2483 381 2010 25 1472 25 
C 890 25 448 438 448 940 
C 448 1443 838 1862 1280 2060 
L 2080 1519 
z
" transform="scale(0.015625)"/>
       </defs>
       <use xlink:href="#CMR17-38" transform="scale(0.996264)"/>
       <use xlink:href="#CMR17-30" transform="translate(45.690477 0)scale(0.996264)"/>
       <use xlink:href="#CMR17-30" transform="translate(91.380954 0)scale(0.996264)"/>
       <use xlink:href="#CMR17-30" transform="translate(137.071431 0)scale(0.996264)"/>
      </g>
     </g>
    </g>
    <g id="ytick_4">
     <g id="line2d_7">
      <g>
       <use xlink:href="#me114fd9855" x="54" y="110.52519" style="stroke: #000000; stroke-width: 0.8"/>
      </g>
     </g>
     <g id="text_8">
      <!-- $\mathdefault{10000}$ -->
      <g transform="translate(22.093324 113.984439)scale(0.1 -0.1)">
       <use xlink:href="#CMR17-31" transform="scale(0.996264)"/>
       <use xlink:href="#CMR17-30" transform="translate(45.690477 0)scale(0.996264)"/>
       <use xlink:href="#CMR17-30" transform="translate(91.380954 0)scale(0.996264)"/>
       <use xlink:href="#CMR17-30" transform="translate(137.071431 0)scale(0.996264)"/>
       <use xlink:href="#CMR17-30" transform="translate(182.761908 0)scale(0.996264)"/>
      </g>
     </g>
    </g>
    <g id="ytick_5">
     <g id="line2d_8">
      <g>
       <use xlink:href="#me114fd9855" x="54" y="86.833557" style="stroke: #000000; stroke-width: 0.8"/>
      </g>
     </g>
     <g id="text_9">
      <!-- $\mathdefault{12000}$ -->
      <g transform="translate(22.093324 90.292806)scale(0.1 -0.1)">
       <defs>
        <path id="CMR17-32" d="M 2669 989 
L 2554 989 
C 2490 536 2438 459 2413 420 
C 2381 369 1920 369 1830 369 
L 602 369 
C 832 619 1280 1072 1824 1597 
C 2214 1967 2669 2402 2669 3035 
C 2669 3790 2067 4224 1395 4224 
C 691 4224 262 3604 262 3030 
C 262 2780 448 2748 525 2748 
C 589 2748 781 2787 781 3010 
C 781 3207 614 3264 525 3264 
C 486 3264 448 3258 422 3245 
C 544 3790 915 4058 1306 4058 
C 1862 4058 2227 3617 2227 3035 
C 2227 2479 1901 2000 1536 1584 
L 262 146 
L 262 0 
L 2515 0 
L 2669 989 
z
" transform="scale(0.015625)"/>
       </defs>
       <use xlink:href="#CMR17-31" transform="scale(0.996264)"/>
       <use xlink:href="#CMR17-32" transform="translate(45.690477 0)scale(0.996264)"/>
       <use xlink:href="#CMR17-30" transform="translate(91.380954 0)scale(0.996264)"/>
       <use xlink:href="#CMR17-30" transform="translate(137.071431 0)scale(0.996264)"/>
       <use xlink:href="#CMR17-30" transform="translate(182.761908 0)scale(0.996264)"/>
      </g>
     </g>
    </g>
    <g id="ytick_6">
     <g id="line2d_9">
      <g>
       <use xlink:href="#me114fd9855" x="54" y="63.141924" style="stroke: #000000; stroke-width: 0.8"/>
      </g>
     </g>
     <g id="text_10">
      <!-- $\mathdefault{14000}$ -->
      <g transform="translate(22.093324 66.601173)scale(0.1 -0.1)">
       <use xlink:href="#CMR17-31" transform="scale(0.996264)"/>
       <use xlink:href="#CMR17-34" transform="translate(45.690477 0)scale(0.996264)"/>
       <use xlink:href="#CMR17-30" transform="translate(91.380954 0)scale(0.996264)"/>
       <use xlink:href="#CMR17-30" transform="translate(137.071431 0)scale(0.996264)"/>
       <use xlink:href="#CMR17-30" transform="translate(182.761908 0)scale(0.996264)"/>
      </g>
     </g>
    </g>
    <g id="ytick_7">
     <g id="line2d_10">
      <g>
       <use xlink:href="#me114fd9855" x="54" y="39.450291" style="stroke: #000000; stroke-width: 0.8"/>
      </g>
     </g>
     <g id="text_11">
      <!-- $\mathdefault{16000}$ -->
      <g transform="translate(22.093324 42.909541)scale(0.1 -0.1)">
       <use xlink:href="#CMR17-31" transform="scale(0.996264)"/>
       <use xlink:href="#CMR17-36" transform="translate(45.690477 0)scale(0.996264)"/>
       <use xlink:href="#CMR17-30" transform="translate(91.380954 0)scale(0.996264)"/>
       <use xlink:href="#CMR17-30" transform="translate(137.071431 0)scale(0.996264)"/>
       <use xlink:href="#CMR17-30" transform="translate(182.761908 0)scale(0.996264)"/>
      </g>
     </g>
    </g>
    <g id="text_12">
     <!-- tpmC -->
     <g transform="translate(16.156145 120.592401)rotate(-90)scale(0.1 -0.1)">
      <defs>
       <path id="CMSS17-74" d="M 1069 2368 
L 1901 2368 
L 1901 2737 
L 1069 2737 
L 1069 3520 
L 614 3520 
L 614 2737 
L 109 2737 
L 109 2368 
L 602 2368 
L 602 749 
C 602 384 685 -64 1107 -64 
C 1427 -64 1722 25 2003 172 
L 1901 548 
C 1747 414 1562 337 1363 337 
C 1082 337 1069 696 1069 856 
L 1069 2368 
z
" transform="scale(0.015625)"/>
       <path id="CMSS17-70" d="M 966 333 
C 1178 129 1466 -5 1773 -5 
C 2368 -5 2880 603 2880 1412 
C 2880 2159 2496 2816 1946 2816 
C 1626 2816 1242 2702 954 2472 
L 954 2765 
L 480 2765 
L 480 -1216 
L 966 -1216 
L 966 333 
z
M 966 2100 
C 1018 2176 1235 2415 1587 2415 
C 2035 2415 2394 1960 2394 1412 
C 2394 787 1958 384 1530 384 
C 1402 384 1267 415 1139 523 
C 966 674 966 768 966 857 
L 966 2100 
z
" transform="scale(0.015625)"/>
       <path id="CMSS17-43" d="M 3501 714 
C 3072 427 2874 344 2355 344 
C 1459 344 934 1303 934 2179 
C 934 3112 1472 4032 2381 4032 
C 2790 4032 3059 3918 3386 3715 
L 3475 4217 
C 3168 4370 2778 4440 2387 4440 
C 1158 4440 397 3316 397 2179 
C 397 927 1299 -64 2323 -64 
C 2874 -64 3066 -19 3539 280 
L 3501 714 
z
" transform="scale(0.015625)"/>
      </defs>
      <use xlink:href="#CMSS17-74" transform="scale(0.996264)"/>
      <use xlink:href="#CMSS17-70" transform="translate(33.831567 0)scale(0.996264)"/>
      <use xlink:href="#CMSS17-6d" transform="translate(82.03651 0)scale(0.996264)"/>
      <use xlink:href="#CMSS17-43" transform="translate(156.265764 0)scale(0.996264)"/>
     </g>
    </g>
   </g>
   <g id="line2d_11">
    <path d="M 60.917355 140.992629 
L 62.06072 111.212247 
L 63.204084 88.634121 
L 64.347449 75.390498 
L 65.490813 69.434422 
L 66.634178 63.023466 
L 67.777543 47.315914 
L 68.920907 39.213375 
L 70.064272 38.644776 
L 71.207636 37.223278 
L 72.351001 35.138414 
L 73.494365 37.673419 
L 74.63773 35.920238 
L 75.781094 38.147252 
L 76.924459 37.175895 
L 78.067823 37.626036 
L 79.211188 39.616133 
L 80.354552 38.028793 
L 81.497917 39.876741 
L 82.641281 37.934027 
L 83.784646 37.175895 
L 84.92801 39.379217 
L 86.071375 61.033369 
L 87.214739 68.140859 
L 88.358104 65.866462 
L 89.501468 64.96618 
L 90.644833 65.605854 
L 91.788198 63.734215 
L 92.931562 40.705948 
L 94.074927 33.48 
L 95.218291 33.574767 
L 96.361656 34.380282 
L 97.50502 38.12356 
L 98.648385 39.189683 
L 99.791749 37.862952 
L 100.935114 40.824406 
L 102.078478 40.350573 
L 103.221843 44.851984 
L 104.365207 58.569439 
L 105.508572 60.843836 
L 106.651936 64.610805 
L 107.795301 61.578276 
L 108.938665 62.075801 
L 110.08203 60.441078 
L 111.225394 44.520301 
L 112.368759 41.037631 
L 113.512123 39.829358 
L 114.655488 40.113657 
L 115.798853 40.184732 
L 116.942217 40.326882 
L 118.085582 41.985296 
L 119.228946 43.004036 
L 120.372311 44.236001 
L 121.515675 43.264644 
L 122.65904 51.319799 
L 123.802404 52.836064 
L 124.945769 52.670223 
L 126.089133 54.115412 
L 127.232498 54.447095 
L 128.375862 63.994823 
L 129.519227 59.232805 
L 130.662591 59.588179 
L 131.805956 70.225722 
L 132.94932 78.778402 
L 134.092685 79.749759 
L 135.236049 73.495168 
L 136.379414 73.021335 
L 137.522778 70.533714 
L 138.666143 57.005791 
L 139.809508 47.955588 
L 140.952872 45.610116 
L 142.096237 46.53409 
L 143.239601 46.320865 
L 144.382966 46.155024 
L 145.52633 52.409615 
L 146.669695 55.67906 
L 147.813059 59.493413 
L 148.956424 58.806355 
L 150.099788 58.924814 
L 151.243153 59.919862 
L 152.386517 67.382726 
L 153.529882 74.158533 
L 154.673246 73.992692 
L 155.816611 74.229608 
L 156.959975 73.495168 
L 158.10334 73.447784 
L 159.246704 63.544682 
L 160.390069 71.315537 
L 161.533434 80.507891 
L 162.676798 85.317292 
L 163.820163 87.639072 
L 164.963527 86.099116 
L 166.106892 84.535469 
L 167.250256 68.922683 
L 168.393621 66.814127 
L 169.536985 64.705572 
L 170.68035 64.018515 
L 171.823714 65.321554 
L 172.967079 63.355149 
L 174.110443 63.568374 
L 175.253808 57.053175 
L 176.397172 54.399712 
L 177.540537 56.247659 
L 178.683901 67.880251 
L 179.827266 74.324375 
L 180.97063 73.945309 
L 182.113995 72.381661 
L 183.257359 74.016384 
L 184.400724 75.959097 
L 185.544089 74.466525 
L 186.687453 79.9156 
L 187.830818 89.439636 
L 188.974182 98.868906 
L 190.117547 103.299242 
L 191.260911 109.980282 
L 192.404276 113.060194 
L 193.54764 113.154961 
L 194.691005 113.913093 
L 195.834369 118.722495 
L 196.977734 126.256434 
L 198.121098 132.060884 
L 199.264463 142.414127 
" clip-path="url(#p99bb00a3ee)" style="fill: none; stroke: #1f77b4; stroke-width: 1.5; stroke-linecap: square"/>
   </g>
   <g id="line2d_12">
    <path d="M 60.917355 154.63901 
L 62.06072 152.080313 
L 63.204084 163.973513 
L 64.347449 155.953895 
L 65.490813 147.50309 
L 66.634178 142.200903 
L 67.777543 137.012435 
L 68.920907 131.160602 
L 70.064272 131.492285 
L 71.207636 138.907766 
L 72.351001 146.299555 
L 73.494365 146.015255 
L 74.63773 145.280815 
L 75.781094 146.346938 
L 76.924459 134.809113 
L 78.067823 123.034372 
L 79.211188 116.18749 
L 80.354552 117.585296 
L 81.497917 120.049226 
L 82.641281 119.575393 
L 83.784646 119.24371 
L 84.92801 121.375957 
L 86.071375 122.299931 
L 87.214739 122.181473 
L 88.358104 118.08282 
L 89.501468 118.414503 
L 90.644833 116.850856 
L 91.788198 115.547816 
L 92.931562 112.396829 
L 94.074927 110.311965 
L 95.218291 110.856872 
L 96.361656 109.008925 
L 97.50502 109.506449 
L 98.648385 109.056308 
L 99.791749 110.975331 
L 100.935114 110.359348 
L 102.078478 109.932899 
L 103.221843 110.856872 
L 104.365207 110.904256 
L 105.508572 111.11748 
L 106.651936 109.790749 
L 107.795301 111.40178 
L 108.938665 113.107578 
L 110.08203 114.552767 
L 111.225394 115.832115 
L 112.368759 117.845904 
L 113.512123 118.698803 
L 114.655488 117.869596 
L 115.798853 119.006794 
L 116.942217 116.092723 
L 118.085582 115.310899 
L 119.228946 119.764926 
L 120.372311 119.338477 
L 121.515675 118.840953 
L 122.65904 117.537913 
L 123.802404 120.617825 
L 124.945769 120.428292 
L 126.089133 115.145058 
L 127.232498 115.216133 
L 128.375862 115.547816 
L 129.519227 115.405666 
L 130.662591 114.647534 
L 131.805956 115.16875 
L 132.94932 115.453049 
L 134.092685 128.341297 
L 135.236049 129.09943 
L 136.379414 129.360038 
L 137.522778 129.69172 
L 138.666143 128.67298 
L 139.809508 129.786487 
L 140.952872 118.059129 
L 142.096237 120.9732 
L 143.239601 122.086706 
L 144.382966 122.489464 
L 145.52633 123.768812 
L 146.669695 123.982037 
L 147.813059 128.009615 
L 148.956424 127.583165 
L 150.099788 127.038258 
L 151.243153 135.211871 
L 152.386517 137.320426 
L 153.529882 136.704444 
L 154.673246 136.751827 
L 155.816611 137.581034 
L 156.959975 137.273043 
L 158.10334 130.734152 
L 159.246704 129.502187 
L 160.390069 135.946312 
L 161.533434 132.392567 
L 162.676798 133.790373 
L 163.820163 135.425096 
L 164.963527 134.074673 
L 166.106892 137.486268 
L 167.250256 140.116039 
L 168.393621 145.043898 
L 169.536985 143.148568 
L 170.68035 144.996515 
L 171.823714 146.22848 
L 172.967079 144.972824 
L 174.110443 140.542488 
L 175.253808 137.273043 
L 176.397172 141.703378 
L 177.540537 146.489088 
L 178.683901 154.236252 
L 179.827266 160.869909 
L 180.97063 167.337725 
L 182.113995 177.335594 
L 183.257359 180.652422 
L 184.400724 182.476678 
L 185.544089 181.931771 
L 186.687453 183.140044 
L 187.830818 183.187427 
L 188.974182 182.192379 
L 190.117547 183.211119 
L 191.260911 183.80341 
L 192.404276 184.68 
L 193.54764 184.3957 
L 194.691005 182.239762 
L 195.834369 181.600088 
L 196.977734 181.149947 
L 198.121098 180.960414 
" clip-path="url(#p99bb00a3ee)" style="fill: none; stroke: #ff7f0e; stroke-width: 1.5; stroke-linecap: square"/>
   </g>
   <g id="patch_3">
    <path d="M 54 192.24 
L 54 25.92 
" style="fill: none; stroke: #000000; stroke-width: 0.8; stroke-linejoin: miter; stroke-linecap: square"/>
   </g>
   <g id="patch_4">
    <path d="M 206.181818 192.24 
L 206.181818 25.92 
" style="fill: none; stroke: #000000; stroke-width: 0.8; stroke-linejoin: miter; stroke-linecap: square"/>
   </g>
   <g id="patch_5">
    <path d="M 54 192.24 
L 206.181818 192.24 
" style="fill: none; stroke: #000000; stroke-width: 0.8; stroke-linejoin: miter; stroke-linecap: square"/>
   </g>
   <g id="patch_6">
    <path d="M 54 25.92 
L 206.181818 25.92 
" style="fill: none; stroke: #000000; stroke-width: 0.8; stroke-linejoin: miter; stroke-linecap: square"/>
   </g>
   <g id="text_13">
    <!-- Requests (5 second rolling window) -->
    <g transform="translate(43.777439 19.92)scale(0.12 -0.12)">
     <defs>
      <path id="CMSS17-52" d="M 2522 2109 
L 2534 2115 
C 3533 2459 3539 3147 3539 3268 
C 3539 3873 2925 4453 2003 4453 
L 570 4453 
L 570 32 
L 1094 32 
L 1094 2048 
L 2035 2048 
L 3168 32 
L 3706 32 
L 2522 2109 
z
M 1094 2437 
L 1094 4096 
L 1933 4096 
C 2746 4096 3034 3637 3034 3267 
C 3034 2922 2778 2437 1933 2437 
L 1094 2437 
z
" transform="scale(0.015625)"/>
      <path id="CMSS17-71" d="M 2611 2816 
L 2138 2816 
L 2138 2428 
C 2112 2460 1818 2816 1318 2816 
C 736 2816 211 2228 211 1399 
C 211 633 653 -5 1229 -5 
C 1498 -5 1837 91 2125 365 
L 2125 -1216 
L 2611 -1216 
L 2611 2816 
z
M 2138 914 
C 2138 832 2138 718 1939 554 
C 1888 510 1747 384 1504 384 
C 1050 384 698 850 698 1399 
C 698 2011 1126 2415 1562 2415 
C 1926 2415 2138 2061 2138 1797 
L 2138 914 
z
" transform="scale(0.015625)"/>
      <path id="CMSS17-75" d="M 2618 2739 
L 2131 2739 
L 2131 972 
C 2131 498 1786 306 1421 306 
C 998 306 960 447 960 709 
L 960 2739 
L 474 2739 
L 474 678 
C 474 179 646 -64 1088 -64 
C 1306 -64 1798 -13 2144 306 
L 2144 0 
L 2618 0 
L 2618 2739 
z
" transform="scale(0.015625)"/>
      <path id="CMSS17-35" d="M 934 3752 
L 2502 3752 
L 2502 4160 
L 467 4160 
L 467 1781 
L 896 1781 
C 1011 2046 1248 2240 1555 2240 
C 1843 2240 2163 1989 2163 1266 
C 2163 493 1709 267 1376 267 
C 966 267 589 512 422 851 
L 218 499 
C 512 49 992 -128 1376 -128 
C 2118 -128 2701 497 2701 1253 
C 2701 2030 2182 2629 1562 2629 
C 1338 2629 1120 2553 934 2399 
L 934 3752 
z
" transform="scale(0.015625)"/>
      <path id="CMSS17-6f" d="M 2829 1356 
C 2829 2176 2221 2816 1504 2816 
C 768 2816 173 2157 173 1356 
C 173 544 787 -64 1498 -64 
C 2227 -64 2829 563 2829 1356 
z
M 1504 337 
C 1050 337 659 709 659 1408 
C 659 2151 1114 2427 1498 2427 
C 1914 2427 2342 2126 2342 1408 
C 2342 683 1926 337 1504 337 
z
" transform="scale(0.015625)"/>
      <path id="CMSS17-6e" d="M 2618 1877 
C 2618 2283 2522 2816 1798 2816 
C 1389 2816 1120 2606 941 2389 
L 941 2758 
L 474 2758 
L 474 0 
L 960 0 
L 960 1559 
C 960 1964 1114 2428 1549 2428 
C 2112 2428 2131 2048 2131 1829 
L 2131 0 
L 2618 0 
L 2618 1877 
z
" transform="scale(0.015625)"/>
      <path id="CMSS17-64" d="M 2611 4416 
L 2138 4416 
L 2138 2438 
C 1939 2603 1613 2756 1254 2756 
C 672 2756 211 2131 211 1347 
C 211 562 666 -64 1235 -64 
C 1677 -64 1971 172 2125 306 
L 2125 -13 
L 2611 -13 
L 2611 4416 
z
M 2125 836 
C 2125 747 2125 653 1926 482 
C 1798 375 1645 325 1498 325 
C 1152 325 698 576 698 1340 
C 698 2134 1210 2368 1562 2368 
C 1798 2368 1990 2254 2125 2065 
L 2125 836 
z
" transform="scale(0.015625)"/>
      <path id="CMSS17-72" d="M 954 1363 
C 954 1965 1395 2368 1958 2368 
L 1958 2789 
C 1549 2789 1165 2585 934 2253 
L 934 2758 
L 480 2758 
L 480 0 
L 954 0 
L 954 1363 
z
" transform="scale(0.015625)"/>
      <path id="CMSS17-6c" d="M 947 4416 
L 474 4416 
L 474 0 
L 947 0 
L 947 4416 
z
" transform="scale(0.015625)"/>
      <path id="CMSS17-67" d="M 2848 2808 
C 2483 2808 2170 2738 1914 2617 
C 1702 2777 1485 2808 1338 2808 
C 781 2808 358 2349 358 1814 
C 358 1468 550 1207 563 1195 
C 448 1035 384 863 384 672 
C 384 448 474 289 544 200 
C 211 -3 166 -314 166 -435 
C 166 -898 749 -1280 1498 -1280 
C 2253 -1280 2835 -898 2835 -428 
C 2835 448 1856 448 1587 448 
L 1069 448 
C 973 448 717 448 717 791 
C 717 921 774 1004 781 1010 
C 877 940 1075 832 1338 832 
C 1869 832 2310 1278 2310 1827 
C 2310 2132 2170 2355 2112 2432 
L 2131 2432 
C 2150 2432 2419 2432 2515 2432 
C 2720 2432 2739 2429 2918 2419 
L 2848 2808 
z
M 1338 1182 
C 1120 1182 813 1315 813 1823 
C 813 2375 1165 2464 1331 2464 
C 1549 2464 1856 2331 1856 1823 
C 1856 1271 1504 1182 1338 1182 
z
M 1581 -10 
C 1734 -10 2381 -10 2381 -442 
C 2381 -714 1984 -929 1504 -929 
C 1018 -929 621 -720 621 -435 
C 621 -403 621 -10 1062 -10 
L 1581 -10 
z
" transform="scale(0.015625)"/>
      <path id="CMSS17-77" d="M 4013 2752 
L 3526 2752 
L 3187 1601 
C 3117 1358 2918 685 2893 371 
L 2886 371 
C 2874 564 2765 1024 2586 1633 
L 2259 2752 
L 1818 2752 
L 1498 1658 
C 1338 1101 1216 627 1203 371 
L 1197 371 
C 1171 749 909 1633 870 1773 
L 582 2752 
L 83 2752 
L 915 0 
L 1402 0 
C 1734 1096 1990 1943 2010 2370 
C 2022 2160 2131 1707 2195 1484 
L 2618 0 
L 3181 0 
L 4013 2752 
z
" transform="scale(0.015625)"/>
     </defs>
     <use xlink:href="#CMSS17-52" transform="scale(0.996264)"/>
     <use xlink:href="#CMSS17-65" transform="translate(60.416155 0)scale(0.996264)"/>
     <use xlink:href="#CMSS17-71" transform="translate(102.054977 0)scale(0.996264)"/>
     <use xlink:href="#CMSS17-75" transform="translate(150.25992 0)scale(0.996264)"/>
     <use xlink:href="#CMSS17-65" transform="translate(198.464863 0)scale(0.996264)"/>
     <use xlink:href="#CMSS17-73" transform="translate(240.103685 0)scale(0.996264)"/>
     <use xlink:href="#CMSS17-74" transform="translate(276.017227 0)scale(0.996264)"/>
     <use xlink:href="#CMSS17-73" transform="translate(309.848794 0)scale(0.996264)"/>
     <use xlink:href="#CMSS17-28" transform="translate(376.991449 0)scale(0.996264)"/>
     <use xlink:href="#CMSS17-35" transform="translate(413.425363 0)scale(0.996264)"/>
     <use xlink:href="#CMSS17-73" transform="translate(491.498099 0)scale(0.996264)"/>
     <use xlink:href="#CMSS17-65" transform="translate(527.411641 0)scale(0.996264)"/>
     <use xlink:href="#CMSS17-63" transform="translate(569.050463 0)scale(0.996264)"/>
     <use xlink:href="#CMSS17-6f" transform="translate(610.689285 0)scale(0.996264)"/>
     <use xlink:href="#CMSS17-6e" transform="translate(657.532909 0)scale(0.996264)"/>
     <use xlink:href="#CMSS17-64" transform="translate(705.737852 0)scale(0.996264)"/>
     <use xlink:href="#CMSS17-72" transform="translate(785.171908 0)scale(0.996264)"/>
     <use xlink:href="#CMSS17-6f" transform="translate(817.08168 0)scale(0.996264)"/>
     <use xlink:href="#CMSS17-6c" transform="translate(863.925304 0)scale(0.996264)"/>
     <use xlink:href="#CMSS17-6c" transform="translate(886.106027 0)scale(0.996264)"/>
     <use xlink:href="#CMSS17-69" transform="translate(908.28675 0)scale(0.996264)"/>
     <use xlink:href="#CMSS17-6e" transform="translate(930.467473 0)scale(0.996264)"/>
     <use xlink:href="#CMSS17-67" transform="translate(978.672416 0)scale(0.996264)"/>
     <use xlink:href="#CMSS17-77" transform="translate(1056.745152 0)scale(0.996264)"/>
     <use xlink:href="#CMSS17-69" transform="translate(1120.564698 0)scale(0.996264)"/>
     <use xlink:href="#CMSS17-6e" transform="translate(1142.745421 0)scale(0.996264)"/>
     <use xlink:href="#CMSS17-64" transform="translate(1190.950364 0)scale(0.996264)"/>
     <use xlink:href="#CMSS17-6f" transform="translate(1239.155307 0)scale(0.996264)"/>
     <use xlink:href="#CMSS17-77" transform="translate(1283.396476 0)scale(0.996264)"/>
     <use xlink:href="#CMSS17-29" transform="translate(1347.216022 0)scale(0.996264)"/>
    </g>
   </g>
   <g id="legend_1">
    <g id="patch_7">
     <path d="M 101.706762 187.24 
L 158.475056 187.24 
Q 160.475056 187.24 160.475056 185.24 
L 160.475056 158.365643 
Q 160.475056 156.365643 158.475056 156.365643 
L 101.706762 156.365643 
Q 99.706762 156.365643 99.706762 158.365643 
L 99.706762 185.24 
Q 99.706762 187.24 101.706762 187.24 
z
" style="fill: #ffffff; opacity: 0.8; stroke: #cccccc; stroke-linejoin: miter"/>
    </g>
    <g id="line2d_13">
     <path d="M 103.706762 163.865643 
L 113.706762 163.865643 
L 123.706762 163.865643 
" style="fill: none; stroke: #1f77b4; stroke-width: 1.5; stroke-linecap: square"/>
    </g>
    <g id="text_14">
     <!-- LSD -->
     <g transform="translate(131.706762 167.365643)scale(0.1 -0.1)">
      <defs>
       <path id="CMSS17-4c" d="M 1670 414 
C 1594 414 1517 414 1440 414 
L 1101 414 
L 1101 4416 
L 563 4416 
L 563 0 
L 3002 0 
L 3002 414 
L 1670 414 
z
" transform="scale(0.015625)"/>
       <path id="CMSS17-53" d="M 2797 4169 
C 2515 4334 2208 4480 1690 4480 
C 864 4480 333 3879 333 3266 
C 333 3025 403 2753 653 2475 
C 902 2196 1184 2121 1542 2033 
C 1690 1994 1939 1924 1984 1906 
C 2342 1767 2515 1444 2515 1140 
C 2515 742 2202 318 1645 318 
C 1453 318 890 318 358 819 
L 269 318 
C 794 -64 1363 -128 1651 -128 
C 2438 -128 3002 488 3002 1186 
C 3002 1440 2925 1763 2656 2061 
C 2394 2347 2163 2410 1638 2549 
C 1338 2626 1146 2677 986 2873 
C 877 3013 819 3146 819 3317 
C 819 3673 1126 4060 1690 4060 
C 1971 4060 2336 4002 2707 3660 
L 2797 4169 
z
" transform="scale(0.015625)"/>
       <path id="CMSS17-44" d="M 570 4416 
L 570 0 
L 2144 0 
C 3194 0 4000 980 4000 2170 
C 4000 3398 3194 4416 2144 4416 
L 570 4416 
z
M 1094 357 
L 1094 4059 
L 2003 4059 
C 2861 4059 3475 3277 3475 2170 
C 3475 1107 2867 357 2003 357 
L 1094 357 
z
" transform="scale(0.015625)"/>
      </defs>
      <use xlink:href="#CMSS17-4c" transform="scale(0.996264)"/>
      <use xlink:href="#CMSS17-53" transform="translate(50.687105 0)scale(0.996264)"/>
      <use xlink:href="#CMSS17-44" transform="translate(102.735622 0)scale(0.996264)"/>
     </g>
    </g>
    <g id="line2d_14">
     <path d="M 103.706762 177.802822 
L 113.706762 177.802822 
L 123.706762 177.802822 
" style="fill: none; stroke: #ff7f0e; stroke-width: 1.5; stroke-linecap: square"/>
    </g>
    <g id="text_15">
     <!-- BASE -->
     <g transform="translate(131.706762 181.302822)scale(0.1 -0.1)">
      <defs>
       <path id="CMSS17-42" d="M 570 4416 
L 570 0 
L 2163 0 
C 3034 0 3667 574 3667 1200 
C 3667 1685 3251 2176 2502 2317 
C 3334 2558 3501 3040 3501 3313 
C 3501 3883 2874 4416 1997 4416 
L 570 4416 
z
M 1088 2496 
L 1088 4059 
L 1824 4059 
C 2483 4059 3002 3724 3002 3306 
C 3002 2926 2592 2496 1766 2496 
L 1088 2496 
z
M 1088 357 
L 1088 2107 
L 1939 2107 
C 2630 2107 3162 1679 3162 1206 
C 3162 772 2694 357 1984 357 
L 1088 357 
z
" transform="scale(0.015625)"/>
       <path id="CMSS17-41" d="M 2272 4416 
L 1722 4416 
L 166 0 
L 653 0 
L 1101 1280 
L 2816 1280 
L 3270 0 
L 3827 0 
L 2272 4416 
z
M 2694 1637 
L 1222 1637 
C 1530 2528 1914 3638 1958 3925 
L 1965 3925 
C 2010 3663 2138 3281 2246 2956 
L 2694 1637 
z
" transform="scale(0.015625)"/>
       <path id="CMSS17-45" d="M 1958 433 
C 1446 433 1216 433 1101 433 
L 1101 2107 
L 3085 2107 
L 3085 2496 
L 1101 2496 
L 1101 4009 
L 1926 4009 
C 2003 4009 2080 4009 2157 4009 
L 3251 4009 
L 3251 4416 
L 563 4416 
L 563 0 
L 3334 0 
L 3334 433 
L 1958 433 
z
" transform="scale(0.015625)"/>
      </defs>
      <use xlink:href="#CMSS17-42" transform="scale(0.996264)"/>
      <use xlink:href="#CMSS17-41" transform="translate(62.33804 0)scale(0.996264)"/>
      <use xlink:href="#CMSS17-53" transform="translate(124.555895 0)scale(0.996264)"/>
      <use xlink:href="#CMSS17-45" transform="translate(176.604411 0)scale(0.996264)"/>
     </g>
    </g>
   </g>
  </g>
  <g id="axes_2">
   <g id="patch_8">
    <path d="M 236.618182 192.24 
L 388.8 192.24 
L 388.8 25.92 
L 236.618182 25.92 
z
" style="fill: #ffffff"/>
   </g>
   <g id="matplotlib.axis_3">
    <g id="xtick_4">
     <g id="line2d_15">
      <g>
       <use xlink:href="#mfd05c733a8" x="243.535537" y="192.24" style="stroke: #000000; stroke-width: 0.8"/>
      </g>
     </g>
     <g id="text_16">
      <!-- $\mathdefault{0}$ -->
      <g transform="translate(241.04487 206.158498)scale(0.1 -0.1)">
       <use xlink:href="#CMR17-30" transform="scale(0.996264)"/>
      </g>
     </g>
    </g>
    <g id="xtick_5">
     <g id="line2d_16">
      <g>
       <use xlink:href="#mfd05c733a8" x="300.703763" y="192.24" style="stroke: #000000; stroke-width: 0.8"/>
      </g>
     </g>
     <g id="text_17">
      <!-- $\mathdefault{50}$ -->
      <g transform="translate(295.722428 206.158498)scale(0.1 -0.1)">
       <use xlink:href="#CMR17-35" transform="scale(0.996264)"/>
       <use xlink:href="#CMR17-30" transform="translate(45.690477 0)scale(0.996264)"/>
      </g>
     </g>
    </g>
    <g id="xtick_6">
     <g id="line2d_17">
      <g>
       <use xlink:href="#mfd05c733a8" x="357.87199" y="192.24" style="stroke: #000000; stroke-width: 0.8"/>
      </g>
     </g>
     <g id="text_18">
      <!-- $\mathdefault{100}$ -->
      <g transform="translate(350.399987 206.158498)scale(0.1 -0.1)">
       <use xlink:href="#CMR17-31" transform="scale(0.996264)"/>
       <use xlink:href="#CMR17-30" transform="translate(45.690477 0)scale(0.996264)"/>
       <use xlink:href="#CMR17-30" transform="translate(91.380954 0)scale(0.996264)"/>
      </g>
     </g>
    </g>
    <g id="text_19">
     <!-- Time (sec) -->
     <g transform="translate(290.085578 219.567657)scale(0.1 -0.1)">
      <use xlink:href="#CMSS17-54" transform="scale(0.996264)"/>
      <use xlink:href="#CMSS17-69" transform="translate(63.819454 0)scale(0.996264)"/>
      <use xlink:href="#CMSS17-6d" transform="translate(86.000177 0)scale(0.996264)"/>
      <use xlink:href="#CMSS17-65" transform="translate(160.229431 0)scale(0.996264)"/>
      <use xlink:href="#CMSS17-28" transform="translate(233.097366 0)scale(0.996264)"/>
      <use xlink:href="#CMSS17-73" transform="translate(269.53128 0)scale(0.996264)"/>
      <use xlink:href="#CMSS17-65" transform="translate(305.444822 0)scale(0.996264)"/>
      <use xlink:href="#CMSS17-63" transform="translate(347.083644 0)scale(0.996264)"/>
      <use xlink:href="#CMSS17-29" transform="translate(388.722467 0)scale(0.996264)"/>
     </g>
    </g>
   </g>
   <g id="matplotlib.axis_4">
    <g id="ytick_8">
     <g id="line2d_18">
      <g>
       <use xlink:href="#me114fd9855" x="236.618182" y="156.235652" style="stroke: #000000; stroke-width: 0.8"/>
      </g>
     </g>
     <g id="text_20">
      <!-- $\mathdefault{200}$ -->
      <g transform="translate(214.674176 159.694902)scale(0.1 -0.1)">
       <use xlink:href="#CMR17-32" transform="scale(0.996264)"/>
       <use xlink:href="#CMR17-30" transform="translate(45.690477 0)scale(0.996264)"/>
       <use xlink:href="#CMR17-30" transform="translate(91.380954 0)scale(0.996264)"/>
      </g>
     </g>
    </g>
    <g id="ytick_9">
     <g id="line2d_19">
      <g>
       <use xlink:href="#me114fd9855" x="236.618182" y="115.930668" style="stroke: #000000; stroke-width: 0.8"/>
      </g>
     </g>
     <g id="text_21">
      <!-- $\mathdefault{400}$ -->
      <g transform="translate(214.674176 119.389918)scale(0.1 -0.1)">
       <use xlink:href="#CMR17-34" transform="scale(0.996264)"/>
       <use xlink:href="#CMR17-30" transform="translate(45.690477 0)scale(0.996264)"/>
       <use xlink:href="#CMR17-30" transform="translate(91.380954 0)scale(0.996264)"/>
      </g>
     </g>
    </g>
    <g id="ytick_10">
     <g id="line2d_20">
      <g>
       <use xlink:href="#me114fd9855" x="236.618182" y="75.625684" style="stroke: #000000; stroke-width: 0.8"/>
      </g>
     </g>
     <g id="text_22">
      <!-- $\mathdefault{600}$ -->
      <g transform="translate(214.674176 79.084934)scale(0.1 -0.1)">
       <use xlink:href="#CMR17-36" transform="scale(0.996264)"/>
       <use xlink:href="#CMR17-30" transform="translate(45.690477 0)scale(0.996264)"/>
       <use xlink:href="#CMR17-30" transform="translate(91.380954 0)scale(0.996264)"/>
      </g>
     </g>
    </g>
    <g id="ytick_11">
     <g id="line2d_21">
      <g>
       <use xlink:href="#me114fd9855" x="236.618182" y="35.3207" style="stroke: #000000; stroke-width: 0.8"/>
      </g>
     </g>
     <g id="text_23">
      <!-- $\mathdefault{800}$ -->
      <g transform="translate(214.674176 38.77995)scale(0.1 -0.1)">
       <use xlink:href="#CMR17-38" transform="scale(0.996264)"/>
       <use xlink:href="#CMR17-30" transform="translate(45.690477 0)scale(0.996264)"/>
       <use xlink:href="#CMR17-30" transform="translate(91.380954 0)scale(0.996264)"/>
      </g>
     </g>
    </g>
    <g id="text_24">
     <!-- Latency (ms) -->
     <g transform="translate(208.183516 136.671022)rotate(-90)scale(0.1 -0.1)">
      <defs>
       <path id="CMSS17-61" d="M 2406 1791 
C 2406 2392 1978 2808 1402 2808 
C 1120 2808 813 2757 461 2553 
L 499 2135 
C 659 2248 934 2432 1395 2432 
C 1722 2432 1920 2180 1920 1782 
L 1920 1536 
C 896 1536 256 1238 256 726 
C 256 461 416 -64 947 -64 
C 1043 -64 1562 -64 1933 217 
L 1933 -19 
L 2406 -19 
L 2406 1791 
z
M 1920 816 
C 1920 701 1920 548 1728 434 
C 1562 325 1350 325 1261 325 
C 941 325 723 511 723 744 
C 723 1211 1722 1211 1920 1211 
L 1920 816 
z
" transform="scale(0.015625)"/>
       <path id="CMSS17-79" d="M 2675 2752 
L 2176 2752 
C 1632 1294 1446 702 1434 383 
L 1427 383 
C 1408 696 1126 1460 902 2007 
L 602 2752 
L 83 2752 
L 1216 13 
C 1146 -178 1043 -465 1011 -529 
C 870 -885 774 -885 672 -885 
C 646 -885 442 -885 211 -809 
L 250 -1229 
C 410 -1261 570 -1280 685 -1280 
C 845 -1280 1165 -1280 1459 -497 
L 2675 2752 
z
" transform="scale(0.015625)"/>
      </defs>
      <use xlink:href="#CMSS17-4c" transform="scale(0.996264)"/>
      <use xlink:href="#CMSS17-61" transform="translate(50.687105 0)scale(0.996264)"/>
      <use xlink:href="#CMSS17-74" transform="translate(95.609026 0)scale(0.996264)"/>
      <use xlink:href="#CMSS17-65" transform="translate(129.440593 0)scale(0.996264)"/>
      <use xlink:href="#CMSS17-6e" transform="translate(171.079415 0)scale(0.996264)"/>
      <use xlink:href="#CMSS17-63" transform="translate(219.284358 0)scale(0.996264)"/>
      <use xlink:href="#CMSS17-79" transform="translate(260.92318 0)scale(0.996264)"/>
      <use xlink:href="#CMSS17-28" transform="translate(335.152434 0)scale(0.996264)"/>
      <use xlink:href="#CMSS17-6d" transform="translate(371.586349 0)scale(0.996264)"/>
      <use xlink:href="#CMSS17-73" transform="translate(445.815603 0)scale(0.996264)"/>
      <use xlink:href="#CMSS17-29" transform="translate(481.729145 0)scale(0.996264)"/>
     </g>
    </g>
   </g>
   <g id="line2d_22">
    <path d="M 243.535537 179.786967 
L 244.678902 184.68 
L 245.822266 179.764815 
L 246.965631 181.429492 
L 248.108995 181.238325 
L 249.25236 181.361352 
L 250.395724 181.381541 
L 251.539089 181.379437 
L 252.682453 181.373055 
L 253.825818 181.374868 
L 254.969182 183.028689 
L 256.112547 181.602328 
L 257.255911 182.896101 
L 258.399276 181.305743 
L 259.542641 182.948063 
L 260.686005 182.887831 
L 261.82937 181.574436 
L 262.972734 182.943345 
L 264.116099 179.80381 
L 265.259463 181.496283 
L 266.402828 181.488397 
L 267.546192 181.338983 
L 268.689557 179.674645 
L 269.832921 174.616273 
L 270.976286 176.343817 
L 272.11965 176.391397 
L 273.263015 176.30032 
L 274.406379 177.181834 
L 275.549744 178.063284 
L 276.693108 181.385134 
L 277.836473 181.377379 
L 278.979837 181.377174 
L 280.123202 181.328679 
L 281.266566 181.301967 
L 282.409931 179.690924 
L 283.553296 177.799103 
L 284.69666 177.979496 
L 285.840025 176.273257 
L 286.983389 176.371152 
L 288.126754 174.657327 
L 289.270118 174.64372 
L 290.413483 177.963152 
L 291.556847 177.962602 
L 292.700212 178.042273 
L 293.843576 179.555884 
L 294.986941 179.673782 
L 296.130305 178.30729 
L 297.27367 178.269913 
L 298.417034 178.244116 
L 299.560399 179.698284 
L 300.703763 179.625183 
L 301.847128 179.661169 
L 302.990492 179.608184 
L 304.133857 179.618 
L 305.277222 174.715072 
L 306.420586 174.649137 
L 307.563951 173.826265 
L 308.707315 173.04533 
L 309.85068 172.981736 
L 310.994044 171.141451 
L 312.137409 171.202747 
L 313.280773 171.282704 
L 314.424138 169.604614 
L 315.567502 157.846759 
L 316.710867 157.844454 
L 317.854231 176.344687 
L 318.997596 177.968192 
L 320.14096 173.024778 
L 321.284325 178.023567 
L 322.427689 177.99325 
L 323.571054 176.452507 
L 324.714418 176.305922 
L 325.857783 176.27556 
L 327.001147 177.826782 
L 328.144512 176.602019 
L 329.287877 176.275822 
L 330.431241 174.5628 
L 331.574606 174.534276 
L 332.71797 172.38361 
L 333.861335 172.079582 
L 335.004699 171.426077 
L 336.148064 171.176565 
L 337.291428 171.297718 
L 338.434793 171.300055 
L 339.578157 174.593182 
L 340.721522 174.560603 
L 341.864886 174.641604 
L 343.008251 174.017147 
L 344.151615 164.088853 
L 345.29498 163.465526 
L 346.438344 163.159202 
L 347.581709 163.16424 
L 348.725073 163.170359 
L 349.868438 167.609527 
L 351.011802 167.60248 
L 352.155167 167.738874 
L 353.298532 173.017104 
L 354.441896 173.003846 
L 355.585261 173.989736 
L 356.728625 174.288355 
L 357.87199 174.478534 
L 359.015354 174.739066 
L 360.158719 176.086462 
L 361.302083 171.335574 
L 362.445448 166.229725 
L 363.588812 166.230111 
L 364.732177 166.23256 
L 365.875541 166.230039 
L 367.018906 166.226686 
L 368.16227 168.103106 
L 369.305635 167.521417 
L 370.448999 166.164654 
L 371.592364 164.530501 
L 372.735728 164.512635 
L 373.879093 164.480029 
L 375.022457 164.485454 
L 376.165822 166.146995 
L 377.309187 167.873781 
L 378.452551 164.514354 
L 379.595916 155.475752 
L 380.73928 154.906313 
L 381.882645 154.691925 
" clip-path="url(#p8c16d8d6d7)" style="fill: none; stroke: #1f77b4; stroke-width: 1.5; stroke-linecap: square"/>
   </g>
   <g id="line2d_23">
    <path d="M 243.535537 171.262954 
L 244.678902 173.045733 
L 245.822266 149.96995 
L 246.965631 33.48 
L 248.108995 57.520655 
L 249.25236 93.622617 
L 250.395724 103.524391 
L 251.539089 161.534758 
L 252.682453 146.252898 
L 253.825818 145.840719 
L 254.969182 144.238146 
L 256.112547 144.250615 
L 257.255911 144.258486 
L 258.399276 144.235926 
L 259.542641 149.160455 
L 260.686005 155.210001 
L 261.82937 167.835145 
L 262.972734 167.798656 
L 264.116099 162.620915 
L 265.259463 163.853085 
L 266.402828 164.309273 
L 267.546192 167.78244 
L 268.689557 164.542066 
L 269.832921 155.359146 
L 270.976286 166.391662 
L 272.11965 163.100784 
L 273.263015 163.567508 
L 274.406379 164.474479 
L 275.549744 164.847014 
L 276.693108 172.826256 
L 277.836473 172.777332 
L 278.979837 174.549193 
L 280.123202 174.473186 
L 281.266566 174.624956 
L 282.409931 173.44443 
L 283.553296 173.5277 
L 284.69666 174.409766 
L 285.840025 174.294169 
L 286.983389 174.580595 
L 288.126754 174.584448 
L 289.270118 176.149337 
L 290.413483 174.676448 
L 291.556847 172.885258 
L 292.700212 169.799259 
L 293.843576 166.261971 
L 294.986941 166.213977 
L 296.130305 164.562884 
L 297.27367 164.563942 
L 298.417034 162.71068 
L 299.560399 162.852997 
L 300.703763 164.521325 
L 301.847128 157.616326 
L 302.990492 157.632903 
L 304.133857 157.652244 
L 305.277222 162.865022 
L 306.420586 159.480204 
L 307.563951 159.480204 
L 308.707315 169.445393 
L 309.85068 169.44465 
L 310.994044 169.440341 
L 312.137409 169.738545 
L 313.280773 170.418926 
L 314.424138 169.655908 
L 315.567502 171.034377 
L 316.710867 160.198694 
L 317.854231 159.686595 
L 318.997596 159.422946 
L 320.14096 160.947285 
L 321.284325 160.956392 
L 322.427689 148.597443 
L 323.571054 161.342314 
L 324.714418 155.942712 
L 325.857783 154.372305 
L 327.001147 154.369616 
L 328.144512 154.348613 
L 329.287877 156.232877 
L 330.431241 154.171892 
L 331.574606 155.97314 
L 332.71797 158.030115 
L 333.861335 152.668722 
L 335.004699 150.627867 
L 336.148064 150.814817 
L 337.291428 150.875928 
L 338.434793 137.678135 
L 339.578157 137.681515 
L 340.721522 151.039941 
L 341.864886 156.238973 
L 343.008251 151.020679 
L 344.151615 142.664295 
L 345.29498 150.62167 
L 346.438344 149.492064 
L 347.581709 149.561379 
L 348.725073 145.91617 
L 349.868438 139.181707 
L 351.011802 143.751397 
L 352.155167 143.828351 
L 353.298532 143.753384 
L 354.441896 143.630897 
L 355.585261 147.963357 
L 356.728625 150.979552 
L 357.87199 151.143501 
L 359.015354 151.002471 
L 360.158719 145.081945 
L 361.302083 139.165625 
L 362.445448 134.329261 
L 363.588812 130.674322 
L 364.732177 127.652377 
L 365.875541 127.134757 
L 367.018906 127.220904 
L 368.16227 127.233466 
L 369.305635 127.578958 
L 370.448999 128.582064 
L 371.592364 127.625365 
L 372.735728 135.731437 
L 373.879093 135.616284 
L 375.022457 132.277957 
L 376.165822 131.574244 
L 377.309187 132.107686 
L 378.452551 135.614552 
L 379.595916 135.618412 
L 380.73928 137.425752 
" clip-path="url(#p8c16d8d6d7)" style="fill: none; stroke: #ff7f0e; stroke-width: 1.5; stroke-linecap: square"/>
   </g>
   <g id="patch_9">
    <path d="M 236.618182 192.24 
L 236.618182 25.92 
" style="fill: none; stroke: #000000; stroke-width: 0.8; stroke-linejoin: miter; stroke-linecap: square"/>
   </g>
   <g id="patch_10">
    <path d="M 388.8 192.24 
L 388.8 25.92 
" style="fill: none; stroke: #000000; stroke-width: 0.8; stroke-linejoin: miter; stroke-linecap: square"/>
   </g>
   <g id="patch_11">
    <path d="M 236.618182 192.24 
L 388.8 192.24 
" style="fill: none; stroke: #000000; stroke-width: 0.8; stroke-linejoin: miter; stroke-linecap: square"/>
   </g>
   <g id="patch_12">
    <path d="M 236.618182 25.92 
L 388.8 25.92 
" style="fill: none; stroke: #000000; stroke-width: 0.8; stroke-linejoin: miter; stroke-linecap: square"/>
   </g>
   <g id="text_25">
    <!-- P99th Latency (5 second rolling window) -->
    <g transform="translate(212.369225 19.92)scale(0.12 -0.12)">
     <defs>
      <path id="CMSS17-50" d="M 2106 1856 
C 2874 1856 3501 2453 3501 3158 
C 3501 3850 2899 4453 2067 4453 
L 570 4453 
L 570 0 
L 1107 0 
L 1107 1856 
L 2106 1856 
z
M 1926 4096 
C 2669 4096 2995 3627 2995 3157 
C 2995 2720 2694 2226 1926 2226 
L 1094 2226 
L 1094 4096 
L 1926 4096 
z
" transform="scale(0.015625)"/>
      <path id="CMSS17-39" d="M 435 174 
C 614 21 845 -128 1235 -128 
C 2010 -128 2752 721 2752 2095 
C 2752 3932 1952 4229 1523 4229 
C 1094 4229 819 4041 582 3741 
C 301 3397 250 3090 250 2733 
C 250 2307 326 2045 506 1745 
C 749 1357 973 1275 1222 1275 
C 1600 1275 1978 1459 2234 1776 
C 2189 902 1798 267 1235 267 
C 1005 267 819 339 634 516 
L 435 174 
z
M 2214 2746 
C 2221 2703 2221 2622 2221 2596 
C 2221 2074 1914 1664 1466 1664 
C 1171 1664 1018 1813 902 2006 
C 762 2249 755 2485 755 2733 
C 755 2976 755 3244 934 3511 
C 1069 3703 1235 3840 1523 3840 
C 2112 3840 2208 3000 2214 2746 
z
" transform="scale(0.015625)"/>
      <path id="CMSS17-68" d="M 2618 1891 
C 2618 2292 2522 2820 1798 2820 
C 1395 2820 1133 2623 947 2407 
L 947 4448 
L 474 4448 
L 474 32 
L 960 32 
L 960 1573 
C 960 1973 1114 2432 1549 2432 
C 2112 2432 2131 2056 2131 1839 
L 2131 32 
L 2618 32 
L 2618 1891 
z
" transform="scale(0.015625)"/>
     </defs>
     <use xlink:href="#CMSS17-50" transform="scale(0.996264)"/>
     <use xlink:href="#CMSS17-39" transform="translate(59.735586 0)scale(0.996264)"/>
     <use xlink:href="#CMSS17-39" transform="translate(106.57921 0)scale(0.996264)"/>
     <use xlink:href="#CMSS17-74" transform="translate(153.422833 0)scale(0.996264)"/>
     <use xlink:href="#CMSS17-68" transform="translate(187.2544 0)scale(0.996264)"/>
     <use xlink:href="#CMSS17-4c" transform="translate(266.688456 0)scale(0.996264)"/>
     <use xlink:href="#CMSS17-61" transform="translate(317.375561 0)scale(0.996264)"/>
     <use xlink:href="#CMSS17-74" transform="translate(362.297482 0)scale(0.996264)"/>
     <use xlink:href="#CMSS17-65" transform="translate(396.129049 0)scale(0.996264)"/>
     <use xlink:href="#CMSS17-6e" transform="translate(437.767871 0)scale(0.996264)"/>
     <use xlink:href="#CMSS17-63" transform="translate(485.972814 0)scale(0.996264)"/>
     <use xlink:href="#CMSS17-79" transform="translate(527.611636 0)scale(0.996264)"/>
     <use xlink:href="#CMSS17-28" transform="translate(601.84089 0)scale(0.996264)"/>
     <use xlink:href="#CMSS17-35" transform="translate(638.274804 0)scale(0.996264)"/>
     <use xlink:href="#CMSS17-73" transform="translate(716.347541 0)scale(0.996264)"/>
     <use xlink:href="#CMSS17-65" transform="translate(752.261083 0)scale(0.996264)"/>
     <use xlink:href="#CMSS17-63" transform="translate(793.899905 0)scale(0.996264)"/>
     <use xlink:href="#CMSS17-6f" transform="translate(835.538727 0)scale(0.996264)"/>
     <use xlink:href="#CMSS17-6e" transform="translate(882.38235 0)scale(0.996264)"/>
     <use xlink:href="#CMSS17-64" transform="translate(930.587293 0)scale(0.996264)"/>
     <use xlink:href="#CMSS17-72" transform="translate(1010.021349 0)scale(0.996264)"/>
     <use xlink:href="#CMSS17-6f" transform="translate(1041.931122 0)scale(0.996264)"/>
     <use xlink:href="#CMSS17-6c" transform="translate(1088.774745 0)scale(0.996264)"/>
     <use xlink:href="#CMSS17-6c" transform="translate(1110.955469 0)scale(0.996264)"/>
     <use xlink:href="#CMSS17-69" transform="translate(1133.136192 0)scale(0.996264)"/>
     <use xlink:href="#CMSS17-6e" transform="translate(1155.316915 0)scale(0.996264)"/>
     <use xlink:href="#CMSS17-67" transform="translate(1203.521858 0)scale(0.996264)"/>
     <use xlink:href="#CMSS17-77" transform="translate(1281.594594 0)scale(0.996264)"/>
     <use xlink:href="#CMSS17-69" transform="translate(1345.414139 0)scale(0.996264)"/>
     <use xlink:href="#CMSS17-6e" transform="translate(1367.594862 0)scale(0.996264)"/>
     <use xlink:href="#CMSS17-64" transform="translate(1415.799805 0)scale(0.996264)"/>
     <use xlink:href="#CMSS17-6f" transform="translate(1464.004748 0)scale(0.996264)"/>
     <use xlink:href="#CMSS17-77" transform="translate(1508.245918 0)scale(0.996264)"/>
     <use xlink:href="#CMSS17-29" transform="translate(1572.065463 0)scale(0.996264)"/>
    </g>
   </g>
   <g id="legend_2">
    <g id="patch_13">
     <path d="M 325.031706 61.794357 
L 381.8 61.794357 
Q 383.8 61.794357 383.8 59.794357 
L 383.8 32.92 
Q 383.8 30.92 381.8 30.92 
L 325.031706 30.92 
Q 323.031706 30.92 323.031706 32.92 
L 323.031706 59.794357 
Q 323.031706 61.794357 325.031706 61.794357 
z
" style="fill: #ffffff; opacity: 0.8; stroke: #cccccc; stroke-linejoin: miter"/>
    </g>
    <g id="line2d_24">
     <path d="M 327.031706 38.42 
L 337.031706 38.42 
L 347.031706 38.42 
" style="fill: none; stroke: #1f77b4; stroke-width: 1.5; stroke-linecap: square"/>
    </g>
    <g id="text_26">
     <!-- LSD -->
     <g transform="translate(355.031706 41.92)scale(0.1 -0.1)">
      <use xlink:href="#CMSS17-4c" transform="scale(0.996264)"/>
      <use xlink:href="#CMSS17-53" transform="translate(50.687105 0)scale(0.996264)"/>
      <use xlink:href="#CMSS17-44" transform="translate(102.735622 0)scale(0.996264)"/>
     </g>
    </g>
    <g id="line2d_25">
     <path d="M 327.031706 52.357178 
L 337.031706 52.357178 
L 347.031706 52.357178 
" style="fill: none; stroke: #ff7f0e; stroke-width: 1.5; stroke-linecap: square"/>
    </g>
    <g id="text_27">
     <!-- BASE -->
     <g transform="translate(355.031706 55.857178)scale(0.1 -0.1)">
      <use xlink:href="#CMSS17-42" transform="scale(0.996264)"/>
      <use xlink:href="#CMSS17-41" transform="translate(62.33804 0)scale(0.996264)"/>
      <use xlink:href="#CMSS17-53" transform="translate(124.555895 0)scale(0.996264)"/>
      <use xlink:href="#CMSS17-45" transform="translate(176.604411 0)scale(0.996264)"/>
     </g>
    </g>
   </g>
  </g>
  <g id="text_28">
   <!-- New order - 10 Terminals and 1 Warehouse -->
   <g transform="translate(109.915715 12.62218)scale(0.12 -0.12)">
    <defs>
     <path id="CMSS17-4e" d="M 1466 4180 
L 1350 4416 
L 563 4416 
L 563 0 
L 1062 0 
L 1062 3926 
L 1069 3932 
C 1114 3817 1139 3760 1402 3194 
L 2771 236 
L 2886 0 
L 3674 0 
L 3674 4416 
L 3174 4416 
L 3174 490 
L 3168 483 
C 3123 598 3098 655 2835 1221 
L 1466 4180 
z
" transform="scale(0.015625)"/>
     <path id="CMSS17-2d" d="M 1664 1216 
L 1664 1585 
L 64 1585 
L 64 1216 
L 1664 1216 
z
" transform="scale(0.015625)"/>
     <path id="CMSS17-31" d="M 1818 4288 
L 1696 4288 
C 1350 3940 947 3890 538 3890 
L 538 3520 
C 723 3520 1024 3520 1325 3667 
L 1325 369 
L 570 369 
L 570 0 
L 2573 0 
L 2573 369 
L 1818 369 
L 1818 4288 
z
" transform="scale(0.015625)"/>
     <path id="CMSS17-30" d="M 2758 2044 
C 2758 2405 2752 3077 2490 3596 
C 2227 4096 1805 4229 1504 4229 
C 1069 4229 698 3975 506 3570 
C 301 3146 243 2709 243 2044 
C 243 1589 262 1031 493 543 
C 755 5 1197 -128 1498 -128 
C 1894 -128 2278 81 2496 518 
C 2720 974 2758 1474 2758 2044 
z
M 1498 261 
C 1011 261 864 811 819 995 
C 742 1310 730 1614 730 2114 
C 730 2506 730 2948 851 3297 
C 998 3701 1254 3840 1498 3840 
C 1971 3840 2125 3372 2176 3208 
C 2272 2873 2272 2481 2272 2114 
C 2272 1526 2272 261 1498 261 
z
" transform="scale(0.015625)"/>
     <path id="CMSS17-57" d="M 5581 4416 
L 5094 4416 
L 4557 2437 
C 4474 2118 4397 1801 4320 1482 
C 4205 1011 4122 681 4109 515 
L 4102 515 
C 4090 687 4006 1049 3904 1457 
C 3827 1795 3744 2131 3654 2462 
L 3123 4416 
L 2586 4416 
L 2080 2562 
L 1824 1549 
C 1632 747 1626 632 1613 505 
L 1606 505 
C 1606 543 1581 753 1402 1498 
C 1312 1868 1222 2244 1126 2601 
L 634 4416 
L 83 4416 
L 1299 0 
L 1830 0 
L 2336 1839 
L 2592 2851 
C 2765 3564 2803 3742 2816 3901 
L 2822 3901 
C 2822 3876 2880 3474 3130 2545 
L 3808 0 
L 4365 0 
L 5581 4416 
z
" transform="scale(0.015625)"/>
    </defs>
    <use xlink:href="#CMSS17-4e" transform="scale(0.996264)"/>
    <use xlink:href="#CMSS17-65" transform="translate(66.061519 0)scale(0.996264)"/>
    <use xlink:href="#CMSS17-77" transform="translate(107.700341 0)scale(0.996264)"/>
    <use xlink:href="#CMSS17-6f" transform="translate(202.748999 0)scale(0.996264)"/>
    <use xlink:href="#CMSS17-72" transform="translate(246.990169 0)scale(0.996264)"/>
    <use xlink:href="#CMSS17-64" transform="translate(278.899941 0)scale(0.996264)"/>
    <use xlink:href="#CMSS17-65" transform="translate(327.104884 0)scale(0.996264)"/>
    <use xlink:href="#CMSS17-72" transform="translate(368.743706 0)scale(0.996264)"/>
    <use xlink:href="#CMSS17-2d" transform="translate(431.882592 0)scale(0.996264)"/>
    <use xlink:href="#CMSS17-31" transform="translate(494.340817 0)scale(0.996264)"/>
    <use xlink:href="#CMSS17-30" transform="translate(541.184441 0)scale(0.996264)"/>
    <use xlink:href="#CMSS17-54" transform="translate(619.257177 0)scale(0.996264)"/>
    <use xlink:href="#CMSS17-65" transform="translate(675.269376 0)scale(0.996264)"/>
    <use xlink:href="#CMSS17-72" transform="translate(716.908198 0)scale(0.996264)"/>
    <use xlink:href="#CMSS17-6d" transform="translate(748.81797 0)scale(0.996264)"/>
    <use xlink:href="#CMSS17-69" transform="translate(823.047225 0)scale(0.996264)"/>
    <use xlink:href="#CMSS17-6e" transform="translate(845.227948 0)scale(0.996264)"/>
    <use xlink:href="#CMSS17-61" transform="translate(893.432891 0)scale(0.996264)"/>
    <use xlink:href="#CMSS17-6c" transform="translate(938.354811 0)scale(0.996264)"/>
    <use xlink:href="#CMSS17-73" transform="translate(960.535534 0)scale(0.996264)"/>
    <use xlink:href="#CMSS17-61" transform="translate(1027.678189 0)scale(0.996264)"/>
    <use xlink:href="#CMSS17-6e" transform="translate(1072.60011 0)scale(0.996264)"/>
    <use xlink:href="#CMSS17-64" transform="translate(1120.805053 0)scale(0.996264)"/>
    <use xlink:href="#CMSS17-31" transform="translate(1200.239109 0)scale(0.996264)"/>
    <use xlink:href="#CMSS17-57" transform="translate(1278.311845 0)scale(0.996264)"/>
    <use xlink:href="#CMSS17-61" transform="translate(1363.951557 0)scale(0.996264)"/>
    <use xlink:href="#CMSS17-72" transform="translate(1406.271024 0)scale(0.996264)"/>
    <use xlink:href="#CMSS17-65" transform="translate(1438.180797 0)scale(0.996264)"/>
    <use xlink:href="#CMSS17-68" transform="translate(1479.819619 0)scale(0.996264)"/>
    <use xlink:href="#CMSS17-6f" transform="translate(1528.024562 0)scale(0.996264)"/>
    <use xlink:href="#CMSS17-75" transform="translate(1574.868185 0)scale(0.996264)"/>
    <use xlink:href="#CMSS17-73" transform="translate(1623.073128 0)scale(0.996264)"/>
    <use xlink:href="#CMSS17-65" transform="translate(1658.98667 0)scale(0.996264)"/>
   </g>
  </g>
 </g>
 <defs>
  <clipPath id="p99bb00a3ee">
   <rect x="54" y="25.92" width="152.181818" height="166.32"/>
  </clipPath>
  <clipPath id="p8c16d8d6d7">
   <rect x="236.618182" y="25.92" width="152.181818" height="166.32"/>
  </clipPath>
 </defs>
</svg>
