<?xml version="1.0" encoding="utf-8" standalone="no"?>
<!DOCTYPE svg PUBLIC "-//W3C//DTD SVG 1.1//EN"
  "http://www.w3.org/Graphics/SVG/1.1/DTD/svg11.dtd">
<svg xmlns:xlink="http://www.w3.org/1999/xlink" width="432pt" height="216pt" viewBox="0 0 432 216" xmlns="http://www.w3.org/2000/svg" version="1.1">
 <metadata>
  <rdf:RDF xmlns:dc="http://purl.org/dc/elements/1.1/" xmlns:cc="http://creativecommons.org/ns#" xmlns:rdf="http://www.w3.org/1999/02/22-rdf-syntax-ns#">
   <cc:Work>
    <dc:type rdf:resource="http://purl.org/dc/dcmitype/StillImage"/>
    <dc:date>2022-07-24T05:30:24.744250</dc:date>
    <dc:format>image/svg+xml</dc:format>
    <dc:creator>
     <cc:Agent>
      <dc:title>Matplotlib v3.5.2, https://matplotlib.org/</dc:title>
     </cc:Agent>
    </dc:creator>
   </cc:Work>
  </rdf:RDF>
 </metadata>
 <defs>
  <style type="text/css">*{stroke-linejoin: round; stroke-linecap: butt}</style>
 </defs>
 <g id="figure_1">
  <g id="patch_1">
   <path d="M 0 216 
L 432 216 
L 432 0 
L 0 0 
z
" style="fill: #ffffff"/>
  </g>
  <g id="axes_1">
   <g id="patch_2">
    <path d="M 54 192.24 
L 206.181818 192.24 
L 206.181818 25.92 
L 54 25.92 
z
" style="fill: #ffffff"/>
   </g>
   <g id="matplotlib.axis_1">
    <g id="xtick_1">
     <g id="line2d_1">
      <defs>
       <path id="meae517e8ee" d="M 0 0 
L 0 3.5 
" style="stroke: #000000; stroke-width: 0.8"/>
      </defs>
      <g>
       <use xlink:href="#meae517e8ee" x="60.917355" y="192.24" style="stroke: #000000; stroke-width: 0.8"/>
      </g>
     </g>
     <g id="text_1">
      <!-- $\mathdefault{0}$ -->
      <g transform="translate(58.426688 206.158498)scale(0.1 -0.1)">
       <defs>
        <path id="CMR17-30" d="M 2688 2025 
C 2688 2416 2682 3080 2413 3591 
C 2176 4039 1798 4198 1466 4198 
C 1158 4198 768 4058 525 3597 
C 269 3118 243 2524 243 2025 
C 243 1661 250 1106 448 619 
C 723 -39 1216 -128 1466 -128 
C 1760 -128 2208 -7 2470 600 
C 2662 1042 2688 1559 2688 2025 
z
M 1466 -26 
C 1056 -26 813 325 723 812 
C 653 1188 653 1738 653 2096 
C 653 2588 653 2997 736 3387 
C 858 3929 1216 4096 1466 4096 
C 1728 4096 2067 3923 2189 3400 
C 2272 3036 2278 2607 2278 2096 
C 2278 1680 2278 1169 2202 792 
C 2067 95 1690 -26 1466 -26 
z
" transform="scale(0.015625)"/>
       </defs>
       <use xlink:href="#CMR17-30" transform="scale(0.996264)"/>
      </g>
     </g>
    </g>
    <g id="xtick_2">
     <g id="line2d_2">
      <g>
       <use xlink:href="#meae517e8ee" x="118.561983" y="192.24" style="stroke: #000000; stroke-width: 0.8"/>
      </g>
     </g>
     <g id="text_2">
      <!-- $\mathdefault{50}$ -->
      <g transform="translate(113.580648 206.158498)scale(0.1 -0.1)">
       <defs>
        <path id="CMR17-35" d="M 730 3692 
C 794 3666 1056 3584 1325 3584 
C 1920 3584 2246 3911 2432 4100 
C 2432 4157 2432 4192 2394 4192 
C 2387 4192 2374 4192 2323 4163 
C 2099 4058 1837 3973 1517 3973 
C 1325 3973 1037 3999 723 4139 
C 653 4171 640 4171 634 4171 
C 602 4171 595 4164 595 4037 
L 595 2203 
C 595 2089 595 2057 659 2057 
C 691 2057 704 2070 736 2114 
C 941 2401 1222 2522 1542 2522 
C 1766 2522 2246 2382 2246 1289 
C 2246 1085 2246 715 2054 421 
C 1894 159 1645 25 1370 25 
C 947 25 518 320 403 814 
C 429 807 480 795 506 795 
C 589 795 749 840 749 1038 
C 749 1210 627 1280 506 1280 
C 358 1280 262 1190 262 1011 
C 262 454 704 -128 1382 -128 
C 2042 -128 2669 440 2669 1264 
C 2669 2030 2170 2624 1549 2624 
C 1222 2624 947 2503 730 2274 
L 730 3692 
z
" transform="scale(0.015625)"/>
       </defs>
       <use xlink:href="#CMR17-35" transform="scale(0.996264)"/>
       <use xlink:href="#CMR17-30" transform="translate(45.690477 0)scale(0.996264)"/>
      </g>
     </g>
    </g>
    <g id="xtick_3">
     <g id="line2d_3">
      <g>
       <use xlink:href="#meae517e8ee" x="176.206612" y="192.24" style="stroke: #000000; stroke-width: 0.8"/>
      </g>
     </g>
     <g id="text_3">
      <!-- $\mathdefault{100}$ -->
      <g transform="translate(168.734609 206.158498)scale(0.1 -0.1)">
       <defs>
        <path id="CMR17-31" d="M 1702 4058 
C 1702 4192 1696 4192 1606 4192 
C 1357 3916 979 3827 621 3827 
C 602 3827 570 3827 563 3808 
C 557 3795 557 3782 557 3648 
C 755 3648 1088 3686 1344 3839 
L 1344 461 
C 1344 236 1331 160 781 160 
L 589 160 
L 589 0 
C 896 0 1216 0 1523 0 
C 1830 0 2150 0 2458 0 
L 2458 160 
L 2266 160 
C 1715 160 1702 230 1702 458 
L 1702 4058 
z
" transform="scale(0.015625)"/>
       </defs>
       <use xlink:href="#CMR17-31" transform="scale(0.996264)"/>
       <use xlink:href="#CMR17-30" transform="translate(45.690477 0)scale(0.996264)"/>
       <use xlink:href="#CMR17-30" transform="translate(91.380954 0)scale(0.996264)"/>
      </g>
     </g>
    </g>
    <g id="text_4">
     <!-- Time (sec) -->
     <g transform="translate(107.467396 219.567657)scale(0.1 -0.1)">
      <defs>
       <path id="CMSS17-54" d="M 2317 3968 
L 2848 3968 
C 2925 3968 3002 3968 3078 3968 
L 3878 3968 
L 3878 4376 
L 218 4376 
L 218 3968 
L 1018 3968 
C 1094 3968 1171 3968 1248 3968 
L 1779 3968 
L 1779 -32 
L 2317 -32 
L 2317 3968 
z
" transform="scale(0.015625)"/>
       <path id="CMSS17-69" d="M 979 4183 
L 442 4183 
L 442 3648 
L 979 3648 
L 979 4183 
z
M 947 2739 
L 474 2739 
L 474 0 
L 947 0 
L 947 2739 
z
" transform="scale(0.015625)"/>
       <path id="CMSS17-6d" d="M 4288 1877 
C 4288 2308 4179 2816 3462 2816 
C 2982 2816 2694 2516 2566 2331 
C 2451 2670 2182 2816 1798 2816 
C 1363 2816 1088 2568 941 2389 
L 941 2758 
L 474 2758 
L 474 0 
L 960 0 
L 960 1559 
C 960 1939 1101 2428 1555 2428 
C 2138 2428 2138 2016 2138 1829 
L 2138 0 
L 2624 0 
L 2624 1559 
C 2624 1939 2765 2428 3219 2428 
C 3802 2428 3802 2016 3802 1829 
L 3802 0 
L 4288 0 
L 4288 1877 
z
" transform="scale(0.015625)"/>
       <path id="CMSS17-65" d="M 2502 1377 
C 2502 1590 2490 2003 2285 2345 
C 2061 2713 1696 2816 1421 2816 
C 755 2816 192 2188 192 1375 
C 192 582 774 -64 1510 -64 
C 1798 -64 2150 19 2470 248 
C 2470 274 2458 414 2451 420 
C 2451 433 2432 630 2432 656 
C 2125 407 1773 325 1517 325 
C 1107 325 666 667 646 1377 
L 2502 1377 
z
M 698 1728 
C 781 2084 1062 2421 1421 2421 
C 1517 2421 1965 2421 2080 1728 
L 698 1728 
z
" transform="scale(0.015625)"/>
       <path id="CMSS17-28" d="M 1613 4768 
C 1267 4417 474 3601 474 1588 
C 474 -433 1267 -1243 1613 -1600 
L 2003 -1600 
C 1216 -784 960 357 960 1581 
C 960 2798 1203 3946 2003 4768 
L 1613 4768 
z
" transform="scale(0.015625)"/>
       <path id="CMSS17-73" d="M 2061 2627 
C 1683 2807 1389 2807 1197 2807 
C 742 2807 198 2648 198 2003 
C 198 1359 902 1218 1094 1179 
C 1389 1122 1715 1058 1715 740 
C 1715 337 1254 337 1171 337 
C 915 337 563 407 243 638 
L 166 210 
C 531 0 883 -64 1178 -64 
C 1965 -64 2163 416 2163 781 
C 2163 1094 1984 1305 1862 1401 
C 1651 1568 1574 1587 1050 1696 
C 960 1709 646 1779 646 2066 
C 646 2432 1050 2432 1139 2432 
C 1555 2432 1811 2303 1984 2208 
L 2061 2627 
z
" transform="scale(0.015625)"/>
       <path id="CMSS17-63" d="M 2464 2541 
C 2464 2585 2170 2714 2093 2739 
C 1882 2816 1613 2816 1542 2816 
C 710 2816 211 2093 211 1363 
C 211 595 768 -64 1517 -64 
C 1946 -64 2253 76 2502 242 
L 2464 664 
C 2189 453 1869 337 1523 337 
C 1024 337 698 774 698 1369 
C 698 1831 909 2414 1549 2414 
C 1901 2414 2099 2343 2394 2145 
L 2464 2541 
z
" transform="scale(0.015625)"/>
       <path id="CMSS17-29" d="M 723 -1600 
C 1069 -1249 1862 -433 1862 1581 
C 1862 3601 1069 4411 723 4768 
L 333 4768 
C 1120 3952 1376 2811 1376 1588 
C 1376 370 1133 -778 333 -1600 
L 723 -1600 
z
" transform="scale(0.015625)"/>
      </defs>
      <use xlink:href="#CMSS17-54" transform="scale(0.996264)"/>
      <use xlink:href="#CMSS17-69" transform="translate(63.819454 0)scale(0.996264)"/>
      <use xlink:href="#CMSS17-6d" transform="translate(86.000177 0)scale(0.996264)"/>
      <use xlink:href="#CMSS17-65" transform="translate(160.229431 0)scale(0.996264)"/>
      <use xlink:href="#CMSS17-28" transform="translate(233.097366 0)scale(0.996264)"/>
      <use xlink:href="#CMSS17-73" transform="translate(269.53128 0)scale(0.996264)"/>
      <use xlink:href="#CMSS17-65" transform="translate(305.444822 0)scale(0.996264)"/>
      <use xlink:href="#CMSS17-63" transform="translate(347.083644 0)scale(0.996264)"/>
      <use xlink:href="#CMSS17-29" transform="translate(388.722467 0)scale(0.996264)"/>
     </g>
    </g>
   </g>
   <g id="matplotlib.axis_2">
    <g id="ytick_1">
     <g id="line2d_4">
      <defs>
       <path id="m7107a1c974" d="M 0 0 
L -3.5 0 
" style="stroke: #000000; stroke-width: 0.8"/>
      </defs>
      <g>
       <use xlink:href="#m7107a1c974" x="54" y="176.572954" style="stroke: #000000; stroke-width: 0.8"/>
      </g>
     </g>
     <g id="text_5">
      <!-- $\mathdefault{2500}$ -->
      <g transform="translate(27.074659 180.032203)scale(0.1 -0.1)">
       <defs>
        <path id="CMR17-32" d="M 2669 989 
L 2554 989 
C 2490 536 2438 459 2413 420 
C 2381 369 1920 369 1830 369 
L 602 369 
C 832 619 1280 1072 1824 1597 
C 2214 1967 2669 2402 2669 3035 
C 2669 3790 2067 4224 1395 4224 
C 691 4224 262 3604 262 3030 
C 262 2780 448 2748 525 2748 
C 589 2748 781 2787 781 3010 
C 781 3207 614 3264 525 3264 
C 486 3264 448 3258 422 3245 
C 544 3790 915 4058 1306 4058 
C 1862 4058 2227 3617 2227 3035 
C 2227 2479 1901 2000 1536 1584 
L 262 146 
L 262 0 
L 2515 0 
L 2669 989 
z
" transform="scale(0.015625)"/>
       </defs>
       <use xlink:href="#CMR17-32" transform="scale(0.996264)"/>
       <use xlink:href="#CMR17-35" transform="translate(45.690477 0)scale(0.996264)"/>
       <use xlink:href="#CMR17-30" transform="translate(91.380954 0)scale(0.996264)"/>
       <use xlink:href="#CMR17-30" transform="translate(137.071431 0)scale(0.996264)"/>
      </g>
     </g>
    </g>
    <g id="ytick_2">
     <g id="line2d_5">
      <g>
       <use xlink:href="#m7107a1c974" x="54" y="154.153025" style="stroke: #000000; stroke-width: 0.8"/>
      </g>
     </g>
     <g id="text_6">
      <!-- $\mathdefault{5000}$ -->
      <g transform="translate(27.074659 157.612274)scale(0.1 -0.1)">
       <use xlink:href="#CMR17-35" transform="scale(0.996264)"/>
       <use xlink:href="#CMR17-30" transform="translate(45.690477 0)scale(0.996264)"/>
       <use xlink:href="#CMR17-30" transform="translate(91.380954 0)scale(0.996264)"/>
       <use xlink:href="#CMR17-30" transform="translate(137.071431 0)scale(0.996264)"/>
      </g>
     </g>
    </g>
    <g id="ytick_3">
     <g id="line2d_6">
      <g>
       <use xlink:href="#m7107a1c974" x="54" y="131.733096" style="stroke: #000000; stroke-width: 0.8"/>
      </g>
     </g>
     <g id="text_7">
      <!-- $\mathdefault{7500}$ -->
      <g transform="translate(27.074659 135.192345)scale(0.1 -0.1)">
       <defs>
        <path id="CMR17-37" d="M 2886 3941 
L 2886 4081 
L 1382 4081 
C 634 4081 621 4165 595 4288 
L 480 4288 
L 294 3094 
L 410 3094 
C 429 3215 474 3540 550 3661 
C 589 3712 1062 3712 1171 3712 
L 2579 3712 
L 1869 2661 
C 1395 1954 1069 999 1069 165 
C 1069 89 1069 -128 1299 -128 
C 1530 -128 1530 89 1530 171 
L 1530 465 
C 1530 1508 1709 2196 2003 2636 
L 2886 3941 
z
" transform="scale(0.015625)"/>
       </defs>
       <use xlink:href="#CMR17-37" transform="scale(0.996264)"/>
       <use xlink:href="#CMR17-35" transform="translate(45.690477 0)scale(0.996264)"/>
       <use xlink:href="#CMR17-30" transform="translate(91.380954 0)scale(0.996264)"/>
       <use xlink:href="#CMR17-30" transform="translate(137.071431 0)scale(0.996264)"/>
      </g>
     </g>
    </g>
    <g id="ytick_4">
     <g id="line2d_7">
      <g>
       <use xlink:href="#m7107a1c974" x="54" y="109.313167" style="stroke: #000000; stroke-width: 0.8"/>
      </g>
     </g>
     <g id="text_8">
      <!-- $\mathdefault{10000}$ -->
      <g transform="translate(22.093324 112.772416)scale(0.1 -0.1)">
       <use xlink:href="#CMR17-31" transform="scale(0.996264)"/>
       <use xlink:href="#CMR17-30" transform="translate(45.690477 0)scale(0.996264)"/>
       <use xlink:href="#CMR17-30" transform="translate(91.380954 0)scale(0.996264)"/>
       <use xlink:href="#CMR17-30" transform="translate(137.071431 0)scale(0.996264)"/>
       <use xlink:href="#CMR17-30" transform="translate(182.761908 0)scale(0.996264)"/>
      </g>
     </g>
    </g>
    <g id="ytick_5">
     <g id="line2d_8">
      <g>
       <use xlink:href="#m7107a1c974" x="54" y="86.893238" style="stroke: #000000; stroke-width: 0.8"/>
      </g>
     </g>
     <g id="text_9">
      <!-- $\mathdefault{12500}$ -->
      <g transform="translate(22.093324 90.352488)scale(0.1 -0.1)">
       <use xlink:href="#CMR17-31" transform="scale(0.996264)"/>
       <use xlink:href="#CMR17-32" transform="translate(45.690477 0)scale(0.996264)"/>
       <use xlink:href="#CMR17-35" transform="translate(91.380954 0)scale(0.996264)"/>
       <use xlink:href="#CMR17-30" transform="translate(137.071431 0)scale(0.996264)"/>
       <use xlink:href="#CMR17-30" transform="translate(182.761908 0)scale(0.996264)"/>
      </g>
     </g>
    </g>
    <g id="ytick_6">
     <g id="line2d_9">
      <g>
       <use xlink:href="#m7107a1c974" x="54" y="64.47331" style="stroke: #000000; stroke-width: 0.8"/>
      </g>
     </g>
     <g id="text_10">
      <!-- $\mathdefault{15000}$ -->
      <g transform="translate(22.093324 67.932559)scale(0.1 -0.1)">
       <use xlink:href="#CMR17-31" transform="scale(0.996264)"/>
       <use xlink:href="#CMR17-35" transform="translate(45.690477 0)scale(0.996264)"/>
       <use xlink:href="#CMR17-30" transform="translate(91.380954 0)scale(0.996264)"/>
       <use xlink:href="#CMR17-30" transform="translate(137.071431 0)scale(0.996264)"/>
       <use xlink:href="#CMR17-30" transform="translate(182.761908 0)scale(0.996264)"/>
      </g>
     </g>
    </g>
    <g id="ytick_7">
     <g id="line2d_10">
      <g>
       <use xlink:href="#m7107a1c974" x="54" y="42.053381" style="stroke: #000000; stroke-width: 0.8"/>
      </g>
     </g>
     <g id="text_11">
      <!-- $\mathdefault{17500}$ -->
      <g transform="translate(22.093324 45.51263)scale(0.1 -0.1)">
       <use xlink:href="#CMR17-31" transform="scale(0.996264)"/>
       <use xlink:href="#CMR17-37" transform="translate(45.690477 0)scale(0.996264)"/>
       <use xlink:href="#CMR17-35" transform="translate(91.380954 0)scale(0.996264)"/>
       <use xlink:href="#CMR17-30" transform="translate(137.071431 0)scale(0.996264)"/>
       <use xlink:href="#CMR17-30" transform="translate(182.761908 0)scale(0.996264)"/>
      </g>
     </g>
    </g>
    <g id="text_12">
     <!-- tpmC -->
     <g transform="translate(16.156145 120.592401)rotate(-90)scale(0.1 -0.1)">
      <defs>
       <path id="CMSS17-74" d="M 1069 2368 
L 1901 2368 
L 1901 2737 
L 1069 2737 
L 1069 3520 
L 614 3520 
L 614 2737 
L 109 2737 
L 109 2368 
L 602 2368 
L 602 749 
C 602 384 685 -64 1107 -64 
C 1427 -64 1722 25 2003 172 
L 1901 548 
C 1747 414 1562 337 1363 337 
C 1082 337 1069 696 1069 856 
L 1069 2368 
z
" transform="scale(0.015625)"/>
       <path id="CMSS17-70" d="M 966 333 
C 1178 129 1466 -5 1773 -5 
C 2368 -5 2880 603 2880 1412 
C 2880 2159 2496 2816 1946 2816 
C 1626 2816 1242 2702 954 2472 
L 954 2765 
L 480 2765 
L 480 -1216 
L 966 -1216 
L 966 333 
z
M 966 2100 
C 1018 2176 1235 2415 1587 2415 
C 2035 2415 2394 1960 2394 1412 
C 2394 787 1958 384 1530 384 
C 1402 384 1267 415 1139 523 
C 966 674 966 768 966 857 
L 966 2100 
z
" transform="scale(0.015625)"/>
       <path id="CMSS17-43" d="M 3501 714 
C 3072 427 2874 344 2355 344 
C 1459 344 934 1303 934 2179 
C 934 3112 1472 4032 2381 4032 
C 2790 4032 3059 3918 3386 3715 
L 3475 4217 
C 3168 4370 2778 4440 2387 4440 
C 1158 4440 397 3316 397 2179 
C 397 927 1299 -64 2323 -64 
C 2874 -64 3066 -19 3539 280 
L 3501 714 
z
" transform="scale(0.015625)"/>
      </defs>
      <use xlink:href="#CMSS17-74" transform="scale(0.996264)"/>
      <use xlink:href="#CMSS17-70" transform="translate(33.831567 0)scale(0.996264)"/>
      <use xlink:href="#CMSS17-6d" transform="translate(82.03651 0)scale(0.996264)"/>
      <use xlink:href="#CMSS17-43" transform="translate(156.265764 0)scale(0.996264)"/>
     </g>
    </g>
   </g>
   <g id="line2d_11">
    <path d="M 60.917355 168.430036 
L 62.070248 156.054235 
L 63.22314 155.910747 
L 64.376033 151.507473 
L 65.528926 148.413523 
L 66.681818 144.073025 
L 67.834711 139.553167 
L 68.987603 145.723132 
L 70.140496 138.817794 
L 71.293388 141.561993 
L 72.446281 140.808683 
L 73.599174 143.839858 
L 74.752066 145.669324 
L 75.904959 140.127117 
L 77.057851 145.382349 
L 78.210744 140.593452 
L 79.363636 140.396157 
L 80.516529 143.140356 
L 81.669421 139.947758 
L 82.822314 138.853665 
L 83.975207 135.679004 
L 85.128099 137.813381 
L 86.280992 145.220925 
L 87.433884 143.373523 
L 88.586777 143.12242 
L 89.739669 139.624911 
L 90.892562 142.422918 
L 92.045455 149.991886 
L 93.198347 142.45879 
L 94.35124 141.79516 
L 95.504132 143.014804 
L 96.657025 144.718719 
L 97.809917 146.135658 
L 98.96281 124.68427 
L 100.115702 126.244698 
L 101.268595 125.814235 
L 102.421488 129.81395 
L 103.57438 126.836584 
L 104.727273 123.070036 
L 105.880165 136.09153 
L 107.033058 142.171815 
L 108.18595 142.602278 
L 109.338843 136.916584 
L 110.491736 142.189751 
L 111.644628 144.700783 
L 112.797521 143.481139 
L 113.950413 137.580214 
L 115.103306 133.04242 
L 116.256198 121.204698 
L 117.409091 109.349039 
L 118.561983 95.251388 
L 119.714876 87.162278 
L 120.867769 74.983772 
L 122.020661 79.682989 
L 123.173554 87.7721 
L 124.326446 101.044698 
L 125.479339 113.563986 
L 126.632231 122.047687 
L 127.785124 138.997153 
L 128.938017 140.539644 
L 130.090909 145.02363 
L 131.243802 144.324128 
L 132.396694 141.651673 
L 133.549587 145.866619 
L 134.702479 141.938648 
L 135.855372 142.135943 
L 137.008264 146.297082 
L 138.161157 144.682847 
L 139.31405 149.740783 
L 140.466942 144.539359 
L 141.619835 144.395872 
L 142.772727 144.252384 
L 143.92562 137.472598 
L 145.078512 142.871317 
L 146.231405 144.252384 
L 147.384298 152.825765 
L 148.53719 155.10363 
L 149.690083 155.300925 
L 150.842975 160.663772 
L 151.995868 159.623488 
L 153.14876 159.48 
L 154.301653 157.255943 
L 155.454545 160.968683 
L 156.607438 159.623488 
L 157.760331 158.116868 
L 158.913223 153.794306 
L 160.066116 152.018648 
L 161.219008 150.691388 
L 162.371901 146.422633 
L 163.524793 148.054804 
L 164.677686 149.597295 
L 165.830579 153.489395 
L 166.983471 154.583488 
L 168.136364 153.991601 
L 169.289256 156.412954 
L 170.442149 155.67758 
L 171.595041 155.300925 
L 172.747934 151.516441 
L 173.900826 151.803416 
L 175.053719 154.332384 
L 176.206612 148.951601 
L 177.359504 152.180071 
L 178.512397 151.911032 
L 179.665289 156.395018 
L 180.818182 153.614947 
L 181.971074 152.987189 
L 183.123967 154.135089 
L 184.27686 149.812527 
L 185.429752 149.956014 
L 186.582645 146.35089 
L 187.735537 148.180356 
L 188.88843 145.956299 
L 190.041322 145.436157 
L 191.194215 147.373238 
L 192.347107 148.879858 
L 193.5 147.767829 
L 194.652893 154.188897 
L 195.805785 154.673167 
L 196.958678 161.058363 
L 198.11157 115.770107 
L 199.264463 41.891957 
" clip-path="url(#p8289892765)" style="fill: none; stroke: #1f77b4; stroke-width: 1.5; stroke-linecap: square"/>
   </g>
   <g id="line2d_12">
    <path d="M 60.917355 184.68 
L 62.070248 168.160996 
L 63.22314 158.206548 
L 64.376033 153.175516 
L 65.528926 157.25953 
L 66.681818 155.19331 
L 67.834711 146.853096 
L 68.987603 144.36 
L 70.140496 146.619929 
L 71.293388 147.104199 
L 72.446281 135.60726 
L 73.599174 137.472598 
L 74.752066 137.90306 
L 75.904959 136.898648 
L 77.057851 137.849253 
L 78.210744 137.651957 
L 79.363636 142.656085 
L 80.516529 141.651673 
L 81.669421 143.87573 
L 82.822314 144.808399 
L 83.975207 143.337651 
L 85.128099 143.247972 
L 86.280992 146.297082 
L 87.433884 142.996868 
L 88.586777 139.624911 
L 89.739669 142.135943 
L 90.892562 142.010391 
L 92.045455 145.346477 
L 93.198347 145.938363 
L 94.35124 148.64669 
L 95.504132 153.632883 
L 96.657025 151.928968 
L 97.809917 153.77637 
L 98.96281 155.605836 
L 100.115702 156.735801 
L 101.268595 157.829893 
L 102.421488 159.300641 
L 103.57438 159.910463 
L 104.727273 158.06306 
L 105.880165 156.789609 
L 107.033058 154.942206 
L 108.18595 156.556441 
L 109.338843 153.937794 
L 110.491736 154.153025 
L 111.644628 156.287402 
L 112.797521 154.942206 
L 113.950413 154.063345 
L 115.103306 154.188897 
L 116.256198 156.879288 
L 117.409091 160.466477 
L 118.561983 160.430605 
L 119.714876 159.246833 
L 120.867769 160.23331 
L 122.020661 156.861352 
L 123.173554 153.471459 
L 124.326446 146.440569 
L 125.479339 141.382633 
L 126.632231 143.086548 
L 127.785124 143.803986 
L 128.938017 143.60669 
L 130.090909 145.005694 
L 131.243802 151.139786 
L 132.396694 154.762847 
L 133.549587 153.507331 
L 134.702479 156.143915 
L 135.855372 153.11274 
L 137.008264 150.009822 
L 138.161157 146.368826 
L 139.31405 142.082135 
L 140.466942 140.216797 
L 141.619835 140.234733 
L 142.772727 142.584342 
L 143.92562 142.656085 
L 145.078512 144.987758 
L 146.231405 147.337367 
L 147.384298 151.319146 
L 148.53719 147.032456 
L 149.690083 147.660214 
L 150.842975 149.812527 
L 151.995868 147.660214 
L 153.14876 149.238577 
L 154.301653 147.122135 
L 155.454545 146.063915 
L 156.607438 154.44 
L 157.760331 152.162135 
L 158.913223 155.121566 
L 160.066116 157.435302 
L 161.219008 156.789609 
L 162.371901 159.749039 
L 163.524793 152.664342 
L 164.677686 157.66847 
L 165.830579 153.058932 
L 166.983471 153.543203 
L 168.136364 156.305338 
L 169.289256 148.628754 
L 170.442149 142.494662 
L 171.595041 121.868327 
L 172.747934 107.9321 
L 173.900826 90.605979 
L 175.053719 72.921139 
L 176.206612 67.701779 
L 177.359504 54.805836 
L 178.512397 54.518861 
L 179.665289 52.527972 
L 180.818182 46.142776 
L 181.971074 42.681139 
L 183.123967 36.439431 
L 184.27686 37.694947 
L 185.429752 35.076299 
L 186.582645 39.165694 
L 187.735537 42.717011 
L 188.88843 43.111601 
L 190.041322 46.322135 
L 191.194215 47.236868 
L 192.347107 46.555302 
L 193.5 52.240996 
L 194.652893 56.958149 
L 195.805785 63.522705 
L 196.958678 57.854947 
L 198.11157 52.850819 
L 199.264463 33.48 
" clip-path="url(#p8289892765)" style="fill: none; stroke: #ff7f0e; stroke-width: 1.5; stroke-linecap: square"/>
   </g>
   <g id="patch_3">
    <path d="M 54 192.24 
L 54 25.92 
" style="fill: none; stroke: #000000; stroke-width: 0.8; stroke-linejoin: miter; stroke-linecap: square"/>
   </g>
   <g id="patch_4">
    <path d="M 206.181818 192.24 
L 206.181818 25.92 
" style="fill: none; stroke: #000000; stroke-width: 0.8; stroke-linejoin: miter; stroke-linecap: square"/>
   </g>
   <g id="patch_5">
    <path d="M 54 192.24 
L 206.181818 192.24 
" style="fill: none; stroke: #000000; stroke-width: 0.8; stroke-linejoin: miter; stroke-linecap: square"/>
   </g>
   <g id="patch_6">
    <path d="M 54 25.92 
L 206.181818 25.92 
" style="fill: none; stroke: #000000; stroke-width: 0.8; stroke-linejoin: miter; stroke-linecap: square"/>
   </g>
   <g id="text_13">
    <!-- Requests (5 second rolling window) -->
    <g transform="translate(43.777439 19.92)scale(0.12 -0.12)">
     <defs>
      <path id="CMSS17-52" d="M 2522 2109 
L 2534 2115 
C 3533 2459 3539 3147 3539 3268 
C 3539 3873 2925 4453 2003 4453 
L 570 4453 
L 570 32 
L 1094 32 
L 1094 2048 
L 2035 2048 
L 3168 32 
L 3706 32 
L 2522 2109 
z
M 1094 2437 
L 1094 4096 
L 1933 4096 
C 2746 4096 3034 3637 3034 3267 
C 3034 2922 2778 2437 1933 2437 
L 1094 2437 
z
" transform="scale(0.015625)"/>
      <path id="CMSS17-71" d="M 2611 2816 
L 2138 2816 
L 2138 2428 
C 2112 2460 1818 2816 1318 2816 
C 736 2816 211 2228 211 1399 
C 211 633 653 -5 1229 -5 
C 1498 -5 1837 91 2125 365 
L 2125 -1216 
L 2611 -1216 
L 2611 2816 
z
M 2138 914 
C 2138 832 2138 718 1939 554 
C 1888 510 1747 384 1504 384 
C 1050 384 698 850 698 1399 
C 698 2011 1126 2415 1562 2415 
C 1926 2415 2138 2061 2138 1797 
L 2138 914 
z
" transform="scale(0.015625)"/>
      <path id="CMSS17-75" d="M 2618 2739 
L 2131 2739 
L 2131 972 
C 2131 498 1786 306 1421 306 
C 998 306 960 447 960 709 
L 960 2739 
L 474 2739 
L 474 678 
C 474 179 646 -64 1088 -64 
C 1306 -64 1798 -13 2144 306 
L 2144 0 
L 2618 0 
L 2618 2739 
z
" transform="scale(0.015625)"/>
      <path id="CMSS17-35" d="M 934 3752 
L 2502 3752 
L 2502 4160 
L 467 4160 
L 467 1781 
L 896 1781 
C 1011 2046 1248 2240 1555 2240 
C 1843 2240 2163 1989 2163 1266 
C 2163 493 1709 267 1376 267 
C 966 267 589 512 422 851 
L 218 499 
C 512 49 992 -128 1376 -128 
C 2118 -128 2701 497 2701 1253 
C 2701 2030 2182 2629 1562 2629 
C 1338 2629 1120 2553 934 2399 
L 934 3752 
z
" transform="scale(0.015625)"/>
      <path id="CMSS17-6f" d="M 2829 1356 
C 2829 2176 2221 2816 1504 2816 
C 768 2816 173 2157 173 1356 
C 173 544 787 -64 1498 -64 
C 2227 -64 2829 563 2829 1356 
z
M 1504 337 
C 1050 337 659 709 659 1408 
C 659 2151 1114 2427 1498 2427 
C 1914 2427 2342 2126 2342 1408 
C 2342 683 1926 337 1504 337 
z
" transform="scale(0.015625)"/>
      <path id="CMSS17-6e" d="M 2618 1877 
C 2618 2283 2522 2816 1798 2816 
C 1389 2816 1120 2606 941 2389 
L 941 2758 
L 474 2758 
L 474 0 
L 960 0 
L 960 1559 
C 960 1964 1114 2428 1549 2428 
C 2112 2428 2131 2048 2131 1829 
L 2131 0 
L 2618 0 
L 2618 1877 
z
" transform="scale(0.015625)"/>
      <path id="CMSS17-64" d="M 2611 4416 
L 2138 4416 
L 2138 2438 
C 1939 2603 1613 2756 1254 2756 
C 672 2756 211 2131 211 1347 
C 211 562 666 -64 1235 -64 
C 1677 -64 1971 172 2125 306 
L 2125 -13 
L 2611 -13 
L 2611 4416 
z
M 2125 836 
C 2125 747 2125 653 1926 482 
C 1798 375 1645 325 1498 325 
C 1152 325 698 576 698 1340 
C 698 2134 1210 2368 1562 2368 
C 1798 2368 1990 2254 2125 2065 
L 2125 836 
z
" transform="scale(0.015625)"/>
      <path id="CMSS17-72" d="M 954 1363 
C 954 1965 1395 2368 1958 2368 
L 1958 2789 
C 1549 2789 1165 2585 934 2253 
L 934 2758 
L 480 2758 
L 480 0 
L 954 0 
L 954 1363 
z
" transform="scale(0.015625)"/>
      <path id="CMSS17-6c" d="M 947 4416 
L 474 4416 
L 474 0 
L 947 0 
L 947 4416 
z
" transform="scale(0.015625)"/>
      <path id="CMSS17-67" d="M 2848 2808 
C 2483 2808 2170 2738 1914 2617 
C 1702 2777 1485 2808 1338 2808 
C 781 2808 358 2349 358 1814 
C 358 1468 550 1207 563 1195 
C 448 1035 384 863 384 672 
C 384 448 474 289 544 200 
C 211 -3 166 -314 166 -435 
C 166 -898 749 -1280 1498 -1280 
C 2253 -1280 2835 -898 2835 -428 
C 2835 448 1856 448 1587 448 
L 1069 448 
C 973 448 717 448 717 791 
C 717 921 774 1004 781 1010 
C 877 940 1075 832 1338 832 
C 1869 832 2310 1278 2310 1827 
C 2310 2132 2170 2355 2112 2432 
L 2131 2432 
C 2150 2432 2419 2432 2515 2432 
C 2720 2432 2739 2429 2918 2419 
L 2848 2808 
z
M 1338 1182 
C 1120 1182 813 1315 813 1823 
C 813 2375 1165 2464 1331 2464 
C 1549 2464 1856 2331 1856 1823 
C 1856 1271 1504 1182 1338 1182 
z
M 1581 -10 
C 1734 -10 2381 -10 2381 -442 
C 2381 -714 1984 -929 1504 -929 
C 1018 -929 621 -720 621 -435 
C 621 -403 621 -10 1062 -10 
L 1581 -10 
z
" transform="scale(0.015625)"/>
      <path id="CMSS17-77" d="M 4013 2752 
L 3526 2752 
L 3187 1601 
C 3117 1358 2918 685 2893 371 
L 2886 371 
C 2874 564 2765 1024 2586 1633 
L 2259 2752 
L 1818 2752 
L 1498 1658 
C 1338 1101 1216 627 1203 371 
L 1197 371 
C 1171 749 909 1633 870 1773 
L 582 2752 
L 83 2752 
L 915 0 
L 1402 0 
C 1734 1096 1990 1943 2010 2370 
C 2022 2160 2131 1707 2195 1484 
L 2618 0 
L 3181 0 
L 4013 2752 
z
" transform="scale(0.015625)"/>
     </defs>
     <use xlink:href="#CMSS17-52" transform="scale(0.996264)"/>
     <use xlink:href="#CMSS17-65" transform="translate(60.416155 0)scale(0.996264)"/>
     <use xlink:href="#CMSS17-71" transform="translate(102.054977 0)scale(0.996264)"/>
     <use xlink:href="#CMSS17-75" transform="translate(150.25992 0)scale(0.996264)"/>
     <use xlink:href="#CMSS17-65" transform="translate(198.464863 0)scale(0.996264)"/>
     <use xlink:href="#CMSS17-73" transform="translate(240.103685 0)scale(0.996264)"/>
     <use xlink:href="#CMSS17-74" transform="translate(276.017227 0)scale(0.996264)"/>
     <use xlink:href="#CMSS17-73" transform="translate(309.848794 0)scale(0.996264)"/>
     <use xlink:href="#CMSS17-28" transform="translate(376.991449 0)scale(0.996264)"/>
     <use xlink:href="#CMSS17-35" transform="translate(413.425363 0)scale(0.996264)"/>
     <use xlink:href="#CMSS17-73" transform="translate(491.498099 0)scale(0.996264)"/>
     <use xlink:href="#CMSS17-65" transform="translate(527.411641 0)scale(0.996264)"/>
     <use xlink:href="#CMSS17-63" transform="translate(569.050463 0)scale(0.996264)"/>
     <use xlink:href="#CMSS17-6f" transform="translate(610.689285 0)scale(0.996264)"/>
     <use xlink:href="#CMSS17-6e" transform="translate(657.532909 0)scale(0.996264)"/>
     <use xlink:href="#CMSS17-64" transform="translate(705.737852 0)scale(0.996264)"/>
     <use xlink:href="#CMSS17-72" transform="translate(785.171908 0)scale(0.996264)"/>
     <use xlink:href="#CMSS17-6f" transform="translate(817.08168 0)scale(0.996264)"/>
     <use xlink:href="#CMSS17-6c" transform="translate(863.925304 0)scale(0.996264)"/>
     <use xlink:href="#CMSS17-6c" transform="translate(886.106027 0)scale(0.996264)"/>
     <use xlink:href="#CMSS17-69" transform="translate(908.28675 0)scale(0.996264)"/>
     <use xlink:href="#CMSS17-6e" transform="translate(930.467473 0)scale(0.996264)"/>
     <use xlink:href="#CMSS17-67" transform="translate(978.672416 0)scale(0.996264)"/>
     <use xlink:href="#CMSS17-77" transform="translate(1056.745152 0)scale(0.996264)"/>
     <use xlink:href="#CMSS17-69" transform="translate(1120.564698 0)scale(0.996264)"/>
     <use xlink:href="#CMSS17-6e" transform="translate(1142.745421 0)scale(0.996264)"/>
     <use xlink:href="#CMSS17-64" transform="translate(1190.950364 0)scale(0.996264)"/>
     <use xlink:href="#CMSS17-6f" transform="translate(1239.155307 0)scale(0.996264)"/>
     <use xlink:href="#CMSS17-77" transform="translate(1283.396476 0)scale(0.996264)"/>
     <use xlink:href="#CMSS17-29" transform="translate(1347.216022 0)scale(0.996264)"/>
    </g>
   </g>
   <g id="legend_1">
    <g id="patch_7">
     <path d="M 61 61.794357 
L 117.768294 61.794357 
Q 119.768294 61.794357 119.768294 59.794357 
L 119.768294 32.92 
Q 119.768294 30.92 117.768294 30.92 
L 61 30.92 
Q 59 30.92 59 32.92 
L 59 59.794357 
Q 59 61.794357 61 61.794357 
z
" style="fill: #ffffff; opacity: 0.8; stroke: #cccccc; stroke-linejoin: miter"/>
    </g>
    <g id="line2d_13">
     <path d="M 63 38.42 
L 73 38.42 
L 83 38.42 
" style="fill: none; stroke: #1f77b4; stroke-width: 1.5; stroke-linecap: square"/>
    </g>
    <g id="text_14">
     <!-- LSD -->
     <g transform="translate(91 41.92)scale(0.1 -0.1)">
      <defs>
       <path id="CMSS17-4c" d="M 1670 414 
C 1594 414 1517 414 1440 414 
L 1101 414 
L 1101 4416 
L 563 4416 
L 563 0 
L 3002 0 
L 3002 414 
L 1670 414 
z
" transform="scale(0.015625)"/>
       <path id="CMSS17-53" d="M 2797 4169 
C 2515 4334 2208 4480 1690 4480 
C 864 4480 333 3879 333 3266 
C 333 3025 403 2753 653 2475 
C 902 2196 1184 2121 1542 2033 
C 1690 1994 1939 1924 1984 1906 
C 2342 1767 2515 1444 2515 1140 
C 2515 742 2202 318 1645 318 
C 1453 318 890 318 358 819 
L 269 318 
C 794 -64 1363 -128 1651 -128 
C 2438 -128 3002 488 3002 1186 
C 3002 1440 2925 1763 2656 2061 
C 2394 2347 2163 2410 1638 2549 
C 1338 2626 1146 2677 986 2873 
C 877 3013 819 3146 819 3317 
C 819 3673 1126 4060 1690 4060 
C 1971 4060 2336 4002 2707 3660 
L 2797 4169 
z
" transform="scale(0.015625)"/>
       <path id="CMSS17-44" d="M 570 4416 
L 570 0 
L 2144 0 
C 3194 0 4000 980 4000 2170 
C 4000 3398 3194 4416 2144 4416 
L 570 4416 
z
M 1094 357 
L 1094 4059 
L 2003 4059 
C 2861 4059 3475 3277 3475 2170 
C 3475 1107 2867 357 2003 357 
L 1094 357 
z
" transform="scale(0.015625)"/>
      </defs>
      <use xlink:href="#CMSS17-4c" transform="scale(0.996264)"/>
      <use xlink:href="#CMSS17-53" transform="translate(50.687105 0)scale(0.996264)"/>
      <use xlink:href="#CMSS17-44" transform="translate(102.735622 0)scale(0.996264)"/>
     </g>
    </g>
    <g id="line2d_14">
     <path d="M 63 52.357178 
L 73 52.357178 
L 83 52.357178 
" style="fill: none; stroke: #ff7f0e; stroke-width: 1.5; stroke-linecap: square"/>
    </g>
    <g id="text_15">
     <!-- BASE -->
     <g transform="translate(91 55.857178)scale(0.1 -0.1)">
      <defs>
       <path id="CMSS17-42" d="M 570 4416 
L 570 0 
L 2163 0 
C 3034 0 3667 574 3667 1200 
C 3667 1685 3251 2176 2502 2317 
C 3334 2558 3501 3040 3501 3313 
C 3501 3883 2874 4416 1997 4416 
L 570 4416 
z
M 1088 2496 
L 1088 4059 
L 1824 4059 
C 2483 4059 3002 3724 3002 3306 
C 3002 2926 2592 2496 1766 2496 
L 1088 2496 
z
M 1088 357 
L 1088 2107 
L 1939 2107 
C 2630 2107 3162 1679 3162 1206 
C 3162 772 2694 357 1984 357 
L 1088 357 
z
" transform="scale(0.015625)"/>
       <path id="CMSS17-41" d="M 2272 4416 
L 1722 4416 
L 166 0 
L 653 0 
L 1101 1280 
L 2816 1280 
L 3270 0 
L 3827 0 
L 2272 4416 
z
M 2694 1637 
L 1222 1637 
C 1530 2528 1914 3638 1958 3925 
L 1965 3925 
C 2010 3663 2138 3281 2246 2956 
L 2694 1637 
z
" transform="scale(0.015625)"/>
       <path id="CMSS17-45" d="M 1958 433 
C 1446 433 1216 433 1101 433 
L 1101 2107 
L 3085 2107 
L 3085 2496 
L 1101 2496 
L 1101 4009 
L 1926 4009 
C 2003 4009 2080 4009 2157 4009 
L 3251 4009 
L 3251 4416 
L 563 4416 
L 563 0 
L 3334 0 
L 3334 433 
L 1958 433 
z
" transform="scale(0.015625)"/>
      </defs>
      <use xlink:href="#CMSS17-42" transform="scale(0.996264)"/>
      <use xlink:href="#CMSS17-41" transform="translate(62.33804 0)scale(0.996264)"/>
      <use xlink:href="#CMSS17-53" transform="translate(124.555895 0)scale(0.996264)"/>
      <use xlink:href="#CMSS17-45" transform="translate(176.604411 0)scale(0.996264)"/>
     </g>
    </g>
   </g>
  </g>
  <g id="axes_2">
   <g id="patch_8">
    <path d="M 236.618182 192.24 
L 388.8 192.24 
L 388.8 25.92 
L 236.618182 25.92 
z
" style="fill: #ffffff"/>
   </g>
   <g id="matplotlib.axis_3">
    <g id="xtick_4">
     <g id="line2d_15">
      <g>
       <use xlink:href="#meae517e8ee" x="243.535537" y="192.24" style="stroke: #000000; stroke-width: 0.8"/>
      </g>
     </g>
     <g id="text_16">
      <!-- $\mathdefault{0}$ -->
      <g transform="translate(241.04487 206.158498)scale(0.1 -0.1)">
       <use xlink:href="#CMR17-30" transform="scale(0.996264)"/>
      </g>
     </g>
    </g>
    <g id="xtick_5">
     <g id="line2d_16">
      <g>
       <use xlink:href="#meae517e8ee" x="301.180165" y="192.24" style="stroke: #000000; stroke-width: 0.8"/>
      </g>
     </g>
     <g id="text_17">
      <!-- $\mathdefault{50}$ -->
      <g transform="translate(296.19883 206.158498)scale(0.1 -0.1)">
       <use xlink:href="#CMR17-35" transform="scale(0.996264)"/>
       <use xlink:href="#CMR17-30" transform="translate(45.690477 0)scale(0.996264)"/>
      </g>
     </g>
    </g>
    <g id="xtick_6">
     <g id="line2d_17">
      <g>
       <use xlink:href="#meae517e8ee" x="358.824793" y="192.24" style="stroke: #000000; stroke-width: 0.8"/>
      </g>
     </g>
     <g id="text_18">
      <!-- $\mathdefault{100}$ -->
      <g transform="translate(351.352791 206.158498)scale(0.1 -0.1)">
       <use xlink:href="#CMR17-31" transform="scale(0.996264)"/>
       <use xlink:href="#CMR17-30" transform="translate(45.690477 0)scale(0.996264)"/>
       <use xlink:href="#CMR17-30" transform="translate(91.380954 0)scale(0.996264)"/>
      </g>
     </g>
    </g>
    <g id="text_19">
     <!-- Time (sec) -->
     <g transform="translate(290.085578 219.567657)scale(0.1 -0.1)">
      <use xlink:href="#CMSS17-54" transform="scale(0.996264)"/>
      <use xlink:href="#CMSS17-69" transform="translate(63.819454 0)scale(0.996264)"/>
      <use xlink:href="#CMSS17-6d" transform="translate(86.000177 0)scale(0.996264)"/>
      <use xlink:href="#CMSS17-65" transform="translate(160.229431 0)scale(0.996264)"/>
      <use xlink:href="#CMSS17-28" transform="translate(233.097366 0)scale(0.996264)"/>
      <use xlink:href="#CMSS17-73" transform="translate(269.53128 0)scale(0.996264)"/>
      <use xlink:href="#CMSS17-65" transform="translate(305.444822 0)scale(0.996264)"/>
      <use xlink:href="#CMSS17-63" transform="translate(347.083644 0)scale(0.996264)"/>
      <use xlink:href="#CMSS17-29" transform="translate(388.722467 0)scale(0.996264)"/>
     </g>
    </g>
   </g>
   <g id="matplotlib.axis_4">
    <g id="ytick_8">
     <g id="line2d_18">
      <g>
       <use xlink:href="#m7107a1c974" x="236.618182" y="173.982967" style="stroke: #000000; stroke-width: 0.8"/>
      </g>
     </g>
     <g id="text_20">
      <!-- $\mathdefault{200}$ -->
      <g transform="translate(214.674176 177.442216)scale(0.1 -0.1)">
       <use xlink:href="#CMR17-32" transform="scale(0.996264)"/>
       <use xlink:href="#CMR17-30" transform="translate(45.690477 0)scale(0.996264)"/>
       <use xlink:href="#CMR17-30" transform="translate(91.380954 0)scale(0.996264)"/>
      </g>
     </g>
    </g>
    <g id="ytick_9">
     <g id="line2d_19">
      <g>
       <use xlink:href="#m7107a1c974" x="236.618182" y="142.14183" style="stroke: #000000; stroke-width: 0.8"/>
      </g>
     </g>
     <g id="text_21">
      <!-- $\mathdefault{400}$ -->
      <g transform="translate(214.674176 145.601079)scale(0.1 -0.1)">
       <defs>
        <path id="CMR17-34" d="M 2150 4122 
C 2150 4256 2144 4256 2029 4256 
L 128 1254 
L 128 1088 
L 1779 1088 
L 1779 457 
C 1779 224 1766 160 1318 160 
L 1197 160 
L 1197 0 
C 1402 0 1747 0 1965 0 
C 2182 0 2528 0 2733 0 
L 2733 160 
L 2611 160 
C 2163 160 2150 224 2150 457 
L 2150 1088 
L 2803 1088 
L 2803 1254 
L 2150 1254 
L 2150 4122 
z
M 1798 3703 
L 1798 1254 
L 256 1254 
L 1798 3703 
z
" transform="scale(0.015625)"/>
       </defs>
       <use xlink:href="#CMR17-34" transform="scale(0.996264)"/>
       <use xlink:href="#CMR17-30" transform="translate(45.690477 0)scale(0.996264)"/>
       <use xlink:href="#CMR17-30" transform="translate(91.380954 0)scale(0.996264)"/>
      </g>
     </g>
    </g>
    <g id="ytick_10">
     <g id="line2d_20">
      <g>
       <use xlink:href="#m7107a1c974" x="236.618182" y="110.300693" style="stroke: #000000; stroke-width: 0.8"/>
      </g>
     </g>
     <g id="text_22">
      <!-- $\mathdefault{600}$ -->
      <g transform="translate(214.674176 113.759942)scale(0.1 -0.1)">
       <defs>
        <path id="CMR17-36" d="M 678 2176 
C 678 3690 1395 4032 1811 4032 
C 1946 4032 2272 4009 2400 3776 
C 2298 3776 2106 3776 2106 3553 
C 2106 3381 2246 3323 2336 3323 
C 2394 3323 2566 3348 2566 3560 
C 2566 3954 2246 4179 1805 4179 
C 1043 4179 243 3390 243 1984 
C 243 253 966 -128 1478 -128 
C 2099 -128 2688 427 2688 1283 
C 2688 2081 2170 2662 1517 2662 
C 1126 2662 838 2407 678 1960 
L 678 2176 
z
M 1478 25 
C 691 25 691 1200 691 1436 
C 691 1896 909 2560 1504 2560 
C 1613 2560 1926 2560 2138 2120 
C 2253 1870 2253 1609 2253 1289 
C 2253 944 2253 690 2118 434 
C 1978 171 1773 25 1478 25 
z
" transform="scale(0.015625)"/>
       </defs>
       <use xlink:href="#CMR17-36" transform="scale(0.996264)"/>
       <use xlink:href="#CMR17-30" transform="translate(45.690477 0)scale(0.996264)"/>
       <use xlink:href="#CMR17-30" transform="translate(91.380954 0)scale(0.996264)"/>
      </g>
     </g>
    </g>
    <g id="ytick_11">
     <g id="line2d_21">
      <g>
       <use xlink:href="#m7107a1c974" x="236.618182" y="78.459556" style="stroke: #000000; stroke-width: 0.8"/>
      </g>
     </g>
     <g id="text_23">
      <!-- $\mathdefault{800}$ -->
      <g transform="translate(214.674176 81.918805)scale(0.1 -0.1)">
       <defs>
        <path id="CMR17-38" d="M 1741 2264 
C 2144 2467 2554 2773 2554 3263 
C 2554 3841 1990 4179 1472 4179 
C 890 4179 378 3759 378 3180 
C 378 3021 416 2747 666 2505 
C 730 2442 998 2251 1171 2130 
C 883 1983 211 1634 211 934 
C 211 279 838 -128 1459 -128 
C 2144 -128 2720 362 2720 1010 
C 2720 1590 2330 1857 2074 2029 
L 1741 2264 
z
M 902 2822 
C 851 2854 595 3051 595 3351 
C 595 3739 998 4032 1459 4032 
C 1965 4032 2336 3676 2336 3262 
C 2336 2669 1670 2331 1638 2331 
C 1632 2331 1626 2331 1574 2370 
L 902 2822 
z
M 2080 1519 
C 2176 1449 2483 1240 2483 851 
C 2483 381 2010 25 1472 25 
C 890 25 448 438 448 940 
C 448 1443 838 1862 1280 2060 
L 2080 1519 
z
" transform="scale(0.015625)"/>
       </defs>
       <use xlink:href="#CMR17-38" transform="scale(0.996264)"/>
       <use xlink:href="#CMR17-30" transform="translate(45.690477 0)scale(0.996264)"/>
       <use xlink:href="#CMR17-30" transform="translate(91.380954 0)scale(0.996264)"/>
      </g>
     </g>
    </g>
    <g id="ytick_12">
     <g id="line2d_22">
      <g>
       <use xlink:href="#m7107a1c974" x="236.618182" y="46.618419" style="stroke: #000000; stroke-width: 0.8"/>
      </g>
     </g>
     <g id="text_24">
      <!-- $\mathdefault{1000}$ -->
      <g transform="translate(209.692841 50.077668)scale(0.1 -0.1)">
       <use xlink:href="#CMR17-31" transform="scale(0.996264)"/>
       <use xlink:href="#CMR17-30" transform="translate(45.690477 0)scale(0.996264)"/>
       <use xlink:href="#CMR17-30" transform="translate(91.380954 0)scale(0.996264)"/>
       <use xlink:href="#CMR17-30" transform="translate(137.071431 0)scale(0.996264)"/>
      </g>
     </g>
    </g>
    <g id="text_25">
     <!-- Latency (ms) -->
     <g transform="translate(203.202181 136.671022)rotate(-90)scale(0.1 -0.1)">
      <defs>
       <path id="CMSS17-61" d="M 2406 1791 
C 2406 2392 1978 2808 1402 2808 
C 1120 2808 813 2757 461 2553 
L 499 2135 
C 659 2248 934 2432 1395 2432 
C 1722 2432 1920 2180 1920 1782 
L 1920 1536 
C 896 1536 256 1238 256 726 
C 256 461 416 -64 947 -64 
C 1043 -64 1562 -64 1933 217 
L 1933 -19 
L 2406 -19 
L 2406 1791 
z
M 1920 816 
C 1920 701 1920 548 1728 434 
C 1562 325 1350 325 1261 325 
C 941 325 723 511 723 744 
C 723 1211 1722 1211 1920 1211 
L 1920 816 
z
" transform="scale(0.015625)"/>
       <path id="CMSS17-79" d="M 2675 2752 
L 2176 2752 
C 1632 1294 1446 702 1434 383 
L 1427 383 
C 1408 696 1126 1460 902 2007 
L 602 2752 
L 83 2752 
L 1216 13 
C 1146 -178 1043 -465 1011 -529 
C 870 -885 774 -885 672 -885 
C 646 -885 442 -885 211 -809 
L 250 -1229 
C 410 -1261 570 -1280 685 -1280 
C 845 -1280 1165 -1280 1459 -497 
L 2675 2752 
z
" transform="scale(0.015625)"/>
      </defs>
      <use xlink:href="#CMSS17-4c" transform="scale(0.996264)"/>
      <use xlink:href="#CMSS17-61" transform="translate(50.687105 0)scale(0.996264)"/>
      <use xlink:href="#CMSS17-74" transform="translate(95.609026 0)scale(0.996264)"/>
      <use xlink:href="#CMSS17-65" transform="translate(129.440593 0)scale(0.996264)"/>
      <use xlink:href="#CMSS17-6e" transform="translate(171.079415 0)scale(0.996264)"/>
      <use xlink:href="#CMSS17-63" transform="translate(219.284358 0)scale(0.996264)"/>
      <use xlink:href="#CMSS17-79" transform="translate(260.92318 0)scale(0.996264)"/>
      <use xlink:href="#CMSS17-28" transform="translate(335.152434 0)scale(0.996264)"/>
      <use xlink:href="#CMSS17-6d" transform="translate(371.586349 0)scale(0.996264)"/>
      <use xlink:href="#CMSS17-73" transform="translate(445.815603 0)scale(0.996264)"/>
      <use xlink:href="#CMSS17-29" transform="translate(481.729145 0)scale(0.996264)"/>
     </g>
    </g>
   </g>
   <g id="line2d_23">
    <path d="M 243.535537 184.454501 
L 244.68843 184.68 
L 245.841322 153.965399 
L 246.994215 154.130648 
L 248.147107 154.252165 
L 249.3 156.580004 
L 250.452893 156.58888 
L 251.605785 154.458673 
L 252.758678 83.848815 
L 253.91157 83.833927 
L 255.064463 83.836669 
L 256.217355 83.833343 
L 257.370248 83.831576 
L 258.52314 86.907393 
L 259.676033 126.781379 
L 260.828926 127.173033 
L 261.981818 127.176798 
L 263.134711 127.088553 
L 264.287603 127.185355 
L 265.440496 136.797633 
L 266.593388 136.865707 
L 267.746281 136.857698 
L 268.899174 136.690691 
L 270.052066 82.505291 
L 271.204959 82.517371 
L 272.357851 82.595715 
L 273.510744 82.551024 
L 274.663636 82.468681 
L 275.816529 82.549298 
L 276.969421 89.001163 
L 278.122314 89.000946 
L 279.275207 88.973062 
L 280.428099 88.953127 
L 281.580992 128.874596 
L 282.733884 138.405973 
L 283.886777 138.406279 
L 285.039669 138.398382 
L 286.192562 93.324053 
L 287.345455 94.49288 
L 288.498347 90.398037 
L 289.65124 90.409011 
L 290.804132 90.404693 
L 291.957025 92.235815 
L 293.109917 104.988228 
L 294.26281 104.823151 
L 295.415702 104.850866 
L 296.568595 143.189623 
L 297.721488 142.878118 
L 298.87438 140.748309 
L 300.027273 138.664609 
L 301.180165 143.189199 
L 302.333058 140.424446 
L 303.48595 132.228819 
L 304.638843 126.76431 
L 305.791736 126.361681 
L 306.944628 128.607309 
L 308.097521 128.430479 
L 309.250413 128.023439 
L 310.403306 116.623394 
L 311.556198 116.598169 
L 312.709091 116.48947 
L 313.861983 116.531257 
L 315.014876 116.411109 
L 316.167769 116.002334 
L 317.320661 130.500201 
L 318.473554 130.396946 
L 319.626446 85.973026 
L 320.779339 85.975319 
L 321.932231 85.983298 
L 323.085124 86.000667 
L 324.238017 86.001763 
L 325.390909 86.002858 
L 326.543802 129.557518 
L 327.696694 128.281816 
L 328.849587 128.207917 
L 330.002479 128.001046 
L 331.155372 78.950435 
L 332.308264 78.94772 
L 333.461157 78.87449 
L 334.61405 78.876614 
L 335.766942 78.877222 
L 336.919835 78.907392 
L 338.072727 123.189995 
L 339.22562 100.810859 
L 340.378512 100.815673 
L 341.531405 100.820432 
L 342.684298 100.823713 
L 343.83719 100.823949 
L 344.990083 172.694022 
L 346.142975 173.3521 
L 347.295868 172.585996 
L 348.44876 165.173161 
L 349.601653 164.410247 
L 350.754545 164.407643 
L 351.907438 120.63429 
L 353.060331 120.638135 
L 354.213223 120.638937 
L 355.366116 120.63098 
L 356.519008 120.629018 
L 357.671901 120.617576 
L 358.824793 126.905185 
L 359.977686 103.255133 
L 361.130579 103.257402 
L 362.283471 103.264964 
L 363.436364 103.3403 
L 364.589256 103.343086 
L 365.742149 103.337991 
L 366.895041 113.364581 
L 368.047934 113.363001 
L 369.200826 114.214535 
L 370.353719 114.200137 
L 371.506612 116.145872 
L 372.659504 116.14675 
L 373.812397 113.526514 
L 374.965289 113.503044 
L 376.118182 113.520875 
L 377.271074 113.331579 
L 378.423967 74.065415 
L 379.57686 73.934144 
L 380.729752 114.092991 
L 381.882645 129.515899 
" clip-path="url(#p06e6a9aa14)" style="fill: none; stroke: #1f77b4; stroke-width: 1.5; stroke-linecap: square"/>
   </g>
   <g id="line2d_24">
    <path d="M 243.535537 144.543218 
L 244.68843 144.55335 
L 245.841322 144.570353 
L 246.994215 144.58899 
L 248.147107 145.082222 
L 249.3 93.850407 
L 250.452893 93.86574 
L 251.605785 93.867108 
L 252.758678 93.865761 
L 253.91157 93.865705 
L 255.064463 94.205898 
L 256.217355 139.366442 
L 257.370248 139.365219 
L 258.52314 139.368072 
L 259.676033 134.022213 
L 260.828926 134.022475 
L 261.981818 134.011004 
L 263.134711 134.024868 
L 264.287603 134.023741 
L 265.440496 134.005942 
L 266.593388 131.83963 
L 267.746281 131.83963 
L 268.899174 131.833884 
L 270.052066 112.657708 
L 271.204959 112.659394 
L 272.357851 112.661973 
L 273.510744 112.662274 
L 274.663636 112.658147 
L 275.816529 110.173072 
L 276.969421 110.20843 
L 278.122314 110.202915 
L 279.275207 110.204284 
L 280.428099 110.200361 
L 281.580992 77.486987 
L 282.733884 77.328614 
L 283.886777 77.10271 
L 285.039669 76.50088 
L 286.192562 76.35309 
L 287.345455 77.007298 
L 288.498347 115.39716 
L 289.65124 129.544712 
L 290.804132 129.323225 
L 291.957025 131.591344 
L 293.109917 159.874839 
L 294.26281 154.366948 
L 295.415702 156.310515 
L 296.568595 156.538679 
L 297.721488 156.593143 
L 298.87438 155.903219 
L 300.027273 146.948394 
L 301.180165 155.184117 
L 302.333058 155.206312 
L 303.48595 155.186762 
L 304.638843 155.364053 
L 305.791736 148.615521 
L 306.944628 148.910619 
L 308.097521 149.165778 
L 309.250413 147.187045 
L 310.403306 147.183122 
L 311.556198 147.183613 
L 312.709091 147.316043 
L 313.861983 125.655551 
L 315.014876 125.648638 
L 316.167769 125.644634 
L 317.320661 125.634092 
L 318.473554 125.64298 
L 319.626446 125.647564 
L 320.779339 142.39921 
L 321.932231 142.572889 
L 323.085124 142.61169 
L 324.238017 128.074018 
L 325.390909 128.072976 
L 326.543802 128.072919 
L 327.696694 117.129439 
L 328.849587 116.785411 
L 330.002479 114.570704 
L 331.155372 114.300577 
L 332.308264 114.254606 
L 333.461157 113.561396 
L 334.61405 118.096217 
L 335.766942 118.09006 
L 336.919835 118.098653 
L 338.072727 138.616777 
L 339.22562 33.500399 
L 340.378512 33.501797 
L 341.531405 33.497594 
L 342.684298 33.491987 
L 343.83719 33.493591 
L 344.990083 33.48 
L 346.142975 104.160725 
L 347.295868 100.630248 
L 348.44876 102.065492 
L 349.601653 106.499065 
L 350.754545 106.30868 
L 351.907438 106.485985 
L 353.060331 106.541869 
L 354.213223 115.086436 
L 355.366116 116.388585 
L 356.519008 119.958441 
L 357.671901 123.100512 
L 358.824793 174.300503 
L 359.977686 176.40588 
L 361.130579 177.749175 
L 362.283471 177.647301 
L 363.436364 178.633538 
L 364.589256 178.610022 
L 365.742149 177.820161 
L 366.895041 177.676781 
L 368.047934 177.681856 
L 369.200826 177.680519 
L 370.353719 176.759864 
L 371.506612 176.767315 
L 372.659504 176.825877 
L 373.812397 177.878794 
L 374.965289 177.93648 
L 376.118182 178.139049 
L 377.271074 171.847312 
L 378.423967 170.562656 
L 379.57686 171.081793 
L 380.729752 169.605769 
L 381.882645 170.498157 
" clip-path="url(#p06e6a9aa14)" style="fill: none; stroke: #ff7f0e; stroke-width: 1.5; stroke-linecap: square"/>
   </g>
   <g id="patch_9">
    <path d="M 236.618182 192.24 
L 236.618182 25.92 
" style="fill: none; stroke: #000000; stroke-width: 0.8; stroke-linejoin: miter; stroke-linecap: square"/>
   </g>
   <g id="patch_10">
    <path d="M 388.8 192.24 
L 388.8 25.92 
" style="fill: none; stroke: #000000; stroke-width: 0.8; stroke-linejoin: miter; stroke-linecap: square"/>
   </g>
   <g id="patch_11">
    <path d="M 236.618182 192.24 
L 388.8 192.24 
" style="fill: none; stroke: #000000; stroke-width: 0.8; stroke-linejoin: miter; stroke-linecap: square"/>
   </g>
   <g id="patch_12">
    <path d="M 236.618182 25.92 
L 388.8 25.92 
" style="fill: none; stroke: #000000; stroke-width: 0.8; stroke-linejoin: miter; stroke-linecap: square"/>
   </g>
   <g id="text_26">
    <!-- P99th Latency (5 second rolling window) -->
    <g transform="translate(212.369225 19.92)scale(0.12 -0.12)">
     <defs>
      <path id="CMSS17-50" d="M 2106 1856 
C 2874 1856 3501 2453 3501 3158 
C 3501 3850 2899 4453 2067 4453 
L 570 4453 
L 570 0 
L 1107 0 
L 1107 1856 
L 2106 1856 
z
M 1926 4096 
C 2669 4096 2995 3627 2995 3157 
C 2995 2720 2694 2226 1926 2226 
L 1094 2226 
L 1094 4096 
L 1926 4096 
z
" transform="scale(0.015625)"/>
      <path id="CMSS17-39" d="M 435 174 
C 614 21 845 -128 1235 -128 
C 2010 -128 2752 721 2752 2095 
C 2752 3932 1952 4229 1523 4229 
C 1094 4229 819 4041 582 3741 
C 301 3397 250 3090 250 2733 
C 250 2307 326 2045 506 1745 
C 749 1357 973 1275 1222 1275 
C 1600 1275 1978 1459 2234 1776 
C 2189 902 1798 267 1235 267 
C 1005 267 819 339 634 516 
L 435 174 
z
M 2214 2746 
C 2221 2703 2221 2622 2221 2596 
C 2221 2074 1914 1664 1466 1664 
C 1171 1664 1018 1813 902 2006 
C 762 2249 755 2485 755 2733 
C 755 2976 755 3244 934 3511 
C 1069 3703 1235 3840 1523 3840 
C 2112 3840 2208 3000 2214 2746 
z
" transform="scale(0.015625)"/>
      <path id="CMSS17-68" d="M 2618 1891 
C 2618 2292 2522 2820 1798 2820 
C 1395 2820 1133 2623 947 2407 
L 947 4448 
L 474 4448 
L 474 32 
L 960 32 
L 960 1573 
C 960 1973 1114 2432 1549 2432 
C 2112 2432 2131 2056 2131 1839 
L 2131 32 
L 2618 32 
L 2618 1891 
z
" transform="scale(0.015625)"/>
     </defs>
     <use xlink:href="#CMSS17-50" transform="scale(0.996264)"/>
     <use xlink:href="#CMSS17-39" transform="translate(59.735586 0)scale(0.996264)"/>
     <use xlink:href="#CMSS17-39" transform="translate(106.57921 0)scale(0.996264)"/>
     <use xlink:href="#CMSS17-74" transform="translate(153.422833 0)scale(0.996264)"/>
     <use xlink:href="#CMSS17-68" transform="translate(187.2544 0)scale(0.996264)"/>
     <use xlink:href="#CMSS17-4c" transform="translate(266.688456 0)scale(0.996264)"/>
     <use xlink:href="#CMSS17-61" transform="translate(317.375561 0)scale(0.996264)"/>
     <use xlink:href="#CMSS17-74" transform="translate(362.297482 0)scale(0.996264)"/>
     <use xlink:href="#CMSS17-65" transform="translate(396.129049 0)scale(0.996264)"/>
     <use xlink:href="#CMSS17-6e" transform="translate(437.767871 0)scale(0.996264)"/>
     <use xlink:href="#CMSS17-63" transform="translate(485.972814 0)scale(0.996264)"/>
     <use xlink:href="#CMSS17-79" transform="translate(527.611636 0)scale(0.996264)"/>
     <use xlink:href="#CMSS17-28" transform="translate(601.84089 0)scale(0.996264)"/>
     <use xlink:href="#CMSS17-35" transform="translate(638.274804 0)scale(0.996264)"/>
     <use xlink:href="#CMSS17-73" transform="translate(716.347541 0)scale(0.996264)"/>
     <use xlink:href="#CMSS17-65" transform="translate(752.261083 0)scale(0.996264)"/>
     <use xlink:href="#CMSS17-63" transform="translate(793.899905 0)scale(0.996264)"/>
     <use xlink:href="#CMSS17-6f" transform="translate(835.538727 0)scale(0.996264)"/>
     <use xlink:href="#CMSS17-6e" transform="translate(882.38235 0)scale(0.996264)"/>
     <use xlink:href="#CMSS17-64" transform="translate(930.587293 0)scale(0.996264)"/>
     <use xlink:href="#CMSS17-72" transform="translate(1010.021349 0)scale(0.996264)"/>
     <use xlink:href="#CMSS17-6f" transform="translate(1041.931122 0)scale(0.996264)"/>
     <use xlink:href="#CMSS17-6c" transform="translate(1088.774745 0)scale(0.996264)"/>
     <use xlink:href="#CMSS17-6c" transform="translate(1110.955469 0)scale(0.996264)"/>
     <use xlink:href="#CMSS17-69" transform="translate(1133.136192 0)scale(0.996264)"/>
     <use xlink:href="#CMSS17-6e" transform="translate(1155.316915 0)scale(0.996264)"/>
     <use xlink:href="#CMSS17-67" transform="translate(1203.521858 0)scale(0.996264)"/>
     <use xlink:href="#CMSS17-77" transform="translate(1281.594594 0)scale(0.996264)"/>
     <use xlink:href="#CMSS17-69" transform="translate(1345.414139 0)scale(0.996264)"/>
     <use xlink:href="#CMSS17-6e" transform="translate(1367.594862 0)scale(0.996264)"/>
     <use xlink:href="#CMSS17-64" transform="translate(1415.799805 0)scale(0.996264)"/>
     <use xlink:href="#CMSS17-6f" transform="translate(1464.004748 0)scale(0.996264)"/>
     <use xlink:href="#CMSS17-77" transform="translate(1508.245918 0)scale(0.996264)"/>
     <use xlink:href="#CMSS17-29" transform="translate(1572.065463 0)scale(0.996264)"/>
    </g>
   </g>
   <g id="legend_2">
    <g id="patch_13">
     <path d="M 243.618182 61.794357 
L 300.386476 61.794357 
Q 302.386476 61.794357 302.386476 59.794357 
L 302.386476 32.92 
Q 302.386476 30.92 300.386476 30.92 
L 243.618182 30.92 
Q 241.618182 30.92 241.618182 32.92 
L 241.618182 59.794357 
Q 241.618182 61.794357 243.618182 61.794357 
z
" style="fill: #ffffff; opacity: 0.8; stroke: #cccccc; stroke-linejoin: miter"/>
    </g>
    <g id="line2d_25">
     <path d="M 245.618182 38.42 
L 255.618182 38.42 
L 265.618182 38.42 
" style="fill: none; stroke: #1f77b4; stroke-width: 1.5; stroke-linecap: square"/>
    </g>
    <g id="text_27">
     <!-- LSD -->
     <g transform="translate(273.618182 41.92)scale(0.1 -0.1)">
      <use xlink:href="#CMSS17-4c" transform="scale(0.996264)"/>
      <use xlink:href="#CMSS17-53" transform="translate(50.687105 0)scale(0.996264)"/>
      <use xlink:href="#CMSS17-44" transform="translate(102.735622 0)scale(0.996264)"/>
     </g>
    </g>
    <g id="line2d_26">
     <path d="M 245.618182 52.357178 
L 255.618182 52.357178 
L 265.618182 52.357178 
" style="fill: none; stroke: #ff7f0e; stroke-width: 1.5; stroke-linecap: square"/>
    </g>
    <g id="text_28">
     <!-- BASE -->
     <g transform="translate(273.618182 55.857178)scale(0.1 -0.1)">
      <use xlink:href="#CMSS17-42" transform="scale(0.996264)"/>
      <use xlink:href="#CMSS17-41" transform="translate(62.33804 0)scale(0.996264)"/>
      <use xlink:href="#CMSS17-53" transform="translate(124.555895 0)scale(0.996264)"/>
      <use xlink:href="#CMSS17-45" transform="translate(176.604411 0)scale(0.996264)"/>
     </g>
    </g>
   </g>
  </g>
  <g id="text_29">
   <!-- New order - 10 Terminals and 10 Warehouses -->
   <g transform="translate(104.745573 12.62218)scale(0.12 -0.12)">
    <defs>
     <path id="CMSS17-4e" d="M 1466 4180 
L 1350 4416 
L 563 4416 
L 563 0 
L 1062 0 
L 1062 3926 
L 1069 3932 
C 1114 3817 1139 3760 1402 3194 
L 2771 236 
L 2886 0 
L 3674 0 
L 3674 4416 
L 3174 4416 
L 3174 490 
L 3168 483 
C 3123 598 3098 655 2835 1221 
L 1466 4180 
z
" transform="scale(0.015625)"/>
     <path id="CMSS17-2d" d="M 1664 1216 
L 1664 1585 
L 64 1585 
L 64 1216 
L 1664 1216 
z
" transform="scale(0.015625)"/>
     <path id="CMSS17-31" d="M 1818 4288 
L 1696 4288 
C 1350 3940 947 3890 538 3890 
L 538 3520 
C 723 3520 1024 3520 1325 3667 
L 1325 369 
L 570 369 
L 570 0 
L 2573 0 
L 2573 369 
L 1818 369 
L 1818 4288 
z
" transform="scale(0.015625)"/>
     <path id="CMSS17-30" d="M 2758 2044 
C 2758 2405 2752 3077 2490 3596 
C 2227 4096 1805 4229 1504 4229 
C 1069 4229 698 3975 506 3570 
C 301 3146 243 2709 243 2044 
C 243 1589 262 1031 493 543 
C 755 5 1197 -128 1498 -128 
C 1894 -128 2278 81 2496 518 
C 2720 974 2758 1474 2758 2044 
z
M 1498 261 
C 1011 261 864 811 819 995 
C 742 1310 730 1614 730 2114 
C 730 2506 730 2948 851 3297 
C 998 3701 1254 3840 1498 3840 
C 1971 3840 2125 3372 2176 3208 
C 2272 2873 2272 2481 2272 2114 
C 2272 1526 2272 261 1498 261 
z
" transform="scale(0.015625)"/>
     <path id="CMSS17-57" d="M 5581 4416 
L 5094 4416 
L 4557 2437 
C 4474 2118 4397 1801 4320 1482 
C 4205 1011 4122 681 4109 515 
L 4102 515 
C 4090 687 4006 1049 3904 1457 
C 3827 1795 3744 2131 3654 2462 
L 3123 4416 
L 2586 4416 
L 2080 2562 
L 1824 1549 
C 1632 747 1626 632 1613 505 
L 1606 505 
C 1606 543 1581 753 1402 1498 
C 1312 1868 1222 2244 1126 2601 
L 634 4416 
L 83 4416 
L 1299 0 
L 1830 0 
L 2336 1839 
L 2592 2851 
C 2765 3564 2803 3742 2816 3901 
L 2822 3901 
C 2822 3876 2880 3474 3130 2545 
L 3808 0 
L 4365 0 
L 5581 4416 
z
" transform="scale(0.015625)"/>
    </defs>
    <use xlink:href="#CMSS17-4e" transform="scale(0.996264)"/>
    <use xlink:href="#CMSS17-65" transform="translate(66.061519 0)scale(0.996264)"/>
    <use xlink:href="#CMSS17-77" transform="translate(107.700341 0)scale(0.996264)"/>
    <use xlink:href="#CMSS17-6f" transform="translate(202.748999 0)scale(0.996264)"/>
    <use xlink:href="#CMSS17-72" transform="translate(246.990169 0)scale(0.996264)"/>
    <use xlink:href="#CMSS17-64" transform="translate(278.899941 0)scale(0.996264)"/>
    <use xlink:href="#CMSS17-65" transform="translate(327.104884 0)scale(0.996264)"/>
    <use xlink:href="#CMSS17-72" transform="translate(368.743706 0)scale(0.996264)"/>
    <use xlink:href="#CMSS17-2d" transform="translate(431.882592 0)scale(0.996264)"/>
    <use xlink:href="#CMSS17-31" transform="translate(494.340817 0)scale(0.996264)"/>
    <use xlink:href="#CMSS17-30" transform="translate(541.184441 0)scale(0.996264)"/>
    <use xlink:href="#CMSS17-54" transform="translate(619.257177 0)scale(0.996264)"/>
    <use xlink:href="#CMSS17-65" transform="translate(675.269376 0)scale(0.996264)"/>
    <use xlink:href="#CMSS17-72" transform="translate(716.908198 0)scale(0.996264)"/>
    <use xlink:href="#CMSS17-6d" transform="translate(748.81797 0)scale(0.996264)"/>
    <use xlink:href="#CMSS17-69" transform="translate(823.047225 0)scale(0.996264)"/>
    <use xlink:href="#CMSS17-6e" transform="translate(845.227948 0)scale(0.996264)"/>
    <use xlink:href="#CMSS17-61" transform="translate(893.432891 0)scale(0.996264)"/>
    <use xlink:href="#CMSS17-6c" transform="translate(938.354811 0)scale(0.996264)"/>
    <use xlink:href="#CMSS17-73" transform="translate(960.535534 0)scale(0.996264)"/>
    <use xlink:href="#CMSS17-61" transform="translate(1027.678189 0)scale(0.996264)"/>
    <use xlink:href="#CMSS17-6e" transform="translate(1072.60011 0)scale(0.996264)"/>
    <use xlink:href="#CMSS17-64" transform="translate(1120.805053 0)scale(0.996264)"/>
    <use xlink:href="#CMSS17-31" transform="translate(1200.239109 0)scale(0.996264)"/>
    <use xlink:href="#CMSS17-30" transform="translate(1247.082732 0)scale(0.996264)"/>
    <use xlink:href="#CMSS17-57" transform="translate(1325.155469 0)scale(0.996264)"/>
    <use xlink:href="#CMSS17-61" transform="translate(1410.795181 0)scale(0.996264)"/>
    <use xlink:href="#CMSS17-72" transform="translate(1453.114648 0)scale(0.996264)"/>
    <use xlink:href="#CMSS17-65" transform="translate(1485.02442 0)scale(0.996264)"/>
    <use xlink:href="#CMSS17-68" transform="translate(1526.663242 0)scale(0.996264)"/>
    <use xlink:href="#CMSS17-6f" transform="translate(1574.868185 0)scale(0.996264)"/>
    <use xlink:href="#CMSS17-75" transform="translate(1621.711809 0)scale(0.996264)"/>
    <use xlink:href="#CMSS17-73" transform="translate(1669.916752 0)scale(0.996264)"/>
    <use xlink:href="#CMSS17-65" transform="translate(1705.830294 0)scale(0.996264)"/>
    <use xlink:href="#CMSS17-73" transform="translate(1747.469116 0)scale(0.996264)"/>
   </g>
  </g>
 </g>
 <defs>
  <clipPath id="p8289892765">
   <rect x="54" y="25.92" width="152.181818" height="166.32"/>
  </clipPath>
  <clipPath id="p06e6a9aa14">
   <rect x="236.618182" y="25.92" width="152.181818" height="166.32"/>
  </clipPath>
 </defs>
</svg>
