<?xml version="1.0" encoding="utf-8" standalone="no"?>
<!DOCTYPE svg PUBLIC "-//W3C//DTD SVG 1.1//EN"
  "http://www.w3.org/Graphics/SVG/1.1/DTD/svg11.dtd">
<svg xmlns:xlink="http://www.w3.org/1999/xlink" width="864pt" height="432pt" viewBox="0 0 864 432" xmlns="http://www.w3.org/2000/svg" version="1.1">
 <metadata>
  <rdf:RDF xmlns:dc="http://purl.org/dc/elements/1.1/" xmlns:cc="http://creativecommons.org/ns#" xmlns:rdf="http://www.w3.org/1999/02/22-rdf-syntax-ns#">
   <cc:Work>
    <dc:type rdf:resource="http://purl.org/dc/dcmitype/StillImage"/>
    <dc:date>2022-07-24T04:53:53.850019</dc:date>
    <dc:format>image/svg+xml</dc:format>
    <dc:creator>
     <cc:Agent>
      <dc:title>Matplotlib v3.5.2, https://matplotlib.org/</dc:title>
     </cc:Agent>
    </dc:creator>
   </cc:Work>
  </rdf:RDF>
 </metadata>
 <defs>
  <style type="text/css">*{stroke-linejoin: round; stroke-linecap: butt}</style>
 </defs>
 <g id="figure_1">
  <g id="patch_1">
   <path d="M 0 432 
L 864 432 
L 864 0 
L 0 0 
z
" style="fill: #ffffff"/>
  </g>
  <g id="axes_1">
   <g id="patch_2">
    <path d="M 108 384.48 
L 412.363636 384.48 
L 412.363636 51.84 
L 108 51.84 
z
" style="fill: #ffffff"/>
   </g>
   <g id="matplotlib.axis_1">
    <g id="xtick_1">
     <g id="line2d_1">
      <defs>
       <path id="m8fdb8d423f" d="M 0 0 
L 0 3.5 
" style="stroke: #000000; stroke-width: 0.8"/>
      </defs>
      <g>
       <use xlink:href="#m8fdb8d423f" x="121.834711" y="384.48" style="stroke: #000000; stroke-width: 0.8"/>
      </g>
     </g>
     <g id="text_1">
      <!-- $\mathdefault{0}$ -->
      <g transform="translate(119.344043 398.398498)scale(0.1 -0.1)">
       <defs>
        <path id="CMR17-30" d="M 2688 2025 
C 2688 2416 2682 3080 2413 3591 
C 2176 4039 1798 4198 1466 4198 
C 1158 4198 768 4058 525 3597 
C 269 3118 243 2524 243 2025 
C 243 1661 250 1106 448 619 
C 723 -39 1216 -128 1466 -128 
C 1760 -128 2208 -7 2470 600 
C 2662 1042 2688 1559 2688 2025 
z
M 1466 -26 
C 1056 -26 813 325 723 812 
C 653 1188 653 1738 653 2096 
C 653 2588 653 2997 736 3387 
C 858 3929 1216 4096 1466 4096 
C 1728 4096 2067 3923 2189 3400 
C 2272 3036 2278 2607 2278 2096 
C 2278 1680 2278 1169 2202 792 
C 2067 95 1690 -26 1466 -26 
z
" transform="scale(0.015625)"/>
       </defs>
       <use xlink:href="#CMR17-30" transform="scale(0.996264)"/>
      </g>
     </g>
    </g>
    <g id="xtick_2">
     <g id="line2d_2">
      <g>
       <use xlink:href="#m8fdb8d423f" x="167.569292" y="384.48" style="stroke: #000000; stroke-width: 0.8"/>
      </g>
     </g>
     <g id="text_2">
      <!-- $\mathdefault{20}$ -->
      <g transform="translate(162.587956 398.398498)scale(0.1 -0.1)">
       <defs>
        <path id="CMR17-32" d="M 2669 989 
L 2554 989 
C 2490 536 2438 459 2413 420 
C 2381 369 1920 369 1830 369 
L 602 369 
C 832 619 1280 1072 1824 1597 
C 2214 1967 2669 2402 2669 3035 
C 2669 3790 2067 4224 1395 4224 
C 691 4224 262 3604 262 3030 
C 262 2780 448 2748 525 2748 
C 589 2748 781 2787 781 3010 
C 781 3207 614 3264 525 3264 
C 486 3264 448 3258 422 3245 
C 544 3790 915 4058 1306 4058 
C 1862 4058 2227 3617 2227 3035 
C 2227 2479 1901 2000 1536 1584 
L 262 146 
L 262 0 
L 2515 0 
L 2669 989 
z
" transform="scale(0.015625)"/>
       </defs>
       <use xlink:href="#CMR17-32" transform="scale(0.996264)"/>
       <use xlink:href="#CMR17-30" transform="translate(45.690477 0)scale(0.996264)"/>
      </g>
     </g>
    </g>
    <g id="xtick_3">
     <g id="line2d_3">
      <g>
       <use xlink:href="#m8fdb8d423f" x="213.303873" y="384.48" style="stroke: #000000; stroke-width: 0.8"/>
      </g>
     </g>
     <g id="text_3">
      <!-- $\mathdefault{40}$ -->
      <g transform="translate(208.322537 398.398498)scale(0.1 -0.1)">
       <defs>
        <path id="CMR17-34" d="M 2150 4122 
C 2150 4256 2144 4256 2029 4256 
L 128 1254 
L 128 1088 
L 1779 1088 
L 1779 457 
C 1779 224 1766 160 1318 160 
L 1197 160 
L 1197 0 
C 1402 0 1747 0 1965 0 
C 2182 0 2528 0 2733 0 
L 2733 160 
L 2611 160 
C 2163 160 2150 224 2150 457 
L 2150 1088 
L 2803 1088 
L 2803 1254 
L 2150 1254 
L 2150 4122 
z
M 1798 3703 
L 1798 1254 
L 256 1254 
L 1798 3703 
z
" transform="scale(0.015625)"/>
       </defs>
       <use xlink:href="#CMR17-34" transform="scale(0.996264)"/>
       <use xlink:href="#CMR17-30" transform="translate(45.690477 0)scale(0.996264)"/>
      </g>
     </g>
    </g>
    <g id="xtick_4">
     <g id="line2d_4">
      <g>
       <use xlink:href="#m8fdb8d423f" x="259.038454" y="384.48" style="stroke: #000000; stroke-width: 0.8"/>
      </g>
     </g>
     <g id="text_4">
      <!-- $\mathdefault{60}$ -->
      <g transform="translate(254.057118 398.398498)scale(0.1 -0.1)">
       <defs>
        <path id="CMR17-36" d="M 678 2176 
C 678 3690 1395 4032 1811 4032 
C 1946 4032 2272 4009 2400 3776 
C 2298 3776 2106 3776 2106 3553 
C 2106 3381 2246 3323 2336 3323 
C 2394 3323 2566 3348 2566 3560 
C 2566 3954 2246 4179 1805 4179 
C 1043 4179 243 3390 243 1984 
C 243 253 966 -128 1478 -128 
C 2099 -128 2688 427 2688 1283 
C 2688 2081 2170 2662 1517 2662 
C 1126 2662 838 2407 678 1960 
L 678 2176 
z
M 1478 25 
C 691 25 691 1200 691 1436 
C 691 1896 909 2560 1504 2560 
C 1613 2560 1926 2560 2138 2120 
C 2253 1870 2253 1609 2253 1289 
C 2253 944 2253 690 2118 434 
C 1978 171 1773 25 1478 25 
z
" transform="scale(0.015625)"/>
       </defs>
       <use xlink:href="#CMR17-36" transform="scale(0.996264)"/>
       <use xlink:href="#CMR17-30" transform="translate(45.690477 0)scale(0.996264)"/>
      </g>
     </g>
    </g>
    <g id="xtick_5">
     <g id="line2d_5">
      <g>
       <use xlink:href="#m8fdb8d423f" x="304.773035" y="384.48" style="stroke: #000000; stroke-width: 0.8"/>
      </g>
     </g>
     <g id="text_5">
      <!-- $\mathdefault{80}$ -->
      <g transform="translate(299.791699 398.398498)scale(0.1 -0.1)">
       <defs>
        <path id="CMR17-38" d="M 1741 2264 
C 2144 2467 2554 2773 2554 3263 
C 2554 3841 1990 4179 1472 4179 
C 890 4179 378 3759 378 3180 
C 378 3021 416 2747 666 2505 
C 730 2442 998 2251 1171 2130 
C 883 1983 211 1634 211 934 
C 211 279 838 -128 1459 -128 
C 2144 -128 2720 362 2720 1010 
C 2720 1590 2330 1857 2074 2029 
L 1741 2264 
z
M 902 2822 
C 851 2854 595 3051 595 3351 
C 595 3739 998 4032 1459 4032 
C 1965 4032 2336 3676 2336 3262 
C 2336 2669 1670 2331 1638 2331 
C 1632 2331 1626 2331 1574 2370 
L 902 2822 
z
M 2080 1519 
C 2176 1449 2483 1240 2483 851 
C 2483 381 2010 25 1472 25 
C 890 25 448 438 448 940 
C 448 1443 838 1862 1280 2060 
L 2080 1519 
z
" transform="scale(0.015625)"/>
       </defs>
       <use xlink:href="#CMR17-38" transform="scale(0.996264)"/>
       <use xlink:href="#CMR17-30" transform="translate(45.690477 0)scale(0.996264)"/>
      </g>
     </g>
    </g>
    <g id="xtick_6">
     <g id="line2d_6">
      <g>
       <use xlink:href="#m8fdb8d423f" x="350.507616" y="384.48" style="stroke: #000000; stroke-width: 0.8"/>
      </g>
     </g>
     <g id="text_6">
      <!-- $\mathdefault{100}$ -->
      <g transform="translate(343.035613 398.398498)scale(0.1 -0.1)">
       <defs>
        <path id="CMR17-31" d="M 1702 4058 
C 1702 4192 1696 4192 1606 4192 
C 1357 3916 979 3827 621 3827 
C 602 3827 570 3827 563 3808 
C 557 3795 557 3782 557 3648 
C 755 3648 1088 3686 1344 3839 
L 1344 461 
C 1344 236 1331 160 781 160 
L 589 160 
L 589 0 
C 896 0 1216 0 1523 0 
C 1830 0 2150 0 2458 0 
L 2458 160 
L 2266 160 
C 1715 160 1702 230 1702 458 
L 1702 4058 
z
" transform="scale(0.015625)"/>
       </defs>
       <use xlink:href="#CMR17-31" transform="scale(0.996264)"/>
       <use xlink:href="#CMR17-30" transform="translate(45.690477 0)scale(0.996264)"/>
       <use xlink:href="#CMR17-30" transform="translate(91.380954 0)scale(0.996264)"/>
      </g>
     </g>
    </g>
    <g id="xtick_7">
     <g id="line2d_7">
      <g>
       <use xlink:href="#m8fdb8d423f" x="396.242197" y="384.48" style="stroke: #000000; stroke-width: 0.8"/>
      </g>
     </g>
     <g id="text_7">
      <!-- $\mathdefault{120}$ -->
      <g transform="translate(388.770194 398.398498)scale(0.1 -0.1)">
       <use xlink:href="#CMR17-31" transform="scale(0.996264)"/>
       <use xlink:href="#CMR17-32" transform="translate(45.690477 0)scale(0.996264)"/>
       <use xlink:href="#CMR17-30" transform="translate(91.380954 0)scale(0.996264)"/>
      </g>
     </g>
    </g>
    <g id="text_8">
     <!-- Time (sec) -->
     <g transform="translate(237.558305 411.807657)scale(0.1 -0.1)">
      <defs>
       <path id="CMSS17-54" d="M 2317 3968 
L 2848 3968 
C 2925 3968 3002 3968 3078 3968 
L 3878 3968 
L 3878 4376 
L 218 4376 
L 218 3968 
L 1018 3968 
C 1094 3968 1171 3968 1248 3968 
L 1779 3968 
L 1779 -32 
L 2317 -32 
L 2317 3968 
z
" transform="scale(0.015625)"/>
       <path id="CMSS17-69" d="M 979 4183 
L 442 4183 
L 442 3648 
L 979 3648 
L 979 4183 
z
M 947 2739 
L 474 2739 
L 474 0 
L 947 0 
L 947 2739 
z
" transform="scale(0.015625)"/>
       <path id="CMSS17-6d" d="M 4288 1877 
C 4288 2308 4179 2816 3462 2816 
C 2982 2816 2694 2516 2566 2331 
C 2451 2670 2182 2816 1798 2816 
C 1363 2816 1088 2568 941 2389 
L 941 2758 
L 474 2758 
L 474 0 
L 960 0 
L 960 1559 
C 960 1939 1101 2428 1555 2428 
C 2138 2428 2138 2016 2138 1829 
L 2138 0 
L 2624 0 
L 2624 1559 
C 2624 1939 2765 2428 3219 2428 
C 3802 2428 3802 2016 3802 1829 
L 3802 0 
L 4288 0 
L 4288 1877 
z
" transform="scale(0.015625)"/>
       <path id="CMSS17-65" d="M 2502 1377 
C 2502 1590 2490 2003 2285 2345 
C 2061 2713 1696 2816 1421 2816 
C 755 2816 192 2188 192 1375 
C 192 582 774 -64 1510 -64 
C 1798 -64 2150 19 2470 248 
C 2470 274 2458 414 2451 420 
C 2451 433 2432 630 2432 656 
C 2125 407 1773 325 1517 325 
C 1107 325 666 667 646 1377 
L 2502 1377 
z
M 698 1728 
C 781 2084 1062 2421 1421 2421 
C 1517 2421 1965 2421 2080 1728 
L 698 1728 
z
" transform="scale(0.015625)"/>
       <path id="CMSS17-28" d="M 1613 4768 
C 1267 4417 474 3601 474 1588 
C 474 -433 1267 -1243 1613 -1600 
L 2003 -1600 
C 1216 -784 960 357 960 1581 
C 960 2798 1203 3946 2003 4768 
L 1613 4768 
z
" transform="scale(0.015625)"/>
       <path id="CMSS17-73" d="M 2061 2627 
C 1683 2807 1389 2807 1197 2807 
C 742 2807 198 2648 198 2003 
C 198 1359 902 1218 1094 1179 
C 1389 1122 1715 1058 1715 740 
C 1715 337 1254 337 1171 337 
C 915 337 563 407 243 638 
L 166 210 
C 531 0 883 -64 1178 -64 
C 1965 -64 2163 416 2163 781 
C 2163 1094 1984 1305 1862 1401 
C 1651 1568 1574 1587 1050 1696 
C 960 1709 646 1779 646 2066 
C 646 2432 1050 2432 1139 2432 
C 1555 2432 1811 2303 1984 2208 
L 2061 2627 
z
" transform="scale(0.015625)"/>
       <path id="CMSS17-63" d="M 2464 2541 
C 2464 2585 2170 2714 2093 2739 
C 1882 2816 1613 2816 1542 2816 
C 710 2816 211 2093 211 1363 
C 211 595 768 -64 1517 -64 
C 1946 -64 2253 76 2502 242 
L 2464 664 
C 2189 453 1869 337 1523 337 
C 1024 337 698 774 698 1369 
C 698 1831 909 2414 1549 2414 
C 1901 2414 2099 2343 2394 2145 
L 2464 2541 
z
" transform="scale(0.015625)"/>
       <path id="CMSS17-29" d="M 723 -1600 
C 1069 -1249 1862 -433 1862 1581 
C 1862 3601 1069 4411 723 4768 
L 333 4768 
C 1120 3952 1376 2811 1376 1588 
C 1376 370 1133 -778 333 -1600 
L 723 -1600 
z
" transform="scale(0.015625)"/>
      </defs>
      <use xlink:href="#CMSS17-54" transform="scale(0.996264)"/>
      <use xlink:href="#CMSS17-69" transform="translate(63.819454 0)scale(0.996264)"/>
      <use xlink:href="#CMSS17-6d" transform="translate(86.000177 0)scale(0.996264)"/>
      <use xlink:href="#CMSS17-65" transform="translate(160.229431 0)scale(0.996264)"/>
      <use xlink:href="#CMSS17-28" transform="translate(233.097366 0)scale(0.996264)"/>
      <use xlink:href="#CMSS17-73" transform="translate(269.53128 0)scale(0.996264)"/>
      <use xlink:href="#CMSS17-65" transform="translate(305.444822 0)scale(0.996264)"/>
      <use xlink:href="#CMSS17-63" transform="translate(347.083644 0)scale(0.996264)"/>
      <use xlink:href="#CMSS17-29" transform="translate(388.722467 0)scale(0.996264)"/>
     </g>
    </g>
   </g>
   <g id="matplotlib.axis_2">
    <g id="ytick_1">
     <g id="line2d_8">
      <defs>
       <path id="m30b222351e" d="M 0 0 
L -3.5 0 
" style="stroke: #000000; stroke-width: 0.8"/>
      </defs>
      <g>
       <use xlink:href="#m30b222351e" x="108" y="363.200175" style="stroke: #000000; stroke-width: 0.8"/>
      </g>
     </g>
     <g id="text_9">
      <!-- $\mathdefault{4000}$ -->
      <g transform="translate(81.074659 366.659425)scale(0.1 -0.1)">
       <use xlink:href="#CMR17-34" transform="scale(0.996264)"/>
       <use xlink:href="#CMR17-30" transform="translate(45.690477 0)scale(0.996264)"/>
       <use xlink:href="#CMR17-30" transform="translate(91.380954 0)scale(0.996264)"/>
       <use xlink:href="#CMR17-30" transform="translate(137.071431 0)scale(0.996264)"/>
      </g>
     </g>
    </g>
    <g id="ytick_2">
     <g id="line2d_9">
      <g>
       <use xlink:href="#m30b222351e" x="108" y="315.81691" style="stroke: #000000; stroke-width: 0.8"/>
      </g>
     </g>
     <g id="text_10">
      <!-- $\mathdefault{6000}$ -->
      <g transform="translate(81.074659 319.276159)scale(0.1 -0.1)">
       <use xlink:href="#CMR17-36" transform="scale(0.996264)"/>
       <use xlink:href="#CMR17-30" transform="translate(45.690477 0)scale(0.996264)"/>
       <use xlink:href="#CMR17-30" transform="translate(91.380954 0)scale(0.996264)"/>
       <use xlink:href="#CMR17-30" transform="translate(137.071431 0)scale(0.996264)"/>
      </g>
     </g>
    </g>
    <g id="ytick_3">
     <g id="line2d_10">
      <g>
       <use xlink:href="#m30b222351e" x="108" y="268.433645" style="stroke: #000000; stroke-width: 0.8"/>
      </g>
     </g>
     <g id="text_11">
      <!-- $\mathdefault{8000}$ -->
      <g transform="translate(81.074659 271.892894)scale(0.1 -0.1)">
       <use xlink:href="#CMR17-38" transform="scale(0.996264)"/>
       <use xlink:href="#CMR17-30" transform="translate(45.690477 0)scale(0.996264)"/>
       <use xlink:href="#CMR17-30" transform="translate(91.380954 0)scale(0.996264)"/>
       <use xlink:href="#CMR17-30" transform="translate(137.071431 0)scale(0.996264)"/>
      </g>
     </g>
    </g>
    <g id="ytick_4">
     <g id="line2d_11">
      <g>
       <use xlink:href="#m30b222351e" x="108" y="221.050379" style="stroke: #000000; stroke-width: 0.8"/>
      </g>
     </g>
     <g id="text_12">
      <!-- $\mathdefault{10000}$ -->
      <g transform="translate(76.093324 224.509628)scale(0.1 -0.1)">
       <use xlink:href="#CMR17-31" transform="scale(0.996264)"/>
       <use xlink:href="#CMR17-30" transform="translate(45.690477 0)scale(0.996264)"/>
       <use xlink:href="#CMR17-30" transform="translate(91.380954 0)scale(0.996264)"/>
       <use xlink:href="#CMR17-30" transform="translate(137.071431 0)scale(0.996264)"/>
       <use xlink:href="#CMR17-30" transform="translate(182.761908 0)scale(0.996264)"/>
      </g>
     </g>
    </g>
    <g id="ytick_5">
     <g id="line2d_12">
      <g>
       <use xlink:href="#m30b222351e" x="108" y="173.667114" style="stroke: #000000; stroke-width: 0.8"/>
      </g>
     </g>
     <g id="text_13">
      <!-- $\mathdefault{12000}$ -->
      <g transform="translate(76.093324 177.126363)scale(0.1 -0.1)">
       <use xlink:href="#CMR17-31" transform="scale(0.996264)"/>
       <use xlink:href="#CMR17-32" transform="translate(45.690477 0)scale(0.996264)"/>
       <use xlink:href="#CMR17-30" transform="translate(91.380954 0)scale(0.996264)"/>
       <use xlink:href="#CMR17-30" transform="translate(137.071431 0)scale(0.996264)"/>
       <use xlink:href="#CMR17-30" transform="translate(182.761908 0)scale(0.996264)"/>
      </g>
     </g>
    </g>
    <g id="ytick_6">
     <g id="line2d_13">
      <g>
       <use xlink:href="#m30b222351e" x="108" y="126.283848" style="stroke: #000000; stroke-width: 0.8"/>
      </g>
     </g>
     <g id="text_14">
      <!-- $\mathdefault{14000}$ -->
      <g transform="translate(76.093324 129.743098)scale(0.1 -0.1)">
       <use xlink:href="#CMR17-31" transform="scale(0.996264)"/>
       <use xlink:href="#CMR17-34" transform="translate(45.690477 0)scale(0.996264)"/>
       <use xlink:href="#CMR17-30" transform="translate(91.380954 0)scale(0.996264)"/>
       <use xlink:href="#CMR17-30" transform="translate(137.071431 0)scale(0.996264)"/>
       <use xlink:href="#CMR17-30" transform="translate(182.761908 0)scale(0.996264)"/>
      </g>
     </g>
    </g>
    <g id="ytick_7">
     <g id="line2d_14">
      <g>
       <use xlink:href="#m30b222351e" x="108" y="78.900583" style="stroke: #000000; stroke-width: 0.8"/>
      </g>
     </g>
     <g id="text_15">
      <!-- $\mathdefault{16000}$ -->
      <g transform="translate(76.093324 82.359832)scale(0.1 -0.1)">
       <use xlink:href="#CMR17-31" transform="scale(0.996264)"/>
       <use xlink:href="#CMR17-36" transform="translate(45.690477 0)scale(0.996264)"/>
       <use xlink:href="#CMR17-30" transform="translate(91.380954 0)scale(0.996264)"/>
       <use xlink:href="#CMR17-30" transform="translate(137.071431 0)scale(0.996264)"/>
       <use xlink:href="#CMR17-30" transform="translate(182.761908 0)scale(0.996264)"/>
      </g>
     </g>
    </g>
    <g id="text_16">
     <!-- tpmC -->
     <g transform="translate(70.156145 229.672401)rotate(-90)scale(0.1 -0.1)">
      <defs>
       <path id="CMSS17-74" d="M 1069 2368 
L 1901 2368 
L 1901 2737 
L 1069 2737 
L 1069 3520 
L 614 3520 
L 614 2737 
L 109 2737 
L 109 2368 
L 602 2368 
L 602 749 
C 602 384 685 -64 1107 -64 
C 1427 -64 1722 25 2003 172 
L 1901 548 
C 1747 414 1562 337 1363 337 
C 1082 337 1069 696 1069 856 
L 1069 2368 
z
" transform="scale(0.015625)"/>
       <path id="CMSS17-70" d="M 966 333 
C 1178 129 1466 -5 1773 -5 
C 2368 -5 2880 603 2880 1412 
C 2880 2159 2496 2816 1946 2816 
C 1626 2816 1242 2702 954 2472 
L 954 2765 
L 480 2765 
L 480 -1216 
L 966 -1216 
L 966 333 
z
M 966 2100 
C 1018 2176 1235 2415 1587 2415 
C 2035 2415 2394 1960 2394 1412 
C 2394 787 1958 384 1530 384 
C 1402 384 1267 415 1139 523 
C 966 674 966 768 966 857 
L 966 2100 
z
" transform="scale(0.015625)"/>
       <path id="CMSS17-43" d="M 3501 714 
C 3072 427 2874 344 2355 344 
C 1459 344 934 1303 934 2179 
C 934 3112 1472 4032 2381 4032 
C 2790 4032 3059 3918 3386 3715 
L 3475 4217 
C 3168 4370 2778 4440 2387 4440 
C 1158 4440 397 3316 397 2179 
C 397 927 1299 -64 2323 -64 
C 2874 -64 3066 -19 3539 280 
L 3501 714 
z
" transform="scale(0.015625)"/>
      </defs>
      <use xlink:href="#CMSS17-74" transform="scale(0.996264)"/>
      <use xlink:href="#CMSS17-70" transform="translate(33.831567 0)scale(0.996264)"/>
      <use xlink:href="#CMSS17-6d" transform="translate(82.03651 0)scale(0.996264)"/>
      <use xlink:href="#CMSS17-43" transform="translate(156.265764 0)scale(0.996264)"/>
     </g>
    </g>
   </g>
   <g id="line2d_15">
    <path d="M 121.834711 281.985259 
L 124.12144 222.424494 
L 126.408169 177.268242 
L 128.694898 150.780997 
L 130.981627 138.868844 
L 133.268356 126.046932 
L 135.555085 94.631827 
L 137.841814 78.42675 
L 140.128543 77.289552 
L 142.415272 74.446556 
L 144.702001 70.276829 
L 146.98873 75.346838 
L 149.275459 71.840476 
L 151.562188 76.294503 
L 153.848917 74.351789 
L 156.135646 75.252071 
L 158.422376 79.232266 
L 160.709105 76.057587 
L 162.995834 79.753482 
L 165.282563 75.868054 
L 167.569292 74.351789 
L 169.856021 78.758433 
L 172.14275 122.066738 
L 174.429479 136.281717 
L 176.716208 131.732924 
L 179.002937 129.93236 
L 181.289666 131.211708 
L 183.576395 127.46843 
L 185.863124 81.411896 
L 188.149853 66.96 
L 190.436582 67.149533 
L 192.723311 68.760564 
L 195.01004 76.24712 
L 197.296769 78.379367 
L 199.583498 75.725904 
L 201.870227 81.648812 
L 204.156956 80.701147 
L 206.443686 89.703967 
L 208.730415 117.138878 
L 211.017144 121.687672 
L 213.303873 129.221611 
L 215.590602 123.156553 
L 217.877331 124.151601 
L 220.16406 120.882156 
L 222.450789 89.040602 
L 224.737518 82.075262 
L 227.024247 79.658715 
L 229.310976 80.227314 
L 231.597705 80.369464 
L 233.884434 80.653764 
L 236.171163 83.970592 
L 238.457892 86.008073 
L 240.744621 88.472003 
L 243.03135 86.529289 
L 245.318079 102.639599 
L 247.604808 105.672128 
L 249.891537 105.340445 
L 252.178267 108.230824 
L 254.464996 108.89419 
L 256.751725 127.989646 
L 259.038454 118.46561 
L 261.325183 119.176359 
L 263.611912 140.451445 
L 265.898641 157.556804 
L 268.18537 159.499517 
L 270.472099 146.990335 
L 272.758828 146.04267 
L 275.045557 141.067427 
L 277.332286 114.011583 
L 279.619015 95.911175 
L 281.905744 91.220232 
L 284.192473 93.068179 
L 286.479202 92.64173 
L 288.765931 92.310047 
L 291.05266 104.819229 
L 293.339389 111.35812 
L 295.626118 118.986825 
L 297.912847 117.612711 
L 300.199577 117.849627 
L 302.486306 119.839724 
L 304.773035 134.765453 
L 307.059764 148.317067 
L 309.346493 147.985384 
L 311.633222 148.459217 
L 313.919951 146.990335 
L 316.20668 146.895569 
L 318.493409 127.089364 
L 320.780138 142.631075 
L 323.066867 161.015782 
L 325.353596 170.634585 
L 327.640325 175.278145 
L 329.927054 172.198233 
L 332.213783 169.070937 
L 334.500512 137.845365 
L 336.787241 133.628254 
L 339.07397 129.411144 
L 341.360699 128.037029 
L 343.647428 130.643109 
L 345.934158 126.710298 
L 348.220887 127.136747 
L 350.507616 114.106349 
L 352.794345 108.799423 
L 355.081074 112.495318 
L 357.367803 135.760501 
L 359.654532 148.64875 
L 361.941261 147.890617 
L 364.22799 144.763322 
L 366.514719 148.032767 
L 368.801448 151.918195 
L 371.088177 148.933049 
L 373.374906 159.8312 
L 375.661635 178.879273 
L 377.948364 197.737813 
L 380.235093 206.598483 
L 382.521822 219.960564 
L 384.808551 226.120389 
L 387.09528 226.309922 
L 389.382009 227.826186 
L 391.668738 237.444989 
L 393.955468 252.512867 
L 396.242197 264.121767 
L 398.528926 284.828254 
" clip-path="url(#p0bf5f9af35)" style="fill: none; stroke: #1f77b4; stroke-width: 1.5; stroke-linecap: square"/>
   </g>
   <g id="line2d_16">
    <path d="M 121.834711 309.278019 
L 124.12144 304.160627 
L 126.408169 327.947026 
L 128.694898 311.907791 
L 130.981627 295.00618 
L 133.268356 284.401805 
L 135.555085 274.02487 
L 137.841814 262.321203 
L 140.128543 262.984569 
L 142.415272 277.815531 
L 144.702001 292.59911 
L 146.98873 292.030511 
L 149.275459 290.56163 
L 151.562188 292.693877 
L 153.848917 269.618226 
L 156.135646 246.068743 
L 158.422376 232.37498 
L 160.709105 235.170592 
L 162.995834 240.098452 
L 165.282563 239.150787 
L 167.569292 238.487421 
L 169.856021 242.751915 
L 172.14275 244.599862 
L 174.429479 244.362946 
L 176.716208 236.165641 
L 179.002937 236.829007 
L 181.289666 233.701711 
L 183.576395 231.095631 
L 185.863124 224.793657 
L 188.149853 220.62393 
L 190.436582 221.713745 
L 192.723311 218.01785 
L 195.01004 219.012899 
L 197.296769 218.112617 
L 199.583498 221.950661 
L 201.870227 220.718696 
L 204.156956 219.865798 
L 206.443686 221.713745 
L 208.730415 221.808511 
L 211.017144 222.234961 
L 213.303873 219.581498 
L 215.590602 222.80356 
L 217.877331 226.215155 
L 220.16406 229.105534 
L 222.450789 231.664231 
L 224.737518 235.691808 
L 227.024247 237.397606 
L 229.310976 235.739191 
L 231.597705 238.013588 
L 233.884434 232.185447 
L 236.171163 230.621799 
L 238.457892 239.529853 
L 240.744621 238.676954 
L 243.03135 237.681905 
L 245.318079 235.075826 
L 247.604808 241.23565 
L 249.891537 240.856584 
L 252.178267 230.290116 
L 254.464996 230.432266 
L 256.751725 231.095631 
L 259.038454 230.811332 
L 261.325183 229.295067 
L 263.611912 230.337499 
L 265.898641 230.906098 
L 268.18537 256.682595 
L 270.472099 258.198859 
L 272.758828 258.720075 
L 275.045557 259.383441 
L 277.332286 257.345961 
L 279.619015 259.572974 
L 281.905744 236.118258 
L 284.192473 241.946399 
L 286.479202 244.173413 
L 288.765931 244.978928 
L 291.05266 247.537625 
L 293.339389 247.964074 
L 295.626118 256.019229 
L 297.912847 255.16633 
L 300.199577 254.076515 
L 302.486306 270.423742 
L 304.773035 274.640852 
L 307.059764 273.408887 
L 309.346493 273.503654 
L 311.633222 275.162068 
L 313.919951 274.546086 
L 316.20668 261.468305 
L 318.493409 259.004375 
L 320.780138 271.892623 
L 323.066867 264.785133 
L 325.353596 267.580746 
L 327.640325 270.850191 
L 329.927054 268.149345 
L 332.213783 274.972535 
L 334.500512 280.232078 
L 336.787241 290.087797 
L 339.07397 286.297136 
L 341.360699 289.99303 
L 343.647428 292.45696 
L 345.934158 289.945647 
L 348.220887 281.084976 
L 350.507616 274.546086 
L 352.794345 283.406757 
L 355.081074 292.978176 
L 357.367803 308.472504 
L 359.654532 321.739818 
L 361.941261 334.67545 
L 364.22799 354.671188 
L 366.514719 361.304845 
L 368.801448 364.953356 
L 371.088177 363.863541 
L 373.374906 366.280088 
L 375.661635 366.374854 
L 377.948364 364.384757 
L 380.235093 366.422238 
L 382.521822 367.606819 
L 384.808551 369.36 
L 387.09528 368.791401 
L 389.382009 364.479524 
L 391.668738 363.200175 
L 393.955468 362.299893 
L 396.242197 361.920827 
" clip-path="url(#p0bf5f9af35)" style="fill: none; stroke: #ff7f0e; stroke-width: 1.5; stroke-linecap: square"/>
   </g>
   <g id="patch_3">
    <path d="M 108 384.48 
L 108 51.84 
" style="fill: none; stroke: #000000; stroke-width: 0.8; stroke-linejoin: miter; stroke-linecap: square"/>
   </g>
   <g id="patch_4">
    <path d="M 412.363636 384.48 
L 412.363636 51.84 
" style="fill: none; stroke: #000000; stroke-width: 0.8; stroke-linejoin: miter; stroke-linecap: square"/>
   </g>
   <g id="patch_5">
    <path d="M 108 384.48 
L 412.363636 384.48 
" style="fill: none; stroke: #000000; stroke-width: 0.8; stroke-linejoin: miter; stroke-linecap: square"/>
   </g>
   <g id="patch_6">
    <path d="M 108 51.84 
L 412.363636 51.84 
" style="fill: none; stroke: #000000; stroke-width: 0.8; stroke-linejoin: miter; stroke-linecap: square"/>
   </g>
   <g id="text_17">
    <!-- Requests (5 second rolling window) -->
    <g transform="translate(173.868348 45.84)scale(0.12 -0.12)">
     <defs>
      <path id="CMSS17-52" d="M 2522 2109 
L 2534 2115 
C 3533 2459 3539 3147 3539 3268 
C 3539 3873 2925 4453 2003 4453 
L 570 4453 
L 570 32 
L 1094 32 
L 1094 2048 
L 2035 2048 
L 3168 32 
L 3706 32 
L 2522 2109 
z
M 1094 2437 
L 1094 4096 
L 1933 4096 
C 2746 4096 3034 3637 3034 3267 
C 3034 2922 2778 2437 1933 2437 
L 1094 2437 
z
" transform="scale(0.015625)"/>
      <path id="CMSS17-71" d="M 2611 2816 
L 2138 2816 
L 2138 2428 
C 2112 2460 1818 2816 1318 2816 
C 736 2816 211 2228 211 1399 
C 211 633 653 -5 1229 -5 
C 1498 -5 1837 91 2125 365 
L 2125 -1216 
L 2611 -1216 
L 2611 2816 
z
M 2138 914 
C 2138 832 2138 718 1939 554 
C 1888 510 1747 384 1504 384 
C 1050 384 698 850 698 1399 
C 698 2011 1126 2415 1562 2415 
C 1926 2415 2138 2061 2138 1797 
L 2138 914 
z
" transform="scale(0.015625)"/>
      <path id="CMSS17-75" d="M 2618 2739 
L 2131 2739 
L 2131 972 
C 2131 498 1786 306 1421 306 
C 998 306 960 447 960 709 
L 960 2739 
L 474 2739 
L 474 678 
C 474 179 646 -64 1088 -64 
C 1306 -64 1798 -13 2144 306 
L 2144 0 
L 2618 0 
L 2618 2739 
z
" transform="scale(0.015625)"/>
      <path id="CMSS17-35" d="M 934 3752 
L 2502 3752 
L 2502 4160 
L 467 4160 
L 467 1781 
L 896 1781 
C 1011 2046 1248 2240 1555 2240 
C 1843 2240 2163 1989 2163 1266 
C 2163 493 1709 267 1376 267 
C 966 267 589 512 422 851 
L 218 499 
C 512 49 992 -128 1376 -128 
C 2118 -128 2701 497 2701 1253 
C 2701 2030 2182 2629 1562 2629 
C 1338 2629 1120 2553 934 2399 
L 934 3752 
z
" transform="scale(0.015625)"/>
      <path id="CMSS17-6f" d="M 2829 1356 
C 2829 2176 2221 2816 1504 2816 
C 768 2816 173 2157 173 1356 
C 173 544 787 -64 1498 -64 
C 2227 -64 2829 563 2829 1356 
z
M 1504 337 
C 1050 337 659 709 659 1408 
C 659 2151 1114 2427 1498 2427 
C 1914 2427 2342 2126 2342 1408 
C 2342 683 1926 337 1504 337 
z
" transform="scale(0.015625)"/>
      <path id="CMSS17-6e" d="M 2618 1877 
C 2618 2283 2522 2816 1798 2816 
C 1389 2816 1120 2606 941 2389 
L 941 2758 
L 474 2758 
L 474 0 
L 960 0 
L 960 1559 
C 960 1964 1114 2428 1549 2428 
C 2112 2428 2131 2048 2131 1829 
L 2131 0 
L 2618 0 
L 2618 1877 
z
" transform="scale(0.015625)"/>
      <path id="CMSS17-64" d="M 2611 4416 
L 2138 4416 
L 2138 2438 
C 1939 2603 1613 2756 1254 2756 
C 672 2756 211 2131 211 1347 
C 211 562 666 -64 1235 -64 
C 1677 -64 1971 172 2125 306 
L 2125 -13 
L 2611 -13 
L 2611 4416 
z
M 2125 836 
C 2125 747 2125 653 1926 482 
C 1798 375 1645 325 1498 325 
C 1152 325 698 576 698 1340 
C 698 2134 1210 2368 1562 2368 
C 1798 2368 1990 2254 2125 2065 
L 2125 836 
z
" transform="scale(0.015625)"/>
      <path id="CMSS17-72" d="M 954 1363 
C 954 1965 1395 2368 1958 2368 
L 1958 2789 
C 1549 2789 1165 2585 934 2253 
L 934 2758 
L 480 2758 
L 480 0 
L 954 0 
L 954 1363 
z
" transform="scale(0.015625)"/>
      <path id="CMSS17-6c" d="M 947 4416 
L 474 4416 
L 474 0 
L 947 0 
L 947 4416 
z
" transform="scale(0.015625)"/>
      <path id="CMSS17-67" d="M 2848 2808 
C 2483 2808 2170 2738 1914 2617 
C 1702 2777 1485 2808 1338 2808 
C 781 2808 358 2349 358 1814 
C 358 1468 550 1207 563 1195 
C 448 1035 384 863 384 672 
C 384 448 474 289 544 200 
C 211 -3 166 -314 166 -435 
C 166 -898 749 -1280 1498 -1280 
C 2253 -1280 2835 -898 2835 -428 
C 2835 448 1856 448 1587 448 
L 1069 448 
C 973 448 717 448 717 791 
C 717 921 774 1004 781 1010 
C 877 940 1075 832 1338 832 
C 1869 832 2310 1278 2310 1827 
C 2310 2132 2170 2355 2112 2432 
L 2131 2432 
C 2150 2432 2419 2432 2515 2432 
C 2720 2432 2739 2429 2918 2419 
L 2848 2808 
z
M 1338 1182 
C 1120 1182 813 1315 813 1823 
C 813 2375 1165 2464 1331 2464 
C 1549 2464 1856 2331 1856 1823 
C 1856 1271 1504 1182 1338 1182 
z
M 1581 -10 
C 1734 -10 2381 -10 2381 -442 
C 2381 -714 1984 -929 1504 -929 
C 1018 -929 621 -720 621 -435 
C 621 -403 621 -10 1062 -10 
L 1581 -10 
z
" transform="scale(0.015625)"/>
      <path id="CMSS17-77" d="M 4013 2752 
L 3526 2752 
L 3187 1601 
C 3117 1358 2918 685 2893 371 
L 2886 371 
C 2874 564 2765 1024 2586 1633 
L 2259 2752 
L 1818 2752 
L 1498 1658 
C 1338 1101 1216 627 1203 371 
L 1197 371 
C 1171 749 909 1633 870 1773 
L 582 2752 
L 83 2752 
L 915 0 
L 1402 0 
C 1734 1096 1990 1943 2010 2370 
C 2022 2160 2131 1707 2195 1484 
L 2618 0 
L 3181 0 
L 4013 2752 
z
" transform="scale(0.015625)"/>
     </defs>
     <use xlink:href="#CMSS17-52" transform="scale(0.996264)"/>
     <use xlink:href="#CMSS17-65" transform="translate(60.416155 0)scale(0.996264)"/>
     <use xlink:href="#CMSS17-71" transform="translate(102.054977 0)scale(0.996264)"/>
     <use xlink:href="#CMSS17-75" transform="translate(150.25992 0)scale(0.996264)"/>
     <use xlink:href="#CMSS17-65" transform="translate(198.464863 0)scale(0.996264)"/>
     <use xlink:href="#CMSS17-73" transform="translate(240.103685 0)scale(0.996264)"/>
     <use xlink:href="#CMSS17-74" transform="translate(276.017227 0)scale(0.996264)"/>
     <use xlink:href="#CMSS17-73" transform="translate(309.848794 0)scale(0.996264)"/>
     <use xlink:href="#CMSS17-28" transform="translate(376.991449 0)scale(0.996264)"/>
     <use xlink:href="#CMSS17-35" transform="translate(413.425363 0)scale(0.996264)"/>
     <use xlink:href="#CMSS17-73" transform="translate(491.498099 0)scale(0.996264)"/>
     <use xlink:href="#CMSS17-65" transform="translate(527.411641 0)scale(0.996264)"/>
     <use xlink:href="#CMSS17-63" transform="translate(569.050463 0)scale(0.996264)"/>
     <use xlink:href="#CMSS17-6f" transform="translate(610.689285 0)scale(0.996264)"/>
     <use xlink:href="#CMSS17-6e" transform="translate(657.532909 0)scale(0.996264)"/>
     <use xlink:href="#CMSS17-64" transform="translate(705.737852 0)scale(0.996264)"/>
     <use xlink:href="#CMSS17-72" transform="translate(785.171908 0)scale(0.996264)"/>
     <use xlink:href="#CMSS17-6f" transform="translate(817.08168 0)scale(0.996264)"/>
     <use xlink:href="#CMSS17-6c" transform="translate(863.925304 0)scale(0.996264)"/>
     <use xlink:href="#CMSS17-6c" transform="translate(886.106027 0)scale(0.996264)"/>
     <use xlink:href="#CMSS17-69" transform="translate(908.28675 0)scale(0.996264)"/>
     <use xlink:href="#CMSS17-6e" transform="translate(930.467473 0)scale(0.996264)"/>
     <use xlink:href="#CMSS17-67" transform="translate(978.672416 0)scale(0.996264)"/>
     <use xlink:href="#CMSS17-77" transform="translate(1056.745152 0)scale(0.996264)"/>
     <use xlink:href="#CMSS17-69" transform="translate(1120.564698 0)scale(0.996264)"/>
     <use xlink:href="#CMSS17-6e" transform="translate(1142.745421 0)scale(0.996264)"/>
     <use xlink:href="#CMSS17-64" transform="translate(1190.950364 0)scale(0.996264)"/>
     <use xlink:href="#CMSS17-6f" transform="translate(1239.155307 0)scale(0.996264)"/>
     <use xlink:href="#CMSS17-77" transform="translate(1283.396476 0)scale(0.996264)"/>
     <use xlink:href="#CMSS17-29" transform="translate(1347.216022 0)scale(0.996264)"/>
    </g>
   </g>
   <g id="legend_1">
    <g id="patch_7">
     <path d="M 348.595342 87.714357 
L 405.363636 87.714357 
Q 407.363636 87.714357 407.363636 85.714357 
L 407.363636 58.84 
Q 407.363636 56.84 405.363636 56.84 
L 348.595342 56.84 
Q 346.595342 56.84 346.595342 58.84 
L 346.595342 85.714357 
Q 346.595342 87.714357 348.595342 87.714357 
z
" style="fill: #ffffff; opacity: 0.8; stroke: #cccccc; stroke-linejoin: miter"/>
    </g>
    <g id="line2d_17">
     <path d="M 350.595342 64.34 
L 360.595342 64.34 
L 370.595342 64.34 
" style="fill: none; stroke: #1f77b4; stroke-width: 1.5; stroke-linecap: square"/>
    </g>
    <g id="text_18">
     <!-- LSD -->
     <g transform="translate(378.595342 67.84)scale(0.1 -0.1)">
      <defs>
       <path id="CMSS17-4c" d="M 1670 414 
C 1594 414 1517 414 1440 414 
L 1101 414 
L 1101 4416 
L 563 4416 
L 563 0 
L 3002 0 
L 3002 414 
L 1670 414 
z
" transform="scale(0.015625)"/>
       <path id="CMSS17-53" d="M 2797 4169 
C 2515 4334 2208 4480 1690 4480 
C 864 4480 333 3879 333 3266 
C 333 3025 403 2753 653 2475 
C 902 2196 1184 2121 1542 2033 
C 1690 1994 1939 1924 1984 1906 
C 2342 1767 2515 1444 2515 1140 
C 2515 742 2202 318 1645 318 
C 1453 318 890 318 358 819 
L 269 318 
C 794 -64 1363 -128 1651 -128 
C 2438 -128 3002 488 3002 1186 
C 3002 1440 2925 1763 2656 2061 
C 2394 2347 2163 2410 1638 2549 
C 1338 2626 1146 2677 986 2873 
C 877 3013 819 3146 819 3317 
C 819 3673 1126 4060 1690 4060 
C 1971 4060 2336 4002 2707 3660 
L 2797 4169 
z
" transform="scale(0.015625)"/>
       <path id="CMSS17-44" d="M 570 4416 
L 570 0 
L 2144 0 
C 3194 0 4000 980 4000 2170 
C 4000 3398 3194 4416 2144 4416 
L 570 4416 
z
M 1094 357 
L 1094 4059 
L 2003 4059 
C 2861 4059 3475 3277 3475 2170 
C 3475 1107 2867 357 2003 357 
L 1094 357 
z
" transform="scale(0.015625)"/>
      </defs>
      <use xlink:href="#CMSS17-4c" transform="scale(0.996264)"/>
      <use xlink:href="#CMSS17-53" transform="translate(50.687105 0)scale(0.996264)"/>
      <use xlink:href="#CMSS17-44" transform="translate(102.735622 0)scale(0.996264)"/>
     </g>
    </g>
    <g id="line2d_18">
     <path d="M 350.595342 78.277178 
L 360.595342 78.277178 
L 370.595342 78.277178 
" style="fill: none; stroke: #ff7f0e; stroke-width: 1.5; stroke-linecap: square"/>
    </g>
    <g id="text_19">
     <!-- BASE -->
     <g transform="translate(378.595342 81.777178)scale(0.1 -0.1)">
      <defs>
       <path id="CMSS17-42" d="M 570 4416 
L 570 0 
L 2163 0 
C 3034 0 3667 574 3667 1200 
C 3667 1685 3251 2176 2502 2317 
C 3334 2558 3501 3040 3501 3313 
C 3501 3883 2874 4416 1997 4416 
L 570 4416 
z
M 1088 2496 
L 1088 4059 
L 1824 4059 
C 2483 4059 3002 3724 3002 3306 
C 3002 2926 2592 2496 1766 2496 
L 1088 2496 
z
M 1088 357 
L 1088 2107 
L 1939 2107 
C 2630 2107 3162 1679 3162 1206 
C 3162 772 2694 357 1984 357 
L 1088 357 
z
" transform="scale(0.015625)"/>
       <path id="CMSS17-41" d="M 2272 4416 
L 1722 4416 
L 166 0 
L 653 0 
L 1101 1280 
L 2816 1280 
L 3270 0 
L 3827 0 
L 2272 4416 
z
M 2694 1637 
L 1222 1637 
C 1530 2528 1914 3638 1958 3925 
L 1965 3925 
C 2010 3663 2138 3281 2246 2956 
L 2694 1637 
z
" transform="scale(0.015625)"/>
       <path id="CMSS17-45" d="M 1958 433 
C 1446 433 1216 433 1101 433 
L 1101 2107 
L 3085 2107 
L 3085 2496 
L 1101 2496 
L 1101 4009 
L 1926 4009 
C 2003 4009 2080 4009 2157 4009 
L 3251 4009 
L 3251 4416 
L 563 4416 
L 563 0 
L 3334 0 
L 3334 433 
L 1958 433 
z
" transform="scale(0.015625)"/>
      </defs>
      <use xlink:href="#CMSS17-42" transform="scale(0.996264)"/>
      <use xlink:href="#CMSS17-41" transform="translate(62.33804 0)scale(0.996264)"/>
      <use xlink:href="#CMSS17-53" transform="translate(124.555895 0)scale(0.996264)"/>
      <use xlink:href="#CMSS17-45" transform="translate(176.604411 0)scale(0.996264)"/>
     </g>
    </g>
   </g>
  </g>
  <g id="axes_2">
   <g id="patch_8">
    <path d="M 473.236364 384.48 
L 777.6 384.48 
L 777.6 51.84 
L 473.236364 51.84 
z
" style="fill: #ffffff"/>
   </g>
   <g id="matplotlib.axis_3">
    <g id="xtick_8">
     <g id="line2d_19">
      <g>
       <use xlink:href="#m8fdb8d423f" x="487.071074" y="384.48" style="stroke: #000000; stroke-width: 0.8"/>
      </g>
     </g>
     <g id="text_20">
      <!-- $\mathdefault{0}$ -->
      <g transform="translate(484.580407 398.398498)scale(0.1 -0.1)">
       <use xlink:href="#CMR17-30" transform="scale(0.996264)"/>
      </g>
     </g>
    </g>
    <g id="xtick_9">
     <g id="line2d_20">
      <g>
       <use xlink:href="#m8fdb8d423f" x="532.805655" y="384.48" style="stroke: #000000; stroke-width: 0.8"/>
      </g>
     </g>
     <g id="text_21">
      <!-- $\mathdefault{20}$ -->
      <g transform="translate(527.82432 398.398498)scale(0.1 -0.1)">
       <use xlink:href="#CMR17-32" transform="scale(0.996264)"/>
       <use xlink:href="#CMR17-30" transform="translate(45.690477 0)scale(0.996264)"/>
      </g>
     </g>
    </g>
    <g id="xtick_10">
     <g id="line2d_21">
      <g>
       <use xlink:href="#m8fdb8d423f" x="578.540236" y="384.48" style="stroke: #000000; stroke-width: 0.8"/>
      </g>
     </g>
     <g id="text_22">
      <!-- $\mathdefault{40}$ -->
      <g transform="translate(573.558901 398.398498)scale(0.1 -0.1)">
       <use xlink:href="#CMR17-34" transform="scale(0.996264)"/>
       <use xlink:href="#CMR17-30" transform="translate(45.690477 0)scale(0.996264)"/>
      </g>
     </g>
    </g>
    <g id="xtick_11">
     <g id="line2d_22">
      <g>
       <use xlink:href="#m8fdb8d423f" x="624.274817" y="384.48" style="stroke: #000000; stroke-width: 0.8"/>
      </g>
     </g>
     <g id="text_23">
      <!-- $\mathdefault{60}$ -->
      <g transform="translate(619.293482 398.398498)scale(0.1 -0.1)">
       <use xlink:href="#CMR17-36" transform="scale(0.996264)"/>
       <use xlink:href="#CMR17-30" transform="translate(45.690477 0)scale(0.996264)"/>
      </g>
     </g>
    </g>
    <g id="xtick_12">
     <g id="line2d_23">
      <g>
       <use xlink:href="#m8fdb8d423f" x="670.009398" y="384.48" style="stroke: #000000; stroke-width: 0.8"/>
      </g>
     </g>
     <g id="text_24">
      <!-- $\mathdefault{80}$ -->
      <g transform="translate(665.028063 398.398498)scale(0.1 -0.1)">
       <use xlink:href="#CMR17-38" transform="scale(0.996264)"/>
       <use xlink:href="#CMR17-30" transform="translate(45.690477 0)scale(0.996264)"/>
      </g>
     </g>
    </g>
    <g id="xtick_13">
     <g id="line2d_24">
      <g>
       <use xlink:href="#m8fdb8d423f" x="715.743979" y="384.48" style="stroke: #000000; stroke-width: 0.8"/>
      </g>
     </g>
     <g id="text_25">
      <!-- $\mathdefault{100}$ -->
      <g transform="translate(708.271976 398.398498)scale(0.1 -0.1)">
       <use xlink:href="#CMR17-31" transform="scale(0.996264)"/>
       <use xlink:href="#CMR17-30" transform="translate(45.690477 0)scale(0.996264)"/>
       <use xlink:href="#CMR17-30" transform="translate(91.380954 0)scale(0.996264)"/>
      </g>
     </g>
    </g>
    <g id="xtick_14">
     <g id="line2d_25">
      <g>
       <use xlink:href="#m8fdb8d423f" x="761.47856" y="384.48" style="stroke: #000000; stroke-width: 0.8"/>
      </g>
     </g>
     <g id="text_26">
      <!-- $\mathdefault{120}$ -->
      <g transform="translate(754.006557 398.398498)scale(0.1 -0.1)">
       <use xlink:href="#CMR17-31" transform="scale(0.996264)"/>
       <use xlink:href="#CMR17-32" transform="translate(45.690477 0)scale(0.996264)"/>
       <use xlink:href="#CMR17-30" transform="translate(91.380954 0)scale(0.996264)"/>
      </g>
     </g>
    </g>
    <g id="text_27">
     <!-- Time (sec) -->
     <g transform="translate(602.794669 411.807657)scale(0.1 -0.1)">
      <use xlink:href="#CMSS17-54" transform="scale(0.996264)"/>
      <use xlink:href="#CMSS17-69" transform="translate(63.819454 0)scale(0.996264)"/>
      <use xlink:href="#CMSS17-6d" transform="translate(86.000177 0)scale(0.996264)"/>
      <use xlink:href="#CMSS17-65" transform="translate(160.229431 0)scale(0.996264)"/>
      <use xlink:href="#CMSS17-28" transform="translate(233.097366 0)scale(0.996264)"/>
      <use xlink:href="#CMSS17-73" transform="translate(269.53128 0)scale(0.996264)"/>
      <use xlink:href="#CMSS17-65" transform="translate(305.444822 0)scale(0.996264)"/>
      <use xlink:href="#CMSS17-63" transform="translate(347.083644 0)scale(0.996264)"/>
      <use xlink:href="#CMSS17-29" transform="translate(388.722467 0)scale(0.996264)"/>
     </g>
    </g>
   </g>
   <g id="matplotlib.axis_4">
    <g id="ytick_8">
     <g id="line2d_26">
      <g>
       <use xlink:href="#m30b222351e" x="473.236364" y="352.776289" style="stroke: #000000; stroke-width: 0.8"/>
      </g>
     </g>
     <g id="text_28">
      <!-- $\mathdefault{100}$ -->
      <g transform="translate(451.292358 356.235538)scale(0.1 -0.1)">
       <use xlink:href="#CMR17-31" transform="scale(0.996264)"/>
       <use xlink:href="#CMR17-30" transform="translate(45.690477 0)scale(0.996264)"/>
       <use xlink:href="#CMR17-30" transform="translate(91.380954 0)scale(0.996264)"/>
      </g>
     </g>
    </g>
    <g id="ytick_9">
     <g id="line2d_27">
      <g>
       <use xlink:href="#m30b222351e" x="473.236364" y="312.471305" style="stroke: #000000; stroke-width: 0.8"/>
      </g>
     </g>
     <g id="text_29">
      <!-- $\mathdefault{200}$ -->
      <g transform="translate(451.292358 315.930554)scale(0.1 -0.1)">
       <use xlink:href="#CMR17-32" transform="scale(0.996264)"/>
       <use xlink:href="#CMR17-30" transform="translate(45.690477 0)scale(0.996264)"/>
       <use xlink:href="#CMR17-30" transform="translate(91.380954 0)scale(0.996264)"/>
      </g>
     </g>
    </g>
    <g id="ytick_10">
     <g id="line2d_28">
      <g>
       <use xlink:href="#m30b222351e" x="473.236364" y="272.166321" style="stroke: #000000; stroke-width: 0.8"/>
      </g>
     </g>
     <g id="text_30">
      <!-- $\mathdefault{300}$ -->
      <g transform="translate(451.292358 275.62557)scale(0.1 -0.1)">
       <defs>
        <path id="CMR17-33" d="M 1414 2157 
C 1984 2157 2234 1662 2234 1090 
C 2234 320 1824 25 1453 25 
C 1114 25 563 194 390 693 
C 422 680 454 680 486 680 
C 640 680 755 782 755 948 
C 755 1133 614 1216 486 1216 
C 378 1216 211 1165 211 926 
C 211 335 787 -128 1466 -128 
C 2176 -128 2720 430 2720 1085 
C 2720 1707 2208 2157 1600 2227 
C 2086 2328 2554 2756 2554 3329 
C 2554 3820 2048 4179 1472 4179 
C 890 4179 378 3829 378 3329 
C 378 3110 544 3072 627 3072 
C 762 3072 877 3155 877 3321 
C 877 3486 762 3569 627 3569 
C 602 3569 570 3569 544 3557 
C 730 3959 1235 4032 1459 4032 
C 1683 4032 2106 3925 2106 3320 
C 2106 3143 2080 2828 1862 2550 
C 1670 2304 1453 2304 1242 2284 
C 1210 2284 1062 2269 1037 2269 
C 992 2263 966 2257 966 2208 
C 966 2163 973 2157 1101 2157 
L 1414 2157 
z
" transform="scale(0.015625)"/>
       </defs>
       <use xlink:href="#CMR17-33" transform="scale(0.996264)"/>
       <use xlink:href="#CMR17-30" transform="translate(45.690477 0)scale(0.996264)"/>
       <use xlink:href="#CMR17-30" transform="translate(91.380954 0)scale(0.996264)"/>
      </g>
     </g>
    </g>
    <g id="ytick_11">
     <g id="line2d_29">
      <g>
       <use xlink:href="#m30b222351e" x="473.236364" y="231.861337" style="stroke: #000000; stroke-width: 0.8"/>
      </g>
     </g>
     <g id="text_31">
      <!-- $\mathdefault{400}$ -->
      <g transform="translate(451.292358 235.320586)scale(0.1 -0.1)">
       <use xlink:href="#CMR17-34" transform="scale(0.996264)"/>
       <use xlink:href="#CMR17-30" transform="translate(45.690477 0)scale(0.996264)"/>
       <use xlink:href="#CMR17-30" transform="translate(91.380954 0)scale(0.996264)"/>
      </g>
     </g>
    </g>
    <g id="ytick_12">
     <g id="line2d_30">
      <g>
       <use xlink:href="#m30b222351e" x="473.236364" y="191.556353" style="stroke: #000000; stroke-width: 0.8"/>
      </g>
     </g>
     <g id="text_32">
      <!-- $\mathdefault{500}$ -->
      <g transform="translate(451.292358 195.015602)scale(0.1 -0.1)">
       <defs>
        <path id="CMR17-35" d="M 730 3692 
C 794 3666 1056 3584 1325 3584 
C 1920 3584 2246 3911 2432 4100 
C 2432 4157 2432 4192 2394 4192 
C 2387 4192 2374 4192 2323 4163 
C 2099 4058 1837 3973 1517 3973 
C 1325 3973 1037 3999 723 4139 
C 653 4171 640 4171 634 4171 
C 602 4171 595 4164 595 4037 
L 595 2203 
C 595 2089 595 2057 659 2057 
C 691 2057 704 2070 736 2114 
C 941 2401 1222 2522 1542 2522 
C 1766 2522 2246 2382 2246 1289 
C 2246 1085 2246 715 2054 421 
C 1894 159 1645 25 1370 25 
C 947 25 518 320 403 814 
C 429 807 480 795 506 795 
C 589 795 749 840 749 1038 
C 749 1210 627 1280 506 1280 
C 358 1280 262 1190 262 1011 
C 262 454 704 -128 1382 -128 
C 2042 -128 2669 440 2669 1264 
C 2669 2030 2170 2624 1549 2624 
C 1222 2624 947 2503 730 2274 
L 730 3692 
z
" transform="scale(0.015625)"/>
       </defs>
       <use xlink:href="#CMR17-35" transform="scale(0.996264)"/>
       <use xlink:href="#CMR17-30" transform="translate(45.690477 0)scale(0.996264)"/>
       <use xlink:href="#CMR17-30" transform="translate(91.380954 0)scale(0.996264)"/>
      </g>
     </g>
    </g>
    <g id="ytick_13">
     <g id="line2d_31">
      <g>
       <use xlink:href="#m30b222351e" x="473.236364" y="151.251369" style="stroke: #000000; stroke-width: 0.8"/>
      </g>
     </g>
     <g id="text_33">
      <!-- $\mathdefault{600}$ -->
      <g transform="translate(451.292358 154.710618)scale(0.1 -0.1)">
       <use xlink:href="#CMR17-36" transform="scale(0.996264)"/>
       <use xlink:href="#CMR17-30" transform="translate(45.690477 0)scale(0.996264)"/>
       <use xlink:href="#CMR17-30" transform="translate(91.380954 0)scale(0.996264)"/>
      </g>
     </g>
    </g>
    <g id="ytick_14">
     <g id="line2d_32">
      <g>
       <use xlink:href="#m30b222351e" x="473.236364" y="110.946385" style="stroke: #000000; stroke-width: 0.8"/>
      </g>
     </g>
     <g id="text_34">
      <!-- $\mathdefault{700}$ -->
      <g transform="translate(451.292358 114.405634)scale(0.1 -0.1)">
       <defs>
        <path id="CMR17-37" d="M 2886 3941 
L 2886 4081 
L 1382 4081 
C 634 4081 621 4165 595 4288 
L 480 4288 
L 294 3094 
L 410 3094 
C 429 3215 474 3540 550 3661 
C 589 3712 1062 3712 1171 3712 
L 2579 3712 
L 1869 2661 
C 1395 1954 1069 999 1069 165 
C 1069 89 1069 -128 1299 -128 
C 1530 -128 1530 89 1530 171 
L 1530 465 
C 1530 1508 1709 2196 2003 2636 
L 2886 3941 
z
" transform="scale(0.015625)"/>
       </defs>
       <use xlink:href="#CMR17-37" transform="scale(0.996264)"/>
       <use xlink:href="#CMR17-30" transform="translate(45.690477 0)scale(0.996264)"/>
       <use xlink:href="#CMR17-30" transform="translate(91.380954 0)scale(0.996264)"/>
      </g>
     </g>
    </g>
    <g id="ytick_15">
     <g id="line2d_33">
      <g>
       <use xlink:href="#m30b222351e" x="473.236364" y="70.641401" style="stroke: #000000; stroke-width: 0.8"/>
      </g>
     </g>
     <g id="text_35">
      <!-- $\mathdefault{800}$ -->
      <g transform="translate(451.292358 74.10065)scale(0.1 -0.1)">
       <use xlink:href="#CMR17-38" transform="scale(0.996264)"/>
       <use xlink:href="#CMR17-30" transform="translate(45.690477 0)scale(0.996264)"/>
       <use xlink:href="#CMR17-30" transform="translate(91.380954 0)scale(0.996264)"/>
      </g>
     </g>
    </g>
    <g id="text_36">
     <!-- Latency (ms) -->
     <g transform="translate(444.801698 245.751022)rotate(-90)scale(0.1 -0.1)">
      <defs>
       <path id="CMSS17-61" d="M 2406 1791 
C 2406 2392 1978 2808 1402 2808 
C 1120 2808 813 2757 461 2553 
L 499 2135 
C 659 2248 934 2432 1395 2432 
C 1722 2432 1920 2180 1920 1782 
L 1920 1536 
C 896 1536 256 1238 256 726 
C 256 461 416 -64 947 -64 
C 1043 -64 1562 -64 1933 217 
L 1933 -19 
L 2406 -19 
L 2406 1791 
z
M 1920 816 
C 1920 701 1920 548 1728 434 
C 1562 325 1350 325 1261 325 
C 941 325 723 511 723 744 
C 723 1211 1722 1211 1920 1211 
L 1920 816 
z
" transform="scale(0.015625)"/>
       <path id="CMSS17-79" d="M 2675 2752 
L 2176 2752 
C 1632 1294 1446 702 1434 383 
L 1427 383 
C 1408 696 1126 1460 902 2007 
L 602 2752 
L 83 2752 
L 1216 13 
C 1146 -178 1043 -465 1011 -529 
C 870 -885 774 -885 672 -885 
C 646 -885 442 -885 211 -809 
L 250 -1229 
C 410 -1261 570 -1280 685 -1280 
C 845 -1280 1165 -1280 1459 -497 
L 2675 2752 
z
" transform="scale(0.015625)"/>
      </defs>
      <use xlink:href="#CMSS17-4c" transform="scale(0.996264)"/>
      <use xlink:href="#CMSS17-61" transform="translate(50.687105 0)scale(0.996264)"/>
      <use xlink:href="#CMSS17-74" transform="translate(95.609026 0)scale(0.996264)"/>
      <use xlink:href="#CMSS17-65" transform="translate(129.440593 0)scale(0.996264)"/>
      <use xlink:href="#CMSS17-6e" transform="translate(171.079415 0)scale(0.996264)"/>
      <use xlink:href="#CMSS17-63" transform="translate(219.284358 0)scale(0.996264)"/>
      <use xlink:href="#CMSS17-79" transform="translate(260.92318 0)scale(0.996264)"/>
      <use xlink:href="#CMSS17-28" transform="translate(335.152434 0)scale(0.996264)"/>
      <use xlink:href="#CMSS17-6d" transform="translate(371.586349 0)scale(0.996264)"/>
      <use xlink:href="#CMSS17-73" transform="translate(445.815603 0)scale(0.996264)"/>
      <use xlink:href="#CMSS17-29" transform="translate(481.729145 0)scale(0.996264)"/>
     </g>
    </g>
   </g>
   <g id="line2d_34">
    <path d="M 487.071074 359.573934 
L 489.357803 369.36 
L 491.644532 359.529631 
L 493.931262 362.858983 
L 496.217991 362.47665 
L 498.50472 362.722704 
L 500.791449 362.763082 
L 503.078178 362.758874 
L 505.364907 362.746109 
L 507.651636 362.749737 
L 509.938365 366.057377 
L 512.225094 363.204655 
L 514.511823 365.792203 
L 516.798552 362.611487 
L 519.085281 365.896125 
L 521.37201 365.775662 
L 523.658739 363.148873 
L 525.945468 365.88669 
L 528.232197 359.607621 
L 530.518926 362.992566 
L 532.805655 362.976795 
L 535.092384 362.677966 
L 537.379113 359.34929 
L 539.665842 349.232545 
L 541.952572 352.687634 
L 544.239301 352.782794 
L 546.52603 352.60064 
L 548.812759 354.363668 
L 551.099488 356.126568 
L 553.386217 362.770268 
L 555.672946 362.754759 
L 557.959675 362.754348 
L 560.246404 362.657358 
L 562.533133 362.603933 
L 564.819862 359.381848 
L 567.106591 355.598206 
L 569.39332 355.958992 
L 571.680049 352.546514 
L 573.966778 352.742303 
L 576.253507 349.314655 
L 578.540236 349.287441 
L 580.826965 355.926305 
L 583.113694 355.925204 
L 585.400423 356.084546 
L 587.687153 359.111769 
L 589.973882 359.347565 
L 592.260611 356.614581 
L 594.54734 356.539827 
L 596.834069 356.488233 
L 599.120798 359.396568 
L 601.407527 359.250365 
L 603.694256 359.322338 
L 605.980985 359.216368 
L 608.267714 359.236001 
L 610.554443 349.430145 
L 612.841172 349.298275 
L 615.127901 347.65253 
L 617.41463 346.090659 
L 619.701359 345.963473 
L 621.988088 342.282902 
L 624.274817 342.405494 
L 626.561546 342.565408 
L 628.848275 339.209228 
L 631.135004 315.693519 
L 633.421733 315.688908 
L 635.708463 352.689375 
L 637.995192 355.936385 
L 640.281921 346.049556 
L 642.56865 356.047135 
L 644.855379 355.9865 
L 647.142108 352.905015 
L 649.428837 352.611844 
L 651.715566 352.551121 
L 654.002295 355.653565 
L 656.289024 353.204037 
L 658.575753 352.551645 
L 660.862482 349.1256 
L 663.149211 349.068553 
L 665.43594 344.767221 
L 667.722669 344.159164 
L 670.009398 342.852154 
L 672.296127 342.35313 
L 674.582856 342.595435 
L 676.869585 342.60011 
L 679.156314 349.186364 
L 681.443044 349.121207 
L 683.729773 349.283209 
L 686.016502 348.034294 
L 688.303231 328.177705 
L 690.58996 326.931052 
L 692.876689 326.318404 
L 695.163418 326.328481 
L 697.450147 326.340717 
L 699.736876 335.219055 
L 702.023605 335.20496 
L 704.310334 335.477748 
L 706.597063 346.034208 
L 708.883792 346.007691 
L 711.170521 347.979472 
L 713.45725 348.576711 
L 715.743979 348.957069 
L 718.030708 349.478132 
L 720.317437 352.172923 
L 722.604166 342.671148 
L 724.890895 332.459449 
L 727.177624 332.460223 
L 729.464354 332.46512 
L 731.751083 332.460078 
L 734.037812 332.453371 
L 736.324541 336.206212 
L 738.61127 335.042833 
L 740.897999 332.329308 
L 743.184728 329.061001 
L 745.471457 329.025271 
L 747.758186 328.960057 
L 750.044915 328.970908 
L 752.331644 332.293989 
L 754.618373 335.747562 
L 756.905102 329.028709 
L 759.191831 310.951504 
L 761.47856 309.812627 
L 763.765289 309.38385 
" clip-path="url(#p62bfda94df)" style="fill: none; stroke: #1f77b4; stroke-width: 1.5; stroke-linecap: square"/>
   </g>
   <g id="line2d_35">
    <path d="M 487.071074 342.525909 
L 489.357803 346.091465 
L 491.644532 299.939901 
L 493.931262 66.96 
L 496.217991 115.041311 
L 498.50472 187.245235 
L 500.791449 207.048782 
L 503.078178 323.069516 
L 505.364907 292.505796 
L 507.651636 291.681438 
L 509.938365 288.476293 
L 512.225094 288.501229 
L 514.511823 288.516973 
L 516.798552 288.471851 
L 519.085281 298.32091 
L 521.37201 310.420003 
L 523.658739 335.670289 
L 525.945468 335.597313 
L 528.232197 325.24183 
L 530.518926 327.706169 
L 532.805655 328.618545 
L 535.092384 335.56488 
L 537.379113 329.084132 
L 539.665842 310.718292 
L 541.952572 332.783324 
L 544.239301 326.201568 
L 546.52603 327.135016 
L 548.812759 328.948957 
L 551.099488 329.694027 
L 553.386217 345.652512 
L 555.672946 345.554663 
L 557.959675 349.098386 
L 560.246404 348.946372 
L 562.533133 349.249913 
L 564.819862 346.888859 
L 567.106591 347.055399 
L 569.39332 348.819532 
L 571.680049 348.588339 
L 573.966778 349.16119 
L 576.253507 349.168896 
L 578.540236 352.298675 
L 580.826965 349.352896 
L 583.113694 345.770517 
L 585.400423 339.598518 
L 587.687153 332.523941 
L 589.973882 332.427955 
L 592.260611 329.125767 
L 594.54734 329.127883 
L 596.834069 325.42136 
L 599.120798 325.705994 
L 601.407527 329.04265 
L 603.694256 315.232652 
L 605.980985 315.265806 
L 608.267714 315.304487 
L 610.554443 325.730044 
L 612.841172 318.960407 
L 615.127901 318.960407 
L 617.41463 338.890786 
L 619.701359 338.889299 
L 621.988088 338.880682 
L 624.274817 339.477091 
L 626.561546 340.837852 
L 628.848275 339.311816 
L 631.135004 342.068754 
L 633.421733 320.397389 
L 635.708463 319.373191 
L 637.995192 318.845893 
L 640.281921 321.89457 
L 642.56865 321.912783 
L 644.855379 297.194885 
L 647.142108 322.684628 
L 649.428837 311.885423 
L 651.715566 308.744609 
L 654.002295 308.739232 
L 656.289024 308.697227 
L 658.575753 312.465755 
L 660.862482 308.343784 
L 663.149211 311.94628 
L 665.43594 316.06023 
L 667.722669 305.337443 
L 670.009398 301.255734 
L 672.296127 301.629635 
L 674.582856 301.751856 
L 676.869585 275.356271 
L 679.156314 275.36303 
L 681.443044 302.079882 
L 683.729773 312.477947 
L 686.016502 302.041358 
L 688.303231 285.32859 
L 690.58996 301.24334 
L 692.876689 298.984128 
L 695.163418 299.122757 
L 697.450147 291.83234 
L 699.736876 278.363413 
L 702.023605 287.502794 
L 704.310334 287.656703 
L 706.597063 287.506768 
L 708.883792 287.261795 
L 711.170521 295.926713 
L 713.45725 301.959104 
L 715.743979 302.287001 
L 718.030708 302.004943 
L 720.317437 290.163891 
L 722.604166 278.33125 
L 724.890895 268.658522 
L 727.177624 261.348644 
L 729.464354 255.304755 
L 731.751083 254.269513 
L 734.037812 254.441809 
L 736.324541 254.466931 
L 738.61127 255.157916 
L 740.897999 257.164129 
L 743.184728 255.25073 
L 745.471457 271.462874 
L 747.758186 271.232567 
L 750.044915 264.555913 
L 752.331644 263.148488 
L 754.618373 264.215373 
L 756.905102 271.229105 
L 759.191831 271.236823 
L 761.47856 274.851503 
" clip-path="url(#p62bfda94df)" style="fill: none; stroke: #ff7f0e; stroke-width: 1.5; stroke-linecap: square"/>
   </g>
   <g id="patch_9">
    <path d="M 473.236364 384.48 
L 473.236364 51.84 
" style="fill: none; stroke: #000000; stroke-width: 0.8; stroke-linejoin: miter; stroke-linecap: square"/>
   </g>
   <g id="patch_10">
    <path d="M 777.6 384.48 
L 777.6 51.84 
" style="fill: none; stroke: #000000; stroke-width: 0.8; stroke-linejoin: miter; stroke-linecap: square"/>
   </g>
   <g id="patch_11">
    <path d="M 473.236364 384.48 
L 777.6 384.48 
" style="fill: none; stroke: #000000; stroke-width: 0.8; stroke-linejoin: miter; stroke-linecap: square"/>
   </g>
   <g id="patch_12">
    <path d="M 473.236364 51.84 
L 777.6 51.84 
" style="fill: none; stroke: #000000; stroke-width: 0.8; stroke-linejoin: miter; stroke-linecap: square"/>
   </g>
   <g id="text_37">
    <!-- P99th Latency (5 second rolling window) -->
    <g transform="translate(525.078316 45.84)scale(0.12 -0.12)">
     <defs>
      <path id="CMSS17-50" d="M 2106 1856 
C 2874 1856 3501 2453 3501 3158 
C 3501 3850 2899 4453 2067 4453 
L 570 4453 
L 570 0 
L 1107 0 
L 1107 1856 
L 2106 1856 
z
M 1926 4096 
C 2669 4096 2995 3627 2995 3157 
C 2995 2720 2694 2226 1926 2226 
L 1094 2226 
L 1094 4096 
L 1926 4096 
z
" transform="scale(0.015625)"/>
      <path id="CMSS17-39" d="M 435 174 
C 614 21 845 -128 1235 -128 
C 2010 -128 2752 721 2752 2095 
C 2752 3932 1952 4229 1523 4229 
C 1094 4229 819 4041 582 3741 
C 301 3397 250 3090 250 2733 
C 250 2307 326 2045 506 1745 
C 749 1357 973 1275 1222 1275 
C 1600 1275 1978 1459 2234 1776 
C 2189 902 1798 267 1235 267 
C 1005 267 819 339 634 516 
L 435 174 
z
M 2214 2746 
C 2221 2703 2221 2622 2221 2596 
C 2221 2074 1914 1664 1466 1664 
C 1171 1664 1018 1813 902 2006 
C 762 2249 755 2485 755 2733 
C 755 2976 755 3244 934 3511 
C 1069 3703 1235 3840 1523 3840 
C 2112 3840 2208 3000 2214 2746 
z
" transform="scale(0.015625)"/>
      <path id="CMSS17-68" d="M 2618 1891 
C 2618 2292 2522 2820 1798 2820 
C 1395 2820 1133 2623 947 2407 
L 947 4448 
L 474 4448 
L 474 32 
L 960 32 
L 960 1573 
C 960 1973 1114 2432 1549 2432 
C 2112 2432 2131 2056 2131 1839 
L 2131 32 
L 2618 32 
L 2618 1891 
z
" transform="scale(0.015625)"/>
     </defs>
     <use xlink:href="#CMSS17-50" transform="scale(0.996264)"/>
     <use xlink:href="#CMSS17-39" transform="translate(59.735586 0)scale(0.996264)"/>
     <use xlink:href="#CMSS17-39" transform="translate(106.57921 0)scale(0.996264)"/>
     <use xlink:href="#CMSS17-74" transform="translate(153.422833 0)scale(0.996264)"/>
     <use xlink:href="#CMSS17-68" transform="translate(187.2544 0)scale(0.996264)"/>
     <use xlink:href="#CMSS17-4c" transform="translate(266.688456 0)scale(0.996264)"/>
     <use xlink:href="#CMSS17-61" transform="translate(317.375561 0)scale(0.996264)"/>
     <use xlink:href="#CMSS17-74" transform="translate(362.297482 0)scale(0.996264)"/>
     <use xlink:href="#CMSS17-65" transform="translate(396.129049 0)scale(0.996264)"/>
     <use xlink:href="#CMSS17-6e" transform="translate(437.767871 0)scale(0.996264)"/>
     <use xlink:href="#CMSS17-63" transform="translate(485.972814 0)scale(0.996264)"/>
     <use xlink:href="#CMSS17-79" transform="translate(527.611636 0)scale(0.996264)"/>
     <use xlink:href="#CMSS17-28" transform="translate(601.84089 0)scale(0.996264)"/>
     <use xlink:href="#CMSS17-35" transform="translate(638.274804 0)scale(0.996264)"/>
     <use xlink:href="#CMSS17-73" transform="translate(716.347541 0)scale(0.996264)"/>
     <use xlink:href="#CMSS17-65" transform="translate(752.261083 0)scale(0.996264)"/>
     <use xlink:href="#CMSS17-63" transform="translate(793.899905 0)scale(0.996264)"/>
     <use xlink:href="#CMSS17-6f" transform="translate(835.538727 0)scale(0.996264)"/>
     <use xlink:href="#CMSS17-6e" transform="translate(882.38235 0)scale(0.996264)"/>
     <use xlink:href="#CMSS17-64" transform="translate(930.587293 0)scale(0.996264)"/>
     <use xlink:href="#CMSS17-72" transform="translate(1010.021349 0)scale(0.996264)"/>
     <use xlink:href="#CMSS17-6f" transform="translate(1041.931122 0)scale(0.996264)"/>
     <use xlink:href="#CMSS17-6c" transform="translate(1088.774745 0)scale(0.996264)"/>
     <use xlink:href="#CMSS17-6c" transform="translate(1110.955469 0)scale(0.996264)"/>
     <use xlink:href="#CMSS17-69" transform="translate(1133.136192 0)scale(0.996264)"/>
     <use xlink:href="#CMSS17-6e" transform="translate(1155.316915 0)scale(0.996264)"/>
     <use xlink:href="#CMSS17-67" transform="translate(1203.521858 0)scale(0.996264)"/>
     <use xlink:href="#CMSS17-77" transform="translate(1281.594594 0)scale(0.996264)"/>
     <use xlink:href="#CMSS17-69" transform="translate(1345.414139 0)scale(0.996264)"/>
     <use xlink:href="#CMSS17-6e" transform="translate(1367.594862 0)scale(0.996264)"/>
     <use xlink:href="#CMSS17-64" transform="translate(1415.799805 0)scale(0.996264)"/>
     <use xlink:href="#CMSS17-6f" transform="translate(1464.004748 0)scale(0.996264)"/>
     <use xlink:href="#CMSS17-77" transform="translate(1508.245918 0)scale(0.996264)"/>
     <use xlink:href="#CMSS17-29" transform="translate(1572.065463 0)scale(0.996264)"/>
    </g>
   </g>
   <g id="legend_2">
    <g id="patch_13">
     <path d="M 713.831706 87.714357 
L 770.6 87.714357 
Q 772.6 87.714357 772.6 85.714357 
L 772.6 58.84 
Q 772.6 56.84 770.6 56.84 
L 713.831706 56.84 
Q 711.831706 56.84 711.831706 58.84 
L 711.831706 85.714357 
Q 711.831706 87.714357 713.831706 87.714357 
z
" style="fill: #ffffff; opacity: 0.8; stroke: #cccccc; stroke-linejoin: miter"/>
    </g>
    <g id="line2d_36">
     <path d="M 715.831706 64.34 
L 725.831706 64.34 
L 735.831706 64.34 
" style="fill: none; stroke: #1f77b4; stroke-width: 1.5; stroke-linecap: square"/>
    </g>
    <g id="text_38">
     <!-- LSD -->
     <g transform="translate(743.831706 67.84)scale(0.1 -0.1)">
      <use xlink:href="#CMSS17-4c" transform="scale(0.996264)"/>
      <use xlink:href="#CMSS17-53" transform="translate(50.687105 0)scale(0.996264)"/>
      <use xlink:href="#CMSS17-44" transform="translate(102.735622 0)scale(0.996264)"/>
     </g>
    </g>
    <g id="line2d_37">
     <path d="M 715.831706 78.277178 
L 725.831706 78.277178 
L 735.831706 78.277178 
" style="fill: none; stroke: #ff7f0e; stroke-width: 1.5; stroke-linecap: square"/>
    </g>
    <g id="text_39">
     <!-- BASE -->
     <g transform="translate(743.831706 81.777178)scale(0.1 -0.1)">
      <use xlink:href="#CMSS17-42" transform="scale(0.996264)"/>
      <use xlink:href="#CMSS17-41" transform="translate(62.33804 0)scale(0.996264)"/>
      <use xlink:href="#CMSS17-53" transform="translate(124.555895 0)scale(0.996264)"/>
      <use xlink:href="#CMSS17-45" transform="translate(176.604411 0)scale(0.996264)"/>
     </g>
    </g>
   </g>
  </g>
  <g id="text_40">
   <!-- New order - 10 Terminals and 1 Warehouse -->
   <g transform="translate(325.915715 16.94218)scale(0.12 -0.12)">
    <defs>
     <path id="CMSS17-4e" d="M 1466 4180 
L 1350 4416 
L 563 4416 
L 563 0 
L 1062 0 
L 1062 3926 
L 1069 3932 
C 1114 3817 1139 3760 1402 3194 
L 2771 236 
L 2886 0 
L 3674 0 
L 3674 4416 
L 3174 4416 
L 3174 490 
L 3168 483 
C 3123 598 3098 655 2835 1221 
L 1466 4180 
z
" transform="scale(0.015625)"/>
     <path id="CMSS17-2d" d="M 1664 1216 
L 1664 1585 
L 64 1585 
L 64 1216 
L 1664 1216 
z
" transform="scale(0.015625)"/>
     <path id="CMSS17-31" d="M 1818 4288 
L 1696 4288 
C 1350 3940 947 3890 538 3890 
L 538 3520 
C 723 3520 1024 3520 1325 3667 
L 1325 369 
L 570 369 
L 570 0 
L 2573 0 
L 2573 369 
L 1818 369 
L 1818 4288 
z
" transform="scale(0.015625)"/>
     <path id="CMSS17-30" d="M 2758 2044 
C 2758 2405 2752 3077 2490 3596 
C 2227 4096 1805 4229 1504 4229 
C 1069 4229 698 3975 506 3570 
C 301 3146 243 2709 243 2044 
C 243 1589 262 1031 493 543 
C 755 5 1197 -128 1498 -128 
C 1894 -128 2278 81 2496 518 
C 2720 974 2758 1474 2758 2044 
z
M 1498 261 
C 1011 261 864 811 819 995 
C 742 1310 730 1614 730 2114 
C 730 2506 730 2948 851 3297 
C 998 3701 1254 3840 1498 3840 
C 1971 3840 2125 3372 2176 3208 
C 2272 2873 2272 2481 2272 2114 
C 2272 1526 2272 261 1498 261 
z
" transform="scale(0.015625)"/>
     <path id="CMSS17-57" d="M 5581 4416 
L 5094 4416 
L 4557 2437 
C 4474 2118 4397 1801 4320 1482 
C 4205 1011 4122 681 4109 515 
L 4102 515 
C 4090 687 4006 1049 3904 1457 
C 3827 1795 3744 2131 3654 2462 
L 3123 4416 
L 2586 4416 
L 2080 2562 
L 1824 1549 
C 1632 747 1626 632 1613 505 
L 1606 505 
C 1606 543 1581 753 1402 1498 
C 1312 1868 1222 2244 1126 2601 
L 634 4416 
L 83 4416 
L 1299 0 
L 1830 0 
L 2336 1839 
L 2592 2851 
C 2765 3564 2803 3742 2816 3901 
L 2822 3901 
C 2822 3876 2880 3474 3130 2545 
L 3808 0 
L 4365 0 
L 5581 4416 
z
" transform="scale(0.015625)"/>
    </defs>
    <use xlink:href="#CMSS17-4e" transform="scale(0.996264)"/>
    <use xlink:href="#CMSS17-65" transform="translate(66.061519 0)scale(0.996264)"/>
    <use xlink:href="#CMSS17-77" transform="translate(107.700341 0)scale(0.996264)"/>
    <use xlink:href="#CMSS17-6f" transform="translate(202.748999 0)scale(0.996264)"/>
    <use xlink:href="#CMSS17-72" transform="translate(246.990169 0)scale(0.996264)"/>
    <use xlink:href="#CMSS17-64" transform="translate(278.899941 0)scale(0.996264)"/>
    <use xlink:href="#CMSS17-65" transform="translate(327.104884 0)scale(0.996264)"/>
    <use xlink:href="#CMSS17-72" transform="translate(368.743706 0)scale(0.996264)"/>
    <use xlink:href="#CMSS17-2d" transform="translate(431.882592 0)scale(0.996264)"/>
    <use xlink:href="#CMSS17-31" transform="translate(494.340817 0)scale(0.996264)"/>
    <use xlink:href="#CMSS17-30" transform="translate(541.184441 0)scale(0.996264)"/>
    <use xlink:href="#CMSS17-54" transform="translate(619.257177 0)scale(0.996264)"/>
    <use xlink:href="#CMSS17-65" transform="translate(675.269376 0)scale(0.996264)"/>
    <use xlink:href="#CMSS17-72" transform="translate(716.908198 0)scale(0.996264)"/>
    <use xlink:href="#CMSS17-6d" transform="translate(748.81797 0)scale(0.996264)"/>
    <use xlink:href="#CMSS17-69" transform="translate(823.047225 0)scale(0.996264)"/>
    <use xlink:href="#CMSS17-6e" transform="translate(845.227948 0)scale(0.996264)"/>
    <use xlink:href="#CMSS17-61" transform="translate(893.432891 0)scale(0.996264)"/>
    <use xlink:href="#CMSS17-6c" transform="translate(938.354811 0)scale(0.996264)"/>
    <use xlink:href="#CMSS17-73" transform="translate(960.535534 0)scale(0.996264)"/>
    <use xlink:href="#CMSS17-61" transform="translate(1027.678189 0)scale(0.996264)"/>
    <use xlink:href="#CMSS17-6e" transform="translate(1072.60011 0)scale(0.996264)"/>
    <use xlink:href="#CMSS17-64" transform="translate(1120.805053 0)scale(0.996264)"/>
    <use xlink:href="#CMSS17-31" transform="translate(1200.239109 0)scale(0.996264)"/>
    <use xlink:href="#CMSS17-57" transform="translate(1278.311845 0)scale(0.996264)"/>
    <use xlink:href="#CMSS17-61" transform="translate(1363.951557 0)scale(0.996264)"/>
    <use xlink:href="#CMSS17-72" transform="translate(1406.271024 0)scale(0.996264)"/>
    <use xlink:href="#CMSS17-65" transform="translate(1438.180797 0)scale(0.996264)"/>
    <use xlink:href="#CMSS17-68" transform="translate(1479.819619 0)scale(0.996264)"/>
    <use xlink:href="#CMSS17-6f" transform="translate(1528.024562 0)scale(0.996264)"/>
    <use xlink:href="#CMSS17-75" transform="translate(1574.868185 0)scale(0.996264)"/>
    <use xlink:href="#CMSS17-73" transform="translate(1623.073128 0)scale(0.996264)"/>
    <use xlink:href="#CMSS17-65" transform="translate(1658.98667 0)scale(0.996264)"/>
   </g>
  </g>
 </g>
 <defs>
  <clipPath id="p0bf5f9af35">
   <rect x="108" y="51.84" width="304.363636" height="332.64"/>
  </clipPath>
  <clipPath id="p62bfda94df">
   <rect x="473.236364" y="51.84" width="304.363636" height="332.64"/>
  </clipPath>
 </defs>
</svg>
