<?xml version="1.0" encoding="utf-8" standalone="no"?>
<!DOCTYPE svg PUBLIC "-//W3C//DTD SVG 1.1//EN"
  "http://www.w3.org/Graphics/SVG/1.1/DTD/svg11.dtd">
<svg xmlns:xlink="http://www.w3.org/1999/xlink" width="720pt" height="252pt" viewBox="0 0 720 252" xmlns="http://www.w3.org/2000/svg" version="1.1">
 <metadata>
  <rdf:RDF xmlns:dc="http://purl.org/dc/elements/1.1/" xmlns:cc="http://creativecommons.org/ns#" xmlns:rdf="http://www.w3.org/1999/02/22-rdf-syntax-ns#">
   <cc:Work>
    <dc:type rdf:resource="http://purl.org/dc/dcmitype/StillImage"/>
    <dc:date>2022-07-25T17:54:15.809368</dc:date>
    <dc:format>image/svg+xml</dc:format>
    <dc:creator>
     <cc:Agent>
      <dc:title>Matplotlib v3.5.2, https://matplotlib.org/</dc:title>
     </cc:Agent>
    </dc:creator>
   </cc:Work>
  </rdf:RDF>
 </metadata>
 <defs>
  <style type="text/css">*{stroke-linejoin: round; stroke-linecap: butt}</style>
 </defs>
 <g id="figure_1">
  <g id="patch_1">
   <path d="M 0 252 
L 720 252 
L 720 0 
L 0 0 
z
" style="fill: #ffffff"/>
  </g>
  <g id="axes_1">
   <g id="patch_2">
    <path d="M 90 224.28 
L 343.636364 224.28 
L 343.636364 30.24 
L 90 30.24 
z
" style="fill: #ffffff"/>
   </g>
   <g id="matplotlib.axis_1">
    <g id="xtick_1">
     <g id="line2d_1">
      <defs>
       <path id="md2064081e3" d="M 0 0 
L 0 3.5 
" style="stroke: #000000; stroke-width: 0.8"/>
      </defs>
      <g>
       <use xlink:href="#md2064081e3" x="101.528926" y="224.28" style="stroke: #000000; stroke-width: 0.8"/>
      </g>
     </g>
     <g id="text_1">
      <!-- $\mathdefault{0}$ -->
      <g transform="translate(99.038258 238.198498)scale(0.1 -0.1)">
       <defs>
        <path id="CMR17-30" d="M 2688 2025 
C 2688 2416 2682 3080 2413 3591 
C 2176 4039 1798 4198 1466 4198 
C 1158 4198 768 4058 525 3597 
C 269 3118 243 2524 243 2025 
C 243 1661 250 1106 448 619 
C 723 -39 1216 -128 1466 -128 
C 1760 -128 2208 -7 2470 600 
C 2662 1042 2688 1559 2688 2025 
z
M 1466 -26 
C 1056 -26 813 325 723 812 
C 653 1188 653 1738 653 2096 
C 653 2588 653 2997 736 3387 
C 858 3929 1216 4096 1466 4096 
C 1728 4096 2067 3923 2189 3400 
C 2272 3036 2278 2607 2278 2096 
C 2278 1680 2278 1169 2202 792 
C 2067 95 1690 -26 1466 -26 
z
" transform="scale(0.015625)"/>
       </defs>
       <use xlink:href="#CMR17-30" transform="scale(0.996264)"/>
      </g>
     </g>
    </g>
    <g id="xtick_2">
     <g id="line2d_2">
      <g>
       <use xlink:href="#md2064081e3" x="139.641076" y="224.28" style="stroke: #000000; stroke-width: 0.8"/>
      </g>
     </g>
     <g id="text_2">
      <!-- $\mathdefault{20}$ -->
      <g transform="translate(134.659741 238.198498)scale(0.1 -0.1)">
       <defs>
        <path id="CMR17-32" d="M 2669 989 
L 2554 989 
C 2490 536 2438 459 2413 420 
C 2381 369 1920 369 1830 369 
L 602 369 
C 832 619 1280 1072 1824 1597 
C 2214 1967 2669 2402 2669 3035 
C 2669 3790 2067 4224 1395 4224 
C 691 4224 262 3604 262 3030 
C 262 2780 448 2748 525 2748 
C 589 2748 781 2787 781 3010 
C 781 3207 614 3264 525 3264 
C 486 3264 448 3258 422 3245 
C 544 3790 915 4058 1306 4058 
C 1862 4058 2227 3617 2227 3035 
C 2227 2479 1901 2000 1536 1584 
L 262 146 
L 262 0 
L 2515 0 
L 2669 989 
z
" transform="scale(0.015625)"/>
       </defs>
       <use xlink:href="#CMR17-32" transform="scale(0.996264)"/>
       <use xlink:href="#CMR17-30" transform="translate(45.690477 0)scale(0.996264)"/>
      </g>
     </g>
    </g>
    <g id="xtick_3">
     <g id="line2d_3">
      <g>
       <use xlink:href="#md2064081e3" x="177.753227" y="224.28" style="stroke: #000000; stroke-width: 0.8"/>
      </g>
     </g>
     <g id="text_3">
      <!-- $\mathdefault{40}$ -->
      <g transform="translate(172.771892 238.198498)scale(0.1 -0.1)">
       <defs>
        <path id="CMR17-34" d="M 2150 4122 
C 2150 4256 2144 4256 2029 4256 
L 128 1254 
L 128 1088 
L 1779 1088 
L 1779 457 
C 1779 224 1766 160 1318 160 
L 1197 160 
L 1197 0 
C 1402 0 1747 0 1965 0 
C 2182 0 2528 0 2733 0 
L 2733 160 
L 2611 160 
C 2163 160 2150 224 2150 457 
L 2150 1088 
L 2803 1088 
L 2803 1254 
L 2150 1254 
L 2150 4122 
z
M 1798 3703 
L 1798 1254 
L 256 1254 
L 1798 3703 
z
" transform="scale(0.015625)"/>
       </defs>
       <use xlink:href="#CMR17-34" transform="scale(0.996264)"/>
       <use xlink:href="#CMR17-30" transform="translate(45.690477 0)scale(0.996264)"/>
      </g>
     </g>
    </g>
    <g id="xtick_4">
     <g id="line2d_4">
      <g>
       <use xlink:href="#md2064081e3" x="215.865378" y="224.28" style="stroke: #000000; stroke-width: 0.8"/>
      </g>
     </g>
     <g id="text_4">
      <!-- $\mathdefault{60}$ -->
      <g transform="translate(210.884043 238.198498)scale(0.1 -0.1)">
       <defs>
        <path id="CMR17-36" d="M 678 2176 
C 678 3690 1395 4032 1811 4032 
C 1946 4032 2272 4009 2400 3776 
C 2298 3776 2106 3776 2106 3553 
C 2106 3381 2246 3323 2336 3323 
C 2394 3323 2566 3348 2566 3560 
C 2566 3954 2246 4179 1805 4179 
C 1043 4179 243 3390 243 1984 
C 243 253 966 -128 1478 -128 
C 2099 -128 2688 427 2688 1283 
C 2688 2081 2170 2662 1517 2662 
C 1126 2662 838 2407 678 1960 
L 678 2176 
z
M 1478 25 
C 691 25 691 1200 691 1436 
C 691 1896 909 2560 1504 2560 
C 1613 2560 1926 2560 2138 2120 
C 2253 1870 2253 1609 2253 1289 
C 2253 944 2253 690 2118 434 
C 1978 171 1773 25 1478 25 
z
" transform="scale(0.015625)"/>
       </defs>
       <use xlink:href="#CMR17-36" transform="scale(0.996264)"/>
       <use xlink:href="#CMR17-30" transform="translate(45.690477 0)scale(0.996264)"/>
      </g>
     </g>
    </g>
    <g id="xtick_5">
     <g id="line2d_5">
      <g>
       <use xlink:href="#md2064081e3" x="253.977529" y="224.28" style="stroke: #000000; stroke-width: 0.8"/>
      </g>
     </g>
     <g id="text_5">
      <!-- $\mathdefault{80}$ -->
      <g transform="translate(248.996194 238.198498)scale(0.1 -0.1)">
       <defs>
        <path id="CMR17-38" d="M 1741 2264 
C 2144 2467 2554 2773 2554 3263 
C 2554 3841 1990 4179 1472 4179 
C 890 4179 378 3759 378 3180 
C 378 3021 416 2747 666 2505 
C 730 2442 998 2251 1171 2130 
C 883 1983 211 1634 211 934 
C 211 279 838 -128 1459 -128 
C 2144 -128 2720 362 2720 1010 
C 2720 1590 2330 1857 2074 2029 
L 1741 2264 
z
M 902 2822 
C 851 2854 595 3051 595 3351 
C 595 3739 998 4032 1459 4032 
C 1965 4032 2336 3676 2336 3262 
C 2336 2669 1670 2331 1638 2331 
C 1632 2331 1626 2331 1574 2370 
L 902 2822 
z
M 2080 1519 
C 2176 1449 2483 1240 2483 851 
C 2483 381 2010 25 1472 25 
C 890 25 448 438 448 940 
C 448 1443 838 1862 1280 2060 
L 2080 1519 
z
" transform="scale(0.015625)"/>
       </defs>
       <use xlink:href="#CMR17-38" transform="scale(0.996264)"/>
       <use xlink:href="#CMR17-30" transform="translate(45.690477 0)scale(0.996264)"/>
      </g>
     </g>
    </g>
    <g id="xtick_6">
     <g id="line2d_6">
      <g>
       <use xlink:href="#md2064081e3" x="292.08968" y="224.28" style="stroke: #000000; stroke-width: 0.8"/>
      </g>
     </g>
     <g id="text_6">
      <!-- $\mathdefault{100}$ -->
      <g transform="translate(284.617677 238.198498)scale(0.1 -0.1)">
       <defs>
        <path id="CMR17-31" d="M 1702 4058 
C 1702 4192 1696 4192 1606 4192 
C 1357 3916 979 3827 621 3827 
C 602 3827 570 3827 563 3808 
C 557 3795 557 3782 557 3648 
C 755 3648 1088 3686 1344 3839 
L 1344 461 
C 1344 236 1331 160 781 160 
L 589 160 
L 589 0 
C 896 0 1216 0 1523 0 
C 1830 0 2150 0 2458 0 
L 2458 160 
L 2266 160 
C 1715 160 1702 230 1702 458 
L 1702 4058 
z
" transform="scale(0.015625)"/>
       </defs>
       <use xlink:href="#CMR17-31" transform="scale(0.996264)"/>
       <use xlink:href="#CMR17-30" transform="translate(45.690477 0)scale(0.996264)"/>
       <use xlink:href="#CMR17-30" transform="translate(91.380954 0)scale(0.996264)"/>
      </g>
     </g>
    </g>
    <g id="xtick_7">
     <g id="line2d_7">
      <g>
       <use xlink:href="#md2064081e3" x="330.20183" y="224.28" style="stroke: #000000; stroke-width: 0.8"/>
      </g>
     </g>
     <g id="text_7">
      <!-- $\mathdefault{120}$ -->
      <g transform="translate(322.729828 238.198498)scale(0.1 -0.1)">
       <use xlink:href="#CMR17-31" transform="scale(0.996264)"/>
       <use xlink:href="#CMR17-32" transform="translate(45.690477 0)scale(0.996264)"/>
       <use xlink:href="#CMR17-30" transform="translate(91.380954 0)scale(0.996264)"/>
      </g>
     </g>
    </g>
    <g id="text_8">
     <!-- Time (sec) -->
     <g transform="translate(194.194669 251.607657)scale(0.1 -0.1)">
      <defs>
       <path id="CMSS17-54" d="M 2317 3968 
L 2848 3968 
C 2925 3968 3002 3968 3078 3968 
L 3878 3968 
L 3878 4376 
L 218 4376 
L 218 3968 
L 1018 3968 
C 1094 3968 1171 3968 1248 3968 
L 1779 3968 
L 1779 -32 
L 2317 -32 
L 2317 3968 
z
" transform="scale(0.015625)"/>
       <path id="CMSS17-69" d="M 979 4183 
L 442 4183 
L 442 3648 
L 979 3648 
L 979 4183 
z
M 947 2739 
L 474 2739 
L 474 0 
L 947 0 
L 947 2739 
z
" transform="scale(0.015625)"/>
       <path id="CMSS17-6d" d="M 4288 1877 
C 4288 2308 4179 2816 3462 2816 
C 2982 2816 2694 2516 2566 2331 
C 2451 2670 2182 2816 1798 2816 
C 1363 2816 1088 2568 941 2389 
L 941 2758 
L 474 2758 
L 474 0 
L 960 0 
L 960 1559 
C 960 1939 1101 2428 1555 2428 
C 2138 2428 2138 2016 2138 1829 
L 2138 0 
L 2624 0 
L 2624 1559 
C 2624 1939 2765 2428 3219 2428 
C 3802 2428 3802 2016 3802 1829 
L 3802 0 
L 4288 0 
L 4288 1877 
z
" transform="scale(0.015625)"/>
       <path id="CMSS17-65" d="M 2502 1377 
C 2502 1590 2490 2003 2285 2345 
C 2061 2713 1696 2816 1421 2816 
C 755 2816 192 2188 192 1375 
C 192 582 774 -64 1510 -64 
C 1798 -64 2150 19 2470 248 
C 2470 274 2458 414 2451 420 
C 2451 433 2432 630 2432 656 
C 2125 407 1773 325 1517 325 
C 1107 325 666 667 646 1377 
L 2502 1377 
z
M 698 1728 
C 781 2084 1062 2421 1421 2421 
C 1517 2421 1965 2421 2080 1728 
L 698 1728 
z
" transform="scale(0.015625)"/>
       <path id="CMSS17-28" d="M 1613 4768 
C 1267 4417 474 3601 474 1588 
C 474 -433 1267 -1243 1613 -1600 
L 2003 -1600 
C 1216 -784 960 357 960 1581 
C 960 2798 1203 3946 2003 4768 
L 1613 4768 
z
" transform="scale(0.015625)"/>
       <path id="CMSS17-73" d="M 2061 2627 
C 1683 2807 1389 2807 1197 2807 
C 742 2807 198 2648 198 2003 
C 198 1359 902 1218 1094 1179 
C 1389 1122 1715 1058 1715 740 
C 1715 337 1254 337 1171 337 
C 915 337 563 407 243 638 
L 166 210 
C 531 0 883 -64 1178 -64 
C 1965 -64 2163 416 2163 781 
C 2163 1094 1984 1305 1862 1401 
C 1651 1568 1574 1587 1050 1696 
C 960 1709 646 1779 646 2066 
C 646 2432 1050 2432 1139 2432 
C 1555 2432 1811 2303 1984 2208 
L 2061 2627 
z
" transform="scale(0.015625)"/>
       <path id="CMSS17-63" d="M 2464 2541 
C 2464 2585 2170 2714 2093 2739 
C 1882 2816 1613 2816 1542 2816 
C 710 2816 211 2093 211 1363 
C 211 595 768 -64 1517 -64 
C 1946 -64 2253 76 2502 242 
L 2464 664 
C 2189 453 1869 337 1523 337 
C 1024 337 698 774 698 1369 
C 698 1831 909 2414 1549 2414 
C 1901 2414 2099 2343 2394 2145 
L 2464 2541 
z
" transform="scale(0.015625)"/>
       <path id="CMSS17-29" d="M 723 -1600 
C 1069 -1249 1862 -433 1862 1581 
C 1862 3601 1069 4411 723 4768 
L 333 4768 
C 1120 3952 1376 2811 1376 1588 
C 1376 370 1133 -778 333 -1600 
L 723 -1600 
z
" transform="scale(0.015625)"/>
      </defs>
      <use xlink:href="#CMSS17-54" transform="scale(0.996264)"/>
      <use xlink:href="#CMSS17-69" transform="translate(63.819454 0)scale(0.996264)"/>
      <use xlink:href="#CMSS17-6d" transform="translate(86.000177 0)scale(0.996264)"/>
      <use xlink:href="#CMSS17-65" transform="translate(160.229431 0)scale(0.996264)"/>
      <use xlink:href="#CMSS17-28" transform="translate(233.097366 0)scale(0.996264)"/>
      <use xlink:href="#CMSS17-73" transform="translate(269.53128 0)scale(0.996264)"/>
      <use xlink:href="#CMSS17-65" transform="translate(305.444822 0)scale(0.996264)"/>
      <use xlink:href="#CMSS17-63" transform="translate(347.083644 0)scale(0.996264)"/>
      <use xlink:href="#CMSS17-29" transform="translate(388.722467 0)scale(0.996264)"/>
     </g>
    </g>
   </g>
   <g id="matplotlib.axis_2">
    <g id="ytick_1">
     <g id="line2d_8">
      <defs>
       <path id="m618c7e139b" d="M 0 0 
L -3.5 0 
" style="stroke: #000000; stroke-width: 0.8"/>
      </defs>
      <g>
       <use xlink:href="#m618c7e139b" x="90" y="211.866769" style="stroke: #000000; stroke-width: 0.8"/>
      </g>
     </g>
     <g id="text_9">
      <!-- $\mathdefault{4000}$ -->
      <g transform="translate(63.074659 215.326018)scale(0.1 -0.1)">
       <use xlink:href="#CMR17-34" transform="scale(0.996264)"/>
       <use xlink:href="#CMR17-30" transform="translate(45.690477 0)scale(0.996264)"/>
       <use xlink:href="#CMR17-30" transform="translate(91.380954 0)scale(0.996264)"/>
       <use xlink:href="#CMR17-30" transform="translate(137.071431 0)scale(0.996264)"/>
      </g>
     </g>
    </g>
    <g id="ytick_2">
     <g id="line2d_9">
      <g>
       <use xlink:href="#m618c7e139b" x="90" y="184.226531" style="stroke: #000000; stroke-width: 0.8"/>
      </g>
     </g>
     <g id="text_10">
      <!-- $\mathdefault{6000}$ -->
      <g transform="translate(63.074659 187.68578)scale(0.1 -0.1)">
       <use xlink:href="#CMR17-36" transform="scale(0.996264)"/>
       <use xlink:href="#CMR17-30" transform="translate(45.690477 0)scale(0.996264)"/>
       <use xlink:href="#CMR17-30" transform="translate(91.380954 0)scale(0.996264)"/>
       <use xlink:href="#CMR17-30" transform="translate(137.071431 0)scale(0.996264)"/>
      </g>
     </g>
    </g>
    <g id="ytick_3">
     <g id="line2d_10">
      <g>
       <use xlink:href="#m618c7e139b" x="90" y="156.586293" style="stroke: #000000; stroke-width: 0.8"/>
      </g>
     </g>
     <g id="text_11">
      <!-- $\mathdefault{8000}$ -->
      <g transform="translate(63.074659 160.045542)scale(0.1 -0.1)">
       <use xlink:href="#CMR17-38" transform="scale(0.996264)"/>
       <use xlink:href="#CMR17-30" transform="translate(45.690477 0)scale(0.996264)"/>
       <use xlink:href="#CMR17-30" transform="translate(91.380954 0)scale(0.996264)"/>
       <use xlink:href="#CMR17-30" transform="translate(137.071431 0)scale(0.996264)"/>
      </g>
     </g>
    </g>
    <g id="ytick_4">
     <g id="line2d_11">
      <g>
       <use xlink:href="#m618c7e139b" x="90" y="128.946055" style="stroke: #000000; stroke-width: 0.8"/>
      </g>
     </g>
     <g id="text_12">
      <!-- $\mathdefault{10000}$ -->
      <g transform="translate(58.093324 132.405304)scale(0.1 -0.1)">
       <use xlink:href="#CMR17-31" transform="scale(0.996264)"/>
       <use xlink:href="#CMR17-30" transform="translate(45.690477 0)scale(0.996264)"/>
       <use xlink:href="#CMR17-30" transform="translate(91.380954 0)scale(0.996264)"/>
       <use xlink:href="#CMR17-30" transform="translate(137.071431 0)scale(0.996264)"/>
       <use xlink:href="#CMR17-30" transform="translate(182.761908 0)scale(0.996264)"/>
      </g>
     </g>
    </g>
    <g id="ytick_5">
     <g id="line2d_12">
      <g>
       <use xlink:href="#m618c7e139b" x="90" y="101.305816" style="stroke: #000000; stroke-width: 0.8"/>
      </g>
     </g>
     <g id="text_13">
      <!-- $\mathdefault{12000}$ -->
      <g transform="translate(58.093324 104.765066)scale(0.1 -0.1)">
       <use xlink:href="#CMR17-31" transform="scale(0.996264)"/>
       <use xlink:href="#CMR17-32" transform="translate(45.690477 0)scale(0.996264)"/>
       <use xlink:href="#CMR17-30" transform="translate(91.380954 0)scale(0.996264)"/>
       <use xlink:href="#CMR17-30" transform="translate(137.071431 0)scale(0.996264)"/>
       <use xlink:href="#CMR17-30" transform="translate(182.761908 0)scale(0.996264)"/>
      </g>
     </g>
    </g>
    <g id="ytick_6">
     <g id="line2d_13">
      <g>
       <use xlink:href="#m618c7e139b" x="90" y="73.665578" style="stroke: #000000; stroke-width: 0.8"/>
      </g>
     </g>
     <g id="text_14">
      <!-- $\mathdefault{14000}$ -->
      <g transform="translate(58.093324 77.124827)scale(0.1 -0.1)">
       <use xlink:href="#CMR17-31" transform="scale(0.996264)"/>
       <use xlink:href="#CMR17-34" transform="translate(45.690477 0)scale(0.996264)"/>
       <use xlink:href="#CMR17-30" transform="translate(91.380954 0)scale(0.996264)"/>
       <use xlink:href="#CMR17-30" transform="translate(137.071431 0)scale(0.996264)"/>
       <use xlink:href="#CMR17-30" transform="translate(182.761908 0)scale(0.996264)"/>
      </g>
     </g>
    </g>
    <g id="ytick_7">
     <g id="line2d_14">
      <g>
       <use xlink:href="#m618c7e139b" x="90" y="46.02534" style="stroke: #000000; stroke-width: 0.8"/>
      </g>
     </g>
     <g id="text_15">
      <!-- $\mathdefault{16000}$ -->
      <g transform="translate(58.093324 49.484589)scale(0.1 -0.1)">
       <use xlink:href="#CMR17-31" transform="scale(0.996264)"/>
       <use xlink:href="#CMR17-36" transform="translate(45.690477 0)scale(0.996264)"/>
       <use xlink:href="#CMR17-30" transform="translate(91.380954 0)scale(0.996264)"/>
       <use xlink:href="#CMR17-30" transform="translate(137.071431 0)scale(0.996264)"/>
       <use xlink:href="#CMR17-30" transform="translate(182.761908 0)scale(0.996264)"/>
      </g>
     </g>
    </g>
    <g id="text_16">
     <!-- tpmC -->
     <g transform="translate(52.156145 138.772401)rotate(-90)scale(0.1 -0.1)">
      <defs>
       <path id="CMSS17-74" d="M 1069 2368 
L 1901 2368 
L 1901 2737 
L 1069 2737 
L 1069 3520 
L 614 3520 
L 614 2737 
L 109 2737 
L 109 2368 
L 602 2368 
L 602 749 
C 602 384 685 -64 1107 -64 
C 1427 -64 1722 25 2003 172 
L 1901 548 
C 1747 414 1562 337 1363 337 
C 1082 337 1069 696 1069 856 
L 1069 2368 
z
" transform="scale(0.015625)"/>
       <path id="CMSS17-70" d="M 966 333 
C 1178 129 1466 -5 1773 -5 
C 2368 -5 2880 603 2880 1412 
C 2880 2159 2496 2816 1946 2816 
C 1626 2816 1242 2702 954 2472 
L 954 2765 
L 480 2765 
L 480 -1216 
L 966 -1216 
L 966 333 
z
M 966 2100 
C 1018 2176 1235 2415 1587 2415 
C 2035 2415 2394 1960 2394 1412 
C 2394 787 1958 384 1530 384 
C 1402 384 1267 415 1139 523 
C 966 674 966 768 966 857 
L 966 2100 
z
" transform="scale(0.015625)"/>
       <path id="CMSS17-43" d="M 3501 714 
C 3072 427 2874 344 2355 344 
C 1459 344 934 1303 934 2179 
C 934 3112 1472 4032 2381 4032 
C 2790 4032 3059 3918 3386 3715 
L 3475 4217 
C 3168 4370 2778 4440 2387 4440 
C 1158 4440 397 3316 397 2179 
C 397 927 1299 -64 2323 -64 
C 2874 -64 3066 -19 3539 280 
L 3501 714 
z
" transform="scale(0.015625)"/>
      </defs>
      <use xlink:href="#CMSS17-74" transform="scale(0.996264)"/>
      <use xlink:href="#CMSS17-70" transform="translate(33.831567 0)scale(0.996264)"/>
      <use xlink:href="#CMSS17-6d" transform="translate(82.03651 0)scale(0.996264)"/>
      <use xlink:href="#CMSS17-43" transform="translate(156.265764 0)scale(0.996264)"/>
     </g>
    </g>
   </g>
   <g id="line2d_15">
    <path d="M 101.528926 164.491401 
L 103.434533 129.747621 
L 105.340141 103.406474 
L 107.245748 87.955581 
L 109.151356 81.006825 
L 111.056963 73.527377 
L 112.962571 55.201899 
L 114.868178 45.748938 
L 116.773786 45.085572 
L 118.679393 43.427158 
L 120.585001 40.994817 
L 122.490609 43.952322 
L 124.396216 41.906945 
L 126.301824 44.505127 
L 128.207431 43.371877 
L 130.113039 43.897042 
L 132.018646 46.218822 
L 133.924254 44.366926 
L 135.829861 46.522864 
L 137.735469 44.256365 
L 139.641076 43.371877 
L 141.546684 45.942419 
L 143.452292 71.205597 
L 145.357899 79.497668 
L 147.263507 76.844206 
L 149.169114 75.793877 
L 151.074722 76.540163 
L 152.980329 74.356584 
L 154.885937 47.490273 
L 156.791544 39.06 
L 158.697152 39.170561 
L 160.602759 40.110329 
L 162.508367 44.477487 
L 164.413974 45.721297 
L 166.319582 44.173444 
L 168.22519 47.628474 
L 170.130797 47.075669 
L 172.036405 52.327314 
L 173.942012 68.331012 
L 175.84762 70.984475 
L 177.753227 75.379273 
L 179.658835 71.841322 
L 181.564442 72.421767 
L 183.47005 70.514591 
L 185.375657 51.940351 
L 187.281265 47.877236 
L 189.186872 46.467584 
L 191.09248 46.799267 
L 192.998088 46.882187 
L 194.903695 47.048029 
L 196.809303 48.982846 
L 198.71491 50.171376 
L 200.620518 51.608668 
L 202.526125 50.475418 
L 204.431733 59.873099 
L 206.33734 61.642075 
L 208.242948 61.448593 
L 210.148555 63.134647 
L 212.054163 63.521611 
L 213.959771 74.660627 
L 215.865378 69.104939 
L 217.770986 69.519542 
L 219.676593 81.930009 
L 221.582201 91.908135 
L 223.487808 93.041385 
L 225.393416 85.744362 
L 227.299023 85.191558 
L 229.204631 82.289332 
L 231.110238 66.506757 
L 233.015846 55.948186 
L 234.921453 53.211802 
L 236.827061 54.289771 
L 238.732669 54.041009 
L 240.638276 53.847527 
L 242.543884 61.14455 
L 244.449491 64.958903 
L 246.355099 69.408982 
L 248.260706 68.607415 
L 250.166314 68.745616 
L 252.071921 69.906506 
L 253.977529 78.613181 
L 255.883136 86.518289 
L 257.788744 86.324807 
L 259.694351 86.60121 
L 261.599959 85.744362 
L 263.505567 85.689082 
L 265.411174 74.135462 
L 267.316782 83.20146 
L 269.222389 93.925873 
L 271.127997 99.536841 
L 273.033604 102.245584 
L 274.939212 100.448969 
L 276.844819 98.624713 
L 278.750427 80.409796 
L 280.656034 77.949815 
L 282.561642 75.489834 
L 284.46725 74.688267 
L 286.372857 76.20848 
L 288.278465 73.91434 
L 290.184072 74.163102 
L 292.08968 66.562037 
L 293.995287 63.46633 
L 295.900895 65.622269 
L 297.806502 79.193626 
L 299.71211 86.711771 
L 301.617717 86.269527 
L 303.523325 84.445271 
L 305.428932 86.352448 
L 307.33454 88.618947 
L 309.240148 86.877612 
L 311.145755 93.234867 
L 313.051363 104.346243 
L 314.95697 115.347057 
L 316.862578 120.515782 
L 318.768185 128.310329 
L 320.673793 131.90356 
L 322.5794 132.014121 
L 324.485008 132.898609 
L 326.390615 138.509577 
L 328.296223 147.299173 
L 330.20183 154.071031 
L 332.107438 166.149815 
" clip-path="url(#pc23d04b9d2)" style="fill: none; stroke: #1f77b4; stroke-width: 1.5; stroke-linecap: square"/>
   </g>
   <g id="line2d_16">
    <path d="M 101.528926 180.412178 
L 103.434533 177.427032 
L 105.340141 191.302432 
L 107.245748 181.946211 
L 109.151356 172.086938 
L 111.056963 165.901053 
L 112.962571 159.847841 
L 114.868178 153.020702 
L 116.773786 153.407665 
L 118.679393 162.05906 
L 120.585001 170.682814 
L 122.490609 170.351131 
L 124.396216 169.494284 
L 126.301824 170.738095 
L 128.207431 157.277299 
L 130.113039 143.5401 
L 132.018646 135.552071 
L 133.924254 137.182846 
L 135.829861 140.05743 
L 137.735469 139.504626 
L 139.641076 139.117662 
L 141.546684 141.605284 
L 143.452292 142.683253 
L 145.357899 142.545052 
L 147.263507 137.763291 
L 149.169114 138.150254 
L 151.074722 136.325998 
L 152.980329 134.805785 
L 154.885937 131.129633 
L 156.791544 128.697292 
L 158.697152 129.333018 
L 160.602759 127.177079 
L 162.508367 127.757524 
L 164.413974 127.23236 
L 166.319582 129.471219 
L 168.22519 128.752573 
L 170.130797 128.255049 
L 172.036405 129.333018 
L 173.942012 129.388298 
L 175.84762 129.63706 
L 177.753227 128.089207 
L 179.658835 129.968743 
L 181.564442 131.95884 
L 183.47005 133.644895 
L 185.375657 135.137468 
L 187.281265 137.486888 
L 189.186872 138.481937 
L 191.09248 137.514528 
L 192.998088 138.84126 
L 194.903695 135.44151 
L 196.809303 134.529383 
L 198.71491 139.725747 
L 200.620518 139.228223 
L 202.526125 138.647778 
L 204.431733 137.127565 
L 206.33734 140.720796 
L 208.242948 140.499674 
L 210.148555 134.335901 
L 212.054163 134.418822 
L 213.959771 134.805785 
L 215.865378 134.639944 
L 217.770986 133.755456 
L 219.676593 134.363541 
L 221.582201 134.695224 
L 223.487808 149.731514 
L 225.393416 150.616001 
L 227.299023 150.920044 
L 229.204631 151.307007 
L 231.110238 150.118477 
L 233.015846 151.417568 
L 234.921453 137.73565 
L 236.827061 141.1354 
L 238.732669 142.434491 
L 240.638276 142.904375 
L 242.543884 144.396948 
L 244.449491 144.64571 
L 246.355099 149.34455 
L 248.260706 148.847026 
L 250.166314 148.211301 
L 252.071921 157.747183 
L 253.977529 160.207164 
L 255.883136 159.488518 
L 257.788744 159.543798 
L 259.694351 160.511207 
L 261.599959 160.151883 
L 263.505567 152.523178 
L 265.411174 151.085885 
L 267.316782 158.60403 
L 269.222389 154.457994 
L 271.127997 156.088768 
L 273.033604 157.995945 
L 274.939212 156.420451 
L 276.844819 160.400646 
L 278.750427 163.468712 
L 280.656034 169.217882 
L 282.561642 167.006662 
L 284.46725 169.162601 
L 286.372857 170.599893 
L 288.278465 169.134961 
L 290.184072 163.966236 
L 292.08968 160.151883 
L 293.995287 165.320608 
L 295.900895 170.903936 
L 297.806502 179.942294 
L 299.71211 187.681561 
L 301.617717 195.227346 
L 303.523325 206.891526 
L 305.428932 210.76116 
L 307.33454 212.889458 
L 309.240148 212.253732 
L 311.145755 213.663385 
L 313.051363 213.718665 
L 314.95697 212.557775 
L 316.862578 213.746305 
L 318.768185 214.437311 
L 320.673793 215.46 
L 322.5794 215.128317 
L 324.485008 212.613055 
L 326.390615 211.866769 
L 328.296223 211.341605 
L 330.20183 211.120483 
" clip-path="url(#pc23d04b9d2)" style="fill: none; stroke: #ff7f0e; stroke-width: 1.5; stroke-linecap: square"/>
   </g>
   <g id="patch_3">
    <path d="M 90 224.28 
L 90 30.24 
" style="fill: none; stroke: #000000; stroke-width: 0.8; stroke-linejoin: miter; stroke-linecap: square"/>
   </g>
   <g id="patch_4">
    <path d="M 343.636364 224.28 
L 343.636364 30.24 
" style="fill: none; stroke: #000000; stroke-width: 0.8; stroke-linejoin: miter; stroke-linecap: square"/>
   </g>
   <g id="patch_5">
    <path d="M 90 224.28 
L 343.636364 224.28 
" style="fill: none; stroke: #000000; stroke-width: 0.8; stroke-linejoin: miter; stroke-linecap: square"/>
   </g>
   <g id="patch_6">
    <path d="M 90 30.24 
L 343.636364 30.24 
" style="fill: none; stroke: #000000; stroke-width: 0.8; stroke-linejoin: miter; stroke-linecap: square"/>
   </g>
   <g id="text_17">
    <!-- Requests (5 sec. rolling window) -->
    <g transform="translate(137.160219 24.24)scale(0.12 -0.12)">
     <defs>
      <path id="CMSS17-52" d="M 2522 2109 
L 2534 2115 
C 3533 2459 3539 3147 3539 3268 
C 3539 3873 2925 4453 2003 4453 
L 570 4453 
L 570 32 
L 1094 32 
L 1094 2048 
L 2035 2048 
L 3168 32 
L 3706 32 
L 2522 2109 
z
M 1094 2437 
L 1094 4096 
L 1933 4096 
C 2746 4096 3034 3637 3034 3267 
C 3034 2922 2778 2437 1933 2437 
L 1094 2437 
z
" transform="scale(0.015625)"/>
      <path id="CMSS17-71" d="M 2611 2816 
L 2138 2816 
L 2138 2428 
C 2112 2460 1818 2816 1318 2816 
C 736 2816 211 2228 211 1399 
C 211 633 653 -5 1229 -5 
C 1498 -5 1837 91 2125 365 
L 2125 -1216 
L 2611 -1216 
L 2611 2816 
z
M 2138 914 
C 2138 832 2138 718 1939 554 
C 1888 510 1747 384 1504 384 
C 1050 384 698 850 698 1399 
C 698 2011 1126 2415 1562 2415 
C 1926 2415 2138 2061 2138 1797 
L 2138 914 
z
" transform="scale(0.015625)"/>
      <path id="CMSS17-75" d="M 2618 2739 
L 2131 2739 
L 2131 972 
C 2131 498 1786 306 1421 306 
C 998 306 960 447 960 709 
L 960 2739 
L 474 2739 
L 474 678 
C 474 179 646 -64 1088 -64 
C 1306 -64 1798 -13 2144 306 
L 2144 0 
L 2618 0 
L 2618 2739 
z
" transform="scale(0.015625)"/>
      <path id="CMSS17-35" d="M 934 3752 
L 2502 3752 
L 2502 4160 
L 467 4160 
L 467 1781 
L 896 1781 
C 1011 2046 1248 2240 1555 2240 
C 1843 2240 2163 1989 2163 1266 
C 2163 493 1709 267 1376 267 
C 966 267 589 512 422 851 
L 218 499 
C 512 49 992 -128 1376 -128 
C 2118 -128 2701 497 2701 1253 
C 2701 2030 2182 2629 1562 2629 
C 1338 2629 1120 2553 934 2399 
L 934 3752 
z
" transform="scale(0.015625)"/>
      <path id="CMSS17-2e" d="M 1088 510 
L 576 510 
L 576 0 
L 1088 0 
L 1088 510 
z
" transform="scale(0.015625)"/>
      <path id="CMSS17-72" d="M 954 1363 
C 954 1965 1395 2368 1958 2368 
L 1958 2789 
C 1549 2789 1165 2585 934 2253 
L 934 2758 
L 480 2758 
L 480 0 
L 954 0 
L 954 1363 
z
" transform="scale(0.015625)"/>
      <path id="CMSS17-6f" d="M 2829 1356 
C 2829 2176 2221 2816 1504 2816 
C 768 2816 173 2157 173 1356 
C 173 544 787 -64 1498 -64 
C 2227 -64 2829 563 2829 1356 
z
M 1504 337 
C 1050 337 659 709 659 1408 
C 659 2151 1114 2427 1498 2427 
C 1914 2427 2342 2126 2342 1408 
C 2342 683 1926 337 1504 337 
z
" transform="scale(0.015625)"/>
      <path id="CMSS17-6c" d="M 947 4416 
L 474 4416 
L 474 0 
L 947 0 
L 947 4416 
z
" transform="scale(0.015625)"/>
      <path id="CMSS17-6e" d="M 2618 1877 
C 2618 2283 2522 2816 1798 2816 
C 1389 2816 1120 2606 941 2389 
L 941 2758 
L 474 2758 
L 474 0 
L 960 0 
L 960 1559 
C 960 1964 1114 2428 1549 2428 
C 2112 2428 2131 2048 2131 1829 
L 2131 0 
L 2618 0 
L 2618 1877 
z
" transform="scale(0.015625)"/>
      <path id="CMSS17-67" d="M 2848 2808 
C 2483 2808 2170 2738 1914 2617 
C 1702 2777 1485 2808 1338 2808 
C 781 2808 358 2349 358 1814 
C 358 1468 550 1207 563 1195 
C 448 1035 384 863 384 672 
C 384 448 474 289 544 200 
C 211 -3 166 -314 166 -435 
C 166 -898 749 -1280 1498 -1280 
C 2253 -1280 2835 -898 2835 -428 
C 2835 448 1856 448 1587 448 
L 1069 448 
C 973 448 717 448 717 791 
C 717 921 774 1004 781 1010 
C 877 940 1075 832 1338 832 
C 1869 832 2310 1278 2310 1827 
C 2310 2132 2170 2355 2112 2432 
L 2131 2432 
C 2150 2432 2419 2432 2515 2432 
C 2720 2432 2739 2429 2918 2419 
L 2848 2808 
z
M 1338 1182 
C 1120 1182 813 1315 813 1823 
C 813 2375 1165 2464 1331 2464 
C 1549 2464 1856 2331 1856 1823 
C 1856 1271 1504 1182 1338 1182 
z
M 1581 -10 
C 1734 -10 2381 -10 2381 -442 
C 2381 -714 1984 -929 1504 -929 
C 1018 -929 621 -720 621 -435 
C 621 -403 621 -10 1062 -10 
L 1581 -10 
z
" transform="scale(0.015625)"/>
      <path id="CMSS17-77" d="M 4013 2752 
L 3526 2752 
L 3187 1601 
C 3117 1358 2918 685 2893 371 
L 2886 371 
C 2874 564 2765 1024 2586 1633 
L 2259 2752 
L 1818 2752 
L 1498 1658 
C 1338 1101 1216 627 1203 371 
L 1197 371 
C 1171 749 909 1633 870 1773 
L 582 2752 
L 83 2752 
L 915 0 
L 1402 0 
C 1734 1096 1990 1943 2010 2370 
C 2022 2160 2131 1707 2195 1484 
L 2618 0 
L 3181 0 
L 4013 2752 
z
" transform="scale(0.015625)"/>
      <path id="CMSS17-64" d="M 2611 4416 
L 2138 4416 
L 2138 2438 
C 1939 2603 1613 2756 1254 2756 
C 672 2756 211 2131 211 1347 
C 211 562 666 -64 1235 -64 
C 1677 -64 1971 172 2125 306 
L 2125 -13 
L 2611 -13 
L 2611 4416 
z
M 2125 836 
C 2125 747 2125 653 1926 482 
C 1798 375 1645 325 1498 325 
C 1152 325 698 576 698 1340 
C 698 2134 1210 2368 1562 2368 
C 1798 2368 1990 2254 2125 2065 
L 2125 836 
z
" transform="scale(0.015625)"/>
     </defs>
     <use xlink:href="#CMSS17-52" transform="scale(0.996264)"/>
     <use xlink:href="#CMSS17-65" transform="translate(60.416155 0)scale(0.996264)"/>
     <use xlink:href="#CMSS17-71" transform="translate(102.054977 0)scale(0.996264)"/>
     <use xlink:href="#CMSS17-75" transform="translate(150.25992 0)scale(0.996264)"/>
     <use xlink:href="#CMSS17-65" transform="translate(198.464863 0)scale(0.996264)"/>
     <use xlink:href="#CMSS17-73" transform="translate(240.103685 0)scale(0.996264)"/>
     <use xlink:href="#CMSS17-74" transform="translate(276.017227 0)scale(0.996264)"/>
     <use xlink:href="#CMSS17-73" transform="translate(309.848794 0)scale(0.996264)"/>
     <use xlink:href="#CMSS17-28" transform="translate(376.991449 0)scale(0.996264)"/>
     <use xlink:href="#CMSS17-35" transform="translate(413.425363 0)scale(0.996264)"/>
     <use xlink:href="#CMSS17-73" transform="translate(491.498099 0)scale(0.996264)"/>
     <use xlink:href="#CMSS17-65" transform="translate(527.411641 0)scale(0.996264)"/>
     <use xlink:href="#CMSS17-63" transform="translate(569.050463 0)scale(0.996264)"/>
     <use xlink:href="#CMSS17-2e" transform="translate(610.689285 0)scale(0.996264)"/>
     <use xlink:href="#CMSS17-72" transform="translate(678.352297 0)scale(0.996264)"/>
     <use xlink:href="#CMSS17-6f" transform="translate(710.26207 0)scale(0.996264)"/>
     <use xlink:href="#CMSS17-6c" transform="translate(757.105693 0)scale(0.996264)"/>
     <use xlink:href="#CMSS17-6c" transform="translate(779.286416 0)scale(0.996264)"/>
     <use xlink:href="#CMSS17-69" transform="translate(801.467139 0)scale(0.996264)"/>
     <use xlink:href="#CMSS17-6e" transform="translate(823.647862 0)scale(0.996264)"/>
     <use xlink:href="#CMSS17-67" transform="translate(871.852805 0)scale(0.996264)"/>
     <use xlink:href="#CMSS17-77" transform="translate(949.925542 0)scale(0.996264)"/>
     <use xlink:href="#CMSS17-69" transform="translate(1013.745087 0)scale(0.996264)"/>
     <use xlink:href="#CMSS17-6e" transform="translate(1035.92581 0)scale(0.996264)"/>
     <use xlink:href="#CMSS17-64" transform="translate(1084.130753 0)scale(0.996264)"/>
     <use xlink:href="#CMSS17-6f" transform="translate(1132.335696 0)scale(0.996264)"/>
     <use xlink:href="#CMSS17-77" transform="translate(1176.576866 0)scale(0.996264)"/>
     <use xlink:href="#CMSS17-29" transform="translate(1240.396411 0)scale(0.996264)"/>
    </g>
   </g>
   <g id="legend_1">
    <g id="patch_7">
     <path d="M 188.434035 219.28 
L 245.202329 219.28 
Q 247.202329 219.28 247.202329 217.28 
L 247.202329 190.405643 
Q 247.202329 188.405643 245.202329 188.405643 
L 188.434035 188.405643 
Q 186.434035 188.405643 186.434035 190.405643 
L 186.434035 217.28 
Q 186.434035 219.28 188.434035 219.28 
z
" style="fill: #ffffff; opacity: 0.8; stroke: #cccccc; stroke-linejoin: miter"/>
    </g>
    <g id="line2d_17">
     <path d="M 190.434035 195.905643 
L 200.434035 195.905643 
L 210.434035 195.905643 
" style="fill: none; stroke: #1f77b4; stroke-width: 1.5; stroke-linecap: square"/>
    </g>
    <g id="text_18">
     <!-- LSD -->
     <g transform="translate(218.434035 199.405643)scale(0.1 -0.1)">
      <defs>
       <path id="CMSS17-4c" d="M 1670 414 
C 1594 414 1517 414 1440 414 
L 1101 414 
L 1101 4416 
L 563 4416 
L 563 0 
L 3002 0 
L 3002 414 
L 1670 414 
z
" transform="scale(0.015625)"/>
       <path id="CMSS17-53" d="M 2797 4169 
C 2515 4334 2208 4480 1690 4480 
C 864 4480 333 3879 333 3266 
C 333 3025 403 2753 653 2475 
C 902 2196 1184 2121 1542 2033 
C 1690 1994 1939 1924 1984 1906 
C 2342 1767 2515 1444 2515 1140 
C 2515 742 2202 318 1645 318 
C 1453 318 890 318 358 819 
L 269 318 
C 794 -64 1363 -128 1651 -128 
C 2438 -128 3002 488 3002 1186 
C 3002 1440 2925 1763 2656 2061 
C 2394 2347 2163 2410 1638 2549 
C 1338 2626 1146 2677 986 2873 
C 877 3013 819 3146 819 3317 
C 819 3673 1126 4060 1690 4060 
C 1971 4060 2336 4002 2707 3660 
L 2797 4169 
z
" transform="scale(0.015625)"/>
       <path id="CMSS17-44" d="M 570 4416 
L 570 0 
L 2144 0 
C 3194 0 4000 980 4000 2170 
C 4000 3398 3194 4416 2144 4416 
L 570 4416 
z
M 1094 357 
L 1094 4059 
L 2003 4059 
C 2861 4059 3475 3277 3475 2170 
C 3475 1107 2867 357 2003 357 
L 1094 357 
z
" transform="scale(0.015625)"/>
      </defs>
      <use xlink:href="#CMSS17-4c" transform="scale(0.996264)"/>
      <use xlink:href="#CMSS17-53" transform="translate(50.687105 0)scale(0.996264)"/>
      <use xlink:href="#CMSS17-44" transform="translate(102.735622 0)scale(0.996264)"/>
     </g>
    </g>
    <g id="line2d_18">
     <path d="M 190.434035 209.842822 
L 200.434035 209.842822 
L 210.434035 209.842822 
" style="fill: none; stroke: #ff7f0e; stroke-width: 1.5; stroke-linecap: square"/>
    </g>
    <g id="text_19">
     <!-- BASE -->
     <g transform="translate(218.434035 213.342822)scale(0.1 -0.1)">
      <defs>
       <path id="CMSS17-42" d="M 570 4416 
L 570 0 
L 2163 0 
C 3034 0 3667 574 3667 1200 
C 3667 1685 3251 2176 2502 2317 
C 3334 2558 3501 3040 3501 3313 
C 3501 3883 2874 4416 1997 4416 
L 570 4416 
z
M 1088 2496 
L 1088 4059 
L 1824 4059 
C 2483 4059 3002 3724 3002 3306 
C 3002 2926 2592 2496 1766 2496 
L 1088 2496 
z
M 1088 357 
L 1088 2107 
L 1939 2107 
C 2630 2107 3162 1679 3162 1206 
C 3162 772 2694 357 1984 357 
L 1088 357 
z
" transform="scale(0.015625)"/>
       <path id="CMSS17-41" d="M 2272 4416 
L 1722 4416 
L 166 0 
L 653 0 
L 1101 1280 
L 2816 1280 
L 3270 0 
L 3827 0 
L 2272 4416 
z
M 2694 1637 
L 1222 1637 
C 1530 2528 1914 3638 1958 3925 
L 1965 3925 
C 2010 3663 2138 3281 2246 2956 
L 2694 1637 
z
" transform="scale(0.015625)"/>
       <path id="CMSS17-45" d="M 1958 433 
C 1446 433 1216 433 1101 433 
L 1101 2107 
L 3085 2107 
L 3085 2496 
L 1101 2496 
L 1101 4009 
L 1926 4009 
C 2003 4009 2080 4009 2157 4009 
L 3251 4009 
L 3251 4416 
L 563 4416 
L 563 0 
L 3334 0 
L 3334 433 
L 1958 433 
z
" transform="scale(0.015625)"/>
      </defs>
      <use xlink:href="#CMSS17-42" transform="scale(0.996264)"/>
      <use xlink:href="#CMSS17-41" transform="translate(62.33804 0)scale(0.996264)"/>
      <use xlink:href="#CMSS17-53" transform="translate(124.555895 0)scale(0.996264)"/>
      <use xlink:href="#CMSS17-45" transform="translate(176.604411 0)scale(0.996264)"/>
     </g>
    </g>
   </g>
  </g>
  <g id="axes_2">
   <g id="patch_8">
    <path d="M 394.363636 224.28 
L 648 224.28 
L 648 30.24 
L 394.363636 30.24 
z
" style="fill: #ffffff"/>
   </g>
   <g id="matplotlib.axis_3">
    <g id="xtick_8">
     <g id="line2d_19">
      <g>
       <use xlink:href="#md2064081e3" x="405.892562" y="224.28" style="stroke: #000000; stroke-width: 0.8"/>
      </g>
     </g>
     <g id="text_20">
      <!-- $\mathdefault{0}$ -->
      <g transform="translate(403.401894 238.198498)scale(0.1 -0.1)">
       <use xlink:href="#CMR17-30" transform="scale(0.996264)"/>
      </g>
     </g>
    </g>
    <g id="xtick_9">
     <g id="line2d_20">
      <g>
       <use xlink:href="#md2064081e3" x="444.004713" y="224.28" style="stroke: #000000; stroke-width: 0.8"/>
      </g>
     </g>
     <g id="text_21">
      <!-- $\mathdefault{20}$ -->
      <g transform="translate(439.023378 238.198498)scale(0.1 -0.1)">
       <use xlink:href="#CMR17-32" transform="scale(0.996264)"/>
       <use xlink:href="#CMR17-30" transform="translate(45.690477 0)scale(0.996264)"/>
      </g>
     </g>
    </g>
    <g id="xtick_10">
     <g id="line2d_21">
      <g>
       <use xlink:href="#md2064081e3" x="482.116864" y="224.28" style="stroke: #000000; stroke-width: 0.8"/>
      </g>
     </g>
     <g id="text_22">
      <!-- $\mathdefault{40}$ -->
      <g transform="translate(477.135528 238.198498)scale(0.1 -0.1)">
       <use xlink:href="#CMR17-34" transform="scale(0.996264)"/>
       <use xlink:href="#CMR17-30" transform="translate(45.690477 0)scale(0.996264)"/>
      </g>
     </g>
    </g>
    <g id="xtick_11">
     <g id="line2d_22">
      <g>
       <use xlink:href="#md2064081e3" x="520.229014" y="224.28" style="stroke: #000000; stroke-width: 0.8"/>
      </g>
     </g>
     <g id="text_23">
      <!-- $\mathdefault{60}$ -->
      <g transform="translate(515.247679 238.198498)scale(0.1 -0.1)">
       <use xlink:href="#CMR17-36" transform="scale(0.996264)"/>
       <use xlink:href="#CMR17-30" transform="translate(45.690477 0)scale(0.996264)"/>
      </g>
     </g>
    </g>
    <g id="xtick_12">
     <g id="line2d_23">
      <g>
       <use xlink:href="#md2064081e3" x="558.341165" y="224.28" style="stroke: #000000; stroke-width: 0.8"/>
      </g>
     </g>
     <g id="text_24">
      <!-- $\mathdefault{80}$ -->
      <g transform="translate(553.35983 238.198498)scale(0.1 -0.1)">
       <use xlink:href="#CMR17-38" transform="scale(0.996264)"/>
       <use xlink:href="#CMR17-30" transform="translate(45.690477 0)scale(0.996264)"/>
      </g>
     </g>
    </g>
    <g id="xtick_13">
     <g id="line2d_24">
      <g>
       <use xlink:href="#md2064081e3" x="596.453316" y="224.28" style="stroke: #000000; stroke-width: 0.8"/>
      </g>
     </g>
     <g id="text_25">
      <!-- $\mathdefault{100}$ -->
      <g transform="translate(588.981313 238.198498)scale(0.1 -0.1)">
       <use xlink:href="#CMR17-31" transform="scale(0.996264)"/>
       <use xlink:href="#CMR17-30" transform="translate(45.690477 0)scale(0.996264)"/>
       <use xlink:href="#CMR17-30" transform="translate(91.380954 0)scale(0.996264)"/>
      </g>
     </g>
    </g>
    <g id="xtick_14">
     <g id="line2d_25">
      <g>
       <use xlink:href="#md2064081e3" x="634.565467" y="224.28" style="stroke: #000000; stroke-width: 0.8"/>
      </g>
     </g>
     <g id="text_26">
      <!-- $\mathdefault{120}$ -->
      <g transform="translate(627.093464 238.198498)scale(0.1 -0.1)">
       <use xlink:href="#CMR17-31" transform="scale(0.996264)"/>
       <use xlink:href="#CMR17-32" transform="translate(45.690477 0)scale(0.996264)"/>
       <use xlink:href="#CMR17-30" transform="translate(91.380954 0)scale(0.996264)"/>
      </g>
     </g>
    </g>
    <g id="text_27">
     <!-- Time (sec) -->
     <g transform="translate(498.558305 251.607657)scale(0.1 -0.1)">
      <use xlink:href="#CMSS17-54" transform="scale(0.996264)"/>
      <use xlink:href="#CMSS17-69" transform="translate(63.819454 0)scale(0.996264)"/>
      <use xlink:href="#CMSS17-6d" transform="translate(86.000177 0)scale(0.996264)"/>
      <use xlink:href="#CMSS17-65" transform="translate(160.229431 0)scale(0.996264)"/>
      <use xlink:href="#CMSS17-28" transform="translate(233.097366 0)scale(0.996264)"/>
      <use xlink:href="#CMSS17-73" transform="translate(269.53128 0)scale(0.996264)"/>
      <use xlink:href="#CMSS17-65" transform="translate(305.444822 0)scale(0.996264)"/>
      <use xlink:href="#CMSS17-63" transform="translate(347.083644 0)scale(0.996264)"/>
      <use xlink:href="#CMSS17-29" transform="translate(388.722467 0)scale(0.996264)"/>
     </g>
    </g>
   </g>
   <g id="matplotlib.axis_4">
    <g id="ytick_8">
     <g id="line2d_26">
      <g>
       <use xlink:href="#m618c7e139b" x="394.363636" y="205.786168" style="stroke: #000000; stroke-width: 0.8"/>
      </g>
     </g>
     <g id="text_28">
      <!-- $\mathdefault{100}$ -->
      <g transform="translate(372.419631 209.245418)scale(0.1 -0.1)">
       <use xlink:href="#CMR17-31" transform="scale(0.996264)"/>
       <use xlink:href="#CMR17-30" transform="translate(45.690477 0)scale(0.996264)"/>
       <use xlink:href="#CMR17-30" transform="translate(91.380954 0)scale(0.996264)"/>
      </g>
     </g>
    </g>
    <g id="ytick_9">
     <g id="line2d_27">
      <g>
       <use xlink:href="#m618c7e139b" x="394.363636" y="182.274928" style="stroke: #000000; stroke-width: 0.8"/>
      </g>
     </g>
     <g id="text_29">
      <!-- $\mathdefault{200}$ -->
      <g transform="translate(372.419631 185.734177)scale(0.1 -0.1)">
       <use xlink:href="#CMR17-32" transform="scale(0.996264)"/>
       <use xlink:href="#CMR17-30" transform="translate(45.690477 0)scale(0.996264)"/>
       <use xlink:href="#CMR17-30" transform="translate(91.380954 0)scale(0.996264)"/>
      </g>
     </g>
    </g>
    <g id="ytick_10">
     <g id="line2d_28">
      <g>
       <use xlink:href="#m618c7e139b" x="394.363636" y="158.763687" style="stroke: #000000; stroke-width: 0.8"/>
      </g>
     </g>
     <g id="text_30">
      <!-- $\mathdefault{300}$ -->
      <g transform="translate(372.419631 162.222936)scale(0.1 -0.1)">
       <defs>
        <path id="CMR17-33" d="M 1414 2157 
C 1984 2157 2234 1662 2234 1090 
C 2234 320 1824 25 1453 25 
C 1114 25 563 194 390 693 
C 422 680 454 680 486 680 
C 640 680 755 782 755 948 
C 755 1133 614 1216 486 1216 
C 378 1216 211 1165 211 926 
C 211 335 787 -128 1466 -128 
C 2176 -128 2720 430 2720 1085 
C 2720 1707 2208 2157 1600 2227 
C 2086 2328 2554 2756 2554 3329 
C 2554 3820 2048 4179 1472 4179 
C 890 4179 378 3829 378 3329 
C 378 3110 544 3072 627 3072 
C 762 3072 877 3155 877 3321 
C 877 3486 762 3569 627 3569 
C 602 3569 570 3569 544 3557 
C 730 3959 1235 4032 1459 4032 
C 1683 4032 2106 3925 2106 3320 
C 2106 3143 2080 2828 1862 2550 
C 1670 2304 1453 2304 1242 2284 
C 1210 2284 1062 2269 1037 2269 
C 992 2263 966 2257 966 2208 
C 966 2163 973 2157 1101 2157 
L 1414 2157 
z
" transform="scale(0.015625)"/>
       </defs>
       <use xlink:href="#CMR17-33" transform="scale(0.996264)"/>
       <use xlink:href="#CMR17-30" transform="translate(45.690477 0)scale(0.996264)"/>
       <use xlink:href="#CMR17-30" transform="translate(91.380954 0)scale(0.996264)"/>
      </g>
     </g>
    </g>
    <g id="ytick_11">
     <g id="line2d_29">
      <g>
       <use xlink:href="#m618c7e139b" x="394.363636" y="135.252446" style="stroke: #000000; stroke-width: 0.8"/>
      </g>
     </g>
     <g id="text_31">
      <!-- $\mathdefault{400}$ -->
      <g transform="translate(372.419631 138.711696)scale(0.1 -0.1)">
       <use xlink:href="#CMR17-34" transform="scale(0.996264)"/>
       <use xlink:href="#CMR17-30" transform="translate(45.690477 0)scale(0.996264)"/>
       <use xlink:href="#CMR17-30" transform="translate(91.380954 0)scale(0.996264)"/>
      </g>
     </g>
    </g>
    <g id="ytick_12">
     <g id="line2d_30">
      <g>
       <use xlink:href="#m618c7e139b" x="394.363636" y="111.741206" style="stroke: #000000; stroke-width: 0.8"/>
      </g>
     </g>
     <g id="text_32">
      <!-- $\mathdefault{500}$ -->
      <g transform="translate(372.419631 115.200455)scale(0.1 -0.1)">
       <defs>
        <path id="CMR17-35" d="M 730 3692 
C 794 3666 1056 3584 1325 3584 
C 1920 3584 2246 3911 2432 4100 
C 2432 4157 2432 4192 2394 4192 
C 2387 4192 2374 4192 2323 4163 
C 2099 4058 1837 3973 1517 3973 
C 1325 3973 1037 3999 723 4139 
C 653 4171 640 4171 634 4171 
C 602 4171 595 4164 595 4037 
L 595 2203 
C 595 2089 595 2057 659 2057 
C 691 2057 704 2070 736 2114 
C 941 2401 1222 2522 1542 2522 
C 1766 2522 2246 2382 2246 1289 
C 2246 1085 2246 715 2054 421 
C 1894 159 1645 25 1370 25 
C 947 25 518 320 403 814 
C 429 807 480 795 506 795 
C 589 795 749 840 749 1038 
C 749 1210 627 1280 506 1280 
C 358 1280 262 1190 262 1011 
C 262 454 704 -128 1382 -128 
C 2042 -128 2669 440 2669 1264 
C 2669 2030 2170 2624 1549 2624 
C 1222 2624 947 2503 730 2274 
L 730 3692 
z
" transform="scale(0.015625)"/>
       </defs>
       <use xlink:href="#CMR17-35" transform="scale(0.996264)"/>
       <use xlink:href="#CMR17-30" transform="translate(45.690477 0)scale(0.996264)"/>
       <use xlink:href="#CMR17-30" transform="translate(91.380954 0)scale(0.996264)"/>
      </g>
     </g>
    </g>
    <g id="ytick_13">
     <g id="line2d_31">
      <g>
       <use xlink:href="#m618c7e139b" x="394.363636" y="88.229965" style="stroke: #000000; stroke-width: 0.8"/>
      </g>
     </g>
     <g id="text_33">
      <!-- $\mathdefault{600}$ -->
      <g transform="translate(372.419631 91.689214)scale(0.1 -0.1)">
       <use xlink:href="#CMR17-36" transform="scale(0.996264)"/>
       <use xlink:href="#CMR17-30" transform="translate(45.690477 0)scale(0.996264)"/>
       <use xlink:href="#CMR17-30" transform="translate(91.380954 0)scale(0.996264)"/>
      </g>
     </g>
    </g>
    <g id="ytick_14">
     <g id="line2d_32">
      <g>
       <use xlink:href="#m618c7e139b" x="394.363636" y="64.718724" style="stroke: #000000; stroke-width: 0.8"/>
      </g>
     </g>
     <g id="text_34">
      <!-- $\mathdefault{700}$ -->
      <g transform="translate(372.419631 68.177974)scale(0.1 -0.1)">
       <defs>
        <path id="CMR17-37" d="M 2886 3941 
L 2886 4081 
L 1382 4081 
C 634 4081 621 4165 595 4288 
L 480 4288 
L 294 3094 
L 410 3094 
C 429 3215 474 3540 550 3661 
C 589 3712 1062 3712 1171 3712 
L 2579 3712 
L 1869 2661 
C 1395 1954 1069 999 1069 165 
C 1069 89 1069 -128 1299 -128 
C 1530 -128 1530 89 1530 171 
L 1530 465 
C 1530 1508 1709 2196 2003 2636 
L 2886 3941 
z
" transform="scale(0.015625)"/>
       </defs>
       <use xlink:href="#CMR17-37" transform="scale(0.996264)"/>
       <use xlink:href="#CMR17-30" transform="translate(45.690477 0)scale(0.996264)"/>
       <use xlink:href="#CMR17-30" transform="translate(91.380954 0)scale(0.996264)"/>
      </g>
     </g>
    </g>
    <g id="ytick_15">
     <g id="line2d_33">
      <g>
       <use xlink:href="#m618c7e139b" x="394.363636" y="41.207484" style="stroke: #000000; stroke-width: 0.8"/>
      </g>
     </g>
     <g id="text_35">
      <!-- $\mathdefault{800}$ -->
      <g transform="translate(372.419631 44.666733)scale(0.1 -0.1)">
       <use xlink:href="#CMR17-38" transform="scale(0.996264)"/>
       <use xlink:href="#CMR17-30" transform="translate(45.690477 0)scale(0.996264)"/>
       <use xlink:href="#CMR17-30" transform="translate(91.380954 0)scale(0.996264)"/>
      </g>
     </g>
    </g>
    <g id="text_36">
     <!-- Latency (ms) -->
     <g transform="translate(365.928971 154.851022)rotate(-90)scale(0.1 -0.1)">
      <defs>
       <path id="CMSS17-61" d="M 2406 1791 
C 2406 2392 1978 2808 1402 2808 
C 1120 2808 813 2757 461 2553 
L 499 2135 
C 659 2248 934 2432 1395 2432 
C 1722 2432 1920 2180 1920 1782 
L 1920 1536 
C 896 1536 256 1238 256 726 
C 256 461 416 -64 947 -64 
C 1043 -64 1562 -64 1933 217 
L 1933 -19 
L 2406 -19 
L 2406 1791 
z
M 1920 816 
C 1920 701 1920 548 1728 434 
C 1562 325 1350 325 1261 325 
C 941 325 723 511 723 744 
C 723 1211 1722 1211 1920 1211 
L 1920 816 
z
" transform="scale(0.015625)"/>
       <path id="CMSS17-79" d="M 2675 2752 
L 2176 2752 
C 1632 1294 1446 702 1434 383 
L 1427 383 
C 1408 696 1126 1460 902 2007 
L 602 2752 
L 83 2752 
L 1216 13 
C 1146 -178 1043 -465 1011 -529 
C 870 -885 774 -885 672 -885 
C 646 -885 442 -885 211 -809 
L 250 -1229 
C 410 -1261 570 -1280 685 -1280 
C 845 -1280 1165 -1280 1459 -497 
L 2675 2752 
z
" transform="scale(0.015625)"/>
      </defs>
      <use xlink:href="#CMSS17-4c" transform="scale(0.996264)"/>
      <use xlink:href="#CMSS17-61" transform="translate(50.687105 0)scale(0.996264)"/>
      <use xlink:href="#CMSS17-74" transform="translate(95.609026 0)scale(0.996264)"/>
      <use xlink:href="#CMSS17-65" transform="translate(129.440593 0)scale(0.996264)"/>
      <use xlink:href="#CMSS17-6e" transform="translate(171.079415 0)scale(0.996264)"/>
      <use xlink:href="#CMSS17-63" transform="translate(219.284358 0)scale(0.996264)"/>
      <use xlink:href="#CMSS17-79" transform="translate(260.92318 0)scale(0.996264)"/>
      <use xlink:href="#CMSS17-28" transform="translate(335.152434 0)scale(0.996264)"/>
      <use xlink:href="#CMSS17-6d" transform="translate(371.586349 0)scale(0.996264)"/>
      <use xlink:href="#CMSS17-73" transform="translate(445.815603 0)scale(0.996264)"/>
      <use xlink:href="#CMSS17-29" transform="translate(481.729145 0)scale(0.996264)"/>
     </g>
    </g>
   </g>
   <g id="line2d_34">
    <path d="M 405.892562 209.751461 
L 407.79817 215.46 
L 409.703777 209.725618 
L 411.609385 211.66774 
L 413.514992 211.444713 
L 415.4206 211.588244 
L 417.326207 211.611798 
L 419.231815 211.609343 
L 421.137422 211.601897 
L 423.04303 211.604013 
L 424.948637 213.53347 
L 426.854245 211.869382 
L 428.759852 213.378785 
L 430.66546 211.523367 
L 432.571068 213.439406 
L 434.476675 213.369136 
L 436.382283 211.836843 
L 438.28789 213.433902 
L 440.193498 209.771112 
L 442.099105 211.745664 
L 444.004713 211.736464 
L 445.91032 211.562147 
L 447.815928 209.620419 
L 449.721535 203.718985 
L 451.627143 205.734453 
L 453.53275 205.789963 
L 455.438358 205.683706 
L 457.343966 206.71214 
L 459.249573 207.740498 
L 461.155181 211.61599 
L 463.060788 211.606943 
L 464.966396 211.606703 
L 466.872003 211.550125 
L 468.777611 211.518961 
L 470.683218 209.639411 
L 472.588826 207.432287 
L 474.494433 207.642745 
L 476.400041 205.652133 
L 478.305649 205.766344 
L 480.211256 203.766882 
L 482.116864 203.751007 
L 484.022471 207.623678 
L 485.928079 207.623036 
L 487.833686 207.715985 
L 489.739294 209.481865 
L 491.644901 209.619413 
L 493.550509 208.025172 
L 495.456116 207.981566 
L 497.361724 207.951469 
L 499.267331 209.647998 
L 501.172939 209.562713 
L 503.078547 209.604697 
L 504.984154 209.542881 
L 506.889762 209.554334 
L 508.795369 203.834251 
L 510.700977 203.757327 
L 512.606584 202.797309 
L 514.512192 201.886218 
L 516.417799 201.812026 
L 518.323407 199.665026 
L 520.229014 199.736538 
L 522.134622 199.829821 
L 524.040229 197.87205 
L 525.945837 184.154553 
L 527.851445 184.151863 
L 529.757052 205.735469 
L 531.66266 207.629558 
L 533.568267 201.862241 
L 535.473875 207.694162 
L 537.379482 207.658792 
L 539.28509 205.861259 
L 541.190697 205.690243 
L 543.096305 205.65482 
L 545.001912 207.464579 
L 546.90752 206.035688 
L 548.813128 205.655126 
L 550.718735 203.6566 
L 552.624343 203.623322 
L 554.52995 201.114212 
L 556.435558 200.759512 
L 558.341165 199.99709 
L 560.246773 199.705992 
L 562.15238 199.847337 
L 564.057988 199.850064 
L 565.963595 203.692046 
L 567.869203 203.654037 
L 569.77481 203.748538 
L 571.680418 203.020005 
L 573.586026 191.436995 
L 575.491633 190.70978 
L 577.397241 190.352403 
L 579.302848 190.35828 
L 581.208456 190.365418 
L 583.114063 195.544449 
L 585.019671 195.536227 
L 586.925278 195.695353 
L 588.830886 201.853288 
L 590.736493 201.83782 
L 592.642101 202.988025 
L 594.547708 203.336415 
L 596.453316 203.55829 
L 598.358924 203.862244 
L 600.264531 205.434205 
L 602.170139 199.891503 
L 604.075746 193.934679 
L 605.981354 193.93513 
L 607.886961 193.937987 
L 609.792569 193.935045 
L 611.698176 193.931133 
L 613.603784 196.120291 
L 615.509391 195.441653 
L 617.414999 193.858763 
L 619.320607 191.952251 
L 621.226214 191.931408 
L 623.131822 191.893367 
L 625.037429 191.899696 
L 626.943037 193.83816 
L 628.848644 195.852744 
L 630.754252 191.933414 
L 632.659859 181.388378 
L 634.565467 180.724032 
L 636.471074 180.473913 
" clip-path="url(#p1ed83abdb5)" style="fill: none; stroke: #1f77b4; stroke-width: 1.5; stroke-linecap: square"/>
   </g>
   <g id="line2d_35">
    <path d="M 405.892562 199.80678 
L 407.79817 201.886688 
L 409.703777 174.964942 
L 411.609385 39.06 
L 413.514992 67.107431 
L 415.4206 109.226387 
L 417.326207 120.778456 
L 419.231815 188.457218 
L 421.137422 170.628381 
L 423.04303 170.147505 
L 424.948637 168.277837 
L 426.854245 168.292384 
L 428.759852 168.301567 
L 430.66546 168.275246 
L 432.571068 174.020531 
L 434.476675 181.078335 
L 436.382283 195.807669 
L 438.28789 195.765099 
L 440.193498 189.724401 
L 442.099105 191.161932 
L 444.004713 191.694151 
L 445.91032 195.74618 
L 447.815928 191.965744 
L 449.721535 181.252337 
L 451.627143 194.123606 
L 453.53275 190.284248 
L 455.438358 190.828759 
L 457.343966 191.886892 
L 459.249573 192.321516 
L 461.155181 201.630632 
L 463.060788 201.573554 
L 464.966396 203.640725 
L 466.872003 203.55205 
L 468.777611 203.729116 
L 470.683218 202.351834 
L 472.588826 202.448983 
L 474.494433 203.47806 
L 476.400041 203.343198 
L 478.305649 203.677361 
L 480.211256 203.681856 
L 482.116864 205.50756 
L 484.022471 203.789189 
L 485.928079 201.699468 
L 487.833686 198.099135 
L 489.739294 193.972299 
L 491.644901 193.916307 
L 493.550509 191.990031 
L 495.456116 191.991265 
L 497.361724 189.829127 
L 499.267331 189.995163 
L 501.172939 191.941546 
L 503.078547 183.885713 
L 504.984154 183.905054 
L 506.889762 183.927617 
L 508.795369 190.009192 
L 510.700977 186.060237 
L 512.606584 186.060237 
L 514.512192 197.686292 
L 516.417799 197.685424 
L 518.323407 197.680398 
L 520.229014 198.028303 
L 522.134622 198.82208 
L 524.040229 197.931893 
L 525.945837 199.540106 
L 527.851445 186.898477 
L 529.757052 186.301028 
L 531.66266 185.993437 
L 533.568267 187.771832 
L 535.473875 187.782457 
L 537.379482 173.363683 
L 539.28509 188.2327 
L 541.190697 181.933164 
L 543.096305 180.101022 
L 545.001912 180.097886 
L 546.90752 180.073382 
L 548.813128 182.27169 
L 550.718735 179.867207 
L 552.624343 181.968663 
L 554.52995 184.368467 
L 556.435558 178.113509 
L 558.341165 175.732511 
L 560.246773 175.95062 
L 562.15238 176.021916 
L 564.057988 160.624491 
L 565.963595 160.628434 
L 567.869203 176.213264 
L 569.77481 182.278802 
L 571.680418 176.190792 
L 573.586026 166.441678 
L 575.491633 175.725282 
L 577.397241 174.407408 
L 579.302848 174.488275 
L 581.208456 170.235531 
L 583.114063 162.378658 
L 585.019671 167.709963 
L 586.925278 167.799743 
L 588.830886 167.712282 
L 590.736493 167.56938 
L 592.642101 172.623916 
L 594.547708 176.142811 
L 596.453316 176.334084 
L 598.358924 176.16955 
L 600.264531 169.26227 
L 602.170139 162.359896 
L 604.075746 156.717471 
L 605.981354 152.453376 
L 607.886961 148.927774 
L 609.792569 148.323883 
L 611.698176 148.424389 
L 613.603784 148.439043 
L 615.509391 148.842117 
L 617.414999 150.012408 
L 619.320607 148.896259 
L 621.226214 158.353343 
L 623.131822 158.218997 
L 625.037429 154.324283 
L 626.943037 153.503284 
L 628.848644 154.125634 
L 630.754252 158.216978 
L 632.659859 158.22148 
L 634.565467 160.330044 
" clip-path="url(#p1ed83abdb5)" style="fill: none; stroke: #ff7f0e; stroke-width: 1.5; stroke-linecap: square"/>
   </g>
   <g id="patch_9">
    <path d="M 394.363636 224.28 
L 394.363636 30.24 
" style="fill: none; stroke: #000000; stroke-width: 0.8; stroke-linejoin: miter; stroke-linecap: square"/>
   </g>
   <g id="patch_10">
    <path d="M 648 224.28 
L 648 30.24 
" style="fill: none; stroke: #000000; stroke-width: 0.8; stroke-linejoin: miter; stroke-linecap: square"/>
   </g>
   <g id="patch_11">
    <path d="M 394.363636 224.28 
L 648 224.28 
" style="fill: none; stroke: #000000; stroke-width: 0.8; stroke-linejoin: miter; stroke-linecap: square"/>
   </g>
   <g id="patch_12">
    <path d="M 394.363636 30.24 
L 648 30.24 
" style="fill: none; stroke: #000000; stroke-width: 0.8; stroke-linejoin: miter; stroke-linecap: square"/>
   </g>
   <g id="text_37">
    <!-- P99th Latency (5 sec. rolling window) -->
    <g transform="translate(427.497459 24.24)scale(0.12 -0.12)">
     <defs>
      <path id="CMSS17-50" d="M 2106 1856 
C 2874 1856 3501 2453 3501 3158 
C 3501 3850 2899 4453 2067 4453 
L 570 4453 
L 570 0 
L 1107 0 
L 1107 1856 
L 2106 1856 
z
M 1926 4096 
C 2669 4096 2995 3627 2995 3157 
C 2995 2720 2694 2226 1926 2226 
L 1094 2226 
L 1094 4096 
L 1926 4096 
z
" transform="scale(0.015625)"/>
      <path id="CMSS17-39" d="M 435 174 
C 614 21 845 -128 1235 -128 
C 2010 -128 2752 721 2752 2095 
C 2752 3932 1952 4229 1523 4229 
C 1094 4229 819 4041 582 3741 
C 301 3397 250 3090 250 2733 
C 250 2307 326 2045 506 1745 
C 749 1357 973 1275 1222 1275 
C 1600 1275 1978 1459 2234 1776 
C 2189 902 1798 267 1235 267 
C 1005 267 819 339 634 516 
L 435 174 
z
M 2214 2746 
C 2221 2703 2221 2622 2221 2596 
C 2221 2074 1914 1664 1466 1664 
C 1171 1664 1018 1813 902 2006 
C 762 2249 755 2485 755 2733 
C 755 2976 755 3244 934 3511 
C 1069 3703 1235 3840 1523 3840 
C 2112 3840 2208 3000 2214 2746 
z
" transform="scale(0.015625)"/>
      <path id="CMSS17-68" d="M 2618 1891 
C 2618 2292 2522 2820 1798 2820 
C 1395 2820 1133 2623 947 2407 
L 947 4448 
L 474 4448 
L 474 32 
L 960 32 
L 960 1573 
C 960 1973 1114 2432 1549 2432 
C 2112 2432 2131 2056 2131 1839 
L 2131 32 
L 2618 32 
L 2618 1891 
z
" transform="scale(0.015625)"/>
     </defs>
     <use xlink:href="#CMSS17-50" transform="scale(0.996264)"/>
     <use xlink:href="#CMSS17-39" transform="translate(59.735586 0)scale(0.996264)"/>
     <use xlink:href="#CMSS17-39" transform="translate(106.57921 0)scale(0.996264)"/>
     <use xlink:href="#CMSS17-74" transform="translate(153.422833 0)scale(0.996264)"/>
     <use xlink:href="#CMSS17-68" transform="translate(187.2544 0)scale(0.996264)"/>
     <use xlink:href="#CMSS17-4c" transform="translate(266.688456 0)scale(0.996264)"/>
     <use xlink:href="#CMSS17-61" transform="translate(317.375561 0)scale(0.996264)"/>
     <use xlink:href="#CMSS17-74" transform="translate(362.297482 0)scale(0.996264)"/>
     <use xlink:href="#CMSS17-65" transform="translate(396.129049 0)scale(0.996264)"/>
     <use xlink:href="#CMSS17-6e" transform="translate(437.767871 0)scale(0.996264)"/>
     <use xlink:href="#CMSS17-63" transform="translate(485.972814 0)scale(0.996264)"/>
     <use xlink:href="#CMSS17-79" transform="translate(527.611636 0)scale(0.996264)"/>
     <use xlink:href="#CMSS17-28" transform="translate(601.84089 0)scale(0.996264)"/>
     <use xlink:href="#CMSS17-35" transform="translate(638.274804 0)scale(0.996264)"/>
     <use xlink:href="#CMSS17-73" transform="translate(716.347541 0)scale(0.996264)"/>
     <use xlink:href="#CMSS17-65" transform="translate(752.261083 0)scale(0.996264)"/>
     <use xlink:href="#CMSS17-63" transform="translate(793.899905 0)scale(0.996264)"/>
     <use xlink:href="#CMSS17-2e" transform="translate(835.538727 0)scale(0.996264)"/>
     <use xlink:href="#CMSS17-72" transform="translate(903.201739 0)scale(0.996264)"/>
     <use xlink:href="#CMSS17-6f" transform="translate(935.111511 0)scale(0.996264)"/>
     <use xlink:href="#CMSS17-6c" transform="translate(981.955135 0)scale(0.996264)"/>
     <use xlink:href="#CMSS17-6c" transform="translate(1004.135858 0)scale(0.996264)"/>
     <use xlink:href="#CMSS17-69" transform="translate(1026.316581 0)scale(0.996264)"/>
     <use xlink:href="#CMSS17-6e" transform="translate(1048.497304 0)scale(0.996264)"/>
     <use xlink:href="#CMSS17-67" transform="translate(1096.702247 0)scale(0.996264)"/>
     <use xlink:href="#CMSS17-77" transform="translate(1174.774983 0)scale(0.996264)"/>
     <use xlink:href="#CMSS17-69" transform="translate(1238.594528 0)scale(0.996264)"/>
     <use xlink:href="#CMSS17-6e" transform="translate(1260.775251 0)scale(0.996264)"/>
     <use xlink:href="#CMSS17-64" transform="translate(1308.980195 0)scale(0.996264)"/>
     <use xlink:href="#CMSS17-6f" transform="translate(1357.185138 0)scale(0.996264)"/>
     <use xlink:href="#CMSS17-77" transform="translate(1401.426307 0)scale(0.996264)"/>
     <use xlink:href="#CMSS17-29" transform="translate(1465.245852 0)scale(0.996264)"/>
    </g>
   </g>
   <g id="legend_2">
    <g id="patch_13">
     <path d="M 584.231706 66.114357 
L 641 66.114357 
Q 643 66.114357 643 64.114357 
L 643 37.24 
Q 643 35.24 641 35.24 
L 584.231706 35.24 
Q 582.231706 35.24 582.231706 37.24 
L 582.231706 64.114357 
Q 582.231706 66.114357 584.231706 66.114357 
z
" style="fill: #ffffff; opacity: 0.8; stroke: #cccccc; stroke-linejoin: miter"/>
    </g>
    <g id="line2d_36">
     <path d="M 586.231706 42.74 
L 596.231706 42.74 
L 606.231706 42.74 
" style="fill: none; stroke: #1f77b4; stroke-width: 1.5; stroke-linecap: square"/>
    </g>
    <g id="text_38">
     <!-- LSD -->
     <g transform="translate(614.231706 46.24)scale(0.1 -0.1)">
      <use xlink:href="#CMSS17-4c" transform="scale(0.996264)"/>
      <use xlink:href="#CMSS17-53" transform="translate(50.687105 0)scale(0.996264)"/>
      <use xlink:href="#CMSS17-44" transform="translate(102.735622 0)scale(0.996264)"/>
     </g>
    </g>
    <g id="line2d_37">
     <path d="M 586.231706 56.677178 
L 596.231706 56.677178 
L 606.231706 56.677178 
" style="fill: none; stroke: #ff7f0e; stroke-width: 1.5; stroke-linecap: square"/>
    </g>
    <g id="text_39">
     <!-- BASE -->
     <g transform="translate(614.231706 60.177178)scale(0.1 -0.1)">
      <use xlink:href="#CMSS17-42" transform="scale(0.996264)"/>
      <use xlink:href="#CMSS17-41" transform="translate(62.33804 0)scale(0.996264)"/>
      <use xlink:href="#CMSS17-53" transform="translate(124.555895 0)scale(0.996264)"/>
      <use xlink:href="#CMSS17-45" transform="translate(176.604411 0)scale(0.996264)"/>
     </g>
    </g>
   </g>
  </g>
 </g>
 <defs>
  <clipPath id="pc23d04b9d2">
   <rect x="90" y="30.24" width="253.636364" height="194.04"/>
  </clipPath>
  <clipPath id="p1ed83abdb5">
   <rect x="394.363636" y="30.24" width="253.636364" height="194.04"/>
  </clipPath>
 </defs>
</svg>
